<?xml version="1.0" encoding="UTF-8" standalone="no"?>
<!DOCTYPE svg PUBLIC "-//W3C//DTD SVG 1.1//EN" "http://www.w3.org/Graphics/SVG/1.1/DTD/svg11.dtd">
<svg width="100%" height="100%" viewBox="0 0 210 210" version="1.1" xmlns="http://www.w3.org/2000/svg" xmlns:xlink="http://www.w3.org/1999/xlink" xml:space="preserve" xmlns:serif="http://www.serif.com/" style="fill-rule:evenodd;clip-rule:evenodd;stroke-linecap:square;stroke-miterlimit:1;">
    <g transform="matrix(1,0,0,1,1.21422,4.29855)">
        <path d="M26.201,71.764L38.941,71.8" style="fill:none;stroke:rgb(166,166,166);stroke-width:7px;"/>
    </g>
    <g transform="matrix(1,0,0,1,3,4)">
        <path d="M100.593,151.502L101.525,151.502" style="fill:none;stroke:rgb(166,166,166);stroke-width:7px;"/>
    </g>
    <g transform="matrix(1,0,0,1,2.9067,4)">
        <path d="M24.508,45.241L25.302,45.241" style="fill:none;stroke:rgb(166,166,166);stroke-width:7px;"/>
    </g>
    <g transform="matrix(1,0,0,1,2.67444,80.0773)">
        <path d="M24.508,45.241L25.302,45.241" style="fill:none;stroke:rgb(166,166,166);stroke-width:7px;"/>
    </g>
    <g transform="matrix(1,0,0,1,15.9423,80.0773)">
        <path d="M24.508,45.241L25.302,45.241" style="fill:none;stroke:rgb(166,166,166);stroke-width:7px;"/>
    </g>
    <g transform="matrix(1,0,0,1,29.6303,80.0773)">
        <path d="M24.508,45.241L25.302,45.241" style="fill:none;stroke:rgb(166,166,166);stroke-width:7px;"/>
    </g>
    <g transform="matrix(1,0,0,1,128.896,80.0773)">
        <path d="M24.508,45.241L25.302,45.241" style="fill:none;stroke:rgb(166,166,166);stroke-width:7px;"/>
    </g>
    <g transform="matrix(1,0,0,1,142.164,80.0773)">
        <path d="M24.508,45.241L25.302,45.241" style="fill:none;stroke:rgb(166,166,166);stroke-width:7px;"/>
    </g>
    <g transform="matrix(1,0,0,1,155.272,79.8953)">
        <path d="M24.508,45.241L25.302,45.241" style="fill:none;stroke:rgb(166,166,166);stroke-width:7px;"/>
    </g>
    <g transform="matrix(1,0,0,1,2,4)">
        <path d="M25.415,58.398L49.054,58.571" style="fill:none;stroke:rgb(166,166,166);stroke-width:7px;"/>
    </g>
    <g transform="matrix(1,0,0,1,4.01978,4)">
        <path d="M37.774,45.487L47.034,45.524" style="fill:none;stroke:rgb(166,166,166);stroke-width:7px;"/>
    </g>
    <g transform="matrix(-1,0,0,1,206.352,4.1464)">
        <path d="M26.201,71.764L38.941,71.8" style="fill:none;stroke:rgb(166,166,166);stroke-width:7px;"/>
    </g>
    <g transform="matrix(-1,0,0,1,204.66,3.84785)">
        <path d="M24.508,45.241L25.302,45.241" style="fill:none;stroke:rgb(166,166,166);stroke-width:7px;"/>
    </g>
    <g transform="matrix(-1,0,0,1,205.566,3.84785)">
        <path d="M25.415,58.398L49.054,58.571" style="fill:none;stroke:rgb(166,166,166);stroke-width:7px;"/>
    </g>
    <g transform="matrix(-1,0,0,1,203.547,3.84785)">
        <path d="M37.774,45.487L47.034,45.524" style="fill:none;stroke:rgb(166,166,166);stroke-width:7px;"/>
    </g>
    <g transform="matrix(1,0,0,1,0,4)">
        <path d="M73.648,64.943L73.736,87.34" style="fill:none;stroke:rgb(166,166,166);stroke-width:7px;"/>
    </g>
    <g transform="matrix(1,0,0,1,0,4)">
        <path d="M55.378,95.321L72.741,88.789" style="fill:none;stroke:rgb(166,166,166);stroke-width:7px;"/>
    </g>
    <g transform="matrix(-1,0,0,1,207.359,2.22378)">
        <path d="M73.648,64.943L73.736,87.34" style="fill:none;stroke:rgb(166,166,166);stroke-width:7px;"/>
    </g>
    <g transform="matrix(-0.981104,-0.020169,-0.0321168,0.997731,208.549,3.53607)">
        <path d="M54.378,94.316L72.474,88.751" style="fill:none;stroke:rgb(166,166,166);stroke-width:7.03px;"/>
    </g>
    <g transform="matrix(1,0,0,1,0,4)">
        <path d="M96.415,78.707L96.853,98.824" style="fill:none;stroke:rgb(166,166,166);stroke-width:7px;"/>
    </g>
    <g transform="matrix(1,0,0,1,0,4)">
        <path d="M89.034,108.837L95.493,102.332" style="fill:none;stroke:rgb(166,166,166);stroke-width:7px;"/>
    </g>
    <g transform="matrix(1,0,0,1,0,4)">
        <path d="M110.23,78.298L110.64,92.855" style="fill:none;stroke:rgb(166,166,166);stroke-width:7px;"/>
    </g>
    <g transform="matrix(1,0,0,1,0,4)">
        <path d="M119.068,100.995L112.136,95.865" style="fill:none;stroke:rgb(166,166,166);stroke-width:7px;"/>
    </g>
    <g transform="matrix(0.246329,0,0,0.243028,17.0685,87.8334)">
        <ellipse cx="103.471" cy="39.842" rx="36.537" ry="37.033" style="fill:none;stroke:rgb(166,166,166);stroke-width:40.87px;stroke-linecap:round;stroke-linejoin:round;"/>
        <ellipse cx="103.471" cy="39.842" rx="36.537" ry="37.033" style="fill:rgb(217,209,209);"/>
    </g>
    <g transform="matrix(0.246329,0,0,0.243028,53.3642,108.011)">
        <ellipse cx="103.471" cy="39.842" rx="36.537" ry="37.033" style="fill:none;stroke:rgb(166,166,166);stroke-width:40.87px;stroke-linecap:round;stroke-linejoin:round;"/>
        <ellipse cx="103.471" cy="39.842" rx="36.537" ry="37.033" style="fill:rgb(217,209,209);"/>
    </g>
    <g transform="matrix(0.246329,0,0,0.243028,100.464,101.885)">
        <ellipse cx="103.471" cy="39.842" rx="36.537" ry="37.033" style="fill:none;stroke:rgb(166,166,166);stroke-width:40.87px;stroke-linecap:round;stroke-linejoin:round;"/>
        <ellipse cx="103.471" cy="39.842" rx="36.537" ry="37.033" style="fill:rgb(217,209,209);"/>
    </g>
    <g transform="matrix(0.246329,0,0,0.243028,137.247,88.0929)">
        <ellipse cx="103.471" cy="39.842" rx="36.537" ry="37.033" style="fill:none;stroke:rgb(166,166,166);stroke-width:40.87px;"/>
        <ellipse cx="103.471" cy="39.842" rx="36.537" ry="37.033" style="fill:rgb(217,209,209);"/>
    </g>
    <g transform="matrix(1,0,0,1,0,5)">
        <path d="M12.36,137.662L194.385,137.088" style="fill:none;stroke:rgb(166,166,166);stroke-width:7px;"/>
    </g>
    <g transform="matrix(-1,0,0,1,208.184,4.45526)">
        <path d="M83.844,167.19L77.653,183.601" style="fill:none;stroke:rgb(141,141,141);stroke-width:7px;"/>
    </g>
    <g transform="matrix(1,0,0,1,-0.518148,3.38475)">
        <path d="M83.844,167.19L77.653,183.601" style="fill:none;stroke:rgb(141,141,141);stroke-width:7px;"/>
    </g>
    <g transform="matrix(0.950742,0,0,0.493704,7.97289,100.39)">
        <path d="M174.732,185.482C174.732,183.101 173.728,181.168 172.492,181.168L30.298,181.168C29.062,181.168 28.058,183.101 28.058,185.482L28.058,194.109C28.058,196.49 29.062,198.423 30.298,198.423L172.492,198.423C173.728,198.423 174.732,196.49 174.732,194.109L174.732,185.482Z" style="fill:none;stroke:rgb(141,141,141);stroke-width:7.92px;stroke-linecap:round;stroke-linejoin:round;"/>
        <path d="M174.732,185.482C174.732,183.101 173.728,181.168 172.492,181.168L30.298,181.168C29.062,181.168 28.058,183.101 28.058,185.482L28.058,194.109C28.058,196.49 29.062,198.423 30.298,198.423L172.492,198.423C173.728,198.423 174.732,196.49 174.732,194.109L174.732,185.482Z" style="fill:rgb(217,209,209);"/>
    </g>
    <g transform="matrix(1,0,0,1,2.9106,4.56765)">
        <rect x="8.054" y="25.743" width="186.817" height="139.007" style="fill:none;stroke:rgb(141,141,141);stroke-width:10px;stroke-linecap:round;stroke-linejoin:round;"/>
    </g>
    <g transform="matrix(1,0,0,1,2.9106,4.56765)">
        <rect x="8.054" y="25.743" width="186.817" height="139.007" style="fill:none;stroke:rgb(217,209,209);stroke-width:6px;stroke-linecap:round;stroke-linejoin:round;"/>
    </g>
    <g transform="matrix(0.998999,0,0,0.985614,0.0356045,4.77768)">
        <ellipse cx="103.471" cy="39.842" rx="36.537" ry="37.033" style="fill:none;stroke:rgb(166,166,166);stroke-width:12.09px;stroke-linecap:round;stroke-linejoin:round;"/>
        <ellipse cx="103.471" cy="39.842" rx="36.537" ry="37.033" style="fill:rgb(0,191,255);"/>
    </g>
    <g transform="matrix(0.603496,0,0,0.592355,41.3653,20.6068)">
        <ellipse cx="103.195" cy="42.126" rx="9.114" ry="9.285" style="fill:none;stroke:rgb(166,166,166);stroke-width:16.72px;"/>
        <ellipse cx="103.195" cy="42.126" rx="9.114" ry="9.285" style="fill:rgb(217,209,209);"/>
    </g>
    <g transform="matrix(1.21599,0,0,1.3293,12.7746,-73.7409)">
        <path d="M77.366,72.303C75.55,72.06 73.705,72.06 71.889,72.303L70.997,75.098C69.271,75.465 67.623,76.09 66.12,76.948L63.331,75.549C61.858,76.552 60.554,77.747 59.458,79.095L60.986,81.648C60.048,83.025 59.366,84.533 58.966,86.114L55.912,86.93C55.647,88.593 55.647,90.282 55.912,91.944L58.966,92.761C59.366,94.341 60.048,95.85 60.986,97.226L59.458,99.78C60.554,101.127 61.858,102.322 63.331,103.325L66.12,101.926C67.623,102.785 69.271,103.41 70.997,103.776L71.889,106.571C73.705,106.814 75.55,106.814 77.366,106.571L78.258,103.776C79.984,103.41 81.632,102.785 83.136,101.926L85.925,103.325C87.397,102.322 88.702,101.127 89.798,99.78L88.27,97.226C89.207,95.85 89.89,94.341 90.29,92.761L93.343,91.944C93.609,90.282 93.609,88.593 93.343,86.93L90.29,86.114C89.89,84.533 89.207,83.025 88.27,81.648L89.798,79.095C88.702,77.747 87.397,76.552 85.925,75.549L83.136,76.948C81.632,76.09 79.984,75.465 78.258,75.098L77.366,72.303ZM74.628,75.584C82.979,75.584 89.759,81.791 89.759,89.437C89.759,97.083 82.979,103.29 74.628,103.29C66.276,103.29 59.496,97.083 59.496,89.437C59.496,81.791 66.276,75.584 74.628,75.584Z" style="fill:none;stroke:rgb(166,166,166);stroke-width:4.32px;"/>
    </g>
</svg>
