<?xml version="1.0" encoding="UTF-8" standalone="no"?>
<!DOCTYPE svg PUBLIC "-//W3C//DTD SVG 1.1//EN" "http://www.w3.org/Graphics/SVG/1.1/DTD/svg11.dtd">
<svg width="100%" height="100%" viewBox="0 0 800 300" version="1.1" xmlns="http://www.w3.org/2000/svg" xmlns:xlink="http://www.w3.org/1999/xlink" xml:space="preserve" xmlns:serif="http://www.serif.com/" style="fill-rule:evenodd;clip-rule:evenodd;stroke-linecap:round;stroke-linejoin:round;stroke-miterlimit:1.5;">
    <g transform="matrix(0.826133,0,0,0.826133,68.3581,14.5646)">
        <g transform="matrix(0.453997,0,0,0.447063,227.245,19.0878)">
            <path d="M211.537,247.916L514.057,247.263C553.03,243.113 579.206,230.558 578.302,164.989C571.099,111.682 543.281,88.696 495.391,89.781C475.713,37.977 438.907,14.266 389.462,11.286C342.263,14.297 314.236,36.552 297.245,69.884C280.027,70.048 265.366,71.396 256.716,78.039C241.966,85.146 234.272,96.302 228.108,107.585C173.899,107.424 148.858,135.232 151.989,190.223C156.094,223.13 172.865,242.579 211.537,247.916Z" style="fill:rgb(217,209,209);stroke:rgb(166,166,166);stroke-width:5.37px;"/>
        </g>
        <g transform="matrix(0.457509,0,0,0.495767,197.155,-9.26406)">
            <path d="M539.305,206.452C538.382,221.914 537.07,237.756 553.638,236.133C569.1,237.542 567.758,221.551 567.245,206.417" style="fill:none;stroke:rgb(0,191,255);stroke-width:7.61px;"/>
        </g>
        <g transform="matrix(0.457509,0,0,0.495767,197.155,-9.26406)">
            <path d="M526.686,184.921L526.611,237.425" style="fill:none;stroke:rgb(0,191,255);stroke-width:7.61px;"/>
        </g>
        <g transform="matrix(0.467555,0,0,0.543475,193.49,-20.2067)">
            <ellipse cx="333.916" cy="222.267" rx="14.678" ry="13.683" style="fill:none;stroke:rgb(0,191,255);stroke-width:7.16px;"/>
        </g>
        <g transform="matrix(0.457509,0,0,0.495767,197.155,-9.26406)">
            <path d="M350.538,238.659L348.238,221.584" style="fill:none;stroke:rgb(0,191,255);stroke-width:7.61px;"/>
        </g>
        <g transform="matrix(0.467555,0,0,0.543475,212.555,-20.5442)">
            <ellipse cx="333.916" cy="222.267" rx="14.678" ry="13.683" style="fill:none;stroke:rgb(0,191,255);stroke-width:7.16px;"/>
        </g>
        <g transform="matrix(0.457509,0,0,0.495767,216.22,-9.60158)">
            <path d="M350.538,238.659L348.238,221.584" style="fill:none;stroke:rgb(0,191,255);stroke-width:7.61px;"/>
        </g>
        <g transform="matrix(0.457509,0,0,0.495767,197.155,-9.26406)">
            <path d="M304.879,185.92L267.217,185.573C258.837,187.076 255.246,192.393 255.094,200.449C255.941,206.092 258.725,211.214 266.739,211.214L295.566,211.202C303.864,213.456 307.554,217.997 306.638,224.823C305.432,231.04 302.516,234.876 297.805,236.217L255.611,236.038" style="fill:none;stroke:rgb(0,191,255);stroke-width:7.61px;"/>
        </g>
        <g transform="matrix(0.457509,0,0,0.495767,264.536,-9.11801)">
            <path d="M304.879,185.92L267.217,185.573C258.837,187.076 255.246,192.393 255.094,200.449C255.941,206.092 258.725,211.214 266.739,211.214L295.566,211.202C303.864,213.456 307.554,217.997 306.638,224.823C305.432,231.04 302.516,234.876 297.805,236.217L255.611,236.038" style="fill:none;stroke:rgb(0,191,255);stroke-width:7.61px;"/>
        </g>
        <g transform="matrix(0.457509,0,0,0.495767,197.155,-9.26406)">
            <path d="M508.821,194.66C503.338,188.658 496.5,185.874 488.579,185.663C473.695,187.242 465.924,195.963 465.265,211.823C464.943,227.228 473.555,235.372 490.398,236.826C505.533,236.321 513.391,226.712 514.195,211.76L489.464,211.049" style="fill:none;stroke:rgb(0,191,255);stroke-width:7.61px;"/>
        </g>
        <g transform="matrix(0.457509,0,0,0.495767,197.155,-9.26406)">
            <path d="M584.345,221.076L608.989,220.984C606.987,211.659 601.614,207.3 593.821,206.509C584.925,207.465 580.489,212.64 579.973,221.52C581.267,230.856 585.485,235.289 591.959,235.939L609.353,235.815" style="fill:none;stroke:rgb(0,191,255);stroke-width:7.61px;"/>
        </g>
    </g>
    <g transform="matrix(0.459184,0,0,0.459184,-150.786,90.1739)">
        <g transform="matrix(0.992473,0,0,1.04917,2.83273,-11.4199)">
            <ellipse cx="484.343" cy="177.295" rx="49.372" ry="46.704" style="fill:rgb(217,209,209);"/>
        </g>
        <path d="M485.455,221.754L495.069,190.289C502.378,189.738 510.487,191.121 519.625,194.989C522.572,198.254 523.365,201.204 521.365,203.748C512.21,217.59 500.263,223.653 485.455,221.754Z" style="fill:rgb(227,232,233);"/>
        <path d="M481.851,222.825L472.907,192.458C467.52,191.879 461.166,194.311 454.408,198C452.624,201.259 451.462,205.07 451.05,209.548C454.065,217.781 465.734,221.522 481.851,222.825Z" style="fill:rgb(227,232,233);"/>
        <g transform="matrix(0.992473,0,0,1.04917,2.83273,-11.4199)">
            <ellipse cx="484.343" cy="177.295" rx="49.372" ry="46.704" style="fill:none;stroke:rgb(166,166,166);stroke-width:2.13px;"/>
        </g>
        <g transform="matrix(1.03719,0,0,1.10128,-17.6007,-18.3004)">
            <path d="M473.296,180.686L471.431,183.295L449.512,191.319L445.637,200.998" style="fill:none;stroke:rgb(166,166,166);stroke-width:2.04px;"/>
        </g>
        <g transform="matrix(-1.04339,0,0,1.06471,988.589,-11.6923)">
            <path d="M473.296,180.686L471.431,183.295L449.512,191.319L445.637,200.998" style="fill:none;stroke:rgb(166,166,166);stroke-width:2.07px;"/>
        </g>
        <g transform="matrix(1,0,0,1.03411,0,-6.24141)">
            <path d="M471.648,183.64L481.499,221.5L484.984,221.34L496.027,182.97" style="fill:none;stroke:rgb(166,166,166);stroke-width:2.14px;"/>
        </g>
        <g transform="matrix(1.18738,0,0,1.04107,-92.1248,-7.25404)">
            <path d="M485.336,136.813C496.889,137.652 499.126,147.415 498.906,159.337C498.69,171.075 495.15,183.223 484.806,183.179C473.948,183.133 470.938,172.995 470.707,159.337C470.479,145.953 474.699,136.041 485.336,136.813Z" style="fill:rgb(217,209,209);stroke:rgb(166,166,166);stroke-width:1.95px;"/>
        </g>
        <g transform="matrix(1.17141,0,0,1.41553,43.8266,-42.5747)">
            <path d="M374.957,161L377.124,163.819L374.957,166.639L372.79,163.819L374.957,161Z" style="fill:rgb(217,209,209);stroke:rgb(166,166,166);stroke-width:1.68px;"/>
        </g>
        <g transform="matrix(0.814104,0,0,1,180.471,14.6482)">
            <path d="M371.968,178.421L378.424,193.334L371.968,208.247L365.513,193.334L371.968,178.421Z" style="fill:rgb(217,209,209);stroke:rgb(166,166,166);stroke-width:2.39px;"/>
        </g>
        <g transform="matrix(1.02848,0,0,1.02358,-14.2272,-3.40532)">
            <path d="M476.109,178.276C476.843,181.497 480.472,181.48 484.253,181.654C489.478,181.393 493.348,178.579 495.983,173.442C499.691,165.921 500.359,157.52 498.662,148.433C493.193,144.663 487.538,143.307 481.612,145.481C478.59,145.888 476.125,148.689 474.17,153.668L473.794,167.903C473.414,173.743 473.746,177.617 476.109,178.276Z" style="fill:rgb(227,232,233);"/>
        </g>
        <g transform="matrix(0.169609,0,0,0.188381,451.36,163.904)">
            <path d="M304.879,185.92L267.217,185.573C258.837,187.076 255.246,192.393 255.094,200.449C255.941,206.092 258.725,211.214 266.739,211.214L295.566,211.202C303.864,213.456 307.554,217.997 306.638,224.823C305.432,231.04 302.516,234.876 297.805,236.217L255.611,236.038" style="fill:none;stroke:rgb(166,166,166);stroke-width:12.15px;"/>
        </g>
        <g transform="matrix(0.169609,0,0,0.188381,427.383,163.914)">
            <path d="M508.821,194.66C503.338,188.658 496.5,185.874 488.579,185.663C473.695,187.242 465.924,195.963 465.265,211.823C464.943,227.228 473.555,235.372 490.398,236.826C505.533,236.321 513.391,226.712 514.195,211.76L489.464,211.049" style="fill:none;stroke:rgb(166,166,166);stroke-width:12.15px;"/>
        </g>
        <g transform="matrix(1,0,0,1,123.662,24.007)">
            <path d="M358.507,134.141C358.543,134.312 358.562,134.487 358.562,134.664C358.562,136.987 355.353,138.874 351.4,138.874C347.447,138.874 344.238,136.987 344.238,134.664C344.238,134.487 344.257,134.312 344.293,134.141L358.507,134.141Z" style="fill:rgb(166,166,166);"/>
        </g>
        <g transform="matrix(1.07303,0,0,1,97.1537,24.007)">
            <path d="M375.236,134.002C375.294,134.217 375.324,134.439 375.324,134.664C375.324,136.987 372.115,138.874 368.162,138.874C364.209,138.874 361,136.987 361,134.664C361,134.439 361.03,134.217 361.088,134.002L375.236,134.002Z" style="fill:rgb(166,166,166);"/>
        </g>
        <g transform="matrix(1.04741,0,0,1.05942,106.66,17.5169)">
            <rect x="343.543" y="130.341" width="32.066" height="2.885" style="fill:rgb(166,166,166);"/>
        </g>
    </g>
    <g transform="matrix(0.459184,0,0,0.459184,-7.81298,89.9787)">
        <g transform="matrix(0.992473,0,0,1.04917,2.83273,-11.4199)">
            <ellipse cx="484.343" cy="177.295" rx="49.372" ry="46.704" style="fill:rgb(217,209,209);"/>
        </g>
        <path d="M485.455,221.754L495.069,190.289C502.378,189.738 510.487,191.121 519.625,194.989C522.572,198.254 523.365,201.204 521.365,203.748C512.21,217.59 500.263,223.653 485.455,221.754Z" style="fill:rgb(227,232,233);"/>
        <path d="M481.851,222.825L472.907,192.458C467.52,191.879 461.166,194.311 454.408,198C452.624,201.259 451.462,205.07 451.05,209.548C454.065,217.781 465.734,221.522 481.851,222.825Z" style="fill:rgb(227,232,233);"/>
        <g transform="matrix(0.992473,0,0,1.04917,2.83273,-11.4199)">
            <ellipse cx="484.343" cy="177.295" rx="49.372" ry="46.704" style="fill:none;stroke:rgb(166,166,166);stroke-width:2.13px;"/>
        </g>
        <g transform="matrix(1.03719,0,0,1.10128,-17.6007,-18.3004)">
            <path d="M473.296,180.686L471.431,183.295L449.512,191.319L445.637,200.998" style="fill:none;stroke:rgb(166,166,166);stroke-width:2.04px;"/>
        </g>
        <g transform="matrix(-1.04339,0,0,1.06471,988.589,-11.6923)">
            <path d="M473.296,180.686L471.431,183.295L449.512,191.319L445.637,200.998" style="fill:none;stroke:rgb(166,166,166);stroke-width:2.07px;"/>
        </g>
        <g transform="matrix(1,0,0,1.03411,0,-6.24141)">
            <path d="M471.648,183.64L481.499,221.5L484.984,221.34L496.027,182.97" style="fill:none;stroke:rgb(166,166,166);stroke-width:2.14px;"/>
        </g>
        <g transform="matrix(1.18738,0,0,1.04107,-92.1248,-7.25404)">
            <path d="M485.336,136.813C496.889,137.652 499.126,147.415 498.906,159.337C498.69,171.075 495.15,183.223 484.806,183.179C473.948,183.133 470.938,172.995 470.707,159.337C470.479,145.953 474.699,136.041 485.336,136.813Z" style="fill:rgb(217,209,209);stroke:rgb(166,166,166);stroke-width:1.95px;"/>
        </g>
        <g transform="matrix(1.17141,0,0,1.41553,43.8266,-42.5747)">
            <path d="M374.957,161L377.124,163.819L374.957,166.639L372.79,163.819L374.957,161Z" style="fill:rgb(217,209,209);stroke:rgb(166,166,166);stroke-width:1.68px;"/>
        </g>
        <g transform="matrix(0.814104,0,0,1,180.471,14.6482)">
            <path d="M371.968,178.421L378.424,193.334L371.968,208.247L365.513,193.334L371.968,178.421Z" style="fill:rgb(217,209,209);stroke:rgb(166,166,166);stroke-width:2.39px;"/>
        </g>
        <g transform="matrix(1.02848,0,0,1.02358,-14.2272,-3.40532)">
            <path d="M476.109,178.276C476.843,181.497 480.472,181.48 484.253,181.654C489.478,181.393 493.348,178.579 495.983,173.442C499.691,165.921 500.359,157.52 498.662,148.433C493.193,144.663 487.538,143.307 481.612,145.481C478.59,145.888 476.125,148.689 474.17,153.668L473.794,167.903C473.414,173.743 473.746,177.617 476.109,178.276Z" style="fill:rgb(227,232,233);"/>
        </g>
        <g transform="matrix(0.169609,0,0,0.188381,451.36,163.904)">
            <path d="M304.879,185.92L267.217,185.573C258.837,187.076 255.246,192.393 255.094,200.449C255.941,206.092 258.725,211.214 266.739,211.214L295.566,211.202C303.864,213.456 307.554,217.997 306.638,224.823C305.432,231.04 302.516,234.876 297.805,236.217L255.611,236.038" style="fill:none;stroke:rgb(166,166,166);stroke-width:12.15px;"/>
        </g>
        <g transform="matrix(0.169609,0,0,0.188381,427.383,163.914)">
            <path d="M508.821,194.66C503.338,188.658 496.5,185.874 488.579,185.663C473.695,187.242 465.924,195.963 465.265,211.823C464.943,227.228 473.555,235.372 490.398,236.826C505.533,236.321 513.391,226.712 514.195,211.76L489.464,211.049" style="fill:none;stroke:rgb(166,166,166);stroke-width:12.15px;"/>
        </g>
        <g transform="matrix(1,0,0,1,123.662,24.007)">
            <path d="M358.507,134.141C358.543,134.312 358.562,134.487 358.562,134.664C358.562,136.987 355.353,138.874 351.4,138.874C347.447,138.874 344.238,136.987 344.238,134.664C344.238,134.487 344.257,134.312 344.293,134.141L358.507,134.141Z" style="fill:rgb(166,166,166);"/>
        </g>
        <g transform="matrix(1.07303,0,0,1,97.1537,24.007)">
            <path d="M375.236,134.002C375.294,134.217 375.324,134.439 375.324,134.664C375.324,136.987 372.115,138.874 368.162,138.874C364.209,138.874 361,136.987 361,134.664C361,134.439 361.03,134.217 361.088,134.002L375.236,134.002Z" style="fill:rgb(166,166,166);"/>
        </g>
        <g transform="matrix(1.04741,0,0,1.05942,106.66,17.5169)">
            <rect x="343.543" y="130.341" width="32.066" height="2.885" style="fill:rgb(166,166,166);"/>
        </g>
    </g>
    <g transform="matrix(0.459184,0,0,0.459184,349.896,89.9067)">
        <g transform="matrix(0.992473,0,0,1.04917,2.83273,-11.4199)">
            <ellipse cx="484.343" cy="177.295" rx="49.372" ry="46.704" style="fill:rgb(217,209,209);"/>
        </g>
        <path d="M485.455,221.754L495.069,190.289C502.378,189.738 510.487,191.121 519.625,194.989C522.572,198.254 523.365,201.204 521.365,203.748C512.21,217.59 500.263,223.653 485.455,221.754Z" style="fill:rgb(227,232,233);"/>
        <path d="M481.851,222.825L472.907,192.458C467.52,191.879 461.166,194.311 454.408,198C452.624,201.259 451.462,205.07 451.05,209.548C454.065,217.781 465.734,221.522 481.851,222.825Z" style="fill:rgb(227,232,233);"/>
        <g transform="matrix(0.992473,0,0,1.04917,2.83273,-11.4199)">
            <ellipse cx="484.343" cy="177.295" rx="49.372" ry="46.704" style="fill:none;stroke:rgb(166,166,166);stroke-width:2.13px;"/>
        </g>
        <g transform="matrix(1.03719,0,0,1.10128,-17.6007,-18.3004)">
            <path d="M473.296,180.686L471.431,183.295L449.512,191.319L445.637,200.998" style="fill:none;stroke:rgb(166,166,166);stroke-width:2.04px;"/>
        </g>
        <g transform="matrix(-1.04339,0,0,1.06471,988.589,-11.6923)">
            <path d="M473.296,180.686L471.431,183.295L449.512,191.319L445.637,200.998" style="fill:none;stroke:rgb(166,166,166);stroke-width:2.07px;"/>
        </g>
        <g transform="matrix(1,0,0,1.03411,0,-6.24141)">
            <path d="M471.648,183.64L481.499,221.5L484.984,221.34L496.027,182.97" style="fill:none;stroke:rgb(166,166,166);stroke-width:2.14px;"/>
        </g>
        <g transform="matrix(1.18738,0,0,1.04107,-92.1248,-7.25404)">
            <path d="M485.336,136.813C496.889,137.652 499.126,147.415 498.906,159.337C498.69,171.075 495.15,183.223 484.806,183.179C473.948,183.133 470.938,172.995 470.707,159.337C470.479,145.953 474.699,136.041 485.336,136.813Z" style="fill:rgb(217,209,209);stroke:rgb(166,166,166);stroke-width:1.95px;"/>
        </g>
        <g transform="matrix(1.17141,0,0,1.41553,43.8266,-42.5747)">
            <path d="M374.957,161L377.124,163.819L374.957,166.639L372.79,163.819L374.957,161Z" style="fill:rgb(217,209,209);stroke:rgb(166,166,166);stroke-width:1.68px;"/>
        </g>
        <g transform="matrix(0.814104,0,0,1,180.471,14.6482)">
            <path d="M371.968,178.421L378.424,193.334L371.968,208.247L365.513,193.334L371.968,178.421Z" style="fill:rgb(217,209,209);stroke:rgb(166,166,166);stroke-width:2.39px;"/>
        </g>
        <g transform="matrix(1.02848,0,0,1.02358,-14.2272,-3.40532)">
            <path d="M476.109,178.276C476.843,181.497 480.472,181.48 484.253,181.654C489.478,181.393 493.348,178.579 495.983,173.442C499.691,165.921 500.359,157.52 498.662,148.433C493.193,144.663 487.538,143.307 481.612,145.481C478.59,145.888 476.125,148.689 474.17,153.668L473.794,167.903C473.414,173.743 473.746,177.617 476.109,178.276Z" style="fill:rgb(227,232,233);"/>
        </g>
        <g transform="matrix(0.169609,0,0,0.188381,451.36,163.904)">
            <path d="M304.879,185.92L267.217,185.573C258.837,187.076 255.246,192.393 255.094,200.449C255.941,206.092 258.725,211.214 266.739,211.214L295.566,211.202C303.864,213.456 307.554,217.997 306.638,224.823C305.432,231.04 302.516,234.876 297.805,236.217L255.611,236.038" style="fill:none;stroke:rgb(166,166,166);stroke-width:12.15px;"/>
        </g>
        <g transform="matrix(0.169609,0,0,0.188381,427.383,163.914)">
            <path d="M508.821,194.66C503.338,188.658 496.5,185.874 488.579,185.663C473.695,187.242 465.924,195.963 465.265,211.823C464.943,227.228 473.555,235.372 490.398,236.826C505.533,236.321 513.391,226.712 514.195,211.76L489.464,211.049" style="fill:none;stroke:rgb(166,166,166);stroke-width:12.15px;"/>
        </g>
        <g transform="matrix(1,0,0,1,123.662,24.007)">
            <path d="M358.507,134.141C358.543,134.312 358.562,134.487 358.562,134.664C358.562,136.987 355.353,138.874 351.4,138.874C347.447,138.874 344.238,136.987 344.238,134.664C344.238,134.487 344.257,134.312 344.293,134.141L358.507,134.141Z" style="fill:rgb(166,166,166);"/>
        </g>
        <g transform="matrix(1.07303,0,0,1,97.1537,24.007)">
            <path d="M375.236,134.002C375.294,134.217 375.324,134.439 375.324,134.664C375.324,136.987 372.115,138.874 368.162,138.874C364.209,138.874 361,136.987 361,134.664C361,134.439 361.03,134.217 361.088,134.002L375.236,134.002Z" style="fill:rgb(166,166,166);"/>
        </g>
        <g transform="matrix(1.04741,0,0,1.05942,106.66,17.5169)">
            <rect x="343.543" y="130.341" width="32.066" height="2.885" style="fill:rgb(166,166,166);"/>
        </g>
    </g>
    <g transform="matrix(0.459184,0,0,0.459184,492.869,89.7116)">
        <g transform="matrix(0.992473,0,0,1.04917,2.83273,-11.4199)">
            <ellipse cx="484.343" cy="177.295" rx="49.372" ry="46.704" style="fill:rgb(217,209,209);"/>
        </g>
        <path d="M485.455,221.754L495.069,190.289C502.378,189.738 510.487,191.121 519.625,194.989C522.572,198.254 523.365,201.204 521.365,203.748C512.21,217.59 500.263,223.653 485.455,221.754Z" style="fill:rgb(227,232,233);"/>
        <path d="M481.851,222.825L472.907,192.458C467.52,191.879 461.166,194.311 454.408,198C452.624,201.259 451.462,205.07 451.05,209.548C454.065,217.781 465.734,221.522 481.851,222.825Z" style="fill:rgb(227,232,233);"/>
        <g transform="matrix(0.992473,0,0,1.04917,2.83273,-11.4199)">
            <ellipse cx="484.343" cy="177.295" rx="49.372" ry="46.704" style="fill:none;stroke:rgb(166,166,166);stroke-width:2.13px;"/>
        </g>
        <g transform="matrix(1.03719,0,0,1.10128,-17.6007,-18.3004)">
            <path d="M473.296,180.686L471.431,183.295L449.512,191.319L445.637,200.998" style="fill:none;stroke:rgb(166,166,166);stroke-width:2.04px;"/>
        </g>
        <g transform="matrix(-1.04339,0,0,1.06471,988.589,-11.6923)">
            <path d="M473.296,180.686L471.431,183.295L449.512,191.319L445.637,200.998" style="fill:none;stroke:rgb(166,166,166);stroke-width:2.07px;"/>
        </g>
        <g transform="matrix(1,0,0,1.03411,0,-6.24141)">
            <path d="M471.648,183.64L481.499,221.5L484.984,221.34L496.027,182.97" style="fill:none;stroke:rgb(166,166,166);stroke-width:2.14px;"/>
        </g>
        <g transform="matrix(1.18738,0,0,1.04107,-92.1248,-7.25404)">
            <path d="M485.336,136.813C496.889,137.652 499.126,147.415 498.906,159.337C498.69,171.075 495.15,183.223 484.806,183.179C473.948,183.133 470.938,172.995 470.707,159.337C470.479,145.953 474.699,136.041 485.336,136.813Z" style="fill:rgb(217,209,209);stroke:rgb(166,166,166);stroke-width:1.95px;"/>
        </g>
        <g transform="matrix(1.17141,0,0,1.41553,43.8266,-42.5747)">
            <path d="M374.957,161L377.124,163.819L374.957,166.639L372.79,163.819L374.957,161Z" style="fill:rgb(217,209,209);stroke:rgb(166,166,166);stroke-width:1.68px;"/>
        </g>
        <g transform="matrix(0.814104,0,0,1,180.471,14.6482)">
            <path d="M371.968,178.421L378.424,193.334L371.968,208.247L365.513,193.334L371.968,178.421Z" style="fill:rgb(217,209,209);stroke:rgb(166,166,166);stroke-width:2.39px;"/>
        </g>
        <g transform="matrix(1.02848,0,0,1.02358,-14.2272,-3.40532)">
            <path d="M476.109,178.276C476.843,181.497 480.472,181.48 484.253,181.654C489.478,181.393 493.348,178.579 495.983,173.442C499.691,165.921 500.359,157.52 498.662,148.433C493.193,144.663 487.538,143.307 481.612,145.481C478.59,145.888 476.125,148.689 474.17,153.668L473.794,167.903C473.414,173.743 473.746,177.617 476.109,178.276Z" style="fill:rgb(227,232,233);"/>
        </g>
        <g transform="matrix(0.169609,0,0,0.188381,451.36,163.904)">
            <path d="M304.879,185.92L267.217,185.573C258.837,187.076 255.246,192.393 255.094,200.449C255.941,206.092 258.725,211.214 266.739,211.214L295.566,211.202C303.864,213.456 307.554,217.997 306.638,224.823C305.432,231.04 302.516,234.876 297.805,236.217L255.611,236.038" style="fill:none;stroke:rgb(166,166,166);stroke-width:12.15px;"/>
        </g>
        <g transform="matrix(0.169609,0,0,0.188381,427.383,163.914)">
            <path d="M508.821,194.66C503.338,188.658 496.5,185.874 488.579,185.663C473.695,187.242 465.924,195.963 465.265,211.823C464.943,227.228 473.555,235.372 490.398,236.826C505.533,236.321 513.391,226.712 514.195,211.76L489.464,211.049" style="fill:none;stroke:rgb(166,166,166);stroke-width:12.15px;"/>
        </g>
        <g transform="matrix(1,0,0,1,123.662,24.007)">
            <path d="M358.507,134.141C358.543,134.312 358.562,134.487 358.562,134.664C358.562,136.987 355.353,138.874 351.4,138.874C347.447,138.874 344.238,136.987 344.238,134.664C344.238,134.487 344.257,134.312 344.293,134.141L358.507,134.141Z" style="fill:rgb(166,166,166);"/>
        </g>
        <g transform="matrix(1.07303,0,0,1,97.1537,24.007)">
            <path d="M375.236,134.002C375.294,134.217 375.324,134.439 375.324,134.664C375.324,136.987 372.115,138.874 368.162,138.874C364.209,138.874 361,136.987 361,134.664C361,134.439 361.03,134.217 361.088,134.002L375.236,134.002Z" style="fill:rgb(166,166,166);"/>
        </g>
        <g transform="matrix(1.04741,0,0,1.05942,106.66,17.5169)">
            <rect x="343.543" y="130.341" width="32.066" height="2.885" style="fill:rgb(166,166,166);"/>
        </g>
    </g>
    <g transform="matrix(1.56952,0,0,1.31867,-349.117,-0.605907)">
        <path d="M358.798,82.348L358.798,107.407" style="fill:none;stroke:rgb(166,166,166);stroke-width:1.38px;"/>
    </g>
    <path d="M72.538,82.389L146.994,82.389" style="fill:none;stroke:rgb(166,166,166);stroke-width:2px;"/>
    <g transform="matrix(1,0,0,1,-2.7681,0.820099)">
        <path d="M188.022,81.695L308.251,81.695" style="fill:none;stroke:rgb(166,166,166);stroke-width:2px;"/>
    </g>
    <g transform="matrix(1.56952,0,0,1.42596,-347.548,-11.7818)">
        <path d="M267.053,66.04L267.053,107.439" style="fill:none;stroke:rgb(166,166,166);stroke-width:1.33px;"/>
    </g>
    <g transform="matrix(-1.56952,0,0,1.39056,1133.92,-9.15005)">
        <path d="M267.053,66.04L267.053,107.439" style="fill:none;stroke:rgb(166,166,166);stroke-width:1.35px;"/>
    </g>
    <g transform="matrix(0.503855,0,0,0.503855,21.7615,184.159)">
        <path d="M108.991,57.65L123.152,43.525C109.46,34.19 97.559,30.398 87.043,31.798C75.543,33.633 66.702,38.287 59.859,45.059C52.807,52.245 48.83,59.117 47.856,65.682C50.202,64.5 52.612,63.349 55.249,62.313C57.068,61.114 60.662,60.69 65.39,60.071L73.075,60.887C74.783,58.459 77.671,56.149 82.285,54.011C86.498,52.569 90.919,51.959 95.569,52.261C100.21,53.182 104.932,54.839 108.991,57.65Z" style="fill:rgb(232,237,244);"/>
        <path d="M92.843,106.324L92.383,126.75L121.393,126.907C125.559,126.873 129.357,125.918 132.651,123.704C137.651,121.256 141.956,117.953 145.36,113.036C148.111,110.335 149.924,105.386 151.577,98.06C152.752,92.062 151.972,86.392 149.685,80.975C148.485,77.708 146.164,74.268 143.075,70.711L136.971,65.654C136.58,62.654 135.315,59.192 133.326,55.346C131.435,53.168 129.635,50.533 127.889,47.628L123.237,43.325L108.961,57.728L114.414,64.487L117.287,70.378L118.334,76.092L118.219,80.037L125.22,82.295C127.378,83.898 129.028,86.092 130.315,88.712C131.128,91.81 131.448,95.014 130.224,98.548C128.978,100.685 127.732,102.266 126.485,103.386C124.943,105.254 122.802,106.023 120.387,106.292L92.843,106.324Z" style="fill:rgb(222,229,239);"/>
        <path d="M46.757,120.157L61.723,105.191C63.196,106.223 64.379,106.601 65.271,106.326L74.585,106.172L92.687,106.28L92.432,126.766L63.861,126.603C60.63,126.889 58.241,126.229 56.174,125.207C54.553,125.161 52.76,124.338 50.849,122.984C49.26,122.791 47.91,121.803 46.757,120.157Z" style="fill:rgb(232,237,244);"/>
        <path d="M46.569,120.285L61.445,105.328C56.815,103.087 54.074,100.196 54.095,96.357C52.773,91.545 53.757,87.788 57.086,85.011C58.627,82.738 61.233,81.303 64.808,80.629C67.568,80.74 69.921,81.169 72.535,81.863C74.114,83.226 76.382,85.19 78.397,87.716L93.335,72.953L82.268,63.729C77.65,61.708 73.032,60.586 68.414,59.873C60.877,60.063 55.053,61.966 49.842,64.483C43.731,67.852 40.037,72.167 37.27,76.846C35.005,81.165 33.394,85.708 33.377,90.398C32.807,95.439 33.084,99.973 34.694,103.706C36.295,109.012 37.922,113.789 39.959,114.88C41.472,118.08 43.839,119.065 46.569,120.285Z" style="fill:rgb(240,243,248);"/>
    </g>
    <g transform="matrix(0.462144,0,0,0.462144,528.369,184.989)">
        <path d="M72.203,52.334C67.073,50.749 62.102,50.357 57.263,50.952C52.871,52.337 49.09,54.426 46.588,57.992C43.062,61.994 41.59,66.5 42.373,71.559C34.967,71.74 30.164,73.334 27.845,76.277C23.96,78.763 21.278,82.643 20.154,88.326C18.926,94.114 20.386,99.505 24.074,104.566C26.694,108.836 31.015,111.649 37.705,112.431L147.038,112.517C154.475,111.383 160.011,108.1 163.483,102.486C166.296,98.72 167.989,93.865 167.921,87.297C167.414,81.172 165.727,76.204 162.649,72.6C159.515,69.359 155.438,66.748 150.561,64.67C150.444,59.794 149.205,55.922 146.327,53.517C144.352,50.787 140.976,48.79 135.949,47.658C132.718,47.801 129.664,48.566 126.723,49.726C123.739,43.49 119.5,38.787 113.9,35.748C107.062,33.159 100.044,32.566 92.916,33.175C87.871,34.643 83.28,36.792 79.688,40.441C76.474,43.046 73.956,46.967 72.203,52.334Z" style="fill:rgb(239,242,247);"/>
        <g transform="matrix(1.20465,0,0,1.20465,36.821,39.2065)">
            <g transform="matrix(1,0,0,1,-0.367148,-0.316277)">
                <path d="M27.286,19.503L44.636,16.929L44.904,34.327L27.147,34.196L27.286,19.503Z" style="fill:none;stroke:rgb(141,141,141);stroke-width:0.6px;stroke-linejoin:miter;stroke-miterlimit:1;"/>
                <path d="M27.286,19.503L44.636,16.929L44.904,34.327L27.147,34.196L27.286,19.503Z" style="fill:white;"/>
            </g>
            <g transform="matrix(1,0,0,1,0.660655,-0.314065)">
                <path d="M68.6,34.323L69.001,13.855L45.917,16.833L46.021,34.266L68.6,34.323Z" style="fill:white;stroke:rgb(139,139,139);stroke-width:0.3px;stroke-linejoin:miter;stroke-miterlimit:1;"/>
            </g>
            <g transform="matrix(1,0,0,1,-0.332191,0.403644)">
                <path d="M27.454,35.324L44.667,35.635L44.686,52.342L27.664,49.411L27.454,35.324Z" style="fill:none;stroke:rgb(141,141,141);stroke-width:0.6px;stroke-linejoin:miter;stroke-miterlimit:1;"/>
                <path d="M27.454,35.324L44.667,35.635L44.686,52.342L27.664,49.411L27.454,35.324Z" style="fill:white;"/>
            </g>
            <g transform="matrix(1,0,0,1,1.03135,0.652432)">
                <path d="M68.58,55.31L68.673,35.461L45.717,35.416L45.742,52.78L68.58,55.31Z" style="fill:none;stroke:rgb(141,141,141);stroke-width:0.9px;stroke-linejoin:miter;stroke-miterlimit:1;"/>
                <path d="M68.58,55.31L68.673,35.461L45.717,35.416L45.742,52.78L68.58,55.31Z" style="fill:white;"/>
            </g>
        </g>
    </g>
    <g transform="matrix(0.413868,0,0,0.413868,177.808,197.13)">
        <path d="M27.27,46.686C28.719,37.658 32.936,29.268 40.054,21.547C44.53,16.933 50.459,12.62 59.151,8.878C68.022,6.086 77.628,5.322 88.308,7.526C94.974,9.115 101.776,12.323 108.733,17.375L116.821,25.988C122.945,25.096 129.182,25.108 135.597,26.542C142.446,28.755 148.476,32.307 153.726,37.136C161.515,45.427 165.548,55.442 165.738,67.221C165.015,74.037 163.438,80.168 160.441,85.161C157.471,90.502 153.184,95.426 147.095,99.782C142.254,103.43 136.255,105.34 129.67,106.371L36.855,106.297C31.524,106.278 26.166,105.03 20.769,101.916C14.648,97.869 10.336,91.227 7.559,82.384C6.216,76.382 6.942,69.742 9.642,62.578C11.293,58.54 14.252,54.793 18.518,51.336L27.27,46.686ZM37.245,55.038C38.649,41.431 42.696,34.004 47.725,28.872C56.026,21.536 64.671,17.732 73.011,16.476C82.404,16.141 90.823,18.431 98.386,23.028C104.023,27.079 108.852,32.155 112.309,38.967C116.199,36.841 120.838,35.559 127.054,36.049C135.937,37.157 143.125,40.666 148.335,46.981C154.414,56.153 156.073,64.486 154.5,72.205C152.941,78.844 149.548,84.057 145.132,88.476C140.496,92.606 135.132,94.879 129.188,95.666L35.671,96.049C29.671,95.412 24.811,92.75 21.427,87.462C17.743,83.456 17.21,77.383 18.178,70.325C19.046,65.62 21.449,61.716 25.659,58.755C29.521,56.909 33.383,55.721 37.245,55.038Z" style="fill:rgb(239,242,247);"/>
        <g transform="matrix(1.64868,0,0,1.64868,-53.1181,-60.0489)">
            <path d="M53.49,72.313L54.743,74.112C56.549,76.498 59.989,78.819 65.402,81.061C69.953,83.359 74.715,85.094 80.138,85.065C84.49,85.697 88.081,85.797 90.979,85.412C95.755,85.033 99.822,84.123 102.853,82.436C106.564,81.092 110.077,79.354 113.351,77.138L111.78,75.617C109.604,76.909 106.645,78.201 103.597,79.092C99.85,80.188 95.963,80.481 91.159,80.809C86.999,81.591 82.393,81.714 77.361,80.462C72.519,80.078 67.945,78.424 63.539,76.587C59.9,75.644 56.689,73.989 53.49,72.313Z" style="fill:rgb(239,242,247);"/>
            <path d="M106.823,73.926L112.234,73.575C114.194,73.326 115.292,73.681 115.799,74.45C116.157,76.879 115.402,79.706 113.725,82.863C115.783,81.882 117.218,80.278 117.968,77.99C118.691,75.97 118.959,73.949 118.811,71.929C116.422,71.286 113.96,71.079 111.425,71.308C108.944,72.101 107.56,72.987 106.823,73.926Z" style="fill:rgb(239,242,247);"/>
        </g>
    </g>
    <g transform="matrix(1.94035,0,0,1.94035,439.664,53.4)">
        <g transform="matrix(1,0,0,1,0.0852952,0)">
            <path d="M150.175,75.829L133.915,75.829L133.915,81.537L150.175,81.537L150.175,75.829ZM149.044,76.957L145.7,76.957L145.7,80.301L149.044,80.301L149.044,76.957Z" style="fill:rgb(239,242,247);"/>
        </g>
        <g transform="matrix(1,0,0,1,0.0793971,6.72984)">
            <path d="M150.175,75.829L133.915,75.829L133.915,81.537L150.175,81.537L150.175,75.829ZM149.044,76.957L145.7,76.957L145.7,80.301L149.044,80.301L149.044,76.957Z" style="fill:rgb(239,242,247);"/>
        </g>
        <g transform="matrix(1,0,0,1,0.0852952,13.3705)">
            <path d="M150.175,75.829L133.915,75.829L133.915,81.537L150.175,81.537L150.175,75.829ZM149.044,76.957L145.7,76.957L145.7,80.301L149.044,80.301L149.044,76.957Z" style="fill:rgb(239,242,247);"/>
        </g>
    </g>
    <g transform="matrix(1.09993,0,0,1.09993,-185.588,-115.455)">
        <text x="308.354px" y="184.414px" style="font-family:'Avenir-Black', 'Avenir', sans-serif;font-weight:800;font-size:14.546px;fill:rgb(239,242,247);">&lt;/&gt;</text>
    </g>
    <g transform="matrix(1.08703,0,0,1,-19.0855,0)">
        <path d="M214.425,107.755L242.003,107.755" style="fill:none;stroke:rgb(166,166,166);stroke-width:1.91px;"/>
    </g>
    <path d="M281.361,107.529L307.67,107.529" style="fill:none;stroke:rgb(166,166,166);stroke-width:2px;"/>
    <g transform="matrix(1.09993,0,0,1.09993,-90.517,-89.7967)">
        <text x="308.354px" y="184.414px" style="font-family:'Avenir-Black', 'Avenir', sans-serif;font-weight:800;font-size:14.546px;fill:rgb(239,242,247);">&lt;/&gt;</text>
    </g>
    <g transform="matrix(-1.56952,0,0,1.31867,1135.42,-0.805492)">
        <path d="M358.798,82.348L358.798,107.407" style="fill:none;stroke:rgb(166,166,166);stroke-width:1.38px;"/>
    </g>
    <g transform="matrix(-1.08703,0,0,1,805.385,-0.199585)">
        <path d="M214.425,107.755L242.003,107.755" style="fill:none;stroke:rgb(166,166,166);stroke-width:1.91px;"/>
    </g>
    <g transform="matrix(-1,0,0,1,786.299,-0.199585)">
        <path d="M281.361,107.529L307.67,107.529" style="fill:none;stroke:rgb(166,166,166);stroke-width:2px;"/>
    </g>
    <g transform="matrix(-1.09993,0,0,1.09993,876.816,-89.9963)">
        <text x="308.354px" y="184.414px" style="font-family:'Avenir-Black', 'Avenir', sans-serif;font-weight:800;font-size:14.546px;fill:rgb(239,242,247);">&lt;/&gt;</text>
    </g>
    <g transform="matrix(-1,0,0,1,787.438,-0.0302734)">
        <path d="M72.538,82.389L146.994,82.389" style="fill:none;stroke:rgb(166,166,166);stroke-width:2px;"/>
    </g>
    <g transform="matrix(-1,0,0,1,789.193,1.50928)">
        <path d="M188.022,81.695L308.251,81.695" style="fill:none;stroke:rgb(166,166,166);stroke-width:2px;"/>
    </g>
    <g transform="matrix(-1.09993,0,0,1.09993,972.013,-114.765)">
        <text x="308.354px" y="184.414px" style="font-family:'Avenir-Black', 'Avenir', sans-serif;font-weight:800;font-size:14.546px;fill:rgb(239,242,247);">&lt;/&gt;</text>
    </g>
</svg>
