<svg width="394.99999999999994" height="407" xmlns="http://www.w3.org/2000/svg" xml:space="preserve" version="1.1">

 <g>
  <title>Layer 1</title>
  <g id="svg_1">
   <path id="svg_2" fill="#3CC3D9" d="m78.375,258.60268l20.4,49.5l36.9,16.5l62.8,-55l-73.8,-66l-46.3,55zm233.3,-135.9l-51.1,-43.2l-64.4,54.2l65.2,74.6l51.8,-53.4l-1.5,-32.2z" class="st0"/>
   <path id="svg_3" fill="#3CC3D9" d="m189.075,95.80268c5.2,0 9.4,-4.2 9.4,-9.4c0,-5.2 -4.2,-9.4 -9.4,-9.4c-72.9,0 -132,59.1 -132,132c0,5.2 4.2,9.4 9.4,9.4c5.2,0 9.4,-4.2 9.4,-9.4l0,0c0.2,-62.6 50.7,-113.1 113.2,-113.2zm122.5,103.7c-5.2,0 -9.4,4.2 -9.4,9.4c-0.1,62.5 -50.7,113 -113.1,113.1c-5.2,0 -9.4,4.2 -9.4,9.4c0,5.2 4.2,9.4 9.4,9.4c72.9,0 132,-59.1 132,-132c0,-5.1 -4.2,-9.3 -9.5,-9.3z" class="st0"/>
   <path id="svg_4" fill="#0E2C40" d="m121.675,192.10268l-44.3,49.5c-7.2,7.2 -11.1,17.2 -11.1,27.2c0,9.9 3.8,20 11.4,27.6l7.1,7.1l-37.9,38.3l32.5,32.5c1.6,1.6 2.4,3.7 2.4,5.9c0,2.2 -0.8,4.2 -2.4,5.9c-1.7,1.7 -3.7,2.4 -5.9,2.4c-2.2,0 -4.2,-0.8 -5.9,-2.4l-34.3,-34.3c-3.7,-3.7 -9.7,-3.7 -13.3,0c-3.7,3.7 -3.7,9.7 0,13.3l34.3,34.3c5.3,5.3 12.3,8 19.2,8l0,0c6.9,0 13.9,-2.7 19.1,-8c5.3,-5.3 8,-12.3 8,-19.2c0,-6.9 -2.7,-13.9 -8,-19.2l-19.2,-19.3l24.6,-24.9l5.7,5.7c7.6,7.6 17.6,11.4 27.6,11.4l0,0c9.9,0 19.9,-3.8 27.5,-11.4l56.5,-50.6l-87.2,-87.2l-6.4,7.4zm16.5,29.2l-23.8,23.8c-3.7,3.7 -3.7,9.6 0,13.3c1.8,1.8 4.3,2.8 6.7,2.8c2.4,0 4.8,-0.9 6.7,-2.8l23.8,-23.8l13.3,13.3l-23.8,23.8c-3.7,3.7 -3.7,9.7 0,13.3c1.8,1.8 4.3,2.7 6.7,2.7c2.4,0 4.8,-0.9 6.7,-2.7l23.8,-23.8l9.9,9.9l-42,37.6c-4.3,4.3 -9.4,6.2 -14.6,6.2c-5.2,0 -10.3,-1.9 -14.2,-5.9l-26.1,-26.1c-4,-4 -5.9,-9 -5.9,-14.2c0,-5.2 1.9,-10.3 5.9,-14.2l38,-42.4l8.9,9.2zm235.4,-176.5l0,0l-36.9,-36.9c-5.3,-5.3 -12.3,-8 -19.2,-7.9c-6.9,0 -13.9,2.7 -19.2,8c-5.3,5.3 -8,12.3 -7.9,19.2c0,6.9 2.7,13.9 8,19.2l19.2,19.2l-24.6,24.9l-5.7,-5.7c-7.6,-7.6 -17.6,-11.4 -27.6,-11.4c-9.9,0 -20,3.8 -27.6,11.4l-56.5,50.5l24.5,24.5l-21,21c-3.7,3.7 -3.7,9.7 0,13.3c1.8,1.8 4.2,2.8 6.7,2.8c2.4,0 4.8,-0.9 6.7,-2.8l21,-21l13.3,13.3l-21,21c-3.7,3.7 -3.7,9.7 0,13.3c1.8,1.8 4.3,2.8 6.7,2.8c2.4,0 4.8,-0.9 6.7,-2.8l21,-21l22.7,22.7l6.7,-7.4l44.2,-49.5c7.2,-7.2 11.1,-17.2 11.1,-27.2c0,-9.9 -3.8,-20 -11.4,-27.6l-7.1,-7.1l37.9,-38.3l-32.5,-32.5c-1.7,-1.7 -2.4,-3.7 -2.4,-5.9c0,-2.2 0.8,-4.2 2.4,-5.9c1.7,-1.7 3.7,-2.4 5.9,-2.4c2.2,0 4.2,0.8 5.9,2.4l36.9,36.9c3.7,3.7 9.6,3.7 13.3,0c3.5,-3.4 3.5,-9.4 -0.2,-13.1zm-73.7,107.9l-38,42.4l-59,-59l42,-37.6c4.3,-4.3 9.4,-6.2 14.6,-6.3c5.2,0 10.3,1.9 14.2,5.9l26.1,26.1c3.9,4 5.9,9.1 5.9,14.2c0.1,5.2 -1.8,10.3 -5.8,14.3zm92.8,-88.8l-2.2,-2.2c-3.7,-3.7 -9.6,-3.7 -13.3,0c-3.7,3.7 -3.7,9.6 0,13.3l2.2,2.2c1.8,1.8 4.2,2.8 6.7,2.8c2.4,0 4.8,-0.9 6.7,-2.7c3.6,-3.7 3.6,-9.7 -0.1,-13.4zm-375.1,272l-1.5,-1.5c-3.7,-3.7 -9.7,-3.7 -13.3,0c-3.7,3.7 -3.7,9.7 0,13.3l1.5,1.5c1.8,1.8 4.3,2.8 6.7,2.8c2.4,0 4.8,-0.9 6.7,-2.8c3.6,-3.6 3.6,-9.6 -0.1,-13.3z" class="st1"/>
  </g>
 </g>
</svg>