<?xml version="1.0" encoding="UTF-8" standalone="no"?>
<!DOCTYPE svg PUBLIC "-//W3C//DTD SVG 1.1//EN" "http://www.w3.org/Graphics/SVG/1.1/DTD/svg11.dtd">
<svg width="100%" height="100%" viewBox="0 0 180 165" version="1.1" xmlns="http://www.w3.org/2000/svg" xmlns:xlink="http://www.w3.org/1999/xlink" xml:space="preserve" xmlns:serif="http://www.serif.com/" style="fill-rule:evenodd;clip-rule:evenodd;stroke-linecap:round;stroke-linejoin:round;stroke-miterlimit:1.5;">
    <g id="Layer1">
        <g transform="matrix(1,0,0,1,-173,-187)">
            <path d="M248.848,200.996C253.762,202.105 258.333,204.119 262.379,206.85L271.435,200.222L281.298,210.085L274.326,219.475C276.517,223.123 278.141,227.149 279.069,231.432L289.815,233.096L289.815,247.045L279.053,248.635C278.091,253.011 276.412,257.118 274.145,260.829L281.757,271.23L271.894,281.093L261.745,273.558C257.819,276.117 253.414,278.001 248.694,279.039L246.904,290.606L232.955,290.606L231.244,279.025C227.003,278.079 223.015,276.458 219.397,274.282L210.092,281.092L200.229,271.229L206.826,262.344C204.077,258.272 202.057,253.668 200.966,248.717L189.255,246.904L189.255,232.955L200.98,231.223C202.049,226.439 203.978,221.979 206.597,218.014L200,209L209.863,199.137L219.031,205.944C222.733,203.655 226.834,201.955 231.209,200.983L233.096,188.791L247.045,188.791L248.848,200.996ZM240.694,208.918C257.252,208.918 270.694,222.361 270.694,238.918C270.694,255.476 257.252,268.918 240.694,268.918C224.137,268.918 210.694,255.476 210.694,238.918C210.694,222.361 224.137,208.918 240.694,208.918Z" style="fill:rgb(217,209,209);stroke:rgb(141,141,141);stroke-width:1px;"/>
        </g>
        <g transform="matrix(0.668275,-0.204312,0.204312,0.668275,-67.7179,-24.953)">
            <path d="M248.848,200.996C253.762,202.105 258.333,204.119 262.379,206.85L271.435,200.222L281.298,210.085L274.326,219.475C276.517,223.123 278.141,227.149 279.069,231.432L289.815,233.096L289.815,247.045L279.053,248.635C278.091,253.011 276.412,257.118 274.145,260.829L281.757,271.23L271.894,281.093L261.745,273.558C257.819,276.117 253.414,278.001 248.694,279.039L246.904,290.606L232.955,290.606L231.244,279.025C227.003,278.079 223.015,276.458 219.397,274.282L210.092,281.092L200.229,271.229L206.826,262.344C204.077,258.272 202.057,253.668 200.966,248.717L189.255,246.904L189.255,232.955L200.98,231.223C202.049,226.439 203.978,221.979 206.597,218.014L200,209L209.863,199.137L219.031,205.944C222.733,203.655 226.834,201.955 231.209,200.983L233.096,188.791L247.045,188.791L248.848,200.996ZM241.077,211.5C256.873,211.5 269.698,224.325 269.698,240.12C269.698,255.916 256.873,268.741 241.077,268.741C225.282,268.741 212.457,255.916 212.457,240.12C212.457,224.325 225.282,211.5 241.077,211.5Z" style="fill:rgb(217,209,209);stroke:rgb(141,141,141);stroke-width:1.43px;"/>
        </g>
        <g transform="matrix(0.647625,-0.262521,0.262521,0.647625,-182.408,33.6922)">
            <path d="M248.848,200.996C253.762,202.105 258.333,204.119 262.379,206.85L271.435,200.222L281.298,210.085L274.326,219.475C276.517,223.123 278.141,227.149 279.069,231.432L289.815,233.096L289.815,247.045L279.053,248.635C278.091,253.011 276.412,257.118 274.145,260.829L281.757,271.23L271.894,281.093L261.745,273.558C257.819,276.117 253.414,278.001 248.694,279.039L246.904,290.606L232.955,290.606L231.244,279.025C227.003,278.079 223.015,276.458 219.397,274.282L210.092,281.092L200.229,271.229L206.826,262.344C204.077,258.272 202.057,253.668 200.966,248.717L189.255,246.904L189.255,232.955L200.98,231.223C202.049,226.439 203.978,221.979 206.597,218.014L200,209L209.863,199.137L219.031,205.944C222.733,203.655 226.834,201.955 231.209,200.983L233.096,188.791L247.045,188.791L248.848,200.996ZM240.55,211.558C256.346,211.558 269.17,224.382 269.17,240.178C269.17,255.974 256.346,268.798 240.55,268.798C224.754,268.798 211.93,255.974 211.93,240.178C211.93,224.382 224.754,211.558 240.55,211.558Z" style="fill:rgb(217,209,209);stroke:rgb(141,141,141);stroke-width:1.43px;"/>
        </g>
        <g transform="matrix(0.50071,0,0,0.50071,-130.704,-53.5732)">
            <text x="304.964px" y="370.602px" style="font-family:'Arial-BoldMT', 'Arial', sans-serif;font-weight:700;font-size:39.943px;fill:rgb(239,242,247);">&lt;/&gt;</text>
        </g>
        <g transform="matrix(1,0,0,1,1,0)">
            <g transform="matrix(1,0,0,1,0.0852952,0)">
                <path d="M150.175,75.829L133.915,75.829L133.915,81.537L150.175,81.537L150.175,75.829ZM149.044,76.957L145.7,76.957L145.7,80.301L149.044,80.301L149.044,76.957Z" style="fill:rgb(239,242,247);"/>
            </g>
            <g transform="matrix(1,0,0,1,0.0793971,6.72984)">
                <path d="M150.175,75.829L133.915,75.829L133.915,81.537L150.175,81.537L150.175,75.829ZM149.044,76.957L145.7,76.957L145.7,80.301L149.044,80.301L149.044,76.957Z" style="fill:rgb(239,242,247);"/>
            </g>
            <g transform="matrix(1,0,0,1,0.0852952,13.3705)">
                <path d="M150.175,75.829L133.915,75.829L133.915,81.537L150.175,81.537L150.175,75.829ZM149.044,76.957L145.7,76.957L145.7,80.301L149.044,80.301L149.044,76.957Z" style="fill:rgb(239,242,247);"/>
            </g>
        </g>
        <g transform="matrix(0.38866,0,0,0.38866,39.3585,23.4248)">
            <path d="M38.799,99.403L110.041,99.701C115.023,99.253 119.444,97.097 121.164,86.711C121.755,75.542 117.067,73.434 112.64,70.88C111.678,63.337 109.5,58.479 105.642,55.642C100.761,52.853 94.31,53.095 87.024,54.989C80.383,41.786 69.196,37.995 54.116,42.261C42.385,47.942 37.131,57.453 37.67,70.39C29.698,72.566 25.985,77.482 26.016,84.806C26.596,92.516 30.8,97.426 38.799,99.403Z" style="fill:none;stroke:rgb(239,242,247);stroke-width:11.58px;"/>
        </g>
    </g>
</svg>
