<?xml version="1.0" encoding="UTF-8" standalone="no"?>
<!DOCTYPE svg PUBLIC "-//W3C//DTD SVG 1.1//EN" "http://www.w3.org/Graphics/SVG/1.1/DTD/svg11.dtd">
<svg width="100%" height="100%" viewBox="0 0 396 408" version="1.1" xmlns="http://www.w3.org/2000/svg" xmlns:xlink="http://www.w3.org/1999/xlink" xml:space="preserve" xmlns:serif="http://www.serif.com/" style="fill-rule:evenodd;clip-rule:evenodd;stroke-linejoin:round;stroke-miterlimit:2;">
    <g transform="matrix(1,0,0,1,-1493.22,-1061.6)">
        <path d="M1571.6,1320.2L1592,1369.7L1628.9,1386.2L1691.7,1331.2L1617.9,1265.2L1571.6,1320.2ZM1804.9,1184.3L1753.8,1141.1L1689.4,1195.3L1754.6,1269.9L1806.4,1216.5L1804.9,1184.3Z" style="fill:rgb(0,191,255);fill-rule:nonzero;"/>
        <path d="M1682.3,1157.4C1687.5,1157.4 1691.7,1153.2 1691.7,1148C1691.7,1142.8 1687.5,1138.6 1682.3,1138.6C1609.4,1138.6 1550.3,1197.7 1550.3,1270.6C1550.3,1275.8 1554.5,1280 1559.7,1280C1564.9,1280 1569.1,1275.8 1569.1,1270.6C1569.3,1208 1619.8,1157.5 1682.3,1157.4ZM1804.8,1261.1C1799.6,1261.1 1795.4,1265.3 1795.4,1270.5C1795.3,1333 1744.7,1383.5 1682.3,1383.6C1677.1,1383.6 1672.9,1387.8 1672.9,1393C1672.9,1398.2 1677.1,1402.4 1682.3,1402.4C1755.2,1402.4 1814.3,1343.3 1814.3,1270.4C1814.3,1265.3 1810.1,1261.1 1804.8,1261.1Z" style="fill:rgb(0,191,255);fill-rule:nonzero;"/>
        <path d="M1614.9,1253.7L1570.6,1303.2C1563.4,1310.4 1559.5,1320.4 1559.5,1330.4C1559.5,1340.3 1563.3,1350.4 1570.9,1358L1578,1365.1L1540.1,1403.4L1572.6,1435.9C1574.2,1437.5 1575,1439.6 1575,1441.8C1575,1444 1574.2,1446 1572.6,1447.7C1570.9,1449.4 1568.9,1450.1 1566.7,1450.1C1564.5,1450.1 1562.5,1449.3 1560.8,1447.7L1526.5,1413.4C1522.8,1409.7 1516.8,1409.7 1513.2,1413.4C1509.5,1417.1 1509.5,1423.1 1513.2,1426.7L1547.5,1461C1552.8,1466.3 1559.8,1469 1566.7,1469C1573.6,1469 1580.6,1466.3 1585.8,1461C1591.1,1455.7 1593.8,1448.7 1593.8,1441.8C1593.8,1434.9 1591.1,1427.9 1585.8,1422.6L1566.6,1403.3L1591.2,1378.4L1596.9,1384.1C1604.5,1391.7 1614.5,1395.5 1624.5,1395.5C1634.4,1395.5 1644.4,1391.7 1652,1384.1L1708.5,1333.5L1621.3,1246.3L1614.9,1253.7ZM1631.4,1282.9L1607.6,1306.7C1603.9,1310.4 1603.9,1316.3 1607.6,1320C1609.4,1321.8 1611.9,1322.8 1614.3,1322.8C1616.7,1322.8 1619.1,1321.9 1621,1320L1644.8,1296.2L1658.1,1309.5L1634.3,1333.3C1630.6,1337 1630.6,1343 1634.3,1346.6C1636.1,1348.4 1638.6,1349.3 1641,1349.3C1643.4,1349.3 1645.8,1348.4 1647.7,1346.6L1671.5,1322.8L1681.4,1332.7L1639.4,1370.3C1635.1,1374.6 1630,1376.5 1624.8,1376.5C1619.6,1376.5 1614.5,1374.6 1610.6,1370.6L1584.5,1344.5C1580.5,1340.5 1578.6,1335.5 1578.6,1330.3C1578.6,1325.1 1580.5,1320 1584.5,1316.1L1622.5,1273.7L1631.4,1282.9ZM1866.8,1106.4L1829.9,1069.5C1824.6,1064.2 1817.6,1061.5 1810.7,1061.6C1803.8,1061.6 1796.8,1064.3 1791.5,1069.6C1786.2,1074.9 1783.5,1081.9 1783.6,1088.8C1783.6,1095.7 1786.3,1102.7 1791.6,1108L1810.8,1127.2L1786.2,1152.1L1780.5,1146.4C1772.9,1138.8 1762.9,1135 1752.9,1135C1743,1135 1732.9,1138.8 1725.3,1146.4L1668.8,1196.9L1693.3,1221.4L1672.3,1242.4C1668.6,1246.1 1668.6,1252.1 1672.3,1255.7C1674.1,1257.5 1676.5,1258.5 1679,1258.5C1681.4,1258.5 1683.8,1257.6 1685.7,1255.7L1706.7,1234.7L1720,1248L1699,1269C1695.3,1272.7 1695.3,1278.7 1699,1282.3C1700.8,1284.1 1703.3,1285.1 1705.7,1285.1C1708.1,1285.1 1710.5,1284.2 1712.4,1282.3L1733.4,1261.3L1756.1,1284L1762.8,1276.6L1807,1227.1C1814.2,1219.9 1818.1,1209.9 1818.1,1199.9C1818.1,1190 1814.3,1179.9 1806.7,1172.3L1799.6,1165.2L1837.5,1126.9L1805,1094.4C1803.3,1092.7 1802.6,1090.7 1802.6,1088.5C1802.6,1086.3 1803.4,1084.3 1805,1082.6C1806.7,1080.9 1808.7,1080.2 1810.9,1080.2C1813.1,1080.2 1815.1,1081 1816.8,1082.6L1853.7,1119.5C1857.4,1123.2 1863.3,1123.2 1867,1119.5C1870.5,1116.1 1870.5,1110.1 1866.8,1106.4ZM1793.1,1214.3L1755.1,1256.7L1696.1,1197.7L1738.1,1160.1C1742.4,1155.8 1747.5,1153.9 1752.7,1153.8C1757.9,1153.8 1763,1155.7 1766.9,1159.7L1793,1185.8C1796.9,1189.8 1798.9,1194.9 1798.9,1200C1799,1205.2 1797.1,1210.3 1793.1,1214.3ZM1885.9,1125.5L1883.7,1123.3C1880,1119.6 1874.1,1119.6 1870.4,1123.3C1866.7,1127 1866.7,1132.9 1870.4,1136.6L1872.6,1138.8C1874.4,1140.6 1876.8,1141.6 1879.3,1141.6C1881.7,1141.6 1884.1,1140.7 1886,1138.9C1889.6,1135.2 1889.6,1129.2 1885.9,1125.5ZM1510.8,1397.5L1509.3,1396C1505.6,1392.3 1499.6,1392.3 1496,1396C1492.3,1399.7 1492.3,1405.7 1496,1409.3L1497.5,1410.8C1499.3,1412.6 1501.8,1413.6 1504.2,1413.6C1506.6,1413.6 1509,1412.7 1510.9,1410.8C1514.5,1407.2 1514.5,1401.2 1510.8,1397.5Z" style="fill:rgb(172,158,158);fill-rule:nonzero;"/>
    </g>
</svg>
