<?xml version="1.0" encoding="UTF-8" standalone="no"?>
<!DOCTYPE svg PUBLIC "-//W3C//DTD SVG 1.1//EN" "http://www.w3.org/Graphics/SVG/1.1/DTD/svg11.dtd">
<svg width="100%" height="100%" viewBox="0 0 433 459" version="1.1" xmlns="http://www.w3.org/2000/svg" xmlns:xlink="http://www.w3.org/1999/xlink" xml:space="preserve" xmlns:serif="http://www.serif.com/" style="fill-rule:evenodd;clip-rule:evenodd;stroke-linejoin:round;stroke-miterlimit:2;">
    <g transform="matrix(1,0,0,1,-878.6,-1018)">
        <path d="M887.3,1414.2L1009.8,1414.2L1009.8,1322L887.3,1322L887.3,1414.2ZM1036,1171.2L1158.5,1171.2L1158.5,1079L1036,1079L1036,1171.2ZM1178.5,1322.1L1178.5,1414.3L1301,1414.3L1301,1322.1L1178.5,1322.1Z" style="fill:rgb(0,191,255);fill-rule:nonzero;"/>
        <path d="M967.3,1431.1L932.3,1431.1C927.1,1431.1 922.9,1435.3 922.9,1440.5C922.9,1445.7 927.1,1449.9 932.3,1449.9L967.3,1449.9C972.5,1449.9 976.7,1445.7 976.7,1440.5C976.7,1435.3 972.5,1431.1 967.3,1431.1ZM1256.4,1431.1L1221.4,1431.1C1216.2,1431.1 1212,1435.3 1212,1440.5C1212,1445.7 1216.2,1449.9 1221.4,1449.9L1256.4,1449.9C1261.6,1449.9 1265.8,1445.7 1265.8,1440.5C1265.8,1435.3 1261.6,1431.1 1256.4,1431.1ZM1111.8,1186L1076.8,1186C1071.6,1186 1067.4,1190.2 1067.4,1195.4C1067.4,1200.6 1071.6,1204.8 1076.8,1204.8L1111.8,1204.8C1117,1204.8 1121.2,1200.6 1121.2,1195.4C1121.3,1190.2 1117,1186 1111.8,1186Z" style="fill:rgb(0,191,255);fill-rule:nonzero;"/>
        <path d="M1167.6,1263L1167.6,1361.5L1128.5,1361.5C1126.1,1347.4 1115.5,1336 1101.8,1332.4L1101.8,1231.6L1166.7,1231.6L1166.7,1018L1023,1018L1023,1231.6L1082.9,1231.6L1082.9,1332.4C1069.2,1336 1058.7,1347.4 1056.3,1361.5L1022.2,1361.5L1022.2,1263L878.6,1263L878.6,1476.6L1022.3,1476.6L1022.3,1380.3L1058.1,1380.3C1063.2,1394.3 1076.7,1404.4 1092.5,1404.4C1108.3,1404.4 1121.8,1394.4 1126.9,1380.3L1167.7,1380.3L1167.7,1476.7L1311.4,1476.7L1311.4,1263L1167.6,1263ZM1041.9,1036.9L1147.9,1036.9L1147.9,1069.4L1041.9,1069.4L1041.9,1036.9ZM1041.9,1088.3L1147.9,1088.3L1147.9,1159.2L1041.9,1159.2L1041.9,1088.3ZM1041.9,1178L1147.9,1178L1147.9,1212.8L1041.9,1212.8L1041.9,1178ZM1003.4,1457.9L897.4,1457.9L897.4,1423.1L1003.4,1423.1L1003.4,1457.9ZM1003.4,1404.2L897.4,1404.2L897.4,1333.3L1003.4,1333.3L1003.4,1404.2ZM1003.4,1314.5L897.4,1314.5L897.4,1282L1003.4,1282L1003.4,1314.5ZM1110.2,1367.8C1110.2,1377.6 1102.2,1385.6 1092.4,1385.6C1082.6,1385.6 1074.6,1377.6 1074.6,1367.8C1074.6,1358 1082.6,1350 1092.4,1350C1102.2,1350 1110.2,1358 1110.2,1367.8ZM1292.4,1457.9L1186.4,1457.9L1186.4,1423.1L1292.4,1423.1L1292.4,1457.9ZM1292.4,1404.2L1186.4,1404.2L1186.4,1333.3L1292.4,1333.3L1292.4,1404.2ZM1292.4,1314.5L1186.4,1314.5L1186.4,1282L1292.4,1282L1292.4,1314.5Z" style="fill:rgb(172,158,158);fill-rule:nonzero;"/>
    </g>
</svg>
