<?xml version="1.0" encoding="UTF-8" standalone="no"?>
<!DOCTYPE svg PUBLIC "-//W3C//DTD SVG 1.1//EN" "http://www.w3.org/Graphics/SVG/1.1/DTD/svg11.dtd">
<svg width="100%" height="100%" viewBox="0 0 512 512" version="1.1" xmlns="http://www.w3.org/2000/svg" xmlns:xlink="http://www.w3.org/1999/xlink" xml:space="preserve" xmlns:serif="http://www.serif.com/" style="fill-rule:evenodd;clip-rule:evenodd;stroke-linejoin:round;stroke-miterlimit:2;">
    <g>
        <g transform="matrix(0.957031,0,0,0.957031,12,3.17211)">
            <circle cx="256" cy="256" r="197.723" style="fill:rgb(144,216,249);"/>
        </g>
        <g transform="matrix(0.957031,0,0,0.957031,12,3.17211)">
            <path d="M375.758,98.674C401.098,131.912 416.156,173.411 416.156,218.432C416.156,327.632 327.632,416.156 218.433,416.156C173.411,416.156 131.913,401.098 98.675,375.758C134.797,423.138 191.823,453.723 256.001,453.723C365.201,453.723 453.724,365.199 453.724,255.999C453.723,191.822 423.138,134.796 375.758,98.674Z" style="fill:rgb(117,206,249);fill-rule:nonzero;"/>
        </g>
        <g transform="matrix(0.957031,0,0,0.957031,12,3.17211)">
            <path d="M442.391,169.495C426.114,134.476 400.363,104.805 367.921,83.689C334.614,62.01 295.912,50.551 256,50.551C216.088,50.551 177.386,62.01 144.078,83.689C111.636,104.805 85.884,134.476 69.608,169.495C67.81,173.364 69.488,177.96 73.358,179.758C77.228,181.558 81.822,179.878 83.621,176.009C98.675,143.62 122.496,116.175 152.508,96.641C168.18,86.44 185.148,78.693 202.897,73.539C199.122,77.05 195.45,80.95 191.897,85.233C174.298,106.444 160.38,136.059 151.648,170.873C150.61,175.013 153.123,179.209 157.262,180.247C161.397,181.29 165.597,178.771 166.636,174.633C182.053,113.173 213.539,71.976 248.273,66.609L248.273,172.753C248.273,177.021 251.732,180.479 255.999,180.479C260.266,180.479 263.725,177.02 263.725,172.753L263.725,66.607C298.46,71.974 329.946,113.171 345.362,174.631C346.242,178.139 349.39,180.479 352.85,180.479C353.472,180.479 354.105,180.404 354.736,180.245C358.875,179.207 361.388,175.011 360.35,170.871C351.618,136.057 337.7,106.442 320.101,85.231C316.548,80.949 312.876,77.049 309.101,73.537C326.85,78.691 343.818,86.438 359.49,96.639C389.502,116.173 413.322,143.618 428.377,176.007C429.686,178.823 432.475,180.479 435.389,180.479C436.479,180.479 437.587,180.247 438.641,179.757C442.511,177.96 444.19,173.364 442.391,169.495Z" style="fill:rgb(0,191,255);fill-rule:nonzero;"/>
        </g>
        <g transform="matrix(0.957031,0,0,0.957031,12,3.17211)">
            <path d="M438.641,332.242C434.77,330.442 430.177,332.122 428.378,335.991C413.324,368.38 389.503,395.825 359.491,415.359C343.819,425.56 326.851,433.307 309.102,438.461C312.877,434.95 316.549,431.05 320.102,426.767C337.701,405.556 351.619,375.941 360.351,341.127C361.389,336.987 358.876,332.791 354.737,331.753C350.604,330.712 346.401,333.229 345.363,337.367C329.946,398.827 298.46,440.024 263.726,445.391L263.726,339.248C263.726,334.98 260.267,331.522 256,331.522C251.733,331.522 248.274,334.981 248.274,339.248L248.274,445.392C213.539,440.025 182.053,398.828 166.637,337.368C165.599,333.229 161.402,330.712 157.263,331.754C153.124,332.792 150.611,336.988 151.649,341.128C160.381,375.942 174.299,405.557 191.898,426.768C195.451,431.05 199.123,434.95 202.898,438.462C185.149,433.308 168.181,425.561 152.509,415.36C122.497,395.826 98.677,368.381 83.622,335.992C81.823,332.123 77.228,330.444 73.359,332.243C69.489,334.041 67.811,338.636 69.609,342.506C85.886,377.525 111.637,407.196 144.079,428.312C177.386,449.991 216.088,461.45 256,461.45C295.912,461.45 334.614,449.991 367.921,428.312C400.363,407.196 426.115,377.525 442.391,342.506C444.19,338.636 442.511,334.04 438.641,332.242Z" style="fill:rgb(0,191,255);fill-rule:nonzero;"/>
        </g>
        <g transform="matrix(0.957031,0,0,0.957031,12,3.17211)">
            <path d="M0,315.696L0,196.303C0,182.156 11.469,170.687 25.616,170.687L486.384,170.687C500.531,170.687 512,182.156 512,196.303L512,315.696C512,329.843 500.531,341.312 486.384,341.312L25.616,341.312C11.469,341.312 -0,329.843 -0,315.696Z" style="fill:rgb(171,165,165);fill-rule:nonzero;"/>
            <path d="M486.384,170.687L451.002,170.687C465.149,170.687 476.618,182.156 476.618,196.303L476.618,315.696C476.618,329.843 465.149,341.312 451.002,341.312L486.384,341.312C500.531,341.312 512,329.843 512,315.696L512,196.303C512,182.156 500.531,170.687 486.384,170.687Z" style="fill:rgb(141,141,141);fill-rule:nonzero;"/>
        </g>
        <g transform="matrix(0.957031,0,0,0.957031,12,3.17211)">
            <path d="M136.49,206.648C132.223,206.689 128.797,210.182 128.839,214.449L129.401,272.626L86.247,210.137C84.325,207.355 80.817,206.147 77.59,207.151C74.362,208.157 72.163,211.146 72.163,214.527L72.163,296.345C72.163,300.613 75.622,304.071 79.889,304.071C84.156,304.071 87.615,300.612 87.615,296.345L87.615,239.312L128.852,299.026C131.222,302.451 135.137,303.919 138.824,302.768C142.61,301.586 145.055,297.98 145.055,293.507L144.289,214.299C144.249,210.033 140.717,206.595 136.49,206.648Z" style="fill:rgb(237,250,255);fill-rule:nonzero;"/>
            <path d="M212.274,222.475C216.541,222.475 220,219.016 220,214.749C220,210.481 216.541,207.023 212.274,207.023L178.05,207.023C173.783,207.023 170.324,210.482 170.324,214.749L170.324,295.971C170.324,300.239 173.783,303.697 178.05,303.697L212.274,303.697C216.541,303.697 220,300.238 220,295.971C220,291.704 216.541,288.245 212.274,288.245L185.776,288.245L185.776,263.086L209.75,263.086C214.017,263.086 217.476,259.627 217.476,255.36C217.476,251.093 214.017,247.634 209.75,247.634L185.776,247.634L185.776,222.476L212.274,222.476L212.274,222.475Z" style="fill:rgb(237,250,255);fill-rule:nonzero;"/>
            <path d="M417.236,248.757C406.757,244.891 397.032,240.672 394.499,239.56C392.032,237.732 390.837,234.826 391.288,231.682C391.863,227.673 394.962,224.45 399.576,223.06C412.49,219.164 424.201,228.53 424.459,228.739C427.725,231.457 432.577,231.028 435.316,227.772C438.061,224.505 437.639,219.631 434.373,216.886C433.642,216.271 416.221,201.908 395.119,208.263C384.752,211.387 377.423,219.519 375.993,229.485C374.659,238.778 378.684,247.713 386.496,252.807C386.838,253.03 387.196,253.226 387.568,253.392C388.039,253.602 399.254,258.594 411.889,263.254C420.743,266.521 425.247,271.611 424.245,277.221C423.244,282.824 416.687,288.618 407.445,288.618C398.598,288.618 390.06,285.024 384.605,279.005C381.739,275.843 376.853,275.603 373.692,278.468C370.53,281.333 370.29,286.22 373.155,289.381C381.49,298.579 394.309,304.07 407.446,304.07C423.239,304.07 437.001,293.695 439.458,279.936C441.318,269.513 436.458,255.847 417.236,248.757Z" style="fill:rgb(237,250,255);fill-rule:nonzero;"/>
            <path d="M343.962,206.946C339.783,206.114 335.709,208.83 334.876,213.015L323.432,270.518L305.435,212.098C304.179,208.02 299.854,205.733 295.777,206.988C292.961,207.856 291,210.187 290.469,212.889L272.631,270.52L261.228,212.873C260.401,208.687 256.337,205.964 252.149,206.793C247.963,207.621 245.241,211.685 246.069,215.871L262.04,296.611C262.113,296.981 262.213,297.344 262.339,297.7C263.696,301.517 267.316,304.069 271.362,304.069L271.429,304.069C275.502,304.041 279.119,301.43 280.429,297.574C280.452,297.507 280.474,297.44 280.494,297.373L298.056,240.634L315.54,297.388C315.572,297.493 315.606,297.596 315.643,297.699C316.999,301.517 320.619,304.07 324.667,304.07L324.733,304.07C328.806,304.042 332.424,301.432 333.734,297.575C333.843,297.255 333.93,296.928 333.997,296.597L350.032,216.031C350.864,211.847 348.147,207.779 343.962,206.946Z" style="fill:rgb(237,250,255);fill-rule:nonzero;"/>
        </g>
    </g>
</svg>
