<?xml version="1.0" encoding="UTF-8" standalone="no"?>
<!DOCTYPE svg PUBLIC "-//W3C//DTD SVG 1.1//EN" "http://www.w3.org/Graphics/SVG/1.1/DTD/svg11.dtd">
<svg width="100%" height="100%" viewBox="0 0 512 512" version="1.1" xmlns="http://www.w3.org/2000/svg" xmlns:xlink="http://www.w3.org/1999/xlink" xml:space="preserve" xmlns:serif="http://www.serif.com/" style="fill-rule:evenodd;clip-rule:evenodd;stroke-linejoin:round;stroke-miterlimit:2;">
    <g>
        <g transform="matrix(0.957031,0,0,0.957031,12,3.17211)">
            <circle cx="256" cy="256" r="197.723" style="fill:rgb(144,216,249);"/>
        </g>
        <g transform="matrix(0.957031,0,0,0.957031,12,3.17211)">
            <path d="M375.758,98.674C401.098,131.912 416.156,173.411 416.156,218.432C416.156,327.632 327.632,416.156 218.433,416.156C173.411,416.156 131.913,401.098 98.675,375.758C134.797,423.138 191.823,453.723 256.001,453.723C365.201,453.723 453.724,365.199 453.724,255.999C453.723,191.822 423.138,134.796 375.758,98.674Z" style="fill:rgb(117,206,249);fill-rule:nonzero;"/>
        </g>
        <g transform="matrix(0.957031,0,0,0.957031,12,3.17211)">
            <path d="M442.391,169.495C426.114,134.476 400.363,104.805 367.921,83.689C334.614,62.01 295.912,50.551 256,50.551C216.088,50.551 177.386,62.01 144.078,83.689C111.636,104.805 85.884,134.476 69.608,169.495C67.81,173.364 69.488,177.96 73.358,179.758C77.228,181.558 81.822,179.878 83.621,176.009C98.675,143.62 122.496,116.175 152.508,96.641C168.18,86.44 185.148,78.693 202.897,73.539C199.122,77.05 195.45,80.95 191.897,85.233C174.298,106.444 160.38,136.059 151.648,170.873C150.61,175.013 153.123,179.209 157.262,180.247C161.397,181.29 165.597,178.771 166.636,174.633C182.053,113.173 213.539,71.976 248.273,66.609L248.273,172.753C248.273,177.021 251.732,180.479 255.999,180.479C260.266,180.479 263.725,177.02 263.725,172.753L263.725,66.607C298.46,71.974 329.946,113.171 345.362,174.631C346.242,178.139 349.39,180.479 352.85,180.479C353.472,180.479 354.105,180.404 354.736,180.245C358.875,179.207 361.388,175.011 360.35,170.871C351.618,136.057 337.7,106.442 320.101,85.231C316.548,80.949 312.876,77.049 309.101,73.537C326.85,78.691 343.818,86.438 359.49,96.639C389.502,116.173 413.322,143.618 428.377,176.007C429.686,178.823 432.475,180.479 435.389,180.479C436.479,180.479 437.587,180.247 438.641,179.757C442.511,177.96 444.19,173.364 442.391,169.495Z" style="fill:rgb(0,191,255);fill-rule:nonzero;"/>
        </g>
        <g transform="matrix(0.957031,0,0,0.957031,12,3.17211)">
            <path d="M438.641,332.242C434.77,330.442 430.177,332.122 428.378,335.991C413.324,368.38 389.503,395.825 359.491,415.359C343.819,425.56 326.851,433.307 309.102,438.461C312.877,434.95 316.549,431.05 320.102,426.767C337.701,405.556 351.619,375.941 360.351,341.127C361.389,336.987 358.876,332.791 354.737,331.753C350.604,330.712 346.401,333.229 345.363,337.367C329.946,398.827 298.46,440.024 263.726,445.391L263.726,339.248C263.726,334.98 260.267,331.522 256,331.522C251.733,331.522 248.274,334.981 248.274,339.248L248.274,445.392C213.539,440.025 182.053,398.828 166.637,337.368C165.599,333.229 161.402,330.712 157.263,331.754C153.124,332.792 150.611,336.988 151.649,341.128C160.381,375.942 174.299,405.557 191.898,426.768C195.451,431.05 199.123,434.95 202.898,438.462C185.149,433.308 168.181,425.561 152.509,415.36C122.497,395.826 98.677,368.381 83.622,335.992C81.823,332.123 77.228,330.444 73.359,332.243C69.489,334.041 67.811,338.636 69.609,342.506C85.886,377.525 111.637,407.196 144.079,428.312C177.386,449.991 216.088,461.45 256,461.45C295.912,461.45 334.614,449.991 367.921,428.312C400.363,407.196 426.115,377.525 442.391,342.506C444.19,338.636 442.511,334.04 438.641,332.242Z" style="fill:rgb(0,191,255);fill-rule:nonzero;"/>
        </g>
        <g transform="matrix(0.957031,0,0,0.957031,12,3.17211)">
            <path d="M0,315.696L0,196.303C0,182.156 11.469,170.687 25.616,170.687L486.384,170.687C500.531,170.687 512,182.156 512,196.303L512,315.696C512,329.843 500.531,341.312 486.384,341.312L25.616,341.312C11.469,341.312 -0,329.843 -0,315.696Z" style="fill:rgb(171,165,165);fill-rule:nonzero;"/>
            <path d="M486.384,170.687L451.002,170.687C465.149,170.687 476.618,182.156 476.618,196.303L476.618,315.696C476.618,329.843 465.149,341.312 451.002,341.312L486.384,341.312C500.531,341.312 512,329.843 512,315.696L512,196.303C512,182.156 500.531,170.687 486.384,170.687Z" style="fill:rgb(141,141,141);fill-rule:nonzero;"/>
        </g>
        <g transform="matrix(1.73292,0,0,1.73292,-134.792,-437.808)">
            <text x="103.594px" y="415.14px" style="font-family:'STHeitiSC-Medium', 'Heiti SC';font-size:59.89px;fill:rgb(237,250,255);">ニュース</text>
        </g>
    </g>
</svg>
