<?xml version="1.0" encoding="UTF-8" standalone="no"?>
<!DOCTYPE svg PUBLIC "-//W3C//DTD SVG 1.1//EN" "http://www.w3.org/Graphics/SVG/1.1/DTD/svg11.dtd">
<svg width="100%" height="100%" viewBox="0 0 180 130" version="1.1" xmlns="http://www.w3.org/2000/svg" xmlns:xlink="http://www.w3.org/1999/xlink" xml:space="preserve" xmlns:serif="http://www.serif.com/" style="fill-rule:evenodd;clip-rule:evenodd;stroke-linecap:round;stroke-miterlimit:1;">
    <g transform="matrix(0.503855,0,0,0.503855,-2.85204,44.195)">
        <path d="M108.991,57.65L123.152,43.525C109.46,34.19 97.559,30.398 87.043,31.798C75.543,33.633 66.702,38.287 59.859,45.059C52.807,52.245 48.83,59.117 47.856,65.682C50.202,64.5 52.612,63.349 55.249,62.313C57.068,61.114 60.662,60.69 65.39,60.071L73.075,60.887C74.783,58.459 77.671,56.149 82.285,54.011C86.498,52.569 90.919,51.959 95.569,52.261C100.21,53.182 104.932,54.839 108.991,57.65Z" style="fill:rgb(232,237,244);"/>
        <path d="M92.843,106.324L92.383,126.75L121.393,126.907C125.559,126.873 129.357,125.918 132.651,123.704C137.651,121.256 141.956,117.953 145.36,113.036C148.111,110.335 149.924,105.386 151.577,98.06C152.752,92.062 151.972,86.392 149.685,80.975C148.485,77.708 146.164,74.268 143.075,70.711L136.971,65.654C136.58,62.654 135.315,59.192 133.326,55.346C131.435,53.168 129.635,50.533 127.889,47.628L123.237,43.325L108.961,57.728L114.414,64.487L117.287,70.378L118.334,76.092L118.219,80.037L125.22,82.295C127.378,83.898 129.028,86.092 130.315,88.712C131.128,91.81 131.448,95.014 130.224,98.548C128.978,100.685 127.732,102.266 126.485,103.386C124.943,105.254 122.802,106.023 120.387,106.292L92.843,106.324Z" style="fill:rgb(222,229,239);"/>
        <path d="M46.757,120.157L61.723,105.191C63.196,106.223 64.379,106.601 65.271,106.326L74.585,106.172L92.687,106.28L92.432,126.766L63.861,126.603C60.63,126.889 58.241,126.229 56.174,125.207C54.553,125.161 52.76,124.338 50.849,122.984C49.26,122.791 47.91,121.803 46.757,120.157Z" style="fill:rgb(232,237,244);"/>
        <path d="M46.569,120.285L61.445,105.328C56.815,103.087 54.074,100.196 54.095,96.357C52.773,91.545 53.757,87.788 57.086,85.011C58.627,82.738 61.233,81.303 64.808,80.629C67.568,80.74 69.921,81.169 72.535,81.863C74.114,83.226 76.382,85.19 78.397,87.716L93.335,72.953L82.268,63.729C77.65,61.708 73.032,60.586 68.414,59.873C60.877,60.063 55.053,61.966 49.842,64.483C43.731,67.852 40.037,72.167 37.27,76.846C35.005,81.165 33.394,85.708 33.377,90.398C32.807,95.439 33.084,99.973 34.694,103.706C36.295,109.012 37.922,113.789 39.959,114.88C41.472,118.08 43.839,119.065 46.569,120.285Z" style="fill:rgb(240,243,248);"/>
    </g>
    <g transform="matrix(0.4864,0,0,0.4864,87.1378,49.0844)">
        <path d="M72.203,52.334C67.073,50.749 62.102,50.357 57.263,50.952C52.871,52.337 49.09,54.426 46.588,57.992C43.062,61.994 41.59,66.5 42.373,71.559C34.967,71.74 30.164,73.334 27.845,76.277C23.96,78.763 21.278,82.643 20.154,88.326C18.926,94.114 20.386,99.505 24.074,104.566C26.694,108.836 31.015,111.649 37.705,112.431L147.038,112.517C154.475,111.383 160.011,108.1 163.483,102.486C166.296,98.72 167.989,93.865 167.921,87.297C167.414,81.172 165.727,76.204 162.649,72.6C159.515,69.359 155.438,66.748 150.561,64.67C150.444,59.794 149.205,55.922 146.327,53.517C144.352,50.787 140.976,48.79 135.949,47.658C132.718,47.801 129.664,48.566 126.723,49.726C123.739,43.49 119.5,38.787 113.9,35.748C107.062,33.159 100.044,32.566 92.916,33.175C87.871,34.643 83.28,36.792 79.688,40.441C76.474,43.046 73.956,46.967 72.203,52.334Z" style="fill:rgb(239,242,247);"/>
        <g transform="matrix(1.20465,0,0,1.20465,36.821,39.2065)">
            <g transform="matrix(1,0,0,1,-0.367148,-0.316277)">
                <path d="M27.286,19.503L44.636,16.929L44.904,34.327L27.147,34.196L27.286,19.503Z" style="fill:none;stroke:rgb(141,141,141);stroke-width:0.57px;"/>
                <path d="M27.286,19.503L44.636,16.929L44.904,34.327L27.147,34.196L27.286,19.503Z" style="fill:white;"/>
            </g>
            <g transform="matrix(1,0,0,1,0.660655,-0.314065)">
                <path d="M68.6,34.323L69.001,13.855L45.917,16.833L46.021,34.266L68.6,34.323Z" style="fill:white;stroke:rgb(139,139,139);stroke-width:0.28px;"/>
            </g>
            <g transform="matrix(1,0,0,1,-0.332191,0.403644)">
                <path d="M27.454,35.324L44.667,35.635L44.686,52.342L27.664,49.411L27.454,35.324Z" style="fill:none;stroke:rgb(141,141,141);stroke-width:0.57px;"/>
                <path d="M27.454,35.324L44.667,35.635L44.686,52.342L27.664,49.411L27.454,35.324Z" style="fill:white;"/>
            </g>
            <g transform="matrix(1,0,0,1,1.03135,0.652432)">
                <path d="M68.58,55.31L68.673,35.461L45.717,35.416L45.742,52.78L68.58,55.31Z" style="fill:none;stroke:rgb(141,141,141);stroke-width:0.85px;"/>
                <path d="M68.58,55.31L68.673,35.461L45.717,35.416L45.742,52.78L68.58,55.31Z" style="fill:white;"/>
            </g>
        </g>
    </g>
    <g transform="matrix(0.459213,0,0,0.459213,49.2103,1.60586)">
        <path d="M27.27,46.686C28.719,37.658 32.936,29.268 40.054,21.547C44.53,16.933 50.459,12.62 59.151,8.878C68.022,6.086 77.628,5.322 88.308,7.526C94.974,9.115 101.776,12.323 108.733,17.375L116.821,25.988C122.945,25.096 129.182,25.108 135.597,26.542C142.446,28.755 148.476,32.307 153.726,37.136C161.515,45.427 165.548,55.442 165.738,67.221C165.015,74.037 163.438,80.168 160.441,85.161C157.471,90.502 153.184,95.426 147.095,99.782C142.254,103.43 136.255,105.34 129.67,106.371L36.855,106.297C31.524,106.278 26.166,105.03 20.769,101.916C14.648,97.869 10.336,91.227 7.559,82.384C6.216,76.382 6.942,69.742 9.642,62.578C11.293,58.54 14.252,54.793 18.518,51.336L27.27,46.686ZM37.245,55.038C38.649,41.431 42.696,34.004 47.725,28.872C56.026,21.536 64.671,17.732 73.011,16.476C82.404,16.141 90.823,18.431 98.386,23.028C104.023,27.079 108.852,32.155 112.309,38.967C116.199,36.841 120.838,35.559 127.054,36.049C135.937,37.157 143.125,40.666 148.335,46.981C154.414,56.153 156.073,64.486 154.5,72.205C152.941,78.844 149.548,84.057 145.132,88.476C140.496,92.606 135.132,94.879 129.188,95.666L35.671,96.049C29.671,95.412 24.811,92.75 21.427,87.462C17.743,83.456 17.21,77.383 18.178,70.325C19.046,65.62 21.449,61.716 25.659,58.755C29.521,56.909 33.383,55.721 37.245,55.038Z" style="fill:rgb(239,242,247);"/>
        <g transform="matrix(1.64868,0,0,1.64868,-53.1181,-60.0489)">
            <path d="M53.49,72.313L54.743,74.112C56.549,76.498 59.989,78.819 65.402,81.061C69.953,83.359 74.715,85.094 80.138,85.065C84.49,85.697 88.081,85.797 90.979,85.412C95.755,85.033 99.822,84.123 102.853,82.436C106.564,81.092 110.077,79.354 113.351,77.138L111.78,75.617C109.604,76.909 106.645,78.201 103.597,79.092C99.85,80.188 95.963,80.481 91.159,80.809C86.999,81.591 82.393,81.714 77.361,80.462C72.519,80.078 67.945,78.424 63.539,76.587C59.9,75.644 56.689,73.989 53.49,72.313Z" style="fill:rgb(239,242,247);"/>
            <path d="M106.823,73.926L112.234,73.575C114.194,73.326 115.292,73.681 115.799,74.45C116.157,76.879 115.402,79.706 113.725,82.863C115.783,81.882 117.218,80.278 117.968,77.99C118.691,75.97 118.959,73.949 118.811,71.929C116.422,71.286 113.96,71.079 111.425,71.308C108.944,72.101 107.56,72.987 106.823,73.926Z" style="fill:rgb(239,242,247);"/>
        </g>
    </g>
    <g transform="matrix(1.18247,0,0,1.15416,-17.0602,-6.09389)">
        <path d="M85.575,59.715C86.374,56.333 86.34,52.703 85.249,48.797C82.404,48.992 79.514,49.487 76.579,50.274C81.121,46.607 85.107,42.074 87.69,35.352C89.926,41.087 94.097,45.819 98.8,50.274C96.188,49.494 93.532,49.007 90.832,48.807C89.313,52.961 89.404,56.456 90.366,59.655C94.792,60.685 98.093,64.657 98.093,69.395C98.093,70.383 97.95,71.338 97.682,72.239C100.269,74.803 103.546,76.717 107.667,77.774C108.921,75.212 109.938,72.462 110.724,69.527C111.626,75.292 113.554,81.009 118.078,86.603C111.998,85.675 105.819,86.924 99.613,88.772C101.595,86.899 103.344,84.842 104.867,82.604C101.824,78.964 98.511,77.31 94.996,76.628C93.201,78.342 90.769,79.395 88.093,79.395C85.354,79.395 82.871,78.291 81.063,76.504C77.694,77.488 74.531,79.336 71.668,82.266C73.259,84.633 75.131,86.889 77.278,89.039C71.842,86.932 65.937,85.738 58.845,86.851C62.676,82.057 64.674,76.088 66.167,69.794C66.8,72.446 67.708,74.988 68.885,77.426C73.269,76.665 76.254,74.819 78.541,72.359C78.25,71.423 78.093,70.427 78.093,69.395C78.093,64.746 81.273,60.833 85.575,59.715Z" style="fill:none;stroke:rgb(141,141,141);stroke-width:1.14px;stroke-linejoin:round;"/>
        <path d="M85.575,59.715C86.374,56.333 86.34,52.703 85.249,48.797C82.404,48.992 79.514,49.487 76.579,50.274C81.121,46.607 85.107,42.074 87.69,35.352C89.926,41.087 94.097,45.819 98.8,50.274C96.188,49.494 93.532,49.007 90.832,48.807C89.313,52.961 89.404,56.456 90.366,59.655C94.792,60.685 98.093,64.657 98.093,69.395C98.093,70.383 97.95,71.338 97.682,72.239C100.269,74.803 103.546,76.717 107.667,77.774C108.921,75.212 109.938,72.462 110.724,69.527C111.626,75.292 113.554,81.009 118.078,86.603C111.998,85.675 105.819,86.924 99.613,88.772C101.595,86.899 103.344,84.842 104.867,82.604C101.824,78.964 98.511,77.31 94.996,76.628C93.201,78.342 90.769,79.395 88.093,79.395C85.354,79.395 82.871,78.291 81.063,76.504C77.694,77.488 74.531,79.336 71.668,82.266C73.259,84.633 75.131,86.889 77.278,89.039C71.842,86.932 65.937,85.738 58.845,86.851C62.676,82.057 64.674,76.088 66.167,69.794C66.8,72.446 67.708,74.988 68.885,77.426C73.269,76.665 76.254,74.819 78.541,72.359C78.25,71.423 78.093,70.427 78.093,69.395C78.093,64.746 81.273,60.833 85.575,59.715Z" style="fill:rgb(217,209,209);"/>
    </g>
</svg>
