<?xml version="1.0" encoding="utf-8"?>
<!-- Generator: Adobe Illustrator 26.0.3, SVG Export Plug-In . SVG Version: 6.00 Build 0)  -->
<svg version="1.1" id="Layer_1" xmlns="http://www.w3.org/2000/svg" xmlns:xlink="http://www.w3.org/1999/xlink" x="0px" y="0px"
	 viewBox="0 0 1171.03 194.07" style="enable-background:new 0 0 1171.03 194.07;" xml:space="preserve">
<style type="text/css">
	.st0{fill:#6DBCF4;}
</style>
<path class="st0" d="M1154.14,160.98c-8.47-0.07-38.7-0.02-47.17-0.02V161c-7.41-0.54-14.6-3.84-20.02-9.28
	c-5.93-5.96-9.16-13.68-9.09-21.73c0.07-8.11,3.38-15.8,9.3-21.67c5.93-5.87,13.68-9.11,21.83-9.14c0.03,0,20.06-0.8,29.06,16.34
	c-1.49,0-3.05,0-4.64,0c-8.55,0-15.65,0-18.35,0c-1.81,0-3.64,0.07-5.43,0.37c-8.3,1.38-13.94,7.88-13.27,15.19
	c0.72,7.98,6.95,13.38,15.67,13.46c3.3,0.03,11.68,0.04,21.38,0.04c9.71,0,18.5-0.01,21.8-0.04c8.69-0.07,14.89-5.43,15.66-13.36
	c0,0,0.02,0,0.02,0c0.46-3.98-0.28-9.34-1.26-13.89c-3.36-15.58-12.17-29.08-24.81-38.02c-12.99-9.19-29.23-12.85-45.72-10.33
	c-16.24,2.49-30.48,11.11-40.09,24.27c-9.86,13.51-13.81,30.24-11.13,47.12c2.68,16.83,12.46,31.95,26.83,41.48
	c9.74,6.46,20.88,9.9,32.44,10.18v-0.04c7.65,0.01,36.42,0.03,43.76,0.01c1.94,0,3.9-0.08,5.8-0.4c8.87-1.47,14.9-8.37,14.19-16.18
	C1170.12,166.84,1163.47,161.06,1154.14,160.98z"/>
<path class="st0" d="M137.85,191.85c-32.15,0-100.66,0-106.7,0c-9.75,0-18.03-6.74-17.99-15.77c0.03-7.57,8.2-15.05,17.93-15.05
	c36.33-0.01,64.67-0.02,101,0.02c5.05,0.01,9.96-0.72,14.7-2.33c8.38-2.84,12.92-9.24,13.32-18.45
	c0.55-12.43-2.83-19.02-11.62-23.06c-5.7-2.62-11.68-3.79-17.89-3.81c-24.83-0.08-49.67,0.06-74.5-0.16
	C30.61,113.02,8.11,95.69,1.97,72.42c-8.4-31.85,10.86-60.2,43.02-67.48c6.98-1.58,14.09-2.16,21.28-2.14
	c34.5,0.1,58.86,0.02,93.36,0.07c7.65,0.01,15.21,7.71,15.29,14.55c0.11,10.88-7.67,16.93-15.35,16.95
	c-2.3,0.01-62.78,0.02-95.45,0.07c-6.36,0.01-12.63,0.55-18.57,3.05c-9.28,3.9-14.85,11.93-14.34,20.67
	C31.84,69,38.3,77.55,48.24,80.23c4.96,1.34,10.04,2.14,15.25,2.13c24.5-0.04,49.01-0.48,73.49,0.23
	c18.51,0.54,34.23,8.03,45.35,23.3c13.66,18.76,13.65,50.98-5.66,70.3c-10.95,10.95-27.27,14.32-28.72,14.62
	C143.87,191.66,140.56,191.85,137.85,191.85z"/>
<path class="st0" d="M596.37,191.85c-32.15,0-100.66,0-106.7,0c-9.75,0-18.03-6.74-17.99-15.77c0.03-7.57,8.2-15.05,17.93-15.05
	c36.33-0.01,64.67-0.02,101,0.02c5.05,0.01,9.96-0.72,14.7-2.33c8.38-2.84,12.92-9.24,13.32-18.45
	c0.55-12.43-2.83-19.02-11.62-23.06c-5.7-2.62-11.68-3.79-17.89-3.81c-24.83-0.08-49.67,0.06-74.5-0.16
	c-25.49-0.22-47.99-17.55-54.13-40.82c-8.4-31.85,10.86-60.2,43.02-67.48c6.98-1.58,14.09-2.16,21.28-2.14
	c34.5,0.1,58.65,0.02,93.15,0.07c7.65,0.01,15.21,7.71,15.29,14.55c0.11,10.88-7.67,16.93-15.35,16.95
	c-2.3,0.01-62.56,0.02-95.23,0.07c-6.36,0.01-12.63,0.55-18.57,3.05c-9.28,3.9-14.85,11.93-14.34,20.67
	c0.63,10.83,7.09,19.38,17.02,22.06c4.96,1.34,10.04,2.14,15.25,2.13c24.5-0.04,49.01-0.48,73.49,0.23
	c18.51,0.54,34.23,8.03,45.35,23.3c13.66,18.76,13.65,50.98-5.66,70.3c-10.95,10.95-27.27,14.32-28.72,14.62
	C602.4,191.66,599.09,191.85,596.37,191.85z"/>
<path class="st0" d="M1002.09,116.23c0-8.78-0.06-22.19,0.02-30.97c0.08-9.53,5.98-16.32,14.69-17.11
	c7.98-0.72,15.08,5.44,16.59,14.49c0.32,1.94,0.4,3.95,0.4,5.92c0.03,15.57-0.08,35.78,0.04,51.35
	c0.15,19.99-8.92,34.88-26.22,44.14c-20.83,11.15-42.92,11.69-64.44,2.36c-18.8-8.15-28.15-23.88-28.9-44.04
	c-0.65-17.37-0.22-39.42-0.1-56.81c0.07-10.26,6.89-17.53,15.95-17.44c9.03,0.1,15.68,7.5,15.72,17.69
	c0.06,15.74,0.59,36.13-0.15,51.84c-0.67,14.37,7.89,21.37,18.92,22.92c9.75,1.37,19.29,0.83,28.11-3.93
	c6.09-3.28,9.77-8.08,9.44-15.57C1001.81,132.82,1002.09,124.52,1002.09,116.23z"/>
<path class="st0" d="M863.9,30.14c0.01-26.2,0.01,12.2,0.01-14c0-6.61,3.06-11.39,8.94-14.32c5.83-2.91,11.37-1.93,16.35,1.95
	c4.19,3.26,5.88,7.72,5.87,13.06c-0.08,31.67-0.03,67.08-0.03,98.75c0,20.89,0.04,41.78-0.08,62.67
	c-0.04,7.47-5.65,13.93-12.34,14.76c-9.07,1.12-15.98-2.98-18.15-11.05c-0.59-2.19-0.56-4.59-0.56-6.89
	C863.89,149.54,863.9,55.67,863.9,30.14z"/>
<path class="st0" d="M329.22,172.3c-4.43-8.81-4.83-18.28-5.23-27.44c-0.04-0.86-0.07-1.71-0.11-2.57
	c-0.07-1.56-0.13-3.14-0.19-4.68c-0.24-6.43-0.48-13.08-1.86-19.47c-3.36-15.58-12.17-29.08-24.81-38.02
	c-12.99-9.19-29.23-12.85-45.72-10.33c-16.24,2.49-30.48,11.11-40.09,24.27c-9.86,13.51-13.81,30.24-11.13,47.12
	c2.68,16.83,12.46,31.95,26.83,41.48c14.56,9.66,32.24,12.6,49.78,8.27c6.89-1.7,13.76-4.87,21.63-9.99l0.11-0.07l0.07,0.11
	c0.43,0.68,0.84,1.35,1.24,2c0.86,1.4,1.67,2.72,2.6,3.97c4.61,6.19,13.02,7.86,20,3.97C329.33,187.01,332.42,178.66,329.22,172.3z
	 M261.43,161.95c-0.04,0-0.08,0-0.12,0c-8.15,0-16.21-3.41-22.14-9.37c-5.93-5.96-9.16-13.68-9.09-21.73
	c0.07-8.11,3.38-15.8,9.3-21.67c5.93-5.87,13.68-9.11,21.83-9.14c0.04,0,0.07,0,0.11,0c8.11,0,15.79,3.2,21.64,9.02
	c5.9,5.87,9.15,13.62,9.15,21.82C292.11,147.94,278.35,161.88,261.43,161.95z"/>
<path class="st0" d="M461.62,172.3c-4.43-8.81-4.83-18.28-5.23-27.44c-0.04-0.86-0.07-1.71-0.11-2.57
	c-0.07-1.56-0.13-3.14-0.19-4.68c-0.24-6.43-0.48-13.08-1.86-19.47c-3.36-15.58-12.17-29.08-24.81-38.02
	c-12.99-9.19-29.23-12.85-45.72-10.33c-16.24,2.49-30.48,11.11-40.09,24.27c-9.86,13.51-13.81,30.24-11.13,47.12
	c2.68,16.83,12.46,31.95,26.83,41.48c14.56,9.66,32.24,12.6,49.78,8.27c6.89-1.7,13.76-4.87,21.63-9.99l0.11-0.07l0.07,0.11
	c0.43,0.68,0.84,1.35,1.24,2c0.86,1.4,1.67,2.72,2.6,3.97c4.61,6.19,13.02,7.86,20,3.97C461.72,187.01,464.81,178.66,461.62,172.3z
	 M393.82,161.95c-0.04,0-0.08,0-0.12,0c-8.15,0-16.21-3.41-22.14-9.37c-5.93-5.96-9.16-13.68-9.09-21.73
	c0.07-8.11,3.38-15.8,9.3-21.67c5.93-5.87,13.68-9.11,21.83-9.14c0.04,0,0.07,0,0.11,0c8.11,0,15.79,3.2,21.64,9.02
	c5.9,5.87,9.15,13.62,9.15,21.82C424.51,147.94,410.75,161.88,393.82,161.95z"/>
<path class="st0" d="M814.54,113.15c-16.09,0-31.79,0-47.49,0c-5.13,0-10.26,0.1-15.38-0.03c-8.55-0.22-15.65-7.33-15.81-15.65
	c-0.16-8.64,6.27-15.75,15.08-16.1c27.48-1.07,54.98-1.1,82.46,0c10.16,0.41,16.47,7.78,15.95,18
	c-1.35,26.33-10.7,49.31-30.04,67.66c-18.11,17.18-39.63,26.02-64.96,26.98c-47.82,1.81-89.68-33.79-98.33-80.37
	C646.77,63.86,681.72,11.6,731.79,2.08c35.57-6.76,66.09,2.98,91.29,28.92c6.77,6.97,7.08,17.15,0.87,23.31
	c-6.73,6.69-16.45,6.49-23.65-0.89c-18.22-18.68-40.08-25.12-65.36-18.96c-25.64,6.25-45.08,30.11-47.58,56.38
	c-3.18,33.5,19.53,62.52,50.22,69.68c32.73,7.64,67.72-12.75,76.81-45.12C814.52,114.95,814.46,114.43,814.54,113.15z"/>
</svg>
