<?xml version="1.0" encoding="UTF-8" standalone="no"?>
<!DOCTYPE svg PUBLIC "-//W3C//DTD SVG 1.1//EN" "http://www.w3.org/Graphics/SVG/1.1/DTD/svg11.dtd">
<svg width="100%" height="100%" viewBox="0 0 512 512" version="1.1" xmlns="http://www.w3.org/2000/svg" xmlns:xlink="http://www.w3.org/1999/xlink" xml:space="preserve" xmlns:serif="http://www.serif.com/" style="fill-rule:evenodd;clip-rule:evenodd;stroke-linejoin:round;stroke-miterlimit:2;">
    <g>
        <g transform="matrix(0.957031,0,0,0.957031,11,1.57317)">
            <g>
                <g>
                    <g>
                        <g>
                            <g transform="matrix(1.0449,0,0,1.0449,-11.4939,-1.6438)">
                                <path d="M49.268,435.784L462.733,435.784L462.733,165.72C462.732,150.708 450.623,138.538 435.686,138.538L76.314,138.538C61.376,138.538 49.268,150.708 49.268,165.72L49.268,435.784Z" style="fill:rgb(247,244,247);fill-rule:nonzero;stroke:rgb(141,141,141);stroke-width:8px;"/>
                            </g>
                            <path d="M408.692,178.318L82.319,178.318C78.284,178.318 75.013,181.606 75.013,185.661L75.013,418.502L408.692,418.502L408.692,178.318Z" style="fill:rgb(237,250,255);fill-rule:nonzero;"/>
                            <path d="M429.682,178.318L404.538,178.318L404.538,418.502L436.988,418.502L436.988,185.661C436.988,181.606 433.717,178.318 429.682,178.318Z" style="fill:rgb(157,198,251);fill-rule:nonzero;"/>
                            <path d="M448.225,432.796C448.225,425.527 442.884,419.527 435.935,418.502L14.307,418.502C6.405,418.502 0,424.94 0,432.881C0,456.357 18.935,475.388 42.293,475.388L409.385,475.388C431.145,473.499 448.225,455.157 448.225,432.796Z" style="fill:rgb(209,204,211);fill-rule:nonzero;"/>
                            <path d="M497.693,418.502L430.388,418.502C438.289,418.502 444.695,424.94 444.695,432.881C444.695,456.357 425.76,475.388 402.402,475.388L469.707,475.388C493.065,475.388 512,456.357 512,432.881C512,424.94 505.595,418.502 497.693,418.502Z" style="fill:rgb(193,188,196);fill-rule:nonzero;"/>
                        </g>
                        <path d="M189.553,418.502C189.553,434.211 202.223,446.945 217.853,446.945L294.147,446.945C309.777,446.945 322.447,434.211 322.447,418.502L189.553,418.502Z" style="fill:rgb(247,244,247);fill-rule:nonzero;"/>
                    </g>
                </g>
            </g>
        </g>
        <g transform="matrix(0.957031,0,0,0.957031,11,1.57317)">
            <g>
                <g>
                    <g>
                        <g>
                            <g>
                                <path d="M339.196,288.869C339.18,284.389 335.569,280.709 331.113,280.752C331.001,280.753 330.89,280.752 330.779,280.748C329.278,280.7 328.004,279.614 327.598,278.161C325.945,272.243 323.588,266.622 320.62,261.397C319.85,260.042 320.034,258.327 321.106,257.199C321.141,257.162 321.176,257.126 321.212,257.09L321.214,257.088C324.361,253.884 324.335,248.724 321.156,245.552L308.059,232.48C304.891,229.319 299.766,229.363 296.652,232.579C296.616,232.615 296.58,232.651 296.543,232.687C295.429,233.772 293.724,233.969 292.372,233.205C287.152,230.258 281.543,227.928 275.643,226.308C274.195,225.911 273.107,224.638 273.048,223.131C273.044,223.02 273.042,222.908 273.042,222.796C273.053,218.316 269.367,214.712 264.91,214.728L246.507,214.793C242.049,214.809 238.389,218.439 238.431,222.919L238.431,223.031C238.424,224.622 237.372,226.021 235.848,226.451C230.001,228.101 224.446,230.449 219.278,233.403C217.867,234.21 216.067,234.035 214.91,232.89C214.903,232.883 214.895,232.876 214.888,232.868L214.886,232.866C211.697,229.703 206.564,229.73 203.408,232.924L190.46,246.03C187.306,249.222 187.324,254.379 190.5,257.549L190.502,257.551C190.538,257.587 190.573,257.623 190.608,257.659C191.688,258.779 191.884,260.493 191.124,261.853C188.193,267.096 185.876,272.731 184.265,278.658C183.847,280.194 182.462,281.262 180.878,281.28C180.841,281.28 180.804,281.281 180.767,281.28C176.31,281.268 172.725,284.974 172.74,289.453L172.804,307.949C172.82,312.429 176.431,316.108 180.888,316.066C181,316.065 181.111,316.066 181.222,316.07C182.722,316.119 183.996,317.204 184.401,318.656C186.054,324.575 188.412,330.197 191.38,335.422C192.149,336.776 191.966,338.49 190.894,339.618C190.859,339.655 190.823,339.692 190.787,339.728L190.785,339.73C187.624,342.908 187.632,348.062 190.805,351.228L203.826,364.224C207.011,367.403 212.149,367.411 215.344,364.241L215.451,364.134C216.566,363.046 218.275,362.85 219.63,363.615C224.847,366.56 230.454,368.889 236.351,370.509C237.802,370.907 238.893,372.183 238.951,373.693C238.955,373.802 238.957,373.911 238.957,374.02C238.947,378.501 242.631,382.107 247.089,382.091L265.492,382.026C269.95,382.01 273.61,378.38 273.568,373.9L273.568,373.788C273.575,372.197 274.627,370.798 276.151,370.368C282.038,368.707 287.63,366.338 292.828,363.355C294.175,362.582 295.88,362.767 297.001,363.843C297.038,363.879 297.075,363.915 297.111,363.951L297.113,363.953C300.289,367.123 305.42,367.105 308.573,363.913L321.558,350.771C324.709,347.582 324.683,342.427 321.5,339.27L321.498,339.268C321.461,339.231 321.425,339.195 321.389,339.158C320.31,338.039 320.115,336.327 320.874,334.968C323.806,329.723 326.124,324.086 327.736,318.157C328.153,316.622 329.537,315.556 331.12,315.538C331.157,315.538 331.194,315.537 331.231,315.537C335.689,315.547 339.275,311.844 339.26,307.364L339.196,288.869Z" style="fill:rgb(141,141,141);fill-rule:nonzero;"/>
                            </g>
                        </g>
                    </g>
                </g>
            </g>
            <ellipse cx="256" cy="298.41" rx="39.606" ry="39.807" style="fill:rgb(214,224,239);"/>
        </g>
        <g transform="matrix(0.957031,0,0,0.957031,11,1.57317)">
            <g>
                <path d="M404.732,55.602C402.396,56.198 399.882,55.868 397.731,54.636C368.029,37.637 321.576,36.35 302.008,36.646C296.912,36.723 292.829,40.902 292.829,46.024L292.829,188.613C292.829,193.839 297.074,198.065 302.274,197.991C320.985,197.726 363.506,198.929 393.066,213.508C396.726,215.313 400.776,215.996 404.732,215.559L404.732,55.602Z" style="fill:rgb(0,191,255);fill-rule:nonzero;"/>
                <path d="M512,182.084L512,46.024C512,40.905 507.92,36.723 502.828,36.646C483.251,36.35 436.745,37.637 407.043,54.668C405.609,55.49 404.012,55.894 402.415,55.89L402.415,215.687C405.615,215.687 408.816,214.96 411.764,213.506C438.393,200.373 475.539,198.095 496.323,197.966C504.949,197.913 512,190.755 512,182.084Z" style="fill:rgb(3,145,192);fill-rule:nonzero;"/>
            </g>
            <g>
                <g>
                    <g>
                        <g>
                            <g>
                                <g>
                                    <path d="M372.096,93.173C371.416,93.173 370.724,93.082 370.037,92.891C356.162,89.042 339.771,86.644 321.322,85.764C317.059,85.56 313.768,81.923 313.971,77.639C314.172,73.355 317.794,70.035 322.054,70.251C341.646,71.186 359.173,73.767 374.148,77.921C378.262,79.062 380.676,83.338 379.54,87.473C378.594,90.914 375.485,93.173 372.096,93.173Z" style="fill:rgb(244,244,244);fill-rule:nonzero;"/>
                                </g>
                            </g>
                            <g>
                                <g>
                                    <path d="M372.096,128.519C371.416,128.519 370.724,128.428 370.037,128.237C356.162,124.388 339.771,121.99 321.322,121.109C317.059,120.905 313.768,117.268 313.971,112.984C314.172,108.7 317.794,105.398 322.054,105.596C341.646,106.531 359.173,109.112 374.148,113.266C378.262,114.407 380.676,118.683 379.54,122.818C378.594,126.26 375.485,128.519 372.096,128.519Z" style="fill:rgb(244,244,244);fill-rule:nonzero;"/>
                                </g>
                            </g>
                        </g>
                    </g>
                    <g>
                        <g>
                            <g>
                                <g>
                                    <path d="M372.096,167.468C371.416,167.468 370.725,167.377 370.037,167.186C356.163,163.338 339.772,160.94 321.321,160.058C317.059,159.854 313.768,156.216 313.971,151.933C314.172,147.649 317.76,144.351 322.056,144.545C341.648,145.481 359.175,148.062 374.149,152.215C378.263,153.356 380.677,157.632 379.541,161.766C378.595,165.21 375.485,167.468 372.096,167.468Z" style="fill:rgb(244,244,244);fill-rule:nonzero;"/>
                                </g>
                            </g>
                        </g>
                    </g>
                </g>
                <g>
                    <g>
                        <g>
                            <g>
                                <g>
                                    <path d="M432.403,93.173C429.014,93.173 425.905,90.915 424.959,87.472C423.823,83.337 426.238,79.061 430.351,77.92C445.326,73.765 462.853,71.185 482.445,70.25C486.707,70.06 490.326,73.354 490.528,77.638C490.731,81.922 487.439,85.56 483.177,85.763C464.727,86.644 448.337,89.042 434.462,92.89C433.776,93.082 433.083,93.173 432.403,93.173Z" style="fill:rgb(244,244,244);fill-rule:nonzero;"/>
                                </g>
                            </g>
                            <g>
                                <g>
                                    <path d="M432.403,128.519C429.014,128.519 425.905,126.261 424.959,122.818C423.823,118.683 426.238,114.407 430.351,113.266C445.326,109.112 462.853,106.531 482.445,105.596C486.707,105.407 490.326,108.7 490.528,112.984C490.731,117.268 487.439,120.906 483.177,121.109C464.727,121.99 448.337,124.388 434.462,128.237C433.776,128.428 433.083,128.519 432.403,128.519Z" style="fill:rgb(244,244,244);fill-rule:nonzero;"/>
                                </g>
                            </g>
                        </g>
                    </g>
                    <g>
                        <g>
                            <g>
                                <g>
                                    <path d="M432.403,167.468C429.014,167.468 425.905,165.21 424.959,161.766C423.823,157.632 426.238,153.355 430.351,152.215C437.652,150.19 445.694,148.516 454.252,147.242C458.469,146.613 462.402,149.542 463.028,153.786C463.654,158.028 460.738,161.977 456.518,162.606C448.579,163.789 441.159,165.329 434.462,167.187C433.776,167.377 433.083,167.468 432.403,167.468Z" style="fill:rgb(244,244,244);fill-rule:nonzero;"/>
                                </g>
                            </g>
                        </g>
                    </g>
                </g>
            </g>
        </g>
    </g>
</svg>
