<svg id="Capa_1" enable-background="new 0 0 497.007 497.007" height="512" viewBox="0 0 497.007 497.007" width="512" xmlns="http://www.w3.org/2000/svg"><g><path d="m467.004 299v7l5.069 131c0 16.84-19.019 35.073-35.979 34.573-16.32-.49-32.829-18.743-32.829-35.073v-144.5h56.739c3.87 0 7 3.13 7 7z" fill="#e8e8e8"/><path d="m497.004 313v124c0 33.14-26.86 60-60 60-16.57 0-31.57-6.72-42.43-17.57-10.85-10.86-17.57-25.86-17.57-42.43v-423l9.156 1.422 6.844-1.422h7c3.87 0 7 3.13 7 7v415.36c0 16.33 12.77 30.14 29.09 30.63 16.96.5 30.91-13.15 30.91-29.99v-131h23c3.87 0 7 3.13 7 7z" fill="#f8f7f7"/><path d="m432.328 480.749c-9.983-1.049-19.237-5.441-26.435-12.629-8.31-8.32-12.89-19.37-12.89-31.12v-423h-21.17l-.716 421.573c0 5.286 2.423 20.478 2.422 20.477 6.081 24.574 35.859 41.357 63.463 40.95 27.56 0 50.77-18.57 57.8-43.88-20.494 21.742-42.848 29.412-62.474 27.629z" fill="#e8e8e8"/><path d="m400.293 497-335.45-4.839c-33.14 0-60-26.86-60-60l-2.67-422.56c0-3.87 3.13-7 7-7l5.831-2.601h355c3.87 0 7 3.13 7 7v430c0 16.57 6.72 31.57 17.57 42.43.886.885 1.799 1.743 2.739 2.571z" fill="#f8f7f7"/><path d="m437.004 497h-377c-33.14 0-60-26.86-60-60v-430c0-3.87 3.13-7 7-7h8v430c0 28.72 23.28 52 52 52h330.31c10.58 9.33 24.47 15 39.69 15z" fill="#e8e8e8"/><g><path d="m106.001 67.997c0-20.985-17.012-37.997-37.997-37.997-5.668 0-11.046 1.241-15.877 3.466 0 0-8.003 6.586-11.509 10.595-5.843 6.682-9.078 14.363-9.078 23.936 0 20.985 15.478 35.8 36.463 35.8 11.145 0 20.275-4.195 27.226-11.838 3.231-3.553 8.398-10.713 8.398-10.713 1.535-4.125 2.374-8.589 2.374-13.249z" fill="#ffe07d"/><path d="m103.627 81.246c-5.365 14.454-19.3 24.754-35.623 24.754-20.99 0-37.997-17.023-37.997-37.997 0-15.32 9.049-28.548 22.12-34.537-1.535 4.119-2.362 8.592-2.362 13.258 0 20.974 17.008 37.997 37.997 37.997 5.654.001 11.047-1.226 15.865-3.475z" fill="#ffd064"/></g><g><path d="m104.357 312.381h-68.918c-2.209 0-4-1.791-4-4l.257-76.807c0-2.209 1.791-4 4-4l10.307-2.073h59c2.209 0 4 1.791 4 4v68.499l-.647 10.381c.001 2.209-1.79 4-3.999 4z" fill="#bde4ff"/><path d="m109.004 298v12c0 2.209-1.791 4-4 4h-71c-2.209 0-4-1.791-4-4v-80.5c0-2.209 1.791-4 4-4h12v62.5c0 5.523 4.477 10 10 10z" fill="#99dbff"/></g><path d="m140.004 55h202.916c2.209 0 4 1.791 4 4v18c0 2.209-1.791 4-4 4h-202.916c-2.209 0-4-1.791-4-4v-18c0-2.209 1.79-4 4-4z" fill="#bde4ff"/><path d="m341.614 465.133-117.706-.541c-2.209 0-4-1.791-4-4l-1.073-109.239c0-2.209 1.791-4 4-4l11.17-2.353h108.915c2.209 0 4 1.791 4 4v102l-1.307 10.133c.001 2.209-1.79 4-3.999 4z" fill="#bde4ff"/><path d="m346.924 451v12c0 2.209-1.791 4-4 4h-120.92c-2.209 0-4-1.791-4-4v-114c0-2.209 1.791-4 4-4h12v96c0 5.523 4.477 10 10 10z" fill="#99dbff"/><g><path d="m213.357 312.381h-68.917c-2.209 0-4-1.791-4-4l.257-76.807c0-2.209 1.791-4 4-4l10.307-2.073h59c2.209 0 4 1.791 4 4v68.499l-.647 10.381c0 2.209-1.791 4-4 4z" fill="#ffe07d"/><path d="m218.004 298v12c0 2.209-1.791 4-4 4h-71c-2.209 0-4-1.791-4-4v-80.5c0-2.209 1.791-4 4-4h12v62.5c0 5.523 4.477 10 10 10z" fill="#ffd064"/></g><g><g><path d="m202.004 37.5h-66c-4.143 0-7.5-3.358-7.5-7.5s3.357-7.5 7.5-7.5h66c4.143 0 7.5 3.358 7.5 7.5s-3.358 7.5-7.5 7.5z" fill="#e8e8e8"/></g><g><path d="m346.921 113.5h-210.917c-4.143 0-7.5-3.358-7.5-7.5s3.357-7.5 7.5-7.5h210.917c4.143 0 7.5 3.358 7.5 7.5s-3.358 7.5-7.5 7.5z" fill="#e8e8e8"/></g><g><path d="m218.004 203.5h-188c-4.143 0-7.5-3.358-7.5-7.5s3.357-7.5 7.5-7.5h188c4.143 0 7.5 3.358 7.5 7.5s-3.358 7.5-7.5 7.5z" fill="#e8e8e8"/></g><g><path d="m188.004 352.5h-158c-4.143 0-7.5-3.358-7.5-7.5s3.357-7.5 7.5-7.5h158c4.143 0 7.5 3.358 7.5 7.5s-3.358 7.5-7.5 7.5z" fill="#e8e8e8"/></g><g><path d="m188.004 383h-158c-4.143 0-7.5-3.358-7.5-7.5s3.357-7.5 7.5-7.5h158c4.143 0 7.5 3.358 7.5 7.5s-3.358 7.5-7.5 7.5z" fill="#e8e8e8"/></g><g><path d="m188.004 413.5h-158c-4.143 0-7.5-3.358-7.5-7.5s3.357-7.5 7.5-7.5h158c4.143 0 7.5 3.358 7.5 7.5s-3.358 7.5-7.5 7.5z" fill="#e8e8e8"/></g><g><path d="m139.004 444h-109c-4.143 0-7.5-3.358-7.5-7.5s3.357-7.5 7.5-7.5h109c4.143 0 7.5 3.358 7.5 7.5s-3.358 7.5-7.5 7.5z" fill="#e8e8e8"/></g><g><path d="m184.004 173.5h-120c-4.143 0-7.5-3.358-7.5-7.5s3.357-7.5 7.5-7.5h120c4.143 0 7.5 3.358 7.5 7.5s-3.358 7.5-7.5 7.5z" fill="#e8e8e8"/></g><g><path d="m346.921 203.5h-68.917c-4.143 0-7.5-3.358-7.5-7.5s3.357-7.5 7.5-7.5h68.917c4.143 0 7.5 3.358 7.5 7.5s-3.358 7.5-7.5 7.5z" fill="#e8e8e8"/></g><g><path d="m346.921 233.5h-68.917c-4.143 0-7.5-3.358-7.5-7.5s3.357-7.5 7.5-7.5h68.917c4.143 0 7.5 3.358 7.5 7.5s-3.358 7.5-7.5 7.5z" fill="#e8e8e8"/></g><g><path d="m346.921 263.5h-68.917c-4.143 0-7.5-3.358-7.5-7.5s3.357-7.5 7.5-7.5h68.917c4.143 0 7.5 3.358 7.5 7.5s-3.358 7.5-7.5 7.5z" fill="#e8e8e8"/></g><g><path d="m346.921 293.5h-68.917c-4.143 0-7.5-3.358-7.5-7.5s3.357-7.5 7.5-7.5h68.917c4.143 0 7.5 3.358 7.5 7.5s-3.358 7.5-7.5 7.5z" fill="#e8e8e8"/></g><g><path d="m346.921 323.5h-68.917c-4.143 0-7.5-3.358-7.5-7.5s3.357-7.5 7.5-7.5h68.917c4.143 0 7.5 3.358 7.5 7.5s-3.358 7.5-7.5 7.5z" fill="#e8e8e8"/></g><g><path d="m327.504 173.5h-30c-4.143 0-7.5-3.358-7.5-7.5s3.357-7.5 7.5-7.5h30c4.143 0 7.5 3.358 7.5 7.5s-3.358 7.5-7.5 7.5z" fill="#e8e8e8"/></g><g><path d="m346.921 143.5h-316.917c-4.143 0-7.5-3.358-7.5-7.5s3.357-7.5 7.5-7.5h316.917c4.143 0 7.5 3.358 7.5 7.5s-3.358 7.5-7.5 7.5z" fill="#e8e8e8"/></g><g><path d="m346.921 37.5h-31.917c-4.143 0-7.5-3.358-7.5-7.5s3.357-7.5 7.5-7.5h31.917c4.143 0 7.5 3.358 7.5 7.5s-3.358 7.5-7.5 7.5z" fill="#e8e8e8"/></g><g><path d="m248.004 321.5c-4.143 0-7.5-3.358-7.5-7.5v-148c0-4.142 3.357-7.5 7.5-7.5s7.5 3.358 7.5 7.5v148c0 4.142-3.358 7.5-7.5 7.5z" fill="#e8e8e8"/></g></g></g></svg>