<svg id="Capa_1" enable-background="new 0 0 512 512" height="512" viewBox="0 0 512 512" width="512" xmlns="http://www.w3.org/2000/svg"><g><circle cx="256" cy="256" fill="#90d8f9" r="197.723"/><path d="m375.758 98.674c25.34 33.238 40.398 74.737 40.398 119.758 0 109.2-88.524 197.724-197.723 197.724-45.022 0-86.52-15.058-119.758-40.398 36.122 47.38 93.148 77.965 157.326 77.965 109.2 0 197.723-88.524 197.723-197.724-.001-64.177-30.586-121.203-77.966-157.325z" fill="#75cef9"/><path d="m442.391 169.495c-16.277-35.019-42.028-64.69-74.47-85.806-33.307-21.679-72.009-33.138-111.921-33.138s-78.614 11.459-111.922 33.138c-32.442 21.116-58.194 50.787-74.47 85.806-1.798 3.869-.12 8.465 3.75 10.263 3.87 1.8 8.464.12 10.263-3.749 15.054-32.389 38.875-59.834 68.887-79.368 15.672-10.201 32.64-17.948 50.389-23.102-3.775 3.511-7.447 7.411-11 11.694-17.599 21.211-31.517 50.826-40.249 85.64-1.038 4.14 1.475 8.336 5.614 9.374 4.135 1.043 8.335-1.476 9.374-5.614 15.417-61.46 46.903-102.657 81.637-108.024v106.144c0 4.268 3.459 7.726 7.726 7.726s7.726-3.459 7.726-7.726v-106.146c34.735 5.367 66.221 46.564 81.637 108.024.88 3.508 4.028 5.848 7.488 5.848.622 0 1.255-.075 1.886-.234 4.139-1.038 6.652-5.234 5.614-9.374-8.732-34.814-22.65-64.429-40.249-85.64-3.553-4.282-7.225-8.182-11-11.694 17.749 5.154 34.717 12.901 50.389 23.102 30.012 19.534 53.832 46.979 68.887 79.368 1.309 2.816 4.098 4.472 7.012 4.472 1.09 0 2.198-.232 3.252-.722 3.87-1.797 5.549-6.393 3.75-10.262z" fill="#6bbef6"/><path d="m438.641 332.242c-3.871-1.8-8.464-.12-10.263 3.749-15.054 32.389-38.875 59.834-68.887 79.368-15.672 10.201-32.64 17.948-50.389 23.102 3.775-3.511 7.447-7.411 11-11.694 17.599-21.211 31.517-50.826 40.249-85.64 1.038-4.14-1.475-8.336-5.614-9.374-4.133-1.041-8.336 1.476-9.374 5.614-15.417 61.46-46.903 102.657-81.637 108.024v-106.143c0-4.268-3.459-7.726-7.726-7.726s-7.726 3.459-7.726 7.726v106.144c-34.735-5.367-66.221-46.564-81.637-108.024-1.038-4.139-5.235-6.656-9.374-5.614-4.139 1.038-6.652 5.234-5.614 9.374 8.732 34.814 22.65 64.429 40.249 85.64 3.553 4.282 7.225 8.182 11 11.694-17.749-5.154-34.717-12.901-50.389-23.102-30.012-19.534-53.832-46.979-68.887-79.368-1.799-3.869-6.394-5.548-10.263-3.749-3.87 1.798-5.548 6.393-3.75 10.263 16.277 35.019 42.028 64.69 74.47 85.806 33.307 21.679 72.009 33.138 111.921 33.138s78.614-11.459 111.921-33.138c32.442-21.116 58.194-50.787 74.47-85.806 1.799-3.87.12-8.466-3.75-10.264z" fill="#6bbef6"/><g><path d="m0 315.696v-119.393c0-14.147 11.469-25.616 25.616-25.616h460.768c14.147 0 25.616 11.469 25.616 25.616v119.393c0 14.147-11.469 25.616-25.616 25.616h-460.768c-14.147 0-25.616-11.469-25.616-25.616z" fill="#dd636e"/><path d="m486.384 170.687h-35.382c14.147 0 25.616 11.469 25.616 25.616v119.393c0 14.147-11.469 25.616-25.616 25.616h35.382c14.147 0 25.616-11.469 25.616-25.616v-119.393c0-14.147-11.469-25.616-25.616-25.616z" fill="#da4a54"/></g><g fill="#e4f6ff"><path d="m136.49 206.648c-4.267.041-7.693 3.534-7.651 7.801l.562 58.177-43.154-62.489c-1.922-2.782-5.43-3.99-8.657-2.986-3.228 1.006-5.427 3.995-5.427 7.376v81.818c0 4.268 3.459 7.726 7.726 7.726s7.726-3.459 7.726-7.726v-57.033l41.237 59.714c2.37 3.425 6.285 4.893 9.972 3.742 3.786-1.182 6.231-4.788 6.231-9.261l-.766-79.208c-.04-4.266-3.572-7.704-7.799-7.651z"/><path d="m212.274 222.475c4.267 0 7.726-3.459 7.726-7.726 0-4.268-3.459-7.726-7.726-7.726h-34.224c-4.267 0-7.726 3.459-7.726 7.726v81.222c0 4.268 3.459 7.726 7.726 7.726h34.224c4.267 0 7.726-3.459 7.726-7.726s-3.459-7.726-7.726-7.726h-26.498v-25.159h23.974c4.267 0 7.726-3.459 7.726-7.726s-3.459-7.726-7.726-7.726h-23.974v-25.158h26.498z"/><path d="m417.236 248.757c-10.479-3.866-20.204-8.085-22.737-9.197-2.467-1.828-3.662-4.734-3.211-7.878.575-4.009 3.674-7.232 8.288-8.622 12.914-3.896 24.625 5.47 24.883 5.679 3.266 2.718 8.118 2.289 10.857-.967 2.745-3.267 2.323-8.141-.943-10.886-.731-.615-18.152-14.978-39.254-8.623-10.367 3.124-17.696 11.256-19.126 21.222-1.334 9.293 2.691 18.228 10.503 23.322.342.223.7.419 1.072.585.471.21 11.686 5.202 24.321 9.862 8.854 3.267 13.358 8.357 12.356 13.967-1.001 5.603-7.558 11.397-16.8 11.397-8.847 0-17.385-3.594-22.84-9.613-2.866-3.162-7.752-3.402-10.913-.537-3.162 2.865-3.402 7.752-.537 10.913 8.335 9.198 21.154 14.689 34.291 14.689 15.793 0 29.555-10.375 32.012-24.134 1.86-10.423-3-24.089-22.222-31.179z"/><path d="m343.962 206.946c-4.179-.832-8.253 1.884-9.086 6.069l-11.444 57.503-17.997-58.42c-1.256-4.078-5.581-6.365-9.658-5.11-2.816.868-4.777 3.199-5.308 5.901l-17.838 57.631-11.403-57.647c-.827-4.186-4.891-6.909-9.079-6.08-4.186.828-6.908 4.892-6.08 9.078l15.971 80.74c.073.37.173.733.299 1.089 1.357 3.817 4.977 6.369 9.023 6.369h.067c4.073-.028 7.69-2.639 9-6.495.023-.067.045-.134.065-.201l17.562-56.739 17.484 56.754c.032.105.066.208.103.311 1.356 3.818 4.976 6.371 9.024 6.371h.066c4.073-.028 7.691-2.638 9.001-6.495.109-.32.196-.647.263-.978l16.035-80.566c.832-4.184-1.885-8.252-6.07-9.085z"/></g></g></svg>