<svg height="512" viewBox="0 0 512 512" width="512" xmlns="http://www.w3.org/2000/svg"><g><g fill="#57a4ff"><path d="m56 164v120a19.994 19.994 0 0 0 20 20h52l8 32 8 16h32v-208h-100a19.994 19.994 0 0 0 -20 20z"/><path d="m464 192v64a32 32 0 0 0 0-64z"/><path d="m88 432h120v32h-120z"/></g><path d="m464 184v-136a7.992 7.992 0 0 0 -10.81-7.49l-278.51 95.49h-98.68a28.031 28.031 0 0 0 -28 28v4h-32a8 8 0 0 0 -8 8v96a8 8 0 0 0 8 8h32v4a28.035 28.035 0 0 0 25.73 27.9l28.02 112.1h-13.75a8 8 0 0 0 -8 8v32a8 8 0 0 0 8 8h120a8 8 0 0 0 8-8v-32a8 8 0 0 0 -8-8h-41.75l-16-64h25.75a8 8 0 0 0 8-8v-36.8l269.19 92.29a7.992 7.992 0 0 0 10.81-7.49v-136a40 40 0 0 0 0-80zm-416 80h-24v-80h24zm42.25 48h31.5l28 112h-31.5zm109.75 128v16h-104v-16zm-32-96h-21.75l-8-32h29.75zm0-48h-92a12.01 12.01 0 0 1 -12-12v-120a12.01 12.01 0 0 1 12-12h92zm280 92.46-264-90v-148.92l264-90zm16-140.46v-48a24 24 0 0 1 0 48z" fill="#004fac"/></g></svg>