<svg height="463pt" viewBox="0 -28 463.9052 463" width="463pt" xmlns="http://www.w3.org/2000/svg"><path d="m463.839844 240.503906c.007812-30.417968-21.394532-56.636718-51.199219-62.722656 5.675781-14.765625 3.722656-31.378906-5.230469-44.421875-8.949218-13.042969-23.75-20.84375-39.570312-20.855469-2.980469.007813-5.953125.300782-8.878906.878906-7.109376-59.964843-55.160157-106.804687-115.289063-112.382812s-115.972656 31.628906-133.992187 89.261719c-4.511719-1.199219-9.167969-1.789063-13.839844-1.757813-30.925782 0-56 25.070313-56 56-.019532 7.414063 1.449218 14.761719 4.320312 21.597656-31.597656 13.25-49.480468 46.925782-42.761718 80.523438 6.71875 33.59375 36.179687 57.800781 70.441406 57.878906h328c35.347656 0 64-28.65625 64-64zm0 0" fill="#2488ff"/><path d="m412.640625 177.78125c6.199219-16.101562 3.273437-34.292969-7.65625-47.644531-68.175781 46.566406-226.046875 142.367187-383.910156 153.398437 13.46875 13.445313 31.734375 20.988282 50.765625 20.96875h328c32.882812.03125 60.4375-24.855468 63.742187-57.570312 3.304688-32.710938-18.71875-62.609375-50.941406-69.152344zm0 0" fill="#005ece"/><path d="m319.921875 408.183594-.082031.320312h-180c-15.433594-.074218-27.925782-12.566406-28-28v-244h184v244c.003906 13.941406 10.273437 25.746094 24.082031 27.679688zm0 0" fill="#ffeb99"/><path d="m295.839844 344.503906v36c.003906 13.941406 10.273437 25.746094 24.082031 27.679688 1.292969.226562 2.605469.335937 3.917969.320312 15.433594-.074218 27.925781-12.566406 28-28v-180h-56zm0 0" fill="#ffa733"/><path d="m143.839844 200.503906h64v48h-64zm0 0" fill="#ff5023"/><g fill="#006468"><path d="m135.839844 160.503906h136v16h-136zm0 0"/><path d="m231.839844 192.503906h40v16h-40zm0 0"/><path d="m231.839844 216.503906h40v16h-40zm0 0"/><path d="m231.839844 240.503906h40v16h-40zm0 0"/><path d="m135.839844 272.503906h136v16h-136zm0 0"/><path d="m135.839844 304.503906h136v16h-136zm0 0"/><path d="m135.839844 336.503906h136v16h-136zm0 0"/></g><path d="m319.839844 200.503906h16v176h-16zm0 0" fill="#ee8700"/></svg>