<svg id="Layer_1" enable-background="new 0 0 510 510" height="512" viewBox="0 0 510 510" width="512" xmlns="http://www.w3.org/2000/svg"><g><path d="m75 120-10 15 10 15 75 10 75-10 10-15-10-15h-75z" fill="#eceae7"/><path d="m510 120h-142.5-142.5v15 15l142.5 10 142.5-10v-15z" fill="#e7dfdd"/><path d="m75 405v-7.5-7.5-135-135-30-30h-15-15c-12.426 0-23.676 5.037-31.82 13.181-8.143 8.142-13.18 19.392-13.18 31.819v176.25 176.25z" fill="#e7dfdd"/><path d="m75 150v120 120 7.5 7.5h-11.25-11.25c-14.498 0-27.623 5.876-37.123 15.377-9.501 9.5-15.377 22.625-15.377 37.123 0 14.498 5.876 27.623 15.377 37.123 9.5 9.501 22.625 15.377 37.123 15.377h11.25 11.25 75 75l10-180-10-180h-75z" fill="#f4f4f6"/><path d="m510 150h-142.5-142.5v180 180h142.5 142.5v-180z" fill="#eceae7"/><path d="m195 375-15 10-15-10v-15-15l15-10 15 10v15z" fill="#595454"/><path d="m330 435h-37.5-37.5v-45-45l15-10 15 10v30 30h22.5 22.5l10 15z" fill="#403b40"/><path d="m375 282.42v46.29 46.29l15 10 15-10v-46.29-46.29l-15-10z" fill="#403b40"/><g><path d="m425.945 30 16.243 30 33.906-15 33.906-15-33.906-15-33.906-15z" fill="#ffccbd"/><path d="m165 0c-8.284 0-15.784 3.357-21.213 8.787-5.429 5.429-8.787 12.929-8.787 21.213 0 8.284 3.358 15.784 8.787 21.213 5.429 5.43 12.929 8.787 21.213 8.787h30 30l10-30-10-30h-30z" fill="#ff5c5c"/><path d="m442.188 0h-108.594-108.594v30 30h108.594 108.594c-4.162-9.543-6.242-19.771-6.242-30s2.079-20.457 6.242-30z" fill="#ffef4a"/></g><path d="m135 195v75 75h45 45l10-75-10-75h-45z" fill="#00e4ef"/><path d="m315 195h-45-45v75 75h45 45v-75z" fill="#5ecbf1"/><path d="m165 225v45 45h30 30l10-45-10-45h-30z" fill="#5ecbf1"/><path d="m285 225h-30-30v45 45h30 30v-45z" fill="#6ba7ff"/><path d="m225 465h-45-45v-45-45h45 45v45z" fill="#ffef4a"/><path d="m390 285c-12.406 0-23.656-5.047-31.805-13.195-8.148-8.148-13.195-19.398-13.195-31.805 0-12.406 5.047-23.656 13.195-31.805 8.149-8.148 19.399-13.195 31.805-13.195 12.407 0 23.657 5.047 31.805 13.195 8.148 8.149 13.195 19.399 13.195 31.805 0 12.407-5.047 23.657-13.195 31.805s-19.398 13.195-31.805 13.195z" fill="#ffcb00"/><path d="m450 465h-60-60v-45-45h60 60v45z" fill="#ff5c5c"/></g></svg>