<svg height="512pt" viewBox="0 0 512 512" width="512pt" xmlns="http://www.w3.org/2000/svg"><path d="m437.019531 74.980469c-48.351562-48.351563-112.644531-74.980469-181.019531-74.980469s-132.667969 26.628906-181.019531 74.980469c-48.351563 48.351562-74.980469 112.636719-74.980469 181.019531 0 68.375 26.628906 132.667969 74.980469 181.019531 48.351562 48.351563 112.644531 74.980469 181.019531 74.980469s132.667969-26.628906 181.019531-74.980469c48.351563-48.351562 74.980469-112.644531 74.980469-181.019531 0-68.382812-26.628906-132.667969-74.980469-181.019531zm-181.019531 352.035156c-94.292969 0-171.015625-76.722656-171.015625-171.015625s76.722656-171.015625 171.015625-171.015625 171.015625 76.722656 171.015625 171.015625-76.722656 171.015625-171.015625 171.015625zm0 0" fill="#5ecef4"/><path d="m512 256-38.695312 38.683594c-2.101563 2.101562-5.503907 2.101562-7.605469 0l-38.683594-38.683594c0-94.292969-76.722656-171.015625-171.015625-171.015625l38.683594-38.683594c2.101562-2.097656 2.101562-5.503906 0-7.605469l-38.683594-38.695312c68.375 0 132.667969 26.628906 181.019531 74.980469 48.351563 48.351562 74.980469 112.636719 74.980469 181.019531zm0 0" fill="#0d91bd"/><path d="m259.558594 511.84375c-1.179688.09375-2.359375.148438-3.558594.148438-68.378906 0-132.660156-26.621094-181.015625-74.980469-48.355469-48.34375-74.9765625-112.632813-74.9765625-181.015625l38.6874995-38.6875c2.101563-2.101563 5.507813-2.101563 7.609376 0l38.6875 38.6875c0 94.292968 76.699218 171 170.988281 171.011718l-38.488281 37.765626c-2.171876 2.128906-2.152344 5.632812.054687 7.730468 10.609375 10.097656 38.753906 36.820313 42.011719 39.339844zm0 0" fill="#0d91bd"/><path d="m356.585938 178.179688v155.640624c0 8.917969-7.21875 16.136719-16.136719 16.136719h-168.898438c-8.917969 0-16.136719-7.21875-16.136719-16.136719v-155.640624c0-8.917969 7.21875-16.136719 16.136719-16.136719h168.898438c8.917969 0 16.136719 7.21875 16.136719 16.136719zm0 0" fill="#ff7c48"/><path d="m356.585938 178.179688v155.640624c0 8.917969-7.21875 16.136719-16.136719 16.136719h-84.449219v-187.914062h84.449219c8.917969 0 16.136719 7.21875 16.136719 16.136719zm0 0" fill="#ff4c04"/><path d="m288.792969 162.042969v82.402343c0 5.949219-4.820313 10.757813-10.757813 10.757813h-44.070312c-5.9375 0-10.757813-4.808594-10.757813-10.757813v-82.402343zm0 0" fill="#ffb99d"/><path d="m288.792969 162.042969v82.402343c0 5.949219-4.820313 10.757813-10.757813 10.757813h-22.035156v-93.160156zm0 0" fill="#ff946a"/></svg>