<?xml version="1.0" encoding="iso-8859-1"?>
<!-- Generator: Adobe Illustrator 19.0.0, SVG Export Plug-In . SVG Version: 6.00 Build 0)  -->
<svg version="1.1" id="Capa_1" xmlns="http://www.w3.org/2000/svg" xmlns:xlink="http://www.w3.org/1999/xlink" x="0px" y="0px"
	 viewBox="0 0 504.123 504.123" style="enable-background:new 0 0 504.123 504.123;" xml:space="preserve">
<circle style="fill:#4FBF9F;" cx="252.455" cy="122.88" r="122.88"/>
<path style="fill:#FFFFFF;" d="M349.342,138.634v-30.72l-22.843-3.151c-1.575-7.089-4.726-14.178-8.665-20.48l14.178-18.117
	l-22.055-22.843L291.84,57.502c-6.302-3.938-13.391-7.089-20.48-8.665l-3.151-22.843h-30.72l-3.151,22.843
	c-7.089,1.575-14.178,4.726-20.48,8.665l-18.905-14.178l-22.055,22.055l14.178,18.117c-3.938,6.302-7.089,13.391-8.665,20.48
	l-22.843,3.151v30.72l22.843,3.151c1.575,7.089,4.726,14.178,8.665,20.48l-14.178,18.117l22.055,22.055l18.117-14.178
	c6.302,3.938,13.391,7.089,20.48,8.665l3.151,22.843h30.72l3.151-22.843c7.089-1.575,14.178-4.726,20.48-8.665l18.117,14.178
	l22.055-22.055l-14.178-18.117c3.938-6.302,7.089-13.391,8.665-20.48L349.342,138.634z"/>
<g>
	<path style="fill:#183651;" d="M268.209,226.855h-30.72c-3.938,0-7.089-3.151-7.877-6.302l-2.363-18.117
		c-4.726-1.575-8.665-3.151-13.391-5.514l-14.178,11.028c-3.151,2.363-7.089,2.363-10.24-0.788l-22.055-22.055
		c-2.363-2.363-3.151-7.089-0.788-10.24l11.028-14.178c-2.363-3.938-3.938-8.665-5.514-13.391l-17.329-1.575
		c-3.938-0.788-6.302-3.938-6.302-7.877v-30.72c0-3.938,3.151-7.089,6.302-7.877l18.117-2.363c1.575-4.726,3.151-8.665,5.514-13.391
		l-11.028-14.178c-2.363-3.151-2.363-7.089,0.788-10.24l22.055-22.055c2.363-1.575,6.302-1.575,9.452,0.788l14.178,11.028
		c3.938-2.363,8.665-3.938,13.391-5.514l2.363-18.117c0.788-3.938,3.938-6.302,7.877-6.302h30.72c3.938,0,7.089,3.151,7.877,6.302
		l1.575,18.117c4.726,1.575,8.665,3.151,13.391,5.514l14.178-11.028c3.151-2.363,7.089-2.363,10.24,0.788l22.055,22.055
		c2.363,2.363,3.151,7.089,0.788,10.24l-11.028,14.178c2.363,3.938,3.938,8.665,5.514,13.391l18.117,2.363
		c3.938,0.788,6.302,3.938,6.302,7.877v30.72c0,3.938-3.151,7.089-6.302,7.877l-18.117,2.363c-1.575,4.726-3.151,8.665-5.514,13.391
		l11.028,14.178c2.363,3.151,2.363,7.089-0.788,10.24l-22.055,22.055c-2.363,2.363-7.089,3.151-10.24,0.788l-14.178-11.028
		c-3.938,2.363-8.665,3.938-13.391,5.514l-2.363,18.117C275.298,224.492,272.148,226.855,268.209,226.855z M243.791,211.889h17.329
		l2.363-16.542c0-3.151,2.363-5.514,5.514-6.302c6.302-1.575,12.603-3.938,18.905-7.877c2.363-1.575,6.302-1.575,8.665,0.788
		l12.603,10.24l12.603-12.603l-10.24-12.603c-1.575-2.363-2.363-5.514-0.788-8.665c3.151-5.514,6.302-11.815,7.877-18.905
		c0.788-3.151,3.151-5.514,6.302-5.514l16.542-2.363v-17.329l-16.542-2.363c-3.151,0-5.514-2.363-6.302-5.514
		c-1.575-6.302-3.938-12.603-7.877-18.905c-1.575-2.363-1.575-6.302,0.788-8.665l10.24-12.603l-12.603-12.603l-12.603,10.24
		c-2.363,1.575-5.514,2.363-8.665,0.788c-5.514-3.151-11.815-6.302-18.905-7.877c-3.151-0.788-5.514-3.151-5.514-6.302
		l-2.363-16.542h-17.329l-2.363,16.542c0,3.151-2.363,5.514-5.514,6.302c-6.302,1.575-12.603,3.938-18.905,7.877
		c-2.363,1.575-6.302,1.575-8.665-0.788l-12.603-10.24l-12.603,12.603l10.24,12.603c1.575,2.363,2.363,5.514,0.788,8.665
		c-3.151,5.514-6.302,11.815-7.877,18.905c-0.788,3.151-3.151,5.514-6.302,5.514l-16.542,2.363v17.329l16.542,2.363
		c3.151,0,5.514,2.363,6.302,5.514c1.575,6.302,3.938,12.603,7.877,18.905c1.575,2.363,1.575,6.302-0.788,8.665l-10.24,12.603
		l12.603,12.603l12.603-10.24c2.363-1.575,5.514-2.363,8.665-0.788c5.514,3.151,11.815,6.302,18.905,7.877
		c3.151,0.788,5.514,3.151,5.514,6.302L243.791,211.889z"/>
	<rect x="373.76" y="253.637" style="fill:#183651;" width="14.966" height="14.966"/>
	<rect x="414.72" y="253.637" style="fill:#183651;" width="14.966" height="14.966"/>
	<rect x="455.68" y="253.637" style="fill:#183651;" width="14.966" height="14.966"/>
	<rect x="34.265" y="253.637" style="fill:#183651;" width="14.966" height="14.966"/>
	<rect x="75.225" y="253.637" style="fill:#183651;" width="14.966" height="14.966"/>
	<rect x="116.185" y="253.637" style="fill:#183651;" width="14.966" height="14.966"/>
</g>
<circle style="fill:#F06151;" cx="252.455" cy="122.88" r="54.351"/>
<circle style="fill:#FFFFFF;" cx="252.455" cy="122.88" r="19.692"/>
<path style="fill:#183651;" d="M252.455,149.662c-14.966,0-26.782-11.815-26.782-26.782s11.815-26.782,26.782-26.782
	c14.966,0,26.782,11.815,26.782,26.782S267.422,149.662,252.455,149.662z M252.455,111.065c-6.302,0-11.815,5.514-11.815,11.815
	s5.514,11.815,11.815,11.815s11.815-5.514,11.815-11.815C264.271,116.578,258.757,111.065,252.455,111.065z"/>
<g>
	<path style="fill:#183651;" d="M252.455,430.08c-3.938,0-7.877-3.151-7.877-7.877V219.766c0-3.938,3.151-7.877,7.877-7.877
		c3.938,0,7.877,3.151,7.877,7.877v203.225C260.332,426.929,256.394,430.08,252.455,430.08z"/>
	<path style="fill:#183651;" d="M432.837,380.455c-3.938,0-7.877-3.151-7.877-7.877v-47.262H79.951v47.262
		c0,3.938-3.151,7.877-7.877,7.877s-7.877-3.151-7.877-7.877v-54.351c0-3.938,3.151-7.877,7.877-7.877h360.763
		c3.938,0,7.877,3.151,7.877,7.877v54.351C439.926,376.517,436.775,380.455,432.837,380.455z"/>
</g>
<rect x="377.698" y="372.578" style="fill:#FFFFFF;" width="109.489" height="70.105"/>
<path style="fill:#183651;" d="M487.975,449.772H377.698c-3.938,0-7.877-3.151-7.877-7.877v-70.105c0-3.938,3.151-7.877,7.877-7.877
	h109.489c3.938,0,7.877,3.151,7.877,7.877v70.105C495.065,446.622,491.914,449.772,487.975,449.772z M385.575,434.806h94.523
	v-55.138h-94.523V434.806z"/>
<rect x="400.542" y="395.422" style="fill:#2EA0DA;" width="64.591" height="24.418"/>
<rect x="16.935" y="372.578" style="fill:#FFFFFF;" width="109.489" height="70.105"/>
<path style="fill:#183651;" d="M127.212,449.772H16.935c-3.938,0-7.877-3.151-7.877-7.877v-70.105c0-3.938,3.151-7.877,7.877-7.877
	h109.489c3.938,0,7.877,3.151,7.877,7.877v70.105C135.089,446.622,131.151,449.772,127.212,449.772z M24.812,434.806h94.523v-55.138
	H24.812C24.812,379.668,24.812,434.806,24.812,434.806z"/>
<rect x="39.778" y="395.422" style="fill:#2EA0DA;" width="64.591" height="24.418"/>
<rect x="219.865" y="283.725" transform="matrix(-0.7071 -0.7071 0.7071 -0.7071 207.3979 718.7346)" style="fill:#E0E4E8;" width="65.378" height="65.378"/>
<path style="fill:#183651;" d="M252.455,369.428c-1.575,0-3.938-0.788-5.514-2.363l-45.686-45.686
	c-3.151-3.151-3.151-7.877,0-11.028l45.686-45.686c3.151-3.151,7.877-3.151,11.028,0l45.686,45.686
	c3.151,3.151,3.151,7.877,0,11.028l-45.686,45.686C256.394,368.64,254.031,369.428,252.455,369.428z M217.009,315.865l35.446,35.446
	l35.446-35.446l-35.446-35.446L217.009,315.865z"/>
<circle style="fill:#FFFFFF;" cx="252.455" cy="452.135" r="44.898"/>
<path style="fill:#183651;" d="M252.455,504.123c-28.357,0-51.988-23.631-51.988-51.988c0-28.357,23.631-51.988,51.988-51.988
	s51.988,23.631,51.988,51.988C304.443,480.492,280.812,504.123,252.455,504.123z M252.455,415.114
	c-20.48,0-37.022,16.542-37.022,37.022c0,20.48,16.542,37.022,37.022,37.022s37.022-16.542,37.022-37.022
	C289.477,431.655,272.935,415.114,252.455,415.114z"/>
<circle style="fill:#FBBD5E;" cx="252.455" cy="452.135" r="22.055"/>
<g>
</g>
<g>
</g>
<g>
</g>
<g>
</g>
<g>
</g>
<g>
</g>
<g>
</g>
<g>
</g>
<g>
</g>
<g>
</g>
<g>
</g>
<g>
</g>
<g>
</g>
<g>
</g>
<g>
</g>
</svg>
