<svg id="Flat" height="512" viewBox="0 0 512 512" width="512" xmlns="http://www.w3.org/2000/svg"><path d="m488 216a88.0013 88.0013 0 0 1 -88 88h-288a88.01185 88.01185 0 0 1 -17.47-174.27c.63989-.13 1.29-.25 1.92993-.37a47.99465 47.99465 0 0 1 47.54007-41.36c.68994 0 1.37988.01 2.07007.05a47.63894 47.63894 0 0 1 16.32007 3.6 136.045 136.045 0 0 1 250.02978 37.23 87.95471 87.95471 0 0 1 75.58008 87.12z" fill="#8acce7"/><path d="m130.89014 113.71-2.89014 15.74a89.22847 89.22847 0 0 0 -31.54-.09 47.7749 47.7749 0 0 1 5.7-16.89q4.86-.465 9.84009-.47a105.507 105.507 0 0 1 18.89005 1.71z" fill="#379ec3"/><path d="m146.07007 88.05a47.63894 47.63894 0 0 1 16.32007 3.6 136.56055 136.56055 0 0 0 -9.68014 20.35l-14.97-5.65a150.36864 150.36864 0 0 1 8.33007-18.3z" fill="#379ec3"/><path d="m431.74023 151.07-15.97023.93a136.16823 136.16823 0 0 0 -3.3501-23.12 87.14718 87.14718 0 0 1 17.21 4.25 150.95925 150.95925 0 0 1 2.11033 17.94z" fill="#379ec3"/><rect fill="#2d80b3" height="64" rx="24" width="168" x="64" y="328"/><circle cx="88" cy="360" fill="#eebe33" r="8"/><circle cx="112" cy="360" fill="#e44042" r="8"/><circle cx="136" cy="360" fill="#a2c32a" r="8"/><path d="m160 352h48v16h-48z" fill="#396795"/><rect fill="#2d80b3" height="64" rx="24" width="168" x="64" y="264"/><circle cx="88" cy="296" fill="#eebe33" r="8"/><circle cx="112" cy="296" fill="#e44042" r="8"/><circle cx="136" cy="296" fill="#a2c32a" r="8"/><path d="m160 288h48v16h-48z" fill="#396795"/><rect fill="#2d80b3" height="64" rx="24" width="168" x="64" y="200"/><circle cx="88" cy="232" fill="#eebe33" r="8"/><circle cx="112" cy="232" fill="#e44042" r="8"/><circle cx="136" cy="232" fill="#a2c32a" r="8"/><g fill="#396795"><path d="m160 224h48v16h-48z"/><path d="m208 256h-120a24.00619 24.00619 0 0 1 -24-24v8a24.00619 24.00619 0 0 0 24 24h120a24.00619 24.00619 0 0 0 24-24v-8a24.00619 24.00619 0 0 1 -24 24z"/><path d="m208 320h-120a24.00619 24.00619 0 0 1 -24-24v8a24.00619 24.00619 0 0 0 24 24h120a24.00619 24.00619 0 0 0 24-24v-8a24.00619 24.00619 0 0 1 -24 24z"/><path d="m208 384h-120a24.00619 24.00619 0 0 1 -24-24v8a24.00619 24.00619 0 0 0 24 24h120a24.00619 24.00619 0 0 0 24-24v-8a24.00619 24.00619 0 0 1 -24 24z"/></g><path d="m360 240h64a24 24 0 0 1 24 24v32h-88z" fill="#eebe33"/><path d="m336 264v48a24 24 0 0 0 24 24h64a24 24 0 0 0 24-24v-16a24 24 0 0 0 -24-24h-17.16718a24 24 0 0 1 -21.46626-13.26687l-2.73312-5.46626a24 24 0 0 0 -21.46626-13.26687h-1.16718a24 24 0 0 0 -24 24z" fill="#eedc9a"/><path d="m360 392h64a24 24 0 0 1 24 24v32h-88z" fill="#eebe33"/><path d="m336 416v48a24 24 0 0 0 24 24h64a24 24 0 0 0 24-24v-16a24 24 0 0 0 -24-24h-17.16718a24 24 0 0 1 -21.46626-13.26687l-2.73312-5.46626a24 24 0 0 0 -21.46626-13.26687h-1.16718a24 24 0 0 0 -24 24z" fill="#eedc9a"/><path d="m312 296v-16h-64v16h24v152a8.00039 8.00039 0 0 0 8 8h32v-16h-24v-144z" fill="#e44042"/></svg>