<svg id="Layer_1" enable-background="new 0 0 512 512" height="512" viewBox="0 0 512 512" width="512" xmlns="http://www.w3.org/2000/svg"><g><path d="m511.983 233.751c-.995-51.995-44.49-93.257-96.488-91.376-7.616.273-14.792-3.862-18.446-10.55-22.605-41.376-66.519-69.441-116.989-69.441-51.757 0-96.596 29.528-118.647 72.648-6.423 12.56-19.224 10.9-24.689 10.9-40.126 0-74.199 25.852-86.512 61.804-2.046 5.973-6.938 10.463-12.894 12.556-22.39 7.87-38.251 29.605-37.276 54.902 1.163 30.174 26.849 53.63 57.045 53.63h359.817c52.291.001 96.08-42.792 95.079-95.073z" fill="#9dc6fb"/><path d="m118.252 275.195c-.975-25.298 14.885-47.033 37.276-54.902 5.956-2.094 10.848-6.584 12.894-12.556 12.313-35.952 46.385-61.804 86.512-61.804 5.465 0 18.265 1.66 24.688-10.9 13.005-25.43 33.94-46.125 59.541-58.832-17.812-8.834-37.873-13.816-59.103-13.816-51.757 0-96.596 29.528-118.647 72.648-6.423 12.56-19.224 10.9-24.689 10.9-40.126 0-74.199 25.852-86.512 61.804-2.046 5.973-6.938 10.463-12.894 12.556-22.39 7.87-38.251 29.605-37.276 54.902 1.163 30.174 26.849 53.63 57.045 53.63h118.21c-30.196 0-55.881-23.457-57.045-53.63z" fill="#80b4fb"/><circle cx="267.457" cy="328.841" fill="#93d3a2" r="120.775"/><path d="m198.884 328.841c0-57.739 40.521-106.007 94.674-117.938-8.406-1.852-17.138-2.837-26.101-2.837-66.702 0-120.775 54.073-120.775 120.775s54.073 120.775 120.775 120.775c8.963 0 17.695-.985 26.101-2.837-54.153-11.931-94.674-60.199-94.674-117.938z" fill="#6ec17d"/><g><path d="m305.394 317.507c-4.268 0-7.727-3.46-7.727-7.727v-22.383c0-16.658-13.552-30.21-30.21-30.21s-30.21 13.552-30.21 30.21v22.383c0 4.268-3.46 7.727-7.727 7.727-4.268 0-7.727-3.46-7.727-7.727v-22.383c0-25.179 20.485-45.664 45.664-45.664s45.664 20.485 45.664 45.664v22.383c.001 4.268-3.459 7.727-7.727 7.727z" fill="#dfebfa"/></g><path d="m312.433 309.78h-89.951c-6.984 0-12.699 5.715-12.699 12.699v66.305c0 6.984 5.715 12.699 12.699 12.699h89.951c6.984 0 12.699-5.715 12.699-12.699v-66.305c0-6.984-5.714-12.699-12.699-12.699z" fill="#ffe181"/><path d="m243.033 388.785v-66.305c0-6.984 5.714-12.699 12.699-12.699h-33.25c-6.985 0-12.699 5.715-12.699 12.699v66.305c0 6.984 5.714 12.699 12.699 12.699h33.25c-6.985 0-12.699-5.715-12.699-12.699z" fill="#fec458"/><g><g><path d="m267.458 385.412c-4.268 0-7.727-3.46-7.727-7.727v-17.965c0-4.268 3.46-7.727 7.727-7.727s7.727 3.46 7.727 7.727v17.964c0 4.268-3.46 7.728-7.727 7.728z" fill="#f9ab49"/></g></g><g><g><circle cx="267.457" cy="349.395" fill="#fec458" r="15.062"/></g></g><path d="m269.009 349.395c0-5.247 2.686-9.862 6.755-12.559-2.382-1.579-5.235-2.503-8.307-2.503-8.319 0-15.062 6.743-15.062 15.062 0 8.318 6.743 15.062 15.062 15.062 3.072 0 5.925-.924 8.307-2.503-4.069-2.697-6.755-7.312-6.755-12.559z" fill="#f9ab49"/></g></svg>