<svg id="icons" enable-background="new 0 0 64 64" height="512" viewBox="0 0 64 64" width="512" xmlns="http://www.w3.org/2000/svg"><path d="m42.03 55.999c.55 0 1 .45 1 1v1c0 .55-.45 1-1 1h-3c-.55 0-1-.45-1-1v-1c0-.55.45-1 1-1z" fill="#edab37"/><path d="m51.03 55.999c.55 0 1 .45 1 1v2c0 .55-.45 1-1 1h-4c-.55 0-1-.45-1-1v-2c0-.55.45-1 1-1z" fill="#edab37"/><path d="m49.24 12.01c-3.01-6.5-9.6-11.01-17.24-11.01-9.81 0-17.89 7.45-18.89 17h-.01-1.1c-6.08 0-11 4.93-11 11 0 6.08 4.92 11 11 11h37c7.73 0 14-6.26 14-14 0-7.64-6.14-13.85-13.76-13.99z" fill="#e6e9ed"/><path d="m24.983 55.68c.024-.374.024-.985 0-1.359-.024-.375-.203-1.32-.2-1.32s.455 0 1.005 0h26.242c.55 0 1 .45 1 1v2c0 .55-.45 1-1 1h-5c-.55 0-1.45 0-2 0h-1c-.55 0-1.45 0-2 0h-3c-.55 0-1.45 0-2 0h-11.252c-.549-.001-.819-.946-.795-1.321z" fill="#f6bb42"/><path d="m26.78 53c.16.64.25 1.31.25 2s-.09 1.36-.25 2c-.891 3.45-4.021 6-7.75 6-4.42 0-8-3.58-8-8s3.58-8 8-8c3.73 0 6.86 2.55 7.75 6zm-3.75 2c0-2.21-1.79-4-4-4s-4 1.79-4 4 1.79 4 4 4 4-1.79 4-4z" fill="#ffce54"/><path d="m1 29c0 6.08 4.92 11 11 11h37c7.73 0 14-6.26 14-14v4c0 7.74-6.27 14-14 14h-37c-6.08 0-11-4.92-11-11z" fill="#ccd1d9"/><path d="m20.03 24.001c0-.55.45-1 1-1h22c.55 0 1 .45 1 1v4c0 .55-.45 1-1 1h-22c-.55 0-1-.45-1-1z" fill="#fff"/><path d="m37.03 31c.55 0 1 .45 1 1v1c0 .55-.45 1-1 1h-10c-.55 0-1-.45-1-1v-1c0-.55.45-1 1-1z" fill="#5d9cec"/><path d="m43.03 16.003c.55 0 1 .45 1 1v4c0 .55-.45 1-1 1h-22c-.55 0-1-.45-1-1v-4c0-.55.45-1 1-1z" fill="#fff"/><g fill="#e6e9ed"><path d="m26.063 27.002c-.553 0-1.005-.447-1.005-1s.442-1 .994-1h.011c.552 0 1 .447 1 1s-.449 1-1 1z"/><path d="m29.063 27.002c-.553 0-1.005-.447-1.005-1s.442-1 .994-1h.011c.552 0 1 .447 1 1s-.449 1-1 1z"/><path d="m32.063 27.002c-.553 0-1.005-.447-1.005-1s.442-1 .994-1h.011c.552 0 1 .447 1 1s-.449 1-1 1z"/><path d="m35.063 27.002c-.553 0-1.005-.447-1.005-1s.442-1 .994-1h.011c.552 0 1 .447 1 1s-.449 1-1 1z"/><path d="m38.063 27.002c-.553 0-1.005-.447-1.005-1s.442-1 .994-1h.011c.552 0 1 .447 1 1s-.449 1-1 1z"/><path d="m38.031 19.992h-12.001c-.553 0-1-.447-1-1s.447-1 1-1h12.001c.553 0 1 .447 1 1s-.447 1-1 1z"/></g></svg>