<svg id="Layer_1" enable-background="new 0 0 512.015 512.015" height="512" viewBox="0 0 512.015 512.015" width="512" xmlns="http://www.w3.org/2000/svg"><g><path d="m512.007 392.015v80c0 22.06-17.94 40-40 40h-432c-22.06 0-40-17.94-40-40v-80c0-22.06 17.94-40 40-40h432c22.06 0 40 17.94 40 40z" fill="#edebfd"/><path d="m472.007 352.015h-40c22.06 0 40 17.94 40 40v80c0 22.06-17.94 40-40 40h40c22.06 0 40-17.94 40-40v-80c0-22.06-17.94-40-40-40z" fill="#d2d2fc"/><g fill="#595965"><path d="m129.577 408.015c-2.209-3.826-7.103-5.135-10.928-2.928l-22.641 13.072v-26.144c0-4.418-3.582-8-8-8s-8 3.582-8 8v26.144l-22.641-13.072c-3.826-2.21-8.719-.898-10.928 2.928s-.898 8.719 2.928 10.928l22.641 13.072-22.641 13.072c-3.826 2.209-5.137 7.102-2.928 10.928 2.213 3.832 7.106 5.134 10.928 2.928l22.641-13.072v26.144c0 4.418 3.582 8 8 8s8-3.582 8-8v-26.144l22.641 13.072c3.809 2.2 8.709.915 10.928-2.928 2.209-3.826.898-8.719-2.928-10.928l-22.641-13.072 22.641-13.072c3.826-2.209 5.137-7.102 2.928-10.928z"/><path d="m241.577 408.015c-2.209-3.826-7.102-5.135-10.928-2.928l-22.641 13.072v-26.144c0-4.418-3.582-8-8-8s-8 3.582-8 8v26.144l-22.641-13.072c-3.826-2.21-8.719-.898-10.928 2.928s-.898 8.719 2.928 10.928l22.641 13.072-22.641 13.072c-3.826 2.209-5.137 7.102-2.928 10.928 2.213 3.832 7.106 5.134 10.928 2.928l22.641-13.072v26.144c0 4.418 3.582 8 8 8s8-3.582 8-8v-26.144l22.641 13.072c3.809 2.2 8.709.915 10.928-2.928 2.209-3.826.898-8.719-2.928-10.928l-22.641-13.072 22.641-13.072c3.826-2.209 5.137-7.102 2.928-10.928z"/><path d="m353.577 408.015c-2.209-3.826-7.102-5.135-10.928-2.928l-22.641 13.072v-26.144c0-4.418-3.582-8-8-8s-8 3.582-8 8v26.144l-22.641-13.072c-3.827-2.21-8.719-.898-10.928 2.928s-.898 8.719 2.928 10.928l22.641 13.072-22.641 13.072c-3.826 2.209-5.137 7.102-2.928 10.928 2.213 3.832 7.106 5.134 10.928 2.928l22.641-13.072v26.144c0 4.418 3.582 8 8 8s8-3.582 8-8v-26.144l22.641 13.072c3.809 2.2 8.709.915 10.928-2.928 2.209-3.826.898-8.719-2.928-10.928l-22.641-13.072 22.641-13.072c3.826-2.209 5.137-7.102 2.928-10.928z"/><path d="m462.649 445.087-22.641-13.072 22.641-13.072c3.826-2.209 5.137-7.102 2.928-10.928s-7.102-5.135-10.928-2.928l-22.641 13.072v-26.144c0-4.418-3.582-8-8-8s-8 3.582-8 8v26.144l-22.641-13.072c-3.826-2.21-8.719-.898-10.928 2.928s-.898 8.719 2.928 10.928l22.641 13.072-22.641 13.072c-7.055 4.073-4.168 14.93 4.007 14.93 2.95 0 1.928.119 26.634-14.145v26.144c0 4.418 3.582 8 8 8s8-3.582 8-8v-26.144c25.013 14.441 23.781 14.145 26.634 14.145 8.171-.001 11.065-10.855 4.007-14.93z"/></g><path d="m336.007 80.015v56c0 4.42-3.58 8-8 8h-32c-4.42 0-8-3.58-8-8v-56c0-8.54-3.33-16.58-9.38-22.62-20.067-20.1-54.62-5.744-54.62 22.62v56c0 4.42-3.58 8-8 8h-32c-4.42 0-8-3.58-8-8v-56c0-44.11 35.89-80 80-80 44.219 0 80 35.777 80 80z" fill="#edebfd"/><path d="m200.007 80.015v56c0 4.42-3.58 8-8 8h24c4.42 0 8-3.58 8-8v-56c0-13.415 8.293-24.916 20.021-29.666-20.956-8.5-44.021 6.981-44.021 29.666z" fill="#d2d2fc"/><path d="m244.044.913c37.98 5.696 67.964 38.492 67.964 79.102v56c0 4.42-3.58 8-8 8h24c4.42 0 8-3.58 8-8v-56c-.001-48.887-43.446-86.411-91.964-79.102z" fill="#d2d2fc"/><path d="m368.007 152.015v160c0 13.23-10.77 24-24 24h-176c-13.23 0-24-10.77-24-24v-160c0-13.23 10.77-24 24-24h176c13.231 0 24 10.77 24 24z" fill="#f1cc76"/><path d="m344.007 128.015h-40c13.23 0 24 10.77 24 24v160c0 13.23-10.77 24-24 24h40c13.23 0 24-10.77 24-24v-160c0-13.23-10.769-24-24-24z" fill="#ebb15d"/><path d="m296.007 216.045c0 12.7-5.91 24.44-16 31.98v15.99c0 13.23-10.77 24-24 24s-24-10.77-24-24v-16c-9.97-7.5-16-19.37-16-32 0-22.704 19.154-41.511 42.77-39.91 20.477 1.397 37.23 18.536 37.23 39.94z" fill="#d9b3af"/><path d="m256.007 264.015v-16c-26.03-19.582-18.992-60.431 11.971-70.168-13.177-4.153-28.248-1.358-39.271 8.938-18.185 16.991-16.587 46.27 3.3 61.23v16c0 18.563 20.202 29.935 36 20.77-7.165-4.158-12-11.909-12-20.77z" fill="#c4928a"/></g></svg>