<svg id="Capa_1" enable-background="new 0 0 496.542 496.542" height="512" viewBox="0 0 496.542 496.542" width="512" xmlns="http://www.w3.org/2000/svg"><g><g><g id="XMLID_132_"><g><path d="m248.271 34.197c-65.5 0-118.6 53.1-118.6 118.6 0 29.51 10.78 56.5 28.61 77.25l89.99 23.302 89.99-23.302c17.83-20.75 28.61-47.74 28.61-77.25 0-65.5-53.1-118.6-118.6-118.6z" fill="#badafb"/><path d="m170.711 153.291c0-51.551 28.981-96.326 71.534-118.943-62.699 3.139-112.573 54.97-112.573 118.448 0 29.51 10.78 56.5 28.61 77.25l45.69 11.831c-20.709-23.673-33.261-54.662-33.261-88.586z" fill="#97c9f9"/><path d="m338.261 230.047c-21.75 25.32-54 41.35-89.99 41.35s-68.24-16.03-89.99-41.35c14.59-20.32 34.77-35.95 58.09-44.99 1.31-.51 2.04-1.73 2.04-2.98 0-.81-.31-1.63-.97-2.27l-4.04-3.92c-24.56-23.8-18.57-64.67 11.79-80.43 7.24-3.75 15.16-5.63 23.08-5.63s15.84 1.88 23.08 5.63c17.62 9.14 27.03 26.74 27.03 44.55 0 12.89-4.93 25.89-15.24 35.88l-4.04 3.92c-1.66 1.61-1.1 4.41 1.07 5.25 11.66 4.52 22.54 10.69 32.32 18.27 9.78 7.57 18.48 16.56 25.77 26.72z" fill="#f8f7f8"/></g></g><path d="m423.488 462.345h-350.434c-40.347 0-73.054-32.707-73.054-73.054 0-40.347 32.707-73.054 73.054-73.054h350.435c40.346 0 73.054 32.707 73.054 73.054-.001 40.347-32.708 73.054-73.055 73.054z" fill="#f8f7f8"/><g fill="#efedee"><path d="m464.967 429.217h-350.434c-40.346 0-73.054-32.707-73.054-73.054 0-13.36 3.604-25.871 9.866-36.645-29.746 9.244-51.345 36.986-51.345 69.773 0 40.346 32.707 73.054 73.054 73.054h350.435c26.987 0 50.558-14.638 63.208-36.402-6.859 2.131-14.17 3.274-21.73 3.274z"/><circle cx="248.271" cy="389.291" r="16.653"/><circle cx="170.035" cy="389.291" r="16.653"/><circle cx="91.798" cy="389.291" r="16.653"/><circle cx="326.508" cy="389.291" r="16.653"/><circle cx="404.744" cy="389.291" r="16.653"/></g></g><path d="m181.244 205.579c-8.64 7.087-16.376 15.294-22.963 24.468 20.106 23.406 49.194 38.874 81.905 41.079-26.275-14.561-47.177-37.66-58.942-65.547z" fill="#efedee"/></g></svg>