<?xml version="1.0"?>
<svg xmlns="http://www.w3.org/2000/svg" viewBox="0 0 64 64" width="512" height="512"><g id="Laptop"><path d="M58,17V49H6V17a4,4,0,0,1,4-4H54A4,4,0,0,1,58,17Z" style="fill:#78b9eb"/><path d="M58,17V49H17L53,13h1A4,4,0,0,1,58,17Z" style="fill:#5aaae7"/><path d="M44.47,31.35a12.589,12.589,0,0,0-1.07-2.6l2.74-3.65L41.9,20.86,38.25,23.6a12.589,12.589,0,0,0-2.6-1.07L35,18H29l-.65,4.53a12.589,12.589,0,0,0-2.6,1.07L22.1,20.86,17.86,25.1l2.74,3.65a12.589,12.589,0,0,0-1.07,2.6L15,32v3H49V32Z" style="fill:#ffa733"/><path d="M6,49H61v4a2.006,2.006,0,0,1-2,2H5a2.006,2.006,0,0,1-2-2V49Z" style="fill:#acabb1"/><rect x="16" y="39" width="4" height="4" style="fill:#e6e7e8"/><polygon points="46 41 46 42 43 43 20 43 20 39 43 39 46 40 46 41" style="fill:#ffa733"/><path d="M38,35H26a6,6,0,0,1,12,0Z" style="fill:#ff6243"/><rect x="28" y="51" width="8" height="2" style="fill:#898890"/><rect x="31" y="21" width="2" height="2" style="fill:#ee8700"/><rect x="21.808" y="24.808" width="2" height="2" transform="translate(-11.569 23.686) rotate(-45)" style="fill:#ee8700"/><rect x="40.192" y="24.808" width="2" height="2" transform="translate(-6.184 36.686) rotate(-45)" style="fill:#ee8700"/><rect x="46" y="40" width="3" height="2" style="fill:#acabb1"/></g></svg>
