<svg id="Capa_1" enable-background="new 0 0 512 512" height="512" viewBox="0 0 512 512" width="512" xmlns="http://www.w3.org/2000/svg"><g><g><g><g><g><g><path d="m408.692 168.613c0-10.997-6.08-20.566-15.046-25.499h-325.4c-15.608 0-28.26 12.717-28.26 28.403v282.189h368.705v-285.093z" fill="#f7f4f7"/><path d="m443.754 143.114h-67.475c15.607 0 28.26 12.717 28.26 28.403v282.189h67.476v-282.189c-.001-15.686-12.654-28.403-28.261-28.403z" fill="#edeaed"/><path d="m408.692 178.318h-326.373c-4.035 0-7.306 3.288-7.306 7.343v232.841h333.679z" fill="#bed8fb"/><path d="m429.682 178.318h-25.144v240.184h32.45v-232.841c0-4.055-3.271-7.343-7.306-7.343z" fill="#9dc6fb"/><path d="m448.225 432.796c0-7.269-5.341-13.269-12.29-14.294h-421.628c-7.902 0-14.307 6.438-14.307 14.379 0 23.476 18.935 42.507 42.293 42.507h367.092c21.76-1.889 38.84-20.231 38.84-42.592z" fill="#d1ccd3"/><path d="m497.693 418.502h-67.305c7.901 0 14.307 6.438 14.307 14.379 0 23.476-18.935 42.507-42.293 42.507h67.305c23.358 0 42.293-19.031 42.293-42.507 0-7.941-6.405-14.379-14.307-14.379z" fill="#c1bcc4"/></g><path d="m189.553 418.502c0 15.709 12.67 28.443 28.3 28.443h76.294c15.63 0 28.3-12.734 28.3-28.443z" fill="#f7f4f7"/></g></g></g></g><g><g><g><g><g><g><path d="m339.196 288.869c-.016-4.48-3.627-8.16-8.083-8.117-.112.001-.223 0-.334-.004-1.501-.048-2.775-1.134-3.181-2.587-1.653-5.918-4.01-11.539-6.978-16.764-.77-1.355-.586-3.07.486-4.198.035-.037.07-.073.106-.109l.002-.002c3.147-3.204 3.121-8.364-.058-11.536l-13.097-13.072c-3.168-3.161-8.293-3.117-11.407.099-.036.036-.072.072-.109.108-1.114 1.085-2.819 1.282-4.171.518-5.22-2.947-10.829-5.277-16.729-6.897-1.448-.397-2.536-1.67-2.595-3.177-.004-.111-.006-.223-.006-.335.011-4.48-3.675-8.084-8.132-8.068l-18.403.065c-4.458.016-8.118 3.646-8.076 8.126v.112c-.007 1.591-1.059 2.99-2.583 3.42-5.847 1.65-11.402 3.998-16.57 6.952-1.411.807-3.211.632-4.368-.513-.007-.007-.015-.014-.022-.022l-.002-.002c-3.189-3.163-8.322-3.136-11.478.058l-12.948 13.106c-3.154 3.192-3.136 8.349.04 11.519l.002.002c.036.036.071.072.106.108 1.08 1.12 1.276 2.834.516 4.194-2.931 5.243-5.248 10.878-6.859 16.805-.418 1.536-1.803 2.604-3.387 2.622-.037 0-.074.001-.111 0-4.457-.012-8.042 3.694-8.027 8.173l.064 18.496c.016 4.48 3.627 8.159 8.084 8.117.112-.001.223 0 .334.004 1.5.049 2.774 1.134 3.179 2.586 1.653 5.919 4.011 11.541 6.979 16.766.769 1.354.586 3.068-.486 4.196-.035.037-.071.074-.107.11l-.002.002c-3.161 3.178-3.153 8.332.02 11.498l13.021 12.996c3.185 3.179 8.323 3.187 11.518.017l.002-.002c.035-.035.07-.07.105-.105 1.115-1.088 2.824-1.284 4.179-.519 5.217 2.945 10.824 5.274 16.721 6.894 1.451.398 2.542 1.674 2.6 3.184.004.109.006.218.006.327-.01 4.481 3.674 8.087 8.132 8.071l18.403-.065c4.458-.016 8.118-3.646 8.076-8.126 0-.037 0-.075 0-.112.007-1.591 1.059-2.99 2.583-3.42 5.887-1.661 11.479-4.03 16.677-7.013 1.347-.773 3.052-.588 4.173.488.037.036.074.072.11.108l.002.002c3.176 3.17 8.307 3.152 11.46-.04l12.985-13.142c3.151-3.189 3.125-8.344-.058-11.501l-.002-.002c-.037-.037-.073-.073-.109-.11-1.079-1.119-1.274-2.831-.515-4.19 2.932-5.245 5.25-10.882 6.862-16.811.417-1.535 1.801-2.601 3.384-2.619.037 0 .074-.001.111-.001 4.458.01 8.044-3.693 8.029-8.173z" fill="#e2916b"/></g></g></g></g></g><ellipse cx="256" cy="298.41" fill="#d6e0ef" rx="39.606" ry="39.807"/></g><g><g><path d="m404.732 55.602c-2.336.596-4.85.266-7.001-.966-29.702-16.999-76.155-18.286-95.723-17.99-5.096.077-9.179 4.256-9.179 9.378v142.589c0 5.226 4.245 9.452 9.445 9.378 18.711-.265 61.232.938 90.792 15.517 3.66 1.805 7.71 2.488 11.666 2.051z" fill="#f4e066"/><path d="m512 182.084v-136.06c0-5.119-4.08-9.301-9.172-9.378-19.577-.296-66.083.991-95.785 18.022-1.434.822-3.031 1.226-4.628 1.222v159.797c3.2 0 6.401-.727 9.349-2.181 26.629-13.133 63.775-15.411 84.559-15.54 8.626-.053 15.677-7.211 15.677-15.882z" fill="#efd133"/></g><g><g><g><g><g><g><path d="m372.096 93.173c-.68 0-1.372-.091-2.059-.282-13.875-3.849-30.266-6.247-48.715-7.127-4.263-.204-7.554-3.841-7.351-8.125.201-4.284 3.823-7.604 8.083-7.388 19.592.935 37.119 3.516 52.094 7.67 4.114 1.141 6.528 5.417 5.392 9.552-.946 3.441-4.055 5.7-7.444 5.7z" fill="#f4f4f4"/></g></g><g><g><path d="m372.096 128.519c-.68 0-1.372-.091-2.059-.282-13.875-3.849-30.266-6.247-48.715-7.128-4.263-.204-7.554-3.841-7.351-8.125.201-4.284 3.823-7.586 8.083-7.388 19.592.935 37.119 3.516 52.094 7.67 4.114 1.141 6.528 5.417 5.392 9.552-.946 3.442-4.055 5.701-7.444 5.701z" fill="#f4f4f4"/></g></g></g></g><g><g><g><g><path d="m372.096 167.468c-.68 0-1.371-.091-2.059-.282-13.874-3.848-30.265-6.246-48.716-7.128-4.262-.204-7.553-3.842-7.35-8.125.201-4.284 3.789-7.582 8.085-7.388 19.592.936 37.119 3.517 52.093 7.67 4.114 1.141 6.528 5.417 5.392 9.551-.946 3.444-4.056 5.702-7.445 5.702z" fill="#f4f4f4"/></g></g></g></g></g><g><g><g><g><g><path d="m432.403 93.173c-3.389 0-6.498-2.258-7.444-5.701-1.136-4.135 1.279-8.411 5.392-9.552 14.975-4.155 32.502-6.735 52.094-7.67 4.262-.19 7.881 3.104 8.083 7.388.203 4.284-3.089 7.922-7.351 8.125-18.45.881-34.84 3.279-48.715 7.127-.686.192-1.379.283-2.059.283z" fill="#f4f4f4"/></g></g><g><g><path d="m432.403 128.519c-3.389 0-6.498-2.258-7.444-5.701-1.136-4.135 1.279-8.411 5.392-9.552 14.975-4.154 32.502-6.735 52.094-7.67 4.262-.189 7.881 3.104 8.083 7.388.203 4.284-3.089 7.922-7.351 8.125-18.45.881-34.84 3.279-48.715 7.128-.686.191-1.379.282-2.059.282z" fill="#f4f4f4"/></g></g></g></g><g><g><g><g><path d="m432.403 167.468c-3.389 0-6.498-2.258-7.444-5.702-1.136-4.134 1.279-8.411 5.392-9.551 7.301-2.025 15.343-3.699 23.901-4.973 4.217-.629 8.15 2.3 8.776 6.544.626 4.242-2.29 8.191-6.51 8.82-7.939 1.183-15.359 2.723-22.056 4.581-.686.19-1.379.281-2.059.281z" fill="#f4f4f4"/></g></g></g></g></g></g></g></g></svg>