<?xml version="1.0" encoding="UTF-8"?>
<svg xmlns="http://www.w3.org/2000/svg" xmlns:xlink="http://www.w3.org/1999/xlink" width="512" height="512" viewBox="0 0 58 58" version="1.1"><!-- Generator: Sketch 49.3 (51167) - http://www.bohemiancoding.com/sketch --><title>047 - VM settings</title><desc>Created with Sketch.</desc><defs/><g id="Page-1" stroke="none" stroke-width="1" fill="none" fill-rule="evenodd"><g id="047---VM-settings" fill-rule="nonzero"><path d="M51,45 L51,20 C50.9967762,18.8967686 50.1032314,18.0032238 49,18 L9,18 C7.89676861,18.0032238 7.00322381,18.8967686 7,20 L7,45 L0,54 L0,56 C2.22044605e-16,57.1045695 0.8954305,58 2,58 L56,58 C57.1045695,58 58,57.1045695 58,56 L58,54 L51,45 Z" id="Shape" fill="#B0D3F0"/><polygon id="Shape" fill="#BDC3C7" points="7 45 0 54 58 54 51 45"/><path d="M0,54 L58,54 L58,56 C58,57.1045695 57.1045695,58 56,58 L2,58 C0.8954305,58 2.22044605e-16,57.1045695 0,56 L0,54 Z" id="Shape" fill="#7F8C8D"/><path d="M45,51 L13,51 C12.4477153,51 12,50.5522847 12,50 C12,49.4477153 12.4477153,49 13,49 L45,49 C45.5522847,49 46,49.4477153 46,50 C46,50.5522847 45.5522847,51 45,51 Z" id="Shape" fill="#7F8C8D"/><path d="M9,51 L8,51 C7.44771525,51 7,50.5522847 7,50 C7,49.4477153 7.44771525,49 8,49 L9,49 C9.55228475,49 10,49.4477153 10,50 C10,50.5522847 9.55228475,51 9,51 Z" id="Shape" fill="#7F8C8D"/><path d="M50,51 L49,51 C48.4477153,51 48,50.5522847 48,50 C48,49.4477153 48.4477153,49 49,49 L50,49 C50.5522847,49 51,49.4477153 51,50 C51,50.5522847 50.5522847,51 50,51 Z" id="Shape" fill="#7F8C8D"/><path d="M47,40.57 L47.0000084,41 L35,41 C35,38.2385763 32.7614237,36 30,36 C27.2385763,36 25,38.2385763 25,41 L11.9999916,41 L12,40.57 C11.999174,39.7101555 12.0593249,38.8513347 12.18,38 L15.56,38 C15.6912481,37.1931794 15.8954181,36.3999287 16.17,35.63 L13.25,33.89 C13.8650148,32.2941687 14.7070191,30.7954009 15.75,29.44 L18.68,31.18 C19.1862326,30.547148 19.7521727,29.9644641 20.37,29.44 L18.68,26.43 C19.9844566,25.3636598 21.4404208,24.4974959 23,23.86 L24.69,26.86 C25.4388389,26.5789486 26.2121589,26.3680431 27,26.23 L27,22.76 C28.65704,22.5066667 30.34296,22.5066667 32,22.76 L32,26.23 C32.7878411,26.3680431 33.5611611,26.5789486 34.31,26.86 L36,23.86 C37.5595792,24.4974959 39.0155434,25.3636598 40.32,26.43 L38.63,29.44 C39.2478273,29.9644641 39.8137674,30.547148 40.32,31.18 L43.25,29.44 C44.2929809,30.7954009 45.1349852,32.2941687 45.75,33.89 L42.83,35.63 C43.1045819,36.3999287 43.3087519,37.1931794 43.44,38 L46.82,38 C46.9406751,38.8513347 47.000826,39.7101555 47,40.57 Z" id="Shape" fill="#7F8C8D"/><path d="M35,41 L25,41 C25,38.2385763 27.2385763,36 30,36 C32.7614237,36 35,38.2385763 35,41 Z" id="Shape" fill="#A5A5A4"/><polygon id="Shape" fill="#F09372" points="21 8 21 18 13 14 13 4"/><polygon id="Shape" fill="#FDD7AD" points="29 4 29 14 21 18 21 8"/><polygon id="Shape" fill="#F0785A" points="29 4 21 8 13 4 21 0"/><polygon id="Shape" fill="#F09372" points="37 8 37 18 29 14 29 4"/><polygon id="Shape" fill="#FDD7AD" points="45 4 45 14 37 18 37 8"/><polygon id="Shape" fill="#F0785A" points="45 4 37 8 29 4 37 0"/></g></g></svg>
