<svg id="Capa_1" enable-background="new 0 0 512 512" height="512" viewBox="0 0 512 512" width="512" xmlns="http://www.w3.org/2000/svg"><g><g><g><g><g><g><path d="m258.704 94.925c-.943.25-1.856.495-2.704.729-20.286-5.6-67.712-16-139.99-16-22.939 0-46.83 1.061-71.011 3.155-25.653 2.221-44.999 5.7-44.999 31.647v287.251c0 27.343 22.073 49.588 49.205 49.588 1.355 0 2.727-.057 4.08-.17 21.39-1.783 42.493-2.687 62.724-2.687 57.756 0 96.909 7.342 115.106 11.719 8.145 1.959 16.517 2.953 24.884 2.953.901 0 1.803-.017 2.704-.04v-368.145z" fill="#88a8d8"/><path d="m447.753 416.709v-335.347c-17.591-1.131-34.934-1.708-51.762-1.708-72.279 0-119.704 10.4-139.99 16v367.456c8.367 0 16.739-.994 24.882-2.953 18.199-4.377 57.352-11.719 115.108-11.719 12.902 0 26.16.371 39.619 1.1 7.845-9.121 12.143-20.633 12.143-32.829z" fill="#7296d1"/><g><path d="m467.001 82.809c-7.191-.623-14.35-1.142-21.472-1.582v333.276c0 13.14-5.042 25.485-14.195 34.823 9.045.44 18.183 1.033 27.38 1.8 1.352.112 2.724.17 4.078.17h.004c13.088 0 25.414-5.131 34.706-14.447 9.349-9.374 14.497-21.854 14.497-35.141v-287.252c.001-25.947-19.345-29.426-44.998-31.647z" fill="#5884c9"/></g><path d="m447.753 78.947v-11.269c0-9.211-3.104-14.54-5.842-17.452-101.334-5.896-163.039 9.383-180.661 14.595-1.713.507-3.481.76-5.25.76v362.424c5.823 0 11.646-.686 17.354-2.059 27.281-6.562 86.355-16.763 174.399-11.015z" fill="#edeaed"/><path d="m465.669 51.944c-10.302-.892-20.223-1.557-29.796-2.043 1.212.574 9.656 5.117 9.656 20.206v344.395c0 .094-.006.186-.007.28 5.674.355 11.462.773 17.379 1.266 9.555.796 17.749-6.811 17.749-16.467v-331.171c0-8.567-6.506-15.732-14.981-16.466z" fill="#e0dde0"/><g><path d="m258.704 65.381c-2.65.391-5.365.206-7.954-.559-18.96-5.608-88.942-22.875-204.419-12.877-8.475.733-14.981 7.898-14.981 16.465v331.171c0 9.656 8.193 17.264 17.748 16.467 96.452-8.039 160.728 2.966 189.548 9.898 6.592 1.586 13.337 2.25 20.058 2.004z" fill="#f7f4f7"/></g></g></g></g></g><path d="m415.13 104.868c-6.111-.156-12.162-.235-18.138-.235-41.859 0-74.021 3.823-95.799 7.674-6.482 1.146-11.197 6.825-11.197 13.453v86.778c0 8.436 7.508 14.844 15.774 13.478 21.611-3.57 52.204-6.892 91.222-6.892 5.975 0 12.028.082 18.138.238z" fill="#ecbe6b"/><path d="m433.713 105.573c-7.161-.359-14.249-.603-21.265-.757v114.49c6.605.144 13.277.37 20.012.697 7.728.375 14.193-5.85 14.193-13.643v-87.14c.001-7.299-5.7-13.284-12.94-13.647z" fill="#e8ae4d"/><g><g><g><path d="m290.491 282.875c-3.649 0-6.894-2.614-7.587-6.358-.782-4.225 1.986-8.288 6.18-9.075 31.545-5.919 84.277-12.026 156.376-7.509 4.259.266 7.497 3.96 7.231 8.25-.265 4.288-3.918 7.562-8.191 7.283-70.517-4.418-121.9 1.518-152.586 7.276-.477.089-.953.133-1.423.133z" fill="#808080"/></g></g><g><g><path d="m290.491 326.275c-3.649 0-6.894-2.615-7.587-6.358-.782-4.225 1.986-8.288 6.18-9.075 31.544-5.919 84.277-12.028 156.376-7.509 4.259.266 7.497 3.96 7.231 8.25-.265 4.288-3.918 7.561-8.191 7.283-70.517-4.418-121.898 1.518-152.586 7.276-.477.089-.953.133-1.423.133z" fill="#808080"/></g></g><g><g><path d="m290.491 369.676c-3.649 0-6.894-2.615-7.587-6.358-.782-4.225 1.986-8.288 6.18-9.075 23.047-4.324 48.517-7.142 75.703-8.374 4.257-.21 7.873 3.131 8.065 7.423.192 4.294-3.108 7.93-7.371 8.124-26.471 1.2-51.222 3.934-73.566 8.127-.478.089-.954.133-1.424.133z" fill="#808080"/></g></g></g><g><g><g><path d="m221.509 321.802c-.47 0-.946-.044-1.425-.133-30.685-5.758-82.065-11.694-152.586-7.276-4.266.275-7.927-2.994-8.191-7.283-.266-4.289 2.973-7.983 7.231-8.25 72.101-4.515 124.833 1.591 156.376 7.509 4.194.787 6.962 4.85 6.18 9.075-.691 3.743-3.937 6.358-7.585 6.358z" fill="#808080"/></g></g><g><g><path d="m221.509 365.551c-.47 0-.946-.044-1.425-.133-30.685-5.757-82.069-11.693-152.586-7.276-4.266.271-7.927-2.995-8.191-7.283-.266-4.289 2.973-7.983 7.231-8.25 72.096-4.516 124.831 1.59 156.376 7.509 4.194.787 6.962 4.85 6.18 9.075-.691 3.743-3.937 6.358-7.585 6.358z" fill="#808080"/></g></g><g><g><path d="m221.509 278.054c-.47 0-.946-.044-1.425-.133-30.685-5.757-82.069-11.694-152.586-7.276-4.266.279-7.927-2.994-8.191-7.283-.266-4.289 2.973-7.983 7.231-8.25 72.096-4.516 124.831 1.59 156.376 7.509 4.194.787 6.962 4.85 6.18 9.075-.691 3.743-3.937 6.358-7.585 6.358z" fill="#808080"/></g></g><g><g><path d="m221.509 234.305c-.47 0-.946-.044-1.425-.133-30.685-5.758-82.069-11.695-152.586-7.276-4.266.283-7.927-2.994-8.191-7.283-.266-4.289 2.973-7.983 7.231-8.25 72.096-4.516 124.831 1.59 156.376 7.509 4.194.787 6.962 4.85 6.18 9.075-.691 3.744-3.937 6.358-7.585 6.358z" fill="#808080"/></g></g><g><g><path d="m221.509 190.557c-.47 0-.946-.044-1.425-.133-30.686-5.758-82.067-11.693-152.586-7.276-4.266.274-7.927-2.995-8.191-7.283-.266-4.289 2.973-7.983 7.231-8.25 72.097-4.517 124.832 1.591 156.376 7.509 4.194.787 6.962 4.85 6.18 9.075-.691 3.743-3.937 6.357-7.585 6.358z" fill="#808080"/></g></g><g><g><path d="m221.509 146.808c-.47 0-.946-.044-1.425-.133-23.08-4.331-48.699-7.103-76.142-8.238-4.264-.176-7.578-3.8-7.403-8.094.175-4.296 3.803-7.633 8.037-7.456 28.178 1.166 54.535 4.021 78.339 8.488 4.195.787 6.962 4.85 6.18 9.075-.692 3.744-3.938 6.358-7.586 6.358z" fill="#808080"/></g></g></g><path d="m348.749 138.64v45.626c0 5.078 5.682 8.049 9.806 5.127l32.197-22.813c3.524-2.497 3.524-7.757 0-10.254l-32.197-22.813c-4.124-2.922-9.806.049-9.806 5.127z" fill="#fff"/></g></g></svg>