<svg id="Capa_1" enable-background="new 0 0 512 512" height="512" viewBox="0 0 512 512" width="512" xmlns="http://www.w3.org/2000/svg"><g><path d="m417.772 33.301h-353.821v-22.894c0-5.748 4.659-10.407 10.406-10.407h333.008c5.747 0 10.407 4.659 10.407 10.407z" fill="#d3effb"/><path d="m428.178 66.602h-374.634v-22.895c0-5.747 4.659-10.407 10.407-10.407h353.821c5.747 0 10.406 4.659 10.406 10.407z" fill="#cbe2ff"/><path d="m459.398 512h-425.708c-5.655 0-10.253-4.559-10.301-10.214l-.975-114.681c-.049-5.724 4.578-10.389 10.301-10.389h416.382c5.69 0 10.302 4.612 10.302 10.302v124.982z" fill="#9d66d5"/><path d="m459.398 445.102-63.032-63.032c.795-1.774 1.548-3.56 2.268-5.355h-270.579c7.099 17.817 17.841 34.508 32.241 48.908 27.517 27.517 64.103 42.672 103.019 42.672 20.573 0 40.844-4.339 59.457-12.65l56.353 56.355h80.273z" fill="#8659b9"/><path d="m438.585 376.715h-395.447v-299.707c0-5.747 4.659-10.407 10.407-10.407h374.634c5.747 0 10.406 4.659 10.406 10.407z" fill="#f4fbff"/><path d="m428.178 66.602h-27.428c5.747 0 10.406 4.659 10.406 10.407v299.707h27.429v-299.708c0-5.747-4.659-10.406-10.407-10.406z" fill="#e4f6ff"/><g><path d="m390.168 419.449-30.009 30.009c-3.905 3.905-10.237 3.905-14.142 0l-19.42-19.42 44.151-44.151 19.42 19.42c3.905 3.905 3.905 10.237 0 14.142z" fill="#2b4d66"/><path d="m369.677 428.967h37.463v37.463h-37.463z" fill="#4a80aa" transform="matrix(.707 -.707 .707 .707 -202.808 405.775)"/><path d="m484.426 512h-75.867l-21.909-21.909c-3.905-3.905-3.905-10.237 0-14.142l30.009-30.009c3.905-3.905 10.237-3.905 14.142 0l57.267 57.267c3.245 3.245.947 8.793-3.642 8.793z" fill="#407093"/><path d="m416.659 445.94-7.646 7.646 58.414 58.414h16.999c4.589 0 6.887-5.548 3.642-8.793l-57.267-57.267c-3.905-3.906-10.237-3.906-14.142 0z" fill="#365e7d"/><path d="m76.439 210.915v-108.437c0-5.69 4.612-10.302 10.302-10.302h83.461c5.69 0 10.302 4.612 10.302 10.302v108.437c0 5.69-4.612 10.302-10.302 10.302h-83.462c-5.689 0-10.301-4.613-10.301-10.302z" fill="#dd636e"/><circle cx="263.314" cy="322.604" fill="#407093" r="124.878"/><path d="m338.833 223.15c15.95 20.973 25.424 47.138 25.424 75.519 0 68.968-55.91 124.878-124.878 124.878-28.381 0-54.546-9.474-75.519-25.424 22.809 29.992 58.867 49.359 99.454 49.359 68.968 0 124.878-55.91 124.878-124.878.001-40.587-19.367-76.645-49.359-99.454z" fill="#365e7d"/><circle cx="263.314" cy="322.604" fill="#e4f6ff" r="91.577"/><path d="m318.617 249.611c11.66 15.367 18.584 34.525 18.584 55.302 0 50.577-41.001 91.577-91.577 91.577-20.778 0-39.935-6.924-55.302-18.584 16.723 22.039 43.194 36.275 72.993 36.275 50.577 0 91.577-41 91.577-91.577 0-29.799-14.237-56.27-36.275-72.993z" fill="#d3effb"/></g><g><g><path d="m405.284 107.629h-189.398c-4.267 0-7.726-3.459-7.726-7.726s3.459-7.726 7.726-7.726h189.398c4.267 0 7.726 3.459 7.726 7.726.001 4.267-3.459 7.726-7.726 7.726z" fill="#9d66d5"/></g><g><path d="m405.284 140.93h-189.398c-4.267 0-7.726-3.459-7.726-7.726s3.459-7.726 7.726-7.726h189.398c4.267 0 7.726 3.459 7.726 7.726s-3.459 7.726-7.726 7.726z" fill="#9d66d5"/></g><g><path d="m342.845 174.23h-126.959c-4.267 0-7.726-3.459-7.726-7.726s3.459-7.726 7.726-7.726h126.959c4.267 0 7.726 3.459 7.726 7.726s-3.459 7.726-7.726 7.726z" fill="#9d66d5"/></g></g></g></svg>