<svg height="512" viewBox="0 0 58 49" width="512" xmlns="http://www.w3.org/2000/svg"><g id="Page-1" fill="none" fill-rule="evenodd"><g id="020---Open-Book" fill-rule="nonzero"><path id="Shape" d="m54 6h2c1.1032019.0032948 1.9967052.89679813 2 2v35c0 1.6568542-1.3431458 3-3 3h-22c0 1.6568542-1.3431458 3-3 3h-2c-1.6568542 0-3-1.3431458-3-3h-22c-1.65685425 0-3-1.3431458-3-3v-35c.0032948-1.10320187.89679813-1.9967052 2-2z" fill="#a56a43"/><path id="Shape" d="m33 41.1v4.9c0 1.6568542-1.3431458 3-3 3h-2c-1.6568542 0-3-1.3431458-3-3v-4.9z" fill="#805333"/><path id="Shape" d="m29 7v36.670002c-.3455015.0006894-.6668845-.1770165-.85-.470002-.9313522-1.3778941-2.4868696-2.2025057-4.15-2.2h-19c-.55228475 0-1-.4477153-1-1v-37c0-.55228475.44771525-1 1-1h19c2.7614237 0 5 2.23857625 5 5z" fill="#f5efca"/><path id="Shape" d="m54 3v37c0 .5522847-.4477153 1-1 1h-19c-1.6631304-.0025057-3.2186478.8221059-4.15 2.2-.1831155.2929855-.5044985.4706914-.85.470002v-36.670002c0-2.76142375 2.2385763-5 5-5h19c.5522847 0 1 .44771525 1 1z" fill="#f9eab0"/><path id="Shape" d="m15.4 14.55-1.8-1.35c-.3555556-.2666667-.8444444-.2666667-1.2 0l-1.8 1.35c-.3030176.2272632-.70842957.2638192-1.0472136.0944272-.33878402-.169392-.5527864-.5156551-.5527864-.8944272v-11.75c0-1.1045695.8954305-2 2-2h4c1.1045695 0 2 .8954305 2 2v11.75c0 .3787721-.2140024.7250352-.5527864.8944272s-.744196.132836-1.0472136-.0944272z" fill="#955ba5"/><g fill="#3f5c6c"><path id="Shape" d="m25 20h-17c-.55228475 0-1-.4477153-1-1s.44771525-1 1-1h17c.5522847 0 1 .4477153 1 1s-.4477153 1-1 1z"/><path id="Shape" d="m25 24h-17c-.55228475 0-1-.4477153-1-1s.44771525-1 1-1h17c.5522847 0 1 .4477153 1 1s-.4477153 1-1 1z"/><path id="Shape" d="m25 28h-17c-.55228475 0-1-.4477153-1-1s.44771525-1 1-1h17c.5522847 0 1 .4477153 1 1s-.4477153 1-1 1z"/><path id="Shape" d="m25 32h-17c-.55228475 0-1-.4477153-1-1s.44771525-1 1-1h17c.5522847 0 1 .4477153 1 1s-.4477153 1-1 1z"/><path id="Shape" d="m25 36h-17c-.55228475 0-1-.4477153-1-1s.44771525-1 1-1h17c.5522847 0 1 .4477153 1 1s-.4477153 1-1 1z"/><path id="Shape" d="m50 20h-17c-.5522847 0-1-.4477153-1-1s.4477153-1 1-1h17c.5522847 0 1 .4477153 1 1s-.4477153 1-1 1z"/><path id="Shape" d="m50 24h-17c-.5522847 0-1-.4477153-1-1s.4477153-1 1-1h17c.5522847 0 1 .4477153 1 1s-.4477153 1-1 1z"/><path id="Shape" d="m50 28h-17c-.5522847 0-1-.4477153-1-1s.4477153-1 1-1h17c.5522847 0 1 .4477153 1 1s-.4477153 1-1 1z"/><path id="Shape" d="m50 32h-17c-.5522847 0-1-.4477153-1-1s.4477153-1 1-1h17c.5522847 0 1 .4477153 1 1s-.4477153 1-1 1z"/><path id="Shape" d="m50 36h-17c-.5522847 0-1-.4477153-1-1s.4477153-1 1-1h17c.5522847 0 1 .4477153 1 1s-.4477153 1-1 1z"/><path id="Shape" d="m50 8h-17c-.5522847 0-1-.44771525-1-1s.4477153-1 1-1h17c.5522847 0 1 .44771525 1 1s-.4477153 1-1 1z"/><path id="Shape" d="m50 12h-17c-.5522847 0-1-.4477153-1-1s.4477153-1 1-1h17c.5522847 0 1 .4477153 1 1s-.4477153 1-1 1z"/><path id="Shape" d="m50 16h-17c-.5522847 0-1-.4477153-1-1s.4477153-1 1-1h17c.5522847 0 1 .4477153 1 1s-.4477153 1-1 1z"/></g></g></g></svg>