<svg id="Capa_1" enable-background="new 0 0 512 512" height="512" viewBox="0 0 512 512" width="512" xmlns="http://www.w3.org/2000/svg"><g><path d="m105.5 512h285c8.284 0 15-6.716 15-15v-50.5h-300.24z" fill="#4ec9ff"/><path d="m405.5 446.5v50.5c0 8.28-6.72 15-15 15h-134.24v-65.5z" fill="#0095ff"/><path d="m481.5 75.5v361.5c0 8.29-6.73 15-15 15 .11 0-237.79-.4-296-.5v-391h296c8.28 0 15 6.72 15 15z" fill="#edf5ff"/><path d="m481.5 75.5v361.5c0 8.29-6.73 15-15 15 .08 0-119.85-.2-210.24-.36v-391.14h210.24c8.28 0 15 6.72 15 15z" fill="#cee8ff"/><path d="m481.5 330.48-121.52 121.52 1-106.66c.08-8.23 6.77-14.86 15-14.86z" fill="#aedaff"/><path d="m227.5 181h209c8.284 0 15-6.716 15-15s-6.716-15-15-15h-209c-8.284 0-15 6.716-15 15s6.716 15 15 15z" fill="#004692"/><path d="m451.5 166c0 8.28-6.72 15-15 15h-180.24v-30h180.24c8.28 0 15 6.72 15 15z" fill="#00204d"/><path d="m436.5 211h-209c-8.284 0-15 6.716-15 15s6.716 15 15 15h209c8.284 0 15-6.716 15-15s-6.716-15-15-15z" fill="#004692"/><path d="m451.5 226c0 8.28-6.72 15-15 15h-180.24v-30h180.24c8.28 0 15 6.72 15 15z" fill="#00204d"/><path d="m436.5 271h-209c-8.284 0-15 6.716-15 15s6.716 15 15 15h209c8.284 0 15-6.716 15-15s-6.716-15-15-15z" fill="#004692"/><path d="m451.5 286c0 8.28-6.72 15-15 15h-180.24v-30h180.24c8.28 0 15 6.72 15 15z" fill="#00204d"/><path d="m316.5 330h-89c-8.284 0-15 6.716-15 15s6.716 15 15 15h89c8.284 0 15-6.716 15-15s-6.716-15-15-15z" fill="#004692"/><path d="m331.5 345c0 8.28-6.72 15-15 15h-60.24v-30h60.24c8.28 0 15 6.72 15 15z" fill="#00204d"/><path d="m180.5 75c0-41.421-33.579-75-75-75-41.421 0-75 33.579-75 75v362h150c0-31.658 0-362.157 0-362z" fill="#cee8ff"/><path d="m105.5 362c-41.421 0-75 33.579-75 75 0 41.421 33.579 75 75 75 41.421 0 75-33.579 75-75 0-41.421-33.579-75-75-75z" fill="#4ec9ff"/></g></svg>