<svg id="Layer_1" enable-background="new 0 0 480 480" height="512" viewBox="0 0 480 480" width="512" xmlns="http://www.w3.org/2000/svg"><path d="m462.43 424.59c-2.62-1.14-5.28-2.24-7.98-3.3l2.88-47.32c.44-7.26-2.43-14.32-7.8-19.23-57.715-52.674-145.135-56.188-207.005-6.798-1.482 1.183-3.568 1.183-5.05 0-61.836-49.363-149.26-45.903-207.005 6.798-10.22 9.35-7.43 21.37-7.59 22.68l2.67 43.87c-2.7 1.06-5.36 2.16-7.98 3.3-5.83 2.53-9.57 8.31-9.57 14.66v13.77c0 12.28 13.26 19.96 23.93 13.88 53.53-30.48 121.78-36.66 181.07-24.9v6c0 13.25 10.75 24 24 24h6c13.25 0 24-10.75 24-24v-6c59.29-11.76 127.54-5.58 181.07 24.9 10.67 6.08 23.93-1.6 23.93-13.88v-13.77c0-6.35-3.74-12.13-9.57-14.66z" fill="#d1e7ff"/><path d="m133.078 313.045c9.434-.292 11.535 13.177 2.439 15.694-23.622 6.537-45.974 18.595-65.047 36-10.22 9.35-7.43 21.37-7.59 22.68l.926 15.083c.232 3.793-2.24 7.222-5.91 8.206-11.241 3.013-22.067 6.534-32.346 10.581l-2.67-43.87c.16-1.31-2.63-13.33 7.59-22.68 28.977-26.448 65.531-40.546 102.608-41.694z" fill="#e8f3ff"/><path d="m354.68 325.337c-25.124 4.382-48.738 14.707-68.656 29.855-3.557 2.705-8.475 2.721-12.042.029-2.65-2-5.462-3.987-8.399-5.921-6.337-4.174-5.865-13.563.808-17.177 27.433-14.86 57.941-20.985 87.808-18.689 7.05.542 7.447 10.688.481 11.903z" fill="#e8f3ff"/><path d="m462.43 424.59c5.83 2.53 9.57 8.31 9.57 14.66v13.77c0 12.28-13.26 19.96-23.93 13.88-53.53-30.48-121.78-36.66-181.07-24.9v6c0 13.25-10.75 24-24 24h-6c-13.25 0-24-10.75-24-24v-6c-59.29-11.76-127.54-5.58-181.07 24.9-10.67 6.08-23.93-1.6-23.93-13.88v-13.77c0-6.35 3.74-12.13 9.57-14.66 64.773-28.184 152.301-32.853 222.43-24.27 70.191-8.59 157.697-3.896 222.43 24.27z" fill="#b9dcff"/><g fill="#d1e7ff"><path d="m232.696 471.615c-11.201-2.028-19.696-11.829-19.696-23.615 0-1.57 1.389-2.788 2.943-2.566 4.357.622 8.68 1.346 12.959 2.159 1.219.232 2.098 1.304 2.098 2.546v3.861c0 5.038 1.555 9.716 4.212 13.575 1.294 1.882-.268 4.447-2.516 4.04z"/><path d="m341.921 408.489c-22.217-.341-44.358.7-65.599 2.988-4.853.523-9.739.529-14.592.006-68.097-7.339-152.226-2.278-215.16 25.106-5.83 2.53-9.57 8.31-9.57 14.66v7.078c0 3.435-1.819 6.728-5.07 8.572-10.681 6.062-23.93-1.599-23.93-13.879v-13.77c0-6.35 3.74-12.13 9.57-14.66 64.772-28.184 152.302-32.853 222.43-24.27 36.919-4.518 71.696-4.653 102.439-2.367 6.814.506 6.314 10.641-.518 10.536z"/><path d="m113.82 113.57c3.669 6.362 2.332 14.306-3 19.14l-.56.51c1.32 6.43 1.32 13.13 0 19.56l.56.51c5.38 4.88 6.63 12.85 3 19.14-3.7 6.403-11.331 9.167-18.08 6.99l-.74-.24c-4.86 4.33-10.6 7.69-16.92 9.78l-.16.75c-1.54 7.09-7.82 12.16-15.09 12.16-7.253 0-13.54-5.06-15.08-12.16l-.16-.75c-6.32-2.09-12.06-5.45-16.92-9.78l-.74.24c-6.92 2.21-14.44-.7-18.08-6.99-3.411-5.914-2.894-13.875 3.56-19.65-1.32-6.43-1.32-13.13 0-19.56-6.487-5.802-6.935-13.802-3.56-19.65 3.7-6.403 11.331-9.167 18.08-6.99l.74.24c4.86-4.33 10.6-7.69 16.92-9.78l.16-.75c1.54-7.09 7.82-12.16 15.08-12.16 7.199 0 13.538 5.003 15.09 12.16l.16.75c6.32 2.09 12.06 5.45 16.92 9.78l.74-.24c6.92-2.21 14.44.7 18.08 6.99z"/></g><path d="m69.2 99.294c-1.15 1.402-1.921 2.861-2.436 4.11-.888 2.157-2.645 3.839-4.79 4.756-3.583 1.533-6.942 3.487-10.016 5.8-1.858 1.398-4.183 2.066-6.49 1.773-13.933-1.77-22.497 13.805-14.329 24.559 1.411 1.858 2.11 4.16 1.828 6.476-.474 3.885-.478 7.828-.013 11.714.285 2.381-.409 4.752-1.848 6.67-.962 1.283-1.979 2.997-2.6 5.082-2.254 7.567-12.54 9.319-16.657 2.194-3.63-6.29-2.38-14.26 3-19.14l.56-.51c-1.32-6.43-1.32-13.13 0-19.56-.145-.199-5.63-4.315-5.63-11.95 0-9.79 9.382-18.179 20.89-14.45 4.86-4.33 10.6-7.69 16.92-9.78.139-.353.63-5.535 5.56-9.49 2.68-2.158 5.81-3.254 8.935-3.401 7.946-.37 12.159 8.996 7.116 15.147z" fill="#e8f3ff"/><path d="m337.53 69.92c3.76 6.52 2.47 14.78-3.1 19.84l-8.23 7.47c2.4 11.68 2.4 23.86 0 35.54l8.23 7.47c5.57 5.06 6.86 13.32 3.1 19.84l-9.73 16.84c-3.76 6.52-11.56 9.53-18.73 7.24l-10.6-3.4c-8.84 7.87-19.27 13.97-30.76 17.78l-2.35 10.85c-1.6 7.36-8.11 12.61-15.64 12.61h-19.44c-7.53 0-14.04-5.25-15.64-12.61l-2.35-10.85c-11.49-3.8-21.92-9.91-30.76-17.78l-10.6 3.4c-7.17 2.29-14.97-.72-18.73-7.24l-9.72-16.84c-3.77-6.52-2.48-14.78 3.09-19.84l8.23-7.47c-2.4-11.68-2.4-23.86 0-35.54l-8.23-7.47c-5.57-5.06-6.86-13.32-3.09-19.84l9.72-16.84c3.76-6.52 11.56-9.53 18.73-7.24l10.6 3.4c8.84-7.87 19.27-13.98 30.76-17.78l2.35-10.85c1.6-7.36 8.11-12.61 15.64-12.61h19.44c7.53 0 14.04 5.25 15.64 12.61l2.35 10.85c11.49 3.81 21.92 9.91 30.76 17.78l10.6-3.4c7.17-2.29 14.97.72 18.73 7.24zm-49.53 45.08c0-26.51-21.49-48-48-48s-48 21.49-48 48 21.49 48 48 48 48-21.49 48-48z" fill="#d1e7ff"/><path d="m305 122.998c.001 26.811-22.08 48.508-48.937 47.993-5.871-.112-7.026-8.452-1.437-10.253 26.985-8.697 40.125-38.217 29.941-63.603-2.209-5.507 5.005-9.89 8.869-5.388 7.208 8.397 11.564 19.315 11.564 31.251z" fill="#e8f3ff"/><path d="m249.918 8.001c6.649.081 8.555 9.106 2.617 12.099-3.482 1.755-6.676 4.902-7.894 10.51l-1.598 7.38c-.459 2.12-1.968 3.854-4 4.616-9.125 3.424-17.524 8.325-24.917 14.412-1.667 1.373-3.919 1.798-5.976 1.138l-7.22-2.316c-7.17-2.29-14.97.72-18.73 7.24l-9.72 16.84c-3.77 6.52-2.48 14.78 3.09 19.84l5.607 5.089c1.596 1.448 2.354 3.604 2.003 5.73-1.573 9.526-1.573 19.316 0 28.842.351 2.126-.408 4.282-2.003 5.73l-5.607 5.089c-5.57 5.06-6.86 13.32-3.09 19.84l2.328 4.031c2.207 3.82.324 8.705-3.878 10.049-7.169 2.294-14.97-.72-18.73-7.24l-9.72-16.84c-3.77-6.52-2.48-14.78 3.09-19.84l8.23-7.47c-2.4-11.68-2.4-23.86 0-35.54l-8.23-7.47c-5.57-5.06-6.86-13.32-3.09-19.84l9.72-16.84c3.76-6.52 11.56-9.53 18.73-7.24l10.6 3.4c8.84-7.87 19.27-13.98 30.76-17.78l2.35-10.85c1.6-7.36 8.11-12.61 15.64-12.61 0 0 19.572 0 19.638.001z" fill="#e8f3ff"/><path d="m468.15 113.57c3.414 5.916 2.875 13.893-3.56 19.65 1.32 6.43 1.32 13.13 0 19.56 6.365 5.695 7.028 13.637 3.56 19.65-3.64 6.29-11.16 9.2-18.08 6.99l-.74-.24c-4.86 4.33-10.6 7.69-16.92 9.78l-.16.75c-1.537 7.088-7.815 12.16-15.08 12.16-7.27 0-13.55-5.07-15.09-12.16l-.16-.75c-6.32-2.09-12.06-5.45-16.92-9.78l-.74.24c-6.746 2.176-14.379-.585-18.08-6.99-3.63-6.29-2.38-14.26 3-19.14l.56-.51c-1.32-6.43-1.32-13.13 0-19.56l-.56-.51c-5.324-4.827-6.675-12.768-3-19.14 3.64-6.29 11.16-9.2 18.08-6.99l.74.24c4.86-4.33 10.6-7.69 16.92-9.78l.16-.75c1.55-7.147 7.883-12.16 15.09-12.16 7.26 0 13.54 5.07 15.08 12.16l.16.75c6.32 2.09 12.06 5.45 16.92 9.78l.74-.24c6.746-2.176 14.379.585 18.08 6.99z" fill="#d1e7ff"/><path d="m423.53 99.294c-1.15 1.402-1.921 2.861-2.436 4.11-.888 2.157-2.645 3.839-4.79 4.756-3.583 1.533-6.942 3.487-10.016 5.8-1.858 1.398-4.183 2.066-6.49 1.773-13.933-1.77-22.497 13.805-14.329 24.559 1.411 1.858 2.11 4.16 1.828 6.476-.474 3.885-.478 7.828-.013 11.714.285 2.381-.409 4.752-1.848 6.67-.962 1.283-1.979 2.997-2.6 5.082-2.254 7.567-12.54 9.319-16.657 2.194-3.63-6.29-2.38-14.26 3-19.14l.56-.51c-1.32-6.43-1.32-13.13 0-19.56-.145-.199-5.63-4.315-5.63-11.95 0-9.79 9.382-18.178 20.89-14.45 4.86-4.33 10.6-7.69 16.92-9.78.139-.353.63-5.534 5.56-9.49 2.68-2.158 5.81-3.254 8.935-3.401 7.946-.37 12.159 8.996 7.116 15.147z" fill="#e8f3ff"/><g fill="#2e58ff"><path d="m135.547 164.081 9.722 16.838c5.605 9.709 17.422 14.272 28.103 10.856l6.375-2.041c7.772 6.284 16.374 11.258 25.665 14.84l1.414 6.516c2.378 10.957 12.242 18.91 23.454 18.91h19.442c11.212 0 21.076-7.953 23.454-18.909l1.414-6.517c9.291-3.583 17.893-8.557 25.664-14.84l6.375 2.041c10.677 3.417 22.497-1.146 28.104-10.856l9.72-16.837c5.606-9.71 3.651-22.229-4.648-29.767l-8.221-7.467c-3.269-2.969-8.328-2.729-11.301.543-2.971 3.271-2.728 8.33.543 11.301l8.222 7.467c2.767 2.513 3.418 6.686 1.549 9.922l-9.72 16.837c-1.869 3.236-5.807 4.759-9.369 3.619l-10.602-3.395c-2.694-.861-5.644-.238-7.758 1.643-8.194 7.292-17.6 12.73-27.954 16.164-2.685.891-4.699 3.133-5.3 5.896l-2.355 10.852c-.792 3.652-4.08 6.303-7.817 6.303h-19.442c-3.737 0-7.025-2.65-7.817-6.304l-2.355-10.851c-.601-2.764-2.615-5.006-5.301-5.896-10.354-3.433-19.759-8.871-27.954-16.164-2.114-1.881-5.063-2.504-7.758-1.643l-10.602 3.395c-3.562 1.138-7.5-.383-9.367-3.618l-9.722-16.838c-1.868-3.236-1.217-7.409 1.55-9.922l8.222-7.466c2.091-1.899 3.025-4.761 2.458-7.529-2.169-10.574-2.169-21.754 0-32.328.567-2.769-.367-5.63-2.458-7.529l-8.222-7.467c-2.767-2.512-3.418-6.685-1.549-9.921l9.72-16.837c1.868-3.236 5.812-4.756 9.368-3.619l10.602 3.395c2.694.861 5.644.238 7.758-1.643 8.195-7.293 17.601-12.731 27.954-16.164 2.686-.891 4.7-3.133 5.301-5.896l2.355-10.852c.792-3.652 4.08-6.303 7.817-6.303h19.442c3.737 0 7.025 2.65 7.817 6.304l2.355 10.851c.601 2.764 2.615 5.006 5.3 5.896 10.354 3.434 19.76 8.872 27.954 16.164 2.114 1.881 5.063 2.504 7.758 1.643l10.602-3.395c3.563-1.143 7.501.383 9.368 3.618l9.722 16.838c1.868 3.236 1.217 7.409-1.551 9.922l-8.221 7.467c-3.271 2.971-3.514 8.03-.543 11.301 2.972 3.271 8.031 3.514 11.301.543l8.221-7.467c8.3-7.538 10.255-20.057 4.649-29.766l-9.722-16.838c-5.605-9.709-17.425-14.275-28.104-10.856l-6.375 2.041c-7.771-6.283-16.373-11.257-25.664-14.84l-1.414-6.516c-2.377-10.957-12.241-18.91-23.453-18.91h-19.442c-11.212 0-21.076 7.953-23.454 18.909l-1.414 6.517c-9.291 3.582-17.893 8.556-25.665 14.84l-6.375-2.041c-10.679-3.416-22.496 1.147-28.104 10.856l-9.72 16.837c-5.607 9.711-3.652 22.229 4.648 29.767l4.945 4.491c-1.51 9.775-1.51 19.873 0 29.648l-4.944 4.49c-8.301 7.539-10.257 20.057-4.65 29.767z"/><path d="m363.797 138.634c3.271 2.971 8.33 2.727 11.301-.545 2.97-3.271 2.727-8.33-.545-11.301-2.571-2.335-3.177-6.213-1.439-9.222 1.736-3.01 5.399-4.421 8.701-3.366l.739.237c2.694.866 5.648.241 7.764-1.641 4.14-3.685 8.89-6.432 14.119-8.165 2.684-.89 4.697-3.129 5.299-5.891l.164-.751c.736-3.394 3.792-5.857 7.267-5.857 3.474 0 6.529 2.464 7.268 5.867l.162.743c.603 2.761 2.616 4.999 5.299 5.889 5.229 1.733 9.979 4.48 14.119 8.165 2.112 1.879 5.062 2.503 7.754 1.644l.744-.238c3.303-1.054 6.968.355 8.707 3.364 1.736 3.009 1.131 6.887-1.441 9.223l-.564.513c-2.091 1.899-3.025 4.761-2.458 7.528 1.096 5.346 1.096 10.996 0 16.339-.567 2.768.367 5.63 2.458 7.529l.565.514c2.571 2.335 3.177 6.213 1.44 9.222s-5.401 4.423-8.712 3.362l-.739-.236c-2.694-.86-5.641-.236-7.754 1.644-4.14 3.685-8.89 6.432-14.119 8.165-2.683.89-4.696 3.128-5.299 5.889l-.164.752c-.736 3.395-3.792 5.858-7.267 5.858-3.474 0-6.529-2.464-7.268-5.864l-.162-.744c-.602-2.762-2.615-5.001-5.299-5.891-5.229-1.733-9.979-4.48-14.119-8.165-2.115-1.882-5.069-2.506-7.764-1.641l-.732.235c-1.904.609-3.934.436-5.71-.49-3.921-2.041-8.75-.521-10.792 3.397s-.521 8.75 3.397 10.792c4.457 2.322 9.417 3.138 14.292 2.404 3.814 2.911 7.952 5.303 12.368 7.148 3.493 8.772 12.128 14.817 21.789 14.817 9.663 0 18.299-6.048 21.789-14.817 4.42-1.848 8.562-4.242 12.379-7.157 9.346 1.368 18.907-3.089 23.74-11.459s3.911-18.878-1.946-26.29c.595-4.727.595-9.56 0-14.287 5.858-7.412 6.779-17.92 1.946-26.29-4.834-8.373-14.39-12.828-23.741-11.459-3.817-2.916-7.959-5.31-12.379-7.157-3.493-8.771-12.129-14.817-21.789-14.817-9.662 0-18.299 6.047-21.789 14.817-4.42 1.848-8.561 4.241-12.378 7.156-9.345-1.358-18.909 3.09-23.741 11.46-5.476 9.482-3.566 21.706 4.54 29.068z"/><path d="m6.872 150.144c-5.858 7.412-6.779 17.92-1.946 26.29 4.833 8.372 14.392 12.827 23.741 11.459 3.817 2.916 7.959 5.31 12.379 7.157 3.493 8.771 12.129 14.817 21.789 14.817 9.662 0 18.299-6.047 21.789-14.817 4.42-1.848 8.561-4.241 12.378-7.156 9.349 1.361 18.91-3.09 23.741-11.46 5.158-8.932 4.215-21.127-5.109-29.583-3.272-2.967-8.331-2.722-11.3.554-2.968 3.273-2.72 8.332.554 11.3l.56.508c2.571 2.335 3.177 6.213 1.439 9.222-1.736 3.009-5.4 4.422-8.701 3.366l-.739-.237c-2.696-.868-5.648-.241-7.764 1.641-4.14 3.685-8.89 6.432-14.119 8.165-2.684.89-4.697 3.129-5.299 5.891l-.164.751c-.736 3.394-3.792 5.857-7.267 5.857-3.474 0-6.529-2.464-7.268-5.867l-.162-.743c-.603-2.761-2.616-4.999-5.299-5.889-5.229-1.733-9.979-4.48-14.119-8.165-2.112-1.879-5.062-2.504-7.754-1.644l-.744.238c-3.305 1.053-6.969-.355-8.707-3.364-1.736-3.009-1.131-6.887 1.441-9.223l.564-.513c2.091-1.899 3.025-4.762 2.458-7.529-1.096-5.343-1.096-10.993 0-16.339.567-2.768-.367-5.629-2.458-7.528l-.565-.514c-2.571-2.335-3.177-6.213-1.44-9.222s5.402-4.422 8.712-3.362l.739.236c2.691.858 5.641.236 7.754-1.644 4.14-3.685 8.89-6.432 14.119-8.165 2.683-.89 4.696-3.128 5.299-5.889l.164-.752c.736-3.395 3.792-5.858 7.267-5.858 3.474 0 6.529 2.464 7.268 5.864l.162.744c.602 2.762 2.615 5.001 5.299 5.891 5.229 1.733 9.979 4.48 14.119 8.165 2.115 1.882 5.068 2.505 7.764 1.641 1.362-.437 2.614-.825 4.486-.439 4.335.893 8.557-1.901 9.445-6.229s-1.9-8.557-6.229-9.445c-2.684-.55-5.447-.621-8.15-.22-3.816-2.914-7.957-5.308-12.376-7.154-3.493-8.772-12.128-14.817-21.789-14.817-9.663 0-18.299 6.048-21.789 14.817-4.42 1.848-8.562 4.242-12.379 7.157-9.347-1.368-18.908 3.089-23.74 11.459-4.834 8.37-3.912 18.878 1.946 26.29-.595 4.728-.595 9.559 0 14.287z"/><path d="m240 155c-16.942 0-32.108-10.729-37.737-26.697-1.47-4.168-6.038-6.353-10.205-4.885-4.167 1.469-6.354 6.038-4.885 10.205 7.882 22.356 29.111 37.377 52.827 37.377 30.879 0 56-25.121 56-56s-25.121-56-56-56c-19.855 0-38.407 10.668-48.414 27.84-2.225 3.817-.934 8.716 2.884 10.94 3.82 2.226 8.716.932 10.94-2.884 7.152-12.272 20.405-19.896 34.59-19.896 22.056 0 40 17.944 40 40s-17.944 40-40 40z"/><path d="m465.619 417.255c-59.003-25.601-143.275-34.93-225.619-24.989-55.838-6.734-114.221-4.607-164.497 6.008-4.323.912-7.088 5.156-6.175 9.479.912 4.322 5.156 7.087 9.479 6.175 84.454-17.83 158.208-5.173 162.165-5.663 79.945-9.795 161.545-.949 218.276 23.668 2.887 1.252 4.751 4.124 4.751 7.316v13.767c0 6.133-6.615 9.986-11.973 6.934-55.192-31.428-125.357-37.939-186.583-25.797-3.745.743-6.443 4.029-6.443 7.847v6c0 8.822-7.178 16-16 16h-6c-8.822 0-16-7.178-16-16v-6c0-3.818-2.698-7.104-6.444-7.848-61.204-12.135-131.372-5.642-186.582 25.797-5.353 3.047-11.974-.79-11.974-6.933v-13.767c0-3.192 1.864-6.064 4.749-7.316 7.951-3.45 8.598-3.216 10.305-4.841 1.551-1.476 2.419-3.493 2.485-5.517.021-.578.125 1.417-1.821-30.577 45.508-19.988 90.377-28.728 137.019-26.731 4.43.219 8.147-3.233 8.337-7.647s-3.233-8.147-7.647-8.337c-46.596-2.012-93.207 6.657-138.74 25.756-.342-5.613 1.579-10.099 5.179-13.384 55.554-50.704 137.458-53.356 196.135-6.844v17.164c0 4.418 3.582 8 8 8s8-3.582 8-8v-17.164c58.676-46.513 140.582-43.859 196.134 6.844 3.621 3.304 5.518 7.796 5.181 13.377-45.536-19.099-92.158-27.76-138.74-25.749-4.414.189-7.838 3.923-7.647 8.337.189 4.414 3.902 7.858 8.337 7.647 48.33-2.08 94.79 7.393 142.016 28.967 5.074 2.323 10.967-1.161 11.31-6.79l.729-11.991c.591-9.709-3.199-19.046-10.398-25.616-52.627-48.033-129.227-57.475-191.674-24.072 38.191-54.461 106.669-81.985 165.309-54.394 3.998 1.885 8.764.164 10.645-3.832 1.882-3.998.166-8.764-3.832-10.645-72.043-33.903-156.741 5.268-195.371 75.89-38.762-70.864-123.54-109.695-195.367-75.891-3.998 1.881-5.714 6.646-3.832 10.645s6.648 5.717 10.645 3.832c58.743-27.641 127.201.045 165.314 54.401-62.638-33.49-139.195-23.838-191.68 24.064-7.198 6.57-10.988 15.907-10.397 25.616l2.531 41.604c-.95.398-1.903.796-2.833 1.199-8.736 3.793-14.381 12.426-14.381 21.995v13.767c0 18.429 19.883 29.955 35.891 20.838 46.313-26.372 109.079-35.649 169.116-25.204.346 17.346 14.564 31.35 31.993 31.35h6c17.429 0 31.647-14.004 31.993-31.351 60.038-10.446 122.804-1.168 169.117 25.204 16.016 9.122 35.89-2.419 35.89-20.838v-13.767c0-9.568-5.645-18.201-14.381-21.993z"/></g></svg>