<svg id="Capa_1" enable-background="new 0 0 504.5 504.5" height="512" viewBox="0 0 504.5 504.5" width="512" xmlns="http://www.w3.org/2000/svg"><g><path d="m456.01 103v385.47c0 8.85-7.17 16.03-16.02 16.03h-37.2v-417.53h37.2c8.85 0 16.02 7.17 16.02 16.03z" fill="#c8effe"/><path d="m439.988 86.969h-22.566c8.851 0 16.026 7.175 16.026 16.026v385.479c0 8.851-7.175 16.026-16.026 16.026h22.566c8.851 0 16.026-7.175 16.026-16.026v-385.479c0-8.851-7.175-16.026-16.026-16.026z" fill="#99e6fc"/><path d="m402.791 504.5h-301.231c-8.851 0-16.026-7.175-16.026-16.026v-385.479c0-8.851 7.175-16.026 16.026-16.026h301.23c8.851 0 16.026 7.175 16.026 16.026v385.479c.001 8.851-7.174 16.026-16.025 16.026z" fill="#c8effe"/><path d="m402.791 86.969h-22.566c8.851 0 16.026 7.175 16.026 16.026v385.479c0 8.851-7.175 16.026-16.026 16.026h22.566c8.851 0 16.026-7.175 16.026-16.026v-385.479c0-8.851-7.175-16.026-16.026-16.026z" fill="#99e6fc"/><path d="m365.742 465.873h-301.23c-8.851 0-16.026-7.175-16.026-16.026v-385.479c0-8.851 7.175-16.026 16.026-16.026h28.644l65.623 12.194 65.623-12.194h141.34c8.851 0 16.026 7.175 16.026 16.026v385.479c.001 8.851-7.174 16.026-16.026 16.026z" fill="#eaf6ff"/><path d="m365.742 48.342h-24.506c8.851 0 16.026 7.175 16.026 16.026v385.479c0 8.851-7.175 16.026-16.026 16.026h24.506c8.851 0 16.026-7.175 16.026-16.026v-385.479c.001-8.851-7.174-16.026-16.026-16.026z" fill="#99e6fc"/><path d="m209.243 207.476h-100.928c-8.372 0-15.159-6.787-15.159-15.159v-143.975h131.246v143.975c0 8.372-6.787 15.159-15.159 15.159z" fill="#f89580"/><path d="m199.896 48.342v143.975c0 8.372-6.787 15.159-15.159 15.159h24.506c8.372 0 15.159-6.787 15.159-15.159v-143.975z" fill="#f28472"/><path d="m324.998 402.572h-132.523c-5.356 0-9.697-4.342-9.697-9.698v-32.762c0-5.356 4.342-9.697 9.697-9.697h132.523c5.356 0 9.697 4.342 9.697 9.697v32.762c.001 5.356-4.341 9.698-9.697 9.698z" fill="#99e6fc"/><path d="m324.998 350.414h-24.506c5.356 0 9.698 4.342 9.698 9.698v32.762c0 5.356-4.342 9.697-9.698 9.697h24.506c5.356 0 9.698-4.342 9.698-9.697v-32.762c0-5.356-4.342-9.698-9.698-9.698z" fill="#62dbfb"/><path d="m102.854 402.572h29.904c5.356 0 9.697-4.342 9.697-9.698v-32.762c0-5.356-4.342-9.697-9.697-9.697h-29.904c-5.356 0-9.697 4.342-9.697 9.697v32.762c0 5.356 4.341 9.698 9.697 9.698z" fill="#0593fc"/><path d="m132.758 350.414h-24.506c5.356 0 9.698 4.342 9.698 9.698v32.762c0 5.356-4.342 9.697-9.698 9.697h24.506c5.356 0 9.698-4.342 9.698-9.697v-32.762c0-5.356-4.342-9.698-9.698-9.698z" fill="#0181fa"/><g><path d="m327.196 115.777h-55.487c-4.143 0-7.5-3.358-7.5-7.5s3.357-7.5 7.5-7.5h55.487c4.143 0 7.5 3.358 7.5 7.5s-3.358 7.5-7.5 7.5z" fill="#0593fc"/></g><g><g><path d="m327.196 266.686h-226.539c-4.142 0-7.5-3.358-7.5-7.5s3.358-7.5 7.5-7.5h226.539c4.143 0 7.5 3.358 7.5 7.5s-3.358 7.5-7.5 7.5z" fill="#99e6fc"/></g><g><path d="m327.196 303.234h-226.539c-4.142 0-7.5-3.358-7.5-7.5s3.358-7.5 7.5-7.5h226.539c4.143 0 7.5 3.358 7.5 7.5s-3.358 7.5-7.5 7.5z" fill="#99e6fc"/></g></g><g><path d="m159.41 147.627h-1.666c-15.918 0-28.868-12.95-28.868-28.868v-89.891c0-15.918 12.95-28.868 28.868-28.868h1.666c15.917 0 28.868 12.95 28.868 28.868v38.649c0 11.206-9.117 20.323-20.323 20.323-4.142 0-7.5-3.358-7.5-7.5s3.358-7.5 7.5-7.5c2.935 0 5.323-2.388 5.323-5.323v-38.649c0-7.647-6.221-13.868-13.868-13.868h-1.666c-7.647 0-13.868 6.221-13.868 13.868v89.891c0 7.646 6.221 13.868 13.868 13.868h1.666c7.646 0 13.868-6.221 13.868-13.868v-12.1c0-4.142 3.358-7.5 7.5-7.5s7.5 3.358 7.5 7.5v12.1c-.001 15.918-12.951 28.868-28.868 28.868z" fill="#015a9a"/></g></g></svg>