<svg height="512" viewBox="0 0 64 64" width="512" xmlns="http://www.w3.org/2000/svg"><g id="Layer_31" data-name="Layer 31"><path d="m45 53a8 8 0 0 0 16 0v-42h-16z" fill="#9bc9ff"/><g fill="#1e81ce"><path d="m29 12h-20a1 1 0 0 1 0-2h20a1 1 0 0 1 0 2z"/><path d="m39 12h-6a1 1 0 0 1 0-2h6a1 1 0 0 1 0 2z"/><path d="m17 18h-8a1 1 0 0 1 0-2h8a1 1 0 0 1 0 2z"/><path d="m39 18h-18a1 1 0 0 1 0-2h18a1 1 0 0 1 0 2z"/><path d="m39 24h-8a1 1 0 0 1 0-2h8a1 1 0 0 1 0 2z"/><path d="m27 24h-18a1 1 0 0 1 0-2h18a1 1 0 0 1 0 2z"/><path d="m39 36h-8a1 1 0 0 1 0-2h8a1 1 0 0 1 0 2z"/><path d="m27 36h-18a1 1 0 0 1 0-2h18a1 1 0 0 1 0 2z"/><path d="m39 42h-4a1 1 0 0 1 0-2h4a1 1 0 0 1 0 2z"/><path d="m31 42h-22a1 1 0 0 1 0-2h22a1 1 0 0 1 0 2z"/><path d="m39 30h-22a1 1 0 0 1 0-2h22a1 1 0 0 1 0 2z"/><path d="m13 30h-4a1 1 0 0 1 0-2h4a1 1 0 0 1 0 2z"/><path d="m39 55h-8a1 1 0 0 1 0-2h8a1 1 0 0 1 0 2z"/><path d="m27 55h-18a1 1 0 0 1 0-2h18a1 1 0 0 1 0 2z"/><path d="m39 49h-22a1 1 0 0 1 0-2h22a1 1 0 0 1 0 2z"/><path d="m13 49h-4a1 1 0 0 1 0-2h4a1 1 0 0 1 0 2z"/><path d="m53 62h-42a9.011 9.011 0 0 1 -9-9v-50a1 1 0 0 1 1-1h42a1 1 0 0 1 1 1v7h15a1 1 0 0 1 1 1v42a9.011 9.011 0 0 1 -9 9zm-7-50v41a7 7 0 0 0 14 0v-41zm-42-8v49a7.008 7.008 0 0 0 7 7h36.349a8.989 8.989 0 0 1 -3.349-7v-49z"/></g></g></svg>