<svg id="Capa_1" enable-background="new 0 0 512.049 512.049" height="512" viewBox="0 0 512.049 512.049" width="512" xmlns="http://www.w3.org/2000/svg"><g><g><path d="m443.765 504.549h-301.23c-8.851 0-16.026-7.175-16.026-16.026v-385.479c0-8.851 7.175-16.026 16.026-16.026h301.23c8.851 0 16.026 7.175 16.026 16.026v385.479c0 8.851-7.175 16.026-16.026 16.026z" fill="#c8effe"/><path d="m443.765 87.018h-22.566c8.851 0 16.026 7.175 16.026 16.026v385.479c0 8.851-7.175 16.026-16.026 16.026h22.566c8.851 0 16.026-7.175 16.026-16.026v-385.478c0-8.852-7.175-16.027-16.026-16.027z" fill="#99e6fc"/><path d="m406.567 504.549h-301.23c-8.851 0-16.026-7.175-16.026-16.026v-385.479c0-8.851 7.175-16.026 16.026-16.026h301.23c8.851 0 16.026 7.175 16.026 16.026v385.479c.001 8.851-7.175 16.026-16.026 16.026z" fill="#c8effe"/><path d="m406.567 87.018h-22.566c8.851 0 16.026 7.175 16.026 16.026v385.479c0 8.851-7.175 16.026-16.026 16.026h22.566c8.851 0 16.026-7.175 16.026-16.026v-385.478c.001-8.852-7.175-16.027-16.026-16.027z" fill="#99e6fc"/><path d="m369.519 465.922h-301.23c-8.851 0-16.026-7.175-16.026-16.026v-385.479c0-8.851 7.175-16.026 16.026-16.026h301.23c8.851 0 16.026 7.175 16.026 16.026v385.479c0 8.851-7.175 16.026-16.026 16.026z" fill="#eaf6ff"/><path d="m369.519 48.391h-24.506c8.851 0 16.026 7.175 16.026 16.026v385.479c0 8.851-7.175 16.026-16.026 16.026h24.506c8.851 0 16.026-7.175 16.026-16.026v-385.479c0-8.851-7.175-16.026-16.026-16.026z" fill="#c8effe"/><path d="m213.02 207.525h-100.928c-8.372 0-15.159-6.787-15.159-15.159v-143.975h131.246v143.975c0 8.372-6.787 15.159-15.159 15.159z" fill="#f89580"/><path d="m203.673 48.391v143.975c0 8.372-6.787 15.159-15.159 15.159h24.506c8.372 0 15.159-6.787 15.159-15.159v-143.975z" fill="#f28472"/><path d="m328.775 402.621h-132.523c-5.356 0-9.697-4.342-9.697-9.697v-32.762c0-5.356 4.342-9.697 9.697-9.697h132.523c5.356 0 9.698 4.342 9.698 9.697v32.762c0 5.355-4.342 9.697-9.698 9.697z" fill="#99e6fc"/><path d="m328.775 350.463h-24.506c5.356 0 9.698 4.342 9.698 9.698v32.762c0 5.356-4.342 9.697-9.698 9.697h24.506c5.356 0 9.698-4.342 9.698-9.697v-32.762c0-5.356-4.342-9.698-9.698-9.698z" fill="#62dbfb"/><path d="m106.631 402.621h29.904c5.356 0 9.697-4.342 9.697-9.697v-32.762c0-5.356-4.342-9.697-9.697-9.697h-29.904c-5.356 0-9.697 4.342-9.697 9.697v32.762c-.001 5.355 4.341 9.697 9.697 9.697z" fill="#0593fc"/><path d="m136.535 350.463h-24.506c5.356 0 9.698 4.342 9.698 9.698v32.762c0 5.356-4.342 9.697-9.698 9.697h24.506c5.356 0 9.698-4.342 9.698-9.697v-32.762c-.001-5.356-4.342-9.698-9.698-9.698z" fill="#0181fa"/></g><g><path d="m443.767 79.519h-50.722v-15.102c0-12.973-10.554-23.526-23.526-23.526h-106.327c-4.143 0-7.5 3.358-7.5 7.5s3.357 7.5 7.5 7.5h106.327c4.701 0 8.526 3.825 8.526 8.526v385.479c0 4.702-3.825 8.526-8.526 8.526h-301.23c-4.702 0-8.526-3.825-8.526-8.526v-385.479c0-4.702 3.825-8.526 8.526-8.526h21.145v136.475c0 12.494 10.165 22.659 22.659 22.659h100.927c12.494 0 22.659-10.165 22.659-22.659v-143.975c0-4.142-3.358-7.5-7.5-7.5h-36.125v-11.974c0-15.918-12.95-28.868-28.868-28.868-15.905-.964-30.604 12.38-30.534 28.868v11.974h-64.363c-12.973 0-23.526 10.554-23.526 23.526v385.479c0 12.973 10.554 23.526 23.526 23.526h13.518v15.097c0 12.974 10.556 23.53 23.53 23.53h338.43c12.969 0 23.52-10.556 23.52-23.53v-385.47c0-12.974-10.551-23.53-23.52-23.53zm-296.115-50.602c-.054-7.542 7.146-14.617 15.534-13.868 7.646 0 13.868 6.221 13.868 13.868v11.974h-29.402zm-15 26.974v62.917c-.098 16.073 14.021 29.693 30.534 28.868 15.917 0 28.868-12.95 28.868-28.868v-12.1c0-4.142-3.358-7.5-7.5-7.5s-7.5 3.358-7.5 7.5v12.1c0 7.646-6.221 13.868-13.868 13.868-7.335.85-15.549-5.514-15.534-13.868v-62.917h29.402v11.675c0 2.935-2.388 5.323-5.323 5.323-4.142 0-7.5 3.358-7.5 7.5s3.358 7.5 7.5 7.5c11.206 0 20.323-9.117 20.323-20.323v-11.675h28.625v136.475c0 4.223-3.436 7.659-7.659 7.659h-100.928c-4.223 0-7.659-3.436-7.659-7.659v-136.475zm319.635 432.628c0 4.703-3.822 8.53-8.52 8.53h-15.277c1.033-2.647 1.607-5.522 1.607-8.53v-287.958c0-4.142-3.357-7.5-7.5-7.5s-7.5 3.358-7.5 7.5v287.958c0 4.703-3.827 8.53-8.53 8.53h-301.23c-4.704 0-8.53-3.827-8.53-8.53v-15.097h272.712c12.973 0 23.526-10.554 23.526-23.526v-355.377h13.521c4.703 0 8.53 3.827 8.53 8.53v62.207c0 4.142 3.357 7.5 7.5 7.5s7.5-3.358 7.5-7.5v-62.207c0-3.008-.574-5.883-1.607-8.53h15.277c4.697 0 8.52 3.827 8.52 8.53v385.47z"/><path d="m328.775 395.121h-85.171c-4.142 0-7.5 3.358-7.5 7.5s3.358 7.5 7.5 7.5h85.171c9.482 0 17.197-7.715 17.197-17.198v-32.762c0-9.482-7.715-17.197-17.197-17.197h-132.523c-9.483 0-17.198 7.715-17.198 17.197v32.762c0 9.483 7.715 17.198 17.198 17.198h12.089c4.142 0 7.5-3.358 7.5-7.5s-3.358-7.5-7.5-7.5h-12.089c-1.212 0-2.198-.986-2.198-2.198v-32.762c0-1.211.986-2.197 2.198-2.197h132.523c1.212 0 2.197.986 2.197 2.197v32.762c0 1.212-.985 2.198-2.197 2.198z"/><path d="m106.631 342.964c-9.482 0-17.197 7.715-17.197 17.197v32.762c0 9.483 7.715 17.198 17.197 17.198h29.904c9.482 0 17.197-7.715 17.197-17.198v-32.762c0-9.482-7.715-17.197-17.197-17.197zm32.101 17.197v32.762c0 1.212-.986 2.198-2.197 2.198h-29.904c-1.211 0-2.197-.986-2.197-2.198v-32.762c0-1.211.986-2.197 2.197-2.197h29.904c1.211 0 2.197.986 2.197 2.197z"/><path d="m333.428 115.826c4.143 0 7.5-3.358 7.5-7.5s-3.357-7.5-7.5-7.5h-55.487c-4.143 0-7.5 3.358-7.5 7.5s3.357 7.5 7.5 7.5z"/><path d="m89.434 259.235c0 4.142 3.358 7.5 7.5 7.5h236.495c4.143 0 7.5-3.358 7.5-7.5s-3.357-7.5-7.5-7.5h-236.495c-4.143 0-7.5 3.358-7.5 7.5z"/><path d="m340.928 295.784c0-4.142-3.357-7.5-7.5-7.5h-236.494c-4.142 0-7.5 3.358-7.5 7.5s3.358 7.5 7.5 7.5h236.495c4.142 0 7.499-3.358 7.499-7.5z"/></g></g></svg>