<svg height="512" viewBox="0 0 64 64" width="512" xmlns="http://www.w3.org/2000/svg"><g id="Layer_32" data-name="Layer 32"><path d="m55 5v38h-46v-38a2.006 2.006 0 0 1 2-2h42a2.006 2.006 0 0 1 2 2z" fill="#ffeb99"/><path d="m21 43h34v-34a34 34 0 0 1 -34 34z" fill="#ffe477"/><path d="m9 9h-4a2 2 0 0 0 -2 2v32h6z" fill="#ffcd00"/><path d="m61 43v-32a2 2 0 0 0 -2-2h-4v34z" fill="#ffcd00"/><path d="m61 43v4a2.006 2.006 0 0 1 -2 2h-54a2.006 2.006 0 0 1 -2-2v-4z" fill="#006df0"/><path d="m25 49h14v6h-14z" fill="#808285"/><path d="m20 55a4 4 0 0 0 -4 4v2h32v-2a4 4 0 0 0 -4-4z" fill="#6d6e71"/><path d="m25 49h14v2h-14z" fill="#6d6e71"/><g fill="#231f20"><path d="m49 40h-3a1 1 0 0 1 0-2h3a1 1 0 0 1 0 2z"/><path d="m15 10h20a1 1 0 0 0 0-2h-20a1 1 0 0 0 0 2z"/><path d="m39 10h10a1 1 0 0 0 0-2h-10a1 1 0 0 0 0 2z"/><path d="m15 16h8a1 1 0 0 0 0-2h-8a1 1 0 0 0 0 2z"/><path d="m49 14h-22a1 1 0 0 0 0 2h22a1 1 0 0 0 0-2z"/><path d="m49 20h-12a1 1 0 0 0 0 2h12a1 1 0 0 0 0-2z"/><path d="m15 22h18a1 1 0 0 0 0-2h-18a1 1 0 0 0 0 2z"/><path d="m49 32h-12a1 1 0 0 0 0 2h12a1 1 0 0 0 0-2z"/><path d="m15 34h18a1 1 0 0 0 0-2h-18a1 1 0 0 0 0 2z"/><path d="m15 40h27a1 1 0 0 0 0-2h-27a1 1 0 0 0 0 2z"/><path d="m49 26h-26a1 1 0 0 0 0 2h26a1 1 0 0 0 0-2z"/><path d="m15 28h4a1 1 0 0 0 0-2h-4a1 1 0 0 0 0 2z"/><path d="m59 8h-3v-3a3.009 3.009 0 0 0 -3-3h-42a3.009 3.009 0 0 0 -3 3v3h-3a3.009 3.009 0 0 0 -3 3v36a3.009 3.009 0 0 0 3 3h19v4h-4a5 5 0 0 0 -5 5v2a1 1 0 0 0 1 1h32a1 1 0 0 0 1-1v-2a5 5 0 0 0 -5-5h-4v-4h19a3.009 3.009 0 0 0 3-3v-36a3.009 3.009 0 0 0 -3-3zm-49-3a1 1 0 0 1 1-1h42a1 1 0 0 1 1 1v37h-44zm-6 6a1 1 0 0 1 1-1h3v32h-4zm40 45a3.009 3.009 0 0 1 3 3v1h-30v-1a3.009 3.009 0 0 1 3-3zm-18-2v-4h12v4zm34-7a1 1 0 0 1 -1 1h-54a1 1 0 0 1 -1-1v-3h56zm0-5h-4v-32h3a1 1 0 0 1 1 1z"/><path d="m33 45h-2a1 1 0 0 0 0 2h2a1 1 0 0 0 0-2z"/></g></g></svg>