<svg id="Capa_1" enable-background="new 0 0 512 512" height="512" viewBox="0 0 512 512" width="512" xmlns="http://www.w3.org/2000/svg"><g><g><path d="m386.711 15.468h-23.111c0-8.541-6.923-15.468-15.468-15.468h-269.034c-8.542 0-15.468 6.925-15.468 15.468v411.098c0 8.543 6.926 15.468 15.468 15.468 293.264 0 270.407.902 275.458-1.41 3.914-1.792 6.948-5.165 8.288-9.302h23.866c.001-2.969.001-410.057.001-415.854z" fill="#60b7ff"/></g><path d="m380.287 0h-32.155c8.543 0 15.468 6.925 15.468 15.468v411.098c0 8.543-6.925 15.468-15.468 15.468h32.155c8.543 0 15.468-6.925 15.468-15.468v-411.098c0-8.543-6.925-15.468-15.468-15.468z" fill="#26a6fe"/><path d="m395.755 105.962-71.445-71.445h-215.094c-11.808 0-21.381 9.573-21.381 21.381v382.294c0 1.314.136 2.594.363 3.842h292.089c8.543 0 15.468-6.925 15.468-15.468z" fill="#26a6fe"/><path d="m421.093 109.944-36.253-22.636-31.299-52.791h-215.094c-11.808 0-21.381 9.573-21.381 21.381v382.294c0 11.808 9.573 21.381 21.381 21.381h282.231c.14 0 .276-.018.415-.021z" fill="#eaf6ff"/><path d="m442.059 123.035-32.154-20.077v335.235c0 11.808-9.573 21.381-21.381 21.381h32.155c11.808 0 21.381-9.573 21.381-21.381v-315.158z" fill="#d8ecfe"/><path d="m374.922 123.035h67.137l-88.518-88.518v67.137c0 11.808 9.573 21.381 21.381 21.381z" fill="#b3dafe"/><g><g><path d="m390.745 171.487h-222.364c-4.272 0-7.734-3.463-7.734-7.734s3.462-7.734 7.734-7.734h222.364c4.272 0 7.734 3.463 7.734 7.734s-3.462 7.734-7.734 7.734z" fill="#82aee3"/></g><g><path d="m390.745 222.657h-222.364c-4.272 0-7.734-3.463-7.734-7.734s3.462-7.734 7.734-7.734h222.364c4.272 0 7.734 3.463 7.734 7.734s-3.462 7.734-7.734 7.734z" fill="#82aee3"/></g></g><path d="m475.024 256h-16.762c-3.589-6.205-10.297-10.366-17.861-10.366-10.609 0-244.719 0-259.644 0l-27.15-44.921h-16.458c-2.891-3.865-7.458-6.206-12.38-6.206h-90.481c-8.543 0-15.468 6.926-15.468 15.468v281.4c0 11.391 9.234 20.624 20.624 20.624h400.957c3.406 0 6.869-.882 9.932-2.575h.04c2.599-1.439 4.847-3.429 6.605-5.803h18.045v-247.621z" fill="#fdb441"/><g fill="#fea613"><path d="m138.475 202.804 22.411 42.83h32.155l-22.411-42.83c-2.669-5.101-7.949-8.297-13.705-8.297h-32.155c5.756 0 11.036 3.196 13.705 8.297z"/><path d="m472.556 245.634h-32.154c11.391 0 20.624 9.234 20.624 20.624v225.117c0 11.391-9.234 20.624-20.624 20.624h32.154c11.391 0 20.624-9.234 20.624-20.624v-225.116c0-11.391-9.234-20.625-20.624-20.625z"/></g></g></svg>