<svg height="512" viewBox="0 0 60 60" width="512" xmlns="http://www.w3.org/2000/svg">
    <g id="Page-1" fill="none" fill-rule="evenodd">
        <g id="021---Cloud-Online" fill-rule="nonzero">
            <path id="Shape" d="m13 37h-1c-6.07513225 0-11-4.9248678-11-11s4.92486775-11 11-11c.623565-.0030798 1.2461215.0504735 1.86.16 1.427149-3.0326141 4.4212431-5.02097 7.77-5.16 1.9678376-6.08875505 8.0738821-9.84005753 14.3946544-8.84348326s10.976386 6.4446301 10.9753456 12.84348326c.019924.3497165.019924.7002835 0 1.05.34 0 .7-.05 1-.05 6.0751322.0000001 10.9999998 4.9248678 10.9999998 11s-4.9248676 10.9999999-10.9999998 11z" fill="#00bfff"/>
            <path id="Shape" d="m48 15c-.35 0-.71 0-1 .05.019924-.3497165.019924-.7002835 0-1.05 0-3.4478144-1.3696389-6.75441524-3.8076118-9.19238816-2.437973-2.43797292-5.7445738-3.80761184-9.1923882-3.80761184-.49788.00446883-.9952019.0345084-1.49.09 6.5501491.76600988 11.4889823 6.31521239 11.49 12.91.019924.3497165.019924.7002835 0 1.05.34 0 .7-.05 1-.05 5.6723409.0182317 10.4006953 4.3467764 10.9186843 9.9954462s-3.3442621 10.7649821-8.9186843 11.8145538v.19h1c6.0751322 0 11-4.9248678 11-11s-4.9248678-11-11-11z" fill="#00A4DB"/>
            <path id="Shape" d="m40.83 9.15c-.2923118.00001923-.5699973-.12786225-.76-.35-1.5177498-1.77444941-3.7349995-2.79723347-6.07-2.8-.5522847 0-1-.44771525-1-1s.4477153-1 1-1c2.9180174.00022682 5.6903707 1.27499794 7.59 3.49.1724034.201559.2576705.46335301.2370412.72778336-.0206293.26443034-.145465.50983336-.3470412.68221664-.179713.15852397-.4103774.24724105-.65.25z" fill="#f5f5f5"/>
            <circle id="Oval" cx="30" cy="40" fill="#fff" r="19"/>
            <path id="Shape" d="m26 49c-.5295768-.0022328-1.0366497-.2144122-1.41-.59l-6-6c-.6795536-.7935206-.6338645-1.9763883.1048736-2.7151264s1.9216058-.7844272 2.7151264-.1048736l4.59 4.58 12.59-12.58c.7935206-.6795536 1.9763883-.6338645 2.7151264.1048736s.7844272 1.9216058.1048736 2.7151264l-14 14c-.3733503.3755878-.8804232.5877672-1.41.59z" fill="#00bfff"/>
            <g fill="#000">
                <path id="Shape" d="m48 14c-.0137806-6.75848529-4.8538456-12.54228148-11.5040745-13.74717535s-13.2118426 2.51313692-15.5959255 8.83717535c-3.1853678.34613608-6.0079851 2.2080208-7.58 5-.4379481-.0548953-.8786538-.0849434-1.32-.09-6.25732734.0059414-11.45978247 4.8190275-11.95149747 11.0570077-.49171501 6.2379803 3.89238111 11.8067358 10.07149747 12.7929923-.0806118.7138219-.12067617 1.4316411-.12 2.15 0 11.045695 8.954305 20 20 20s20-8.954305 20-20c.0006762-.7183589-.0393882-1.4361781-.12-2.15 6.1791164-.9862565 10.5632125-6.555012 10.0714975-12.7929923-.491715-6.2379802-5.6941702-11.0510663-11.9514975-11.0570077zm-18 44c-9.9411255 0-18-8.0588745-18-18s8.0588745-18 18-18 18 8.0588745 18 18-8.0588745 18-18 18zm19.57-22.13c-1.9502558-9.2526291-10.1140684-15.8750636-19.57-15.8750636s-17.6197442 6.6224345-19.57 15.8750636c-5.1356329-.8360498-8.77199199-5.4706754-8.36214272-10.6577486.40984926-5.1870731 4.72893812-9.1931103 9.93214272-9.2122514 1.9730774-.0063323 3.9027673.5788444 5.54 1.68.3001031.2000687.6841452.2248368 1.0074614.0649743.3233161-.1598626.5367869-.4800688.56-.8400001.023213-.3599312-.1473583-.7049055-.4474614-.9049742-1.0022971-.6732402-2.1016771-1.1892069-3.26-1.53 1.4344209-2.0914501 3.7755523-3.3788869 6.31-3.47h.22c1.7585477-.0393375 3.4774315.5253882 4.87 1.6.4418278.3313708 1.0686291.2418278 1.4-.2.3313708-.4418278.2418278-1.0686291-.2-1.4-1.4368206-1.08209346-3.1410594-1.75272698-4.93-1.94 2.3315558-5.14486251 7.9354541-7.96718928 13.457282-6.77757612s9.466469 6.06906094 9.472718 11.71757612v.17c-1.6662638.2699658-3.2552963.893985-4.66 1.83-.4583963.3092795-.5792795.9316037-.27 1.39s.9316037.5792795 1.39.27c1.6394914-1.0940872 3.5690082-1.6722457 5.54-1.66 5.2032046.0191411 9.5222935 4.0251783 9.9321427 9.2122514.4098493 5.1870732-3.2265098 9.8216988-8.3621427 10.6577486z"/>
                <path id="Shape" d="m37.88 30.88-11.88 11.88-3.88-3.88c-1.1884135-1.1276288-3.0515865-1.1276288-4.24 0-1.1698135 1.1712702-1.1698135 3.0687298 0 4.24l6 6c1.1712702 1.1698135 3.0687298 1.1698135 4.24 0l14-14c1.1698135-1.1712702 1.1698135-3.0687298 0-4.24-1.1884135-1.1276288-3.0515865-1.1276288-4.24 0zm2.83 2.83-14 14c-.1877666.1893127-.4433625.2957983-.71.2957983s-.5222334-.1064856-.71-.2957983l-6-6c-.3921221-.3921222-.3921221-1.0278778 0-1.42.3921222-.3921221 1.0278778-.3921221 1.42 0l4.58 4.59c.1877666.1893127.4433625.2957983.71.2957983s.5222334-.1064856.71-.2957983l12.58-12.59c.1877666-.1893127.4433625-.2957983.71-.2957983s.5222334.1064856.71.2957983c.1893127.1877666.2957983.4433625.2957983.71s-.1064856.5222334-.2957983.71z"/>
            </g>
        </g>
    </g>
</svg>