<?xml version="1.0" encoding="UTF-8" standalone="no"?>
<!DOCTYPE svg PUBLIC "-//W3C//DTD SVG 1.1//EN" "http://www.w3.org/Graphics/SVG/1.1/DTD/svg11.dtd">
<svg width="100%" height="100%" viewBox="0 0 512 512" version="1.1" xmlns="http://www.w3.org/2000/svg" xmlns:xlink="http://www.w3.org/1999/xlink" xml:space="preserve" xmlns:serif="http://www.serif.com/" style="fill-rule:evenodd;clip-rule:evenodd;stroke-linejoin:round;stroke-miterlimit:2;">
    <g id="Page-1" transform="matrix(0.957031,0,0,0.957031,11,1.7069)">
        <g id="_020---Open-Book" serif:id="020---Open-Book">
            <path id="Shape" d="M17.655,92.69L494.345,92.69C504.083,92.719 511.971,100.606 512,110.345L512,419.31C512,433.936 500.143,445.793 485.517,445.793L291.31,445.793C291.31,460.419 279.454,472.276 264.828,472.276L247.172,472.276C232.546,472.276 220.69,460.419 220.69,445.793L26.483,445.793C11.857,445.793 0,433.936 0,419.31L0,110.345C0.029,100.606 7.917,92.719 17.655,92.69Z" style="fill:rgb(171,165,165);fill-rule:nonzero;"/>
            <path id="Shape1" serif:id="Shape" d="M291.31,402.538L291.31,445.793C291.31,460.419 279.454,472.276 264.828,472.276L247.172,472.276C232.546,472.276 220.69,460.419 220.69,445.793L220.69,402.538L291.31,402.538Z" style="fill:rgb(141,141,141);fill-rule:nonzero;"/>
            <path id="Shape2" serif:id="Shape" d="M256,101.517L256,425.225C252.95,425.231 250.113,423.662 248.497,421.076C240.275,408.912 226.543,401.633 211.862,401.655L44.138,401.655C39.263,401.655 35.31,397.703 35.31,392.828L35.31,66.207C35.31,61.332 39.263,57.379 44.138,57.379L211.862,57.379C236.239,57.379 256,77.141 256,101.517Z" style="fill:rgb(237,250,255);fill-rule:nonzero;"/>
            <path id="Shape3" serif:id="Shape" d="M476.69,66.207L476.69,392.828C476.69,397.703 472.737,401.655 467.862,401.655L300.138,401.655C285.457,401.633 271.725,408.912 263.503,421.076C261.887,423.662 259.05,425.231 256,425.225L256,101.517C256,77.141 275.761,57.379 300.138,57.379L467.862,57.379C472.737,57.379 476.69,61.332 476.69,66.207Z" style="fill:rgb(0,191,255);fill-rule:nonzero;"/>
            <path id="Shape4" serif:id="Shape" d="M135.945,168.166L120.055,156.248C116.916,153.894 112.601,153.894 109.462,156.248L93.572,168.166C90.897,170.172 87.319,170.494 84.328,168.999C81.337,167.504 79.448,164.447 79.448,161.103L79.448,57.379C79.448,47.629 87.353,39.724 97.103,39.724L132.414,39.724C142.164,39.724 150.069,47.629 150.069,57.379L150.069,161.103C150.069,164.447 148.18,167.504 145.189,168.999C142.199,170.494 138.62,170.172 135.945,168.166Z" style="fill:rgb(141,141,141);fill-rule:nonzero;"/>
            <g>
                <path id="Shape5" serif:id="Shape" d="M220.69,216.276L70.621,216.276C65.745,216.276 61.793,212.324 61.793,207.448C61.793,202.573 65.745,198.621 70.621,198.621L220.69,198.621C225.565,198.621 229.517,202.573 229.517,207.448C229.517,212.324 225.565,216.276 220.69,216.276Z" style="fill:rgb(217,209,209);fill-rule:nonzero;"/>
                <path id="Shape6" serif:id="Shape" d="M220.69,251.586L70.621,251.586C65.745,251.586 61.793,247.634 61.793,242.759C61.793,237.883 65.745,233.931 70.621,233.931L220.69,233.931C225.565,233.931 229.517,237.883 229.517,242.759C229.517,247.634 225.565,251.586 220.69,251.586Z" style="fill:rgb(217,209,209);fill-rule:nonzero;"/>
                <path id="Shape7" serif:id="Shape" d="M220.69,286.897L70.621,286.897C65.745,286.897 61.793,282.944 61.793,278.069C61.793,273.194 65.745,269.241 70.621,269.241L220.69,269.241C225.565,269.241 229.517,273.194 229.517,278.069C229.517,282.944 225.565,286.897 220.69,286.897Z" style="fill:rgb(217,209,209);fill-rule:nonzero;"/>
                <path id="Shape8" serif:id="Shape" d="M220.69,322.207L70.621,322.207C65.745,322.207 61.793,318.255 61.793,313.379C61.793,308.504 65.745,304.552 70.621,304.552L220.69,304.552C225.565,304.552 229.517,308.504 229.517,313.379C229.517,318.255 225.565,322.207 220.69,322.207Z" style="fill:rgb(217,209,209);fill-rule:nonzero;"/>
                <path id="Shape9" serif:id="Shape" d="M220.69,357.517L70.621,357.517C65.745,357.517 61.793,353.565 61.793,348.69C61.793,343.814 65.745,339.862 70.621,339.862L220.69,339.862C225.565,339.862 229.517,343.814 229.517,348.69C229.517,353.565 225.565,357.517 220.69,357.517Z" style="fill:rgb(217,209,209);fill-rule:nonzero;"/>
                <path id="Shape10" serif:id="Shape" d="M441.379,216.276L291.31,216.276C286.435,216.276 282.483,212.324 282.483,207.448C282.483,202.573 286.435,198.621 291.31,198.621L441.379,198.621C446.255,198.621 450.207,202.573 450.207,207.448C450.207,212.324 446.255,216.276 441.379,216.276Z" style="fill:rgb(217,209,209);fill-rule:nonzero;"/>
                <path id="Shape11" serif:id="Shape" d="M441.379,251.586L291.31,251.586C286.435,251.586 282.483,247.634 282.483,242.759C282.483,237.883 286.435,233.931 291.31,233.931L441.379,233.931C446.255,233.931 450.207,237.883 450.207,242.759C450.207,247.634 446.255,251.586 441.379,251.586Z" style="fill:rgb(217,209,209);fill-rule:nonzero;"/>
                <path id="Shape12" serif:id="Shape" d="M441.379,286.897L291.31,286.897C286.435,286.897 282.483,282.944 282.483,278.069C282.483,273.194 286.435,269.241 291.31,269.241L441.379,269.241C446.255,269.241 450.207,273.194 450.207,278.069C450.207,282.944 446.255,286.897 441.379,286.897Z" style="fill:rgb(217,209,209);fill-rule:nonzero;"/>
                <path id="Shape13" serif:id="Shape" d="M441.379,322.207L291.31,322.207C286.435,322.207 282.483,318.255 282.483,313.379C282.483,308.504 286.435,304.552 291.31,304.552L441.379,304.552C446.255,304.552 450.207,308.504 450.207,313.379C450.207,318.255 446.255,322.207 441.379,322.207Z" style="fill:rgb(217,209,209);fill-rule:nonzero;"/>
                <path id="Shape14" serif:id="Shape" d="M441.379,357.517L291.31,357.517C286.435,357.517 282.483,353.565 282.483,348.69C282.483,343.814 286.435,339.862 291.31,339.862L441.379,339.862C446.255,339.862 450.207,343.814 450.207,348.69C450.207,353.565 446.255,357.517 441.379,357.517Z" style="fill:rgb(217,209,209);fill-rule:nonzero;"/>
                <path id="Shape15" serif:id="Shape" d="M441.379,110.345L291.31,110.345C286.435,110.345 282.483,106.393 282.483,101.517C282.483,96.642 286.435,92.69 291.31,92.69L441.379,92.69C446.255,92.69 450.207,96.642 450.207,101.517C450.207,106.393 446.255,110.345 441.379,110.345Z" style="fill:rgb(217,209,209);fill-rule:nonzero;"/>
                <path id="Shape16" serif:id="Shape" d="M441.379,145.655L291.31,145.655C286.435,145.655 282.483,141.703 282.483,136.828C282.483,131.952 286.435,128 291.31,128L441.379,128C446.255,128 450.207,131.952 450.207,136.828C450.207,141.703 446.255,145.655 441.379,145.655Z" style="fill:rgb(217,209,209);fill-rule:nonzero;"/>
                <path id="Shape17" serif:id="Shape" d="M441.379,180.966L291.31,180.966C286.435,180.966 282.483,177.013 282.483,172.138C282.483,167.263 286.435,163.31 291.31,163.31L441.379,163.31C446.255,163.31 450.207,167.263 450.207,172.138C450.207,177.013 446.255,180.966 441.379,180.966Z" style="fill:rgb(217,209,209);fill-rule:nonzero;"/>
            </g>
        </g>
    </g>
</svg>
