<?xml version="1.0" encoding="UTF-8" standalone="no"?>
<!DOCTYPE svg PUBLIC "-//W3C//DTD SVG 1.1//EN" "http://www.w3.org/Graphics/SVG/1.1/DTD/svg11.dtd">
<svg width="100%" height="100%" viewBox="0 0 512 512" version="1.1" xmlns="http://www.w3.org/2000/svg" xmlns:xlink="http://www.w3.org/1999/xlink" xml:space="preserve" xmlns:serif="http://www.serif.com/" style="fill-rule:evenodd;clip-rule:evenodd;stroke-linejoin:round;stroke-miterlimit:2;">
    <g transform="matrix(1.04168,0,0,1.04168,-11.5488,-2.81756)">
        <g transform="matrix(0.946858,0,0,0.980454,13.1666,6.42731)">
            <path d="M511.983,233.751C510.988,181.756 467.493,140.494 415.495,142.375C407.879,142.648 400.703,138.513 397.049,131.825C374.444,90.449 330.53,62.384 280.06,62.384C228.303,62.384 183.464,91.912 161.413,135.032C154.99,147.592 142.189,145.932 136.724,145.932C96.598,145.932 62.525,171.784 50.212,207.736C48.166,213.709 43.274,218.199 37.318,220.292C14.928,228.162 -0.933,249.897 0.042,275.194C1.205,305.368 26.891,328.824 57.087,328.824L416.904,328.824C469.195,328.825 512.984,286.032 511.983,233.751Z" style="fill:rgb(204,232,243);fill-rule:nonzero;"/>
            <path d="M118.252,275.195C117.277,249.897 133.137,228.162 155.528,220.293C161.484,218.199 166.376,213.709 168.422,207.737C180.735,171.785 214.807,145.933 254.934,145.933C260.399,145.933 273.199,147.593 279.622,135.033C292.627,109.603 313.562,88.908 339.163,76.201C321.351,67.367 301.29,62.385 280.06,62.385C228.303,62.385 183.464,91.913 161.413,135.033C154.99,147.593 142.189,145.933 136.724,145.933C96.598,145.933 62.525,171.785 50.212,207.737C48.166,213.71 43.274,218.2 37.318,220.293C14.928,228.163 -0.933,249.898 0.042,275.195C1.205,305.369 26.891,328.825 57.087,328.825L175.297,328.825C145.101,328.825 119.416,305.368 118.252,275.195Z" style="fill:rgb(0,191,255);fill-rule:nonzero;"/>
        </g>
        <circle cx="267.457" cy="328.841" r="120.775" style="fill:rgb(217,209,209);"/>
        <path d="M198.884,328.841C198.884,271.102 239.405,222.834 293.558,210.903C285.152,209.051 276.42,208.066 267.457,208.066C200.755,208.066 146.682,262.139 146.682,328.841C146.682,395.543 200.755,449.616 267.457,449.616C276.42,449.616 285.152,448.631 293.558,446.779C239.405,434.848 198.884,386.58 198.884,328.841Z" style="fill:rgb(171,165,165);fill-rule:nonzero;"/>
        <g transform="matrix(1.12573,0,0,0.992478,-33.9497,10.2729)">
            <path d="M305.394,317.507C301.126,317.507 297.667,314.047 297.667,309.78L297.667,287.397C297.667,270.739 284.115,257.187 267.457,257.187C250.799,257.187 237.247,270.739 237.247,287.397L237.247,309.78C237.247,314.048 233.787,317.507 229.52,317.507C225.252,317.507 221.793,314.047 221.793,309.78L221.793,287.397C221.793,262.218 242.278,241.733 267.457,241.733C292.636,241.733 313.121,262.218 313.121,287.397L313.121,309.78C313.122,314.048 309.662,317.507 305.394,317.507Z" style="fill:rgb(217,209,209);fill-rule:nonzero;stroke:rgb(141,141,141);stroke-width:9.95px;"/>
        </g>
        <path d="M312.433,309.78L222.482,309.78C215.498,309.78 209.783,315.495 209.783,322.479L209.783,388.784C209.783,395.768 215.498,401.483 222.482,401.483L312.433,401.483C319.417,401.483 325.132,395.768 325.132,388.784L325.132,322.479C325.132,315.495 319.418,309.78 312.433,309.78Z" style="fill:rgb(237,250,255);fill-rule:nonzero;stroke:rgb(141,141,141);stroke-width:10.56px;"/>
        <g transform="matrix(1,0,0,0.888739,3,39.4667)">
            <path d="M243.033,388.785L243.033,322.48C243.033,315.496 248.747,309.781 255.732,309.781L222.482,309.781C215.497,309.781 209.783,315.496 209.783,322.48L209.783,388.785C209.783,395.769 215.497,401.484 222.482,401.484L255.732,401.484C248.747,401.484 243.033,395.769 243.033,388.785Z" style="fill:rgb(237,250,255);fill-rule:nonzero;"/>
        </g>
        <g>
            <g>
                <path d="M259.731,362.324C255.338,359.693 252.395,354.885 252.395,349.395C252.395,341.082 259.144,334.333 267.457,334.333C275.77,334.333 282.519,341.082 282.519,349.395C282.519,354.884 279.576,359.691 275.185,362.323L275.185,377.684C275.185,381.952 271.725,385.412 267.458,385.412C263.19,385.412 259.731,381.952 259.731,377.685L259.731,362.324Z" style="fill:rgb(141,141,141);fill-rule:nonzero;stroke:rgb(141,141,141);stroke-width:6.72px;"/>
            </g>
        </g>
    </g>
</svg>
