<?xml version="1.0" encoding="UTF-8" standalone="no"?>
<!DOCTYPE svg PUBLIC "-//W3C//DTD SVG 1.1//EN" "http://www.w3.org/Graphics/SVG/1.1/DTD/svg11.dtd">
<svg width="100%" height="100%" viewBox="0 0 512 512" version="1.1" xmlns="http://www.w3.org/2000/svg" xmlns:xlink="http://www.w3.org/1999/xlink" xml:space="preserve" xmlns:serif="http://www.serif.com/" style="fill-rule:evenodd;clip-rule:evenodd;stroke-linejoin:round;stroke-miterlimit:2;">
    <g transform="matrix(0.917969,0,0,0.917969,21.1544,21.1165)">
        <path d="M437.02,74.98C388.668,26.629 324.375,0 256,0C187.625,0 123.332,26.629 74.98,74.98C26.629,123.332 -0,187.617 -0,256C-0,324.375 26.629,388.668 74.98,437.02C123.332,485.371 187.625,512 256,512C324.375,512 388.668,485.371 437.02,437.02C485.371,388.668 512,324.375 512,256C512,187.617 485.371,123.332 437.02,74.98ZM256,427.016C161.707,427.016 84.984,350.293 84.984,256C84.984,161.707 161.707,84.984 256,84.984C350.293,84.984 427.016,161.707 427.016,256C427.016,350.293 350.293,427.016 256,427.016Z" style="fill:rgb(237,250,255);fill-rule:nonzero;stroke:rgb(141,141,141);stroke-width:6.54px;"/>
    </g>
    <g transform="matrix(0.917969,0,0,0.917969,21.1544,21.1165)">
        <path d="M512,256L473.305,294.684C471.203,296.785 467.801,296.785 465.699,294.684L427.016,256C427.016,161.707 350.293,84.984 256,84.984L294.684,46.301C296.785,44.203 296.785,40.797 294.684,38.695L256,-0C324.375,-0 388.668,26.629 437.02,74.98C485.371,123.332 512,187.617 512,256Z" style="fill:rgb(0,191,255);fill-rule:nonzero;stroke:rgb(141,141,141);stroke-width:6.54px;"/>
    </g>
    <g transform="matrix(0.917969,0,0,0.917969,21.1544,21.1165)">
        <path d="M259.559,511.844C258.379,511.938 257.199,511.992 256,511.992C187.621,511.992 123.34,485.371 74.984,437.012C26.629,388.668 0.008,324.379 0.008,255.996L38.695,217.309C40.797,215.207 44.203,215.207 46.305,217.309L84.992,255.996C84.992,350.289 161.691,426.996 255.98,427.008L217.492,464.773C215.32,466.902 215.34,470.406 217.547,472.504C228.156,482.602 256.301,509.324 259.559,511.844Z" style="fill:rgb(0,191,255);fill-rule:nonzero;stroke:rgb(141,141,141);stroke-width:6.54px;"/>
    </g>
    <g transform="matrix(0.917969,0,0,0.917969,21.1544,21.1165)">
        <path d="M356.586,178.18L356.586,333.82C356.586,342.738 349.367,349.957 340.449,349.957L171.551,349.957C162.633,349.957 155.414,342.738 155.414,333.82L155.414,178.18C155.414,169.262 162.633,162.043 171.551,162.043L340.449,162.043C349.367,162.043 356.586,169.262 356.586,178.18Z" style="fill:rgb(171,165,165);fill-rule:nonzero;"/>
    </g>
    <g transform="matrix(0.917969,0,0,0.917969,21.1544,21.1165)">
        <path d="M356.586,178.18L356.586,333.82C356.586,342.738 349.367,349.957 340.449,349.957L256,349.957L256,162.043L340.449,162.043C349.367,162.043 356.586,169.262 356.586,178.18Z" style="fill:rgb(141,141,141);fill-rule:nonzero;"/>
    </g>
    <g transform="matrix(0.917969,0,0,0.917969,21.1544,21.1165)">
        <path d="M288.793,162.043L288.793,244.445C288.793,250.395 283.973,255.203 278.035,255.203L233.965,255.203C228.027,255.203 223.207,250.395 223.207,244.445L223.207,162.043L288.793,162.043Z" style="fill:rgb(217,209,209);fill-rule:nonzero;"/>
    </g>
    <g transform="matrix(0.917969,0,0,0.917969,21.1544,21.1165)">
        <path d="M288.793,162.043L288.793,244.445C288.793,250.395 283.973,255.203 278.035,255.203L256,255.203L256,162.043L288.793,162.043Z" style="fill:rgb(171,165,165);fill-rule:nonzero;"/>
    </g>
</svg>
