<?xml version="1.0" encoding="UTF-8" standalone="no"?>
<!DOCTYPE svg PUBLIC "-//W3C//DTD SVG 1.1//EN" "http://www.w3.org/Graphics/SVG/1.1/DTD/svg11.dtd">
<svg width="100%" height="100%" viewBox="0 0 210 210" version="1.1" xmlns="http://www.w3.org/2000/svg" xmlns:xlink="http://www.w3.org/1999/xlink" xml:space="preserve" xmlns:serif="http://www.serif.com/" style="fill-rule:evenodd;clip-rule:evenodd;stroke-linecap:round;stroke-linejoin:round;stroke-miterlimit:1.5;">
    <g transform="matrix(0.999391,0.0348995,-0.0348995,0.999391,2.22326,-3.13073)">
        <g transform="matrix(0.442655,0.431805,-0.435435,0.481148,53.1314,-5.953)">
            <rect x="64.716" y="24.905" width="34.371" height="21.329" style="fill:none;stroke:rgb(111,111,111);stroke-width:0.31px;"/>
            <rect x="64.716" y="24.905" width="34.371" height="21.329" style="fill:rgb(194,199,199);"/>
        </g>
        <g transform="matrix(0.458453,0.444999,0.48612,-0.539841,7.02235,10.016)">
            <path d="M116.223,26.199L132.137,36.567L100.31,36.567L116.223,26.199Z" style="fill:none;stroke:rgb(111,111,111);stroke-width:0.3px;"/>
            <path d="M116.223,26.199L132.137,36.567L100.31,36.567L116.223,26.199Z" style="fill:rgb(185,198,215);"/>
        </g>
    </g>
    <g transform="matrix(1,0,0,1,0.813571,39.4407)">
        <g transform="matrix(1,0,0,1,35.753,-131.639)">
            <path d="M21.987,136.33L26.444,140.787C24.797,141.913 23.715,143.806 23.715,145.95C23.715,149.399 26.515,152.2 29.965,152.2C32.109,152.2 34.002,151.118 35.128,149.471L39.585,153.928C37.292,156.69 33.832,158.45 29.965,158.45C23.066,158.45 17.465,152.849 17.465,145.95C17.465,142.082 19.225,138.623 21.987,136.33Z" style="fill:rgb(168,168,168);"/>
        </g>
        <g transform="matrix(1.26167,0.441644,-0.33039,0.943844,24.4819,-8.55564)">
            <rect x="35.683" y="105.379" width="13.105" height="4.69" style="fill:none;stroke:rgb(111,111,111);stroke-width:0.17px;"/>
            <rect x="35.683" y="105.379" width="13.105" height="4.69" style="fill:rgb(244,244,244);"/>
        </g>
        <rect x="28.782" y="52.886" width="4.884" height="50.83" style="fill:rgb(168,168,168);"/>
        <g transform="matrix(1,0,0,1.02759,0,-1.45937)">
            <rect x="28.782" y="52.886" width="4.884" height="50.83" style="fill:none;stroke:rgb(111,111,111);stroke-width:0.2px;"/>
            <rect x="28.782" y="52.886" width="4.884" height="50.83" style="fill:rgb(244,244,244);"/>
        </g>
        <g transform="matrix(0.702394,0.711788,-0.481965,0.475604,60.5512,-24.7521)">
            <rect x="28.782" y="52.886" width="4.884" height="50.83" style="fill:none;stroke:rgb(111,111,111);stroke-width:0.23px;"/>
            <rect x="28.782" y="52.886" width="4.884" height="50.83" style="fill:rgb(244,244,244);"/>
        </g>
        <g transform="matrix(0.999532,0,0,0.999532,0.633034,-58.2765)">
            <ellipse cx="30.413" cy="107.796" rx="4.534" ry="4.502" style="fill:rgb(168,168,168);"/>
        </g>
        <g transform="matrix(0.999532,0,0,0.999532,1.0121,0.0483125)">
            <ellipse cx="30.413" cy="107.796" rx="4.534" ry="4.502" style="fill:rgb(168,168,168);"/>
        </g>
    </g>
    <g transform="matrix(-1,0,0,1,198.54,39.4088)">
        <g transform="matrix(1,0,0,1,35.753,-131.639)">
            <path d="M21.987,136.33L26.444,140.787C24.797,141.913 23.715,143.806 23.715,145.95C23.715,149.399 26.515,152.2 29.965,152.2C32.109,152.2 34.002,151.118 35.128,149.471L39.585,153.928C37.292,156.69 33.832,158.45 29.965,158.45C23.066,158.45 17.465,152.849 17.465,145.95C17.465,142.082 19.225,138.623 21.987,136.33Z" style="fill:rgb(168,168,168);"/>
        </g>
        <g transform="matrix(1.26167,0.441644,-0.33039,0.943844,24.4819,-8.55564)">
            <rect x="35.683" y="105.379" width="13.105" height="4.69" style="fill:none;stroke:rgb(111,111,111);stroke-width:0.17px;"/>
            <rect x="35.683" y="105.379" width="13.105" height="4.69" style="fill:rgb(244,244,244);"/>
        </g>
        <rect x="28.782" y="52.886" width="4.884" height="50.83" style="fill:rgb(168,168,168);"/>
        <g transform="matrix(1,0,0,1.02759,0,-1.45937)">
            <rect x="28.782" y="52.886" width="4.884" height="50.83" style="fill:none;stroke:rgb(111,111,111);stroke-width:0.2px;"/>
            <rect x="28.782" y="52.886" width="4.884" height="50.83" style="fill:rgb(244,244,244);"/>
        </g>
        <g transform="matrix(0.702394,0.711788,-0.481965,0.475604,60.5512,-24.7521)">
            <rect x="28.782" y="52.886" width="4.884" height="50.83" style="fill:none;stroke:rgb(111,111,111);stroke-width:0.23px;"/>
            <rect x="28.782" y="52.886" width="4.884" height="50.83" style="fill:rgb(244,244,244);"/>
        </g>
        <g transform="matrix(0.999532,0,0,0.999532,0.633034,-58.2765)">
            <ellipse cx="30.413" cy="107.796" rx="4.534" ry="4.502" style="fill:rgb(168,168,168);"/>
        </g>
        <g transform="matrix(0.999532,0,0,0.999532,1.0121,0.0483125)">
            <ellipse cx="30.413" cy="107.796" rx="4.534" ry="4.502" style="fill:rgb(168,168,168);"/>
        </g>
    </g>
    <g transform="matrix(1,0,0,1,0.813571,39.4407)">
        <path d="M48.838,69.844L48.776,128.247C49.409,129.865 50.514,130.965 52.186,131.44L145.241,131.118C147.363,130.37 148.374,129.1 148.729,127.521L148.601,69.867L48.838,69.844Z" style="fill:rgb(244,244,244);stroke:rgb(112,112,112);stroke-width:0.2px;"/>
        <g transform="matrix(1.05255,0,0,-0.0841977,-5.12272,74.8875)">
            <path d="M48.838,69.844C48.838,69.844 48.818,88.562 48.801,104.805C48.786,118.472 49.629,129.898 50.72,130.816C51.15,131.061 51.637,131.284 52.186,131.44L145.241,131.118C145.974,130.86 146.574,130.539 147.06,130.165C147.998,128.965 148.703,118.926 148.677,107.147C148.647,90.554 148.601,69.867 148.601,69.867L48.838,69.844Z" style="fill:rgb(244,244,244);stroke:rgb(112,112,112);stroke-width:0.27px;"/>
        </g>
        <rect x="85.817" y="111.693" width="25.085" height="12.551" style="fill:rgb(194,199,199);"/>
        <g transform="matrix(0.995285,0,0,1.01583,0.393967,0.00414319)">
            <path d="M140.206,69.988L57.578,69.988L57.578,104.334C57.578,104.904 57.809,105.45 58.22,105.853C58.631,106.256 59.189,106.483 59.771,106.483C71.075,106.483 122.758,106.483 136.721,106.483C138.646,106.483 140.206,104.954 140.206,103.068C140.206,93.997 140.206,69.988 140.206,69.988Z" style="fill:rgb(194,199,199);"/>
        </g>
        <g transform="matrix(0.929122,0,0,1,5.76605,5.94944)">
            <rect x="59.103" y="70.904" width="6.047" height="4.88" style="fill:rgb(168,168,168);"/>
        </g>
        <g transform="matrix(0.929122,0,0,1,5.76605,12.1147)">
            <rect x="59.103" y="70.904" width="6.047" height="4.88" style="fill:rgb(168,168,168);"/>
        </g>
        <g transform="matrix(0.929122,0,0,1,5.76605,18.28)">
            <rect x="59.103" y="70.904" width="6.047" height="4.88" style="fill:rgb(168,168,168);"/>
        </g>
        <g transform="matrix(0.929122,0,0,1,5.76605,24.4453)">
            <rect x="59.103" y="70.904" width="6.047" height="4.88" style="fill:rgb(168,168,168);"/>
        </g>
        <g transform="matrix(0.929122,0,0,1,5.76605,30.6105)">
            <rect x="59.103" y="70.904" width="6.047" height="4.88" style="fill:rgb(168,168,168);"/>
        </g>
        <g transform="matrix(0.929122,0,0,1,12.1007,5.98006)">
            <rect x="59.103" y="70.904" width="6.047" height="4.88" style="fill:rgb(168,168,168);"/>
        </g>
        <g transform="matrix(0.929122,0,0,1,12.1007,12.1453)">
            <rect x="59.103" y="70.904" width="6.047" height="4.88" style="fill:rgb(168,168,168);"/>
        </g>
        <g transform="matrix(0.929122,0,0,1,12.1007,18.3106)">
            <rect x="59.103" y="70.904" width="6.047" height="4.88" style="fill:rgb(168,168,168);"/>
        </g>
        <g transform="matrix(0.929122,0,0,1,12.1007,24.4759)">
            <rect x="59.103" y="70.904" width="6.047" height="4.88" style="fill:rgb(168,168,168);"/>
        </g>
        <g transform="matrix(0.929122,0,0,1,12.1007,30.6411)">
            <rect x="59.103" y="70.904" width="6.047" height="4.88" style="fill:rgb(168,168,168);"/>
        </g>
        <g transform="matrix(0.929122,0,0,1,18.4171,5.98006)">
            <rect x="59.103" y="70.904" width="6.047" height="4.88" style="fill:rgb(168,168,168);"/>
        </g>
        <g transform="matrix(0.929122,0,0,1,18.4171,12.1453)">
            <rect x="59.103" y="70.904" width="6.047" height="4.88" style="fill:rgb(168,168,168);"/>
        </g>
        <g transform="matrix(0.929122,0,0,1,18.4171,18.3106)">
            <rect x="59.103" y="70.904" width="6.047" height="4.88" style="fill:rgb(168,168,168);"/>
        </g>
        <g transform="matrix(0.929122,0,0,1,18.4171,24.4759)">
            <rect x="59.103" y="70.904" width="6.047" height="4.88" style="fill:rgb(168,168,168);"/>
        </g>
        <g transform="matrix(0.929122,0,0,1,18.4171,30.6411)">
            <rect x="59.103" y="70.904" width="6.047" height="4.88" style="fill:rgb(168,168,168);"/>
        </g>
        <g transform="matrix(0.929122,0,0,1,24.7141,5.98006)">
            <rect x="59.103" y="70.904" width="6.047" height="4.88" style="fill:rgb(168,168,168);"/>
        </g>
        <g transform="matrix(0.929122,0,0,1,24.7141,12.1453)">
            <rect x="59.103" y="70.904" width="6.047" height="4.88" style="fill:rgb(168,168,168);"/>
        </g>
        <g transform="matrix(0.929122,0,0,1,24.7141,18.3106)">
            <rect x="59.103" y="70.904" width="6.047" height="4.88" style="fill:rgb(168,168,168);"/>
        </g>
        <g transform="matrix(0.929122,0,0,1,24.7141,24.4759)">
            <rect x="59.103" y="70.904" width="6.047" height="4.88" style="fill:rgb(168,168,168);"/>
        </g>
        <g transform="matrix(0.929122,0,0,1,31.2549,5.98006)">
            <rect x="59.103" y="70.904" width="6.047" height="4.88" style="fill:rgb(168,168,168);"/>
        </g>
        <g transform="matrix(0.929122,0,0,1,5.76605,5.94944)">
            <rect x="59.103" y="70.904" width="6.047" height="4.88" style="fill:rgb(168,168,168);"/>
        </g>
        <g transform="matrix(0.929122,0,0,1,5.76605,12.1147)">
            <rect x="59.103" y="70.904" width="6.047" height="4.88" style="fill:rgb(168,168,168);"/>
        </g>
        <g transform="matrix(0.929122,0,0,1,5.76605,18.28)">
            <rect x="59.103" y="70.904" width="6.047" height="4.88" style="fill:rgb(168,168,168);"/>
        </g>
        <g transform="matrix(0.929122,0,0,1,5.76605,24.4453)">
            <rect x="59.103" y="70.904" width="6.047" height="4.88" style="fill:rgb(168,168,168);"/>
        </g>
        <g transform="matrix(0.929122,0,0,1,12.1007,5.98006)">
            <rect x="59.103" y="70.904" width="6.047" height="4.88" style="fill:rgb(168,168,168);"/>
        </g>
        <g transform="matrix(0.929122,0,0,1,12.1007,12.1453)">
            <rect x="59.103" y="70.904" width="6.047" height="4.88" style="fill:rgb(168,168,168);"/>
        </g>
        <g transform="matrix(0.929122,0,0,1,18.4171,5.98006)">
            <rect x="59.103" y="70.904" width="6.047" height="4.88" style="fill:rgb(168,168,168);"/>
        </g>
        <g transform="matrix(0.929122,0,0,1,24.7141,5.98006)">
            <rect x="59.103" y="70.904" width="6.047" height="4.88" style="fill:rgb(168,168,168);"/>
        </g>
        <g transform="matrix(0.929122,0,0,1,31.2549,5.98006)">
            <rect x="59.103" y="70.904" width="6.047" height="4.88" style="fill:rgb(168,168,168);"/>
        </g>
        <g transform="matrix(0.929122,0,0,1,31.2549,12.1453)">
            <rect x="59.103" y="70.904" width="6.047" height="4.88" style="fill:rgb(168,168,168);"/>
        </g>
        <g transform="matrix(0.929122,0,0,1,31.2549,18.3106)">
            <rect x="59.103" y="70.904" width="6.047" height="4.88" style="fill:rgb(168,168,168);"/>
        </g>
        <g transform="matrix(0.929122,0,0,1,31.2549,24.4759)">
            <rect x="59.103" y="70.904" width="6.047" height="4.88" style="fill:rgb(168,168,168);"/>
        </g>
        <g transform="matrix(0.929122,0,0,1,37.8972,5.93401)">
            <rect x="59.103" y="70.904" width="6.047" height="4.88" style="fill:rgb(168,168,168);"/>
        </g>
        <g transform="matrix(0.929122,0,0,1,37.8972,12.0993)">
            <rect x="59.103" y="70.904" width="6.047" height="4.88" style="fill:rgb(168,168,168);"/>
        </g>
        <g transform="matrix(0.929122,0,0,1,37.8972,18.2646)">
            <rect x="59.103" y="70.904" width="6.047" height="4.88" style="fill:rgb(168,168,168);"/>
        </g>
        <g transform="matrix(0.929122,0,0,1,37.8972,24.4298)">
            <rect x="59.103" y="70.904" width="6.047" height="4.88" style="fill:rgb(168,168,168);"/>
        </g>
        <g transform="matrix(0.929122,0,0,1,44.2318,5.96462)">
            <rect x="59.103" y="70.904" width="6.047" height="4.88" style="fill:rgb(168,168,168);"/>
        </g>
        <g transform="matrix(0.929122,0,0,1,44.2318,12.1299)">
            <rect x="59.103" y="70.904" width="6.047" height="4.88" style="fill:rgb(168,168,168);"/>
        </g>
        <g transform="matrix(0.929122,0,0,1,44.2318,18.2952)">
            <rect x="59.103" y="70.904" width="6.047" height="4.88" style="fill:rgb(168,168,168);"/>
        </g>
        <g transform="matrix(0.929122,0,0,1,44.2318,24.4604)">
            <rect x="59.103" y="70.904" width="6.047" height="4.88" style="fill:rgb(168,168,168);"/>
        </g>
        <g transform="matrix(0.929122,0,0,1,50.5482,5.96462)">
            <rect x="59.103" y="70.904" width="6.047" height="4.88" style="fill:rgb(168,168,168);"/>
        </g>
        <g transform="matrix(0.929122,0,0,1,50.5482,12.1299)">
            <rect x="59.103" y="70.904" width="6.047" height="4.88" style="fill:rgb(168,168,168);"/>
        </g>
        <g transform="matrix(0.929122,0,0,1,50.5482,18.2952)">
            <rect x="59.103" y="70.904" width="6.047" height="4.88" style="fill:rgb(168,168,168);"/>
        </g>
        <g transform="matrix(0.929122,0,0,1,50.5482,24.4604)">
            <rect x="59.103" y="70.904" width="6.047" height="4.88" style="fill:rgb(168,168,168);"/>
        </g>
        <g transform="matrix(0.929122,0,0,1,56.8452,5.96462)">
            <rect x="59.103" y="70.904" width="6.047" height="4.88" style="fill:rgb(168,168,168);"/>
        </g>
        <g transform="matrix(0.929122,0,0,1,56.8452,12.1299)">
            <rect x="59.103" y="70.904" width="6.047" height="4.88" style="fill:rgb(168,168,168);"/>
        </g>
        <g transform="matrix(1.83795,0,0,1,3.13036,18.2952)">
            <rect x="59.103" y="70.904" width="6.047" height="4.88" style="fill:rgb(168,168,168);"/>
        </g>
        <g transform="matrix(0.929122,0,0,1,56.8452,24.4604)">
            <rect x="59.103" y="70.904" width="6.047" height="4.88" style="fill:rgb(168,168,168);"/>
        </g>
        <g transform="matrix(0.929122,0,0,1,63.386,5.96462)">
            <rect x="59.103" y="70.904" width="6.047" height="4.88" style="fill:rgb(168,168,168);"/>
        </g>
        <g transform="matrix(0.929122,0,0,1,37.8972,5.93401)">
            <rect x="59.103" y="70.904" width="6.047" height="4.88" style="fill:rgb(168,168,168);"/>
        </g>
        <g transform="matrix(0.929122,0,0,1,37.8972,12.0993)">
            <rect x="59.103" y="70.904" width="6.047" height="4.88" style="fill:rgb(168,168,168);"/>
        </g>
        <g transform="matrix(0.929122,0,0,1,37.8972,18.2646)">
            <rect x="59.103" y="70.904" width="6.047" height="4.88" style="fill:rgb(168,168,168);"/>
        </g>
        <g transform="matrix(0.929122,0,0,1,37.8972,24.4298)">
            <rect x="59.103" y="70.904" width="6.047" height="4.88" style="fill:rgb(168,168,168);"/>
        </g>
        <g transform="matrix(0.929122,0,0,1,44.2318,5.96462)">
            <rect x="59.103" y="70.904" width="6.047" height="4.88" style="fill:rgb(168,168,168);"/>
        </g>
        <g transform="matrix(0.929122,0,0,1,44.2318,12.1299)">
            <rect x="59.103" y="70.904" width="6.047" height="4.88" style="fill:rgb(168,168,168);"/>
        </g>
        <g transform="matrix(0.929122,0,0,1,50.5482,5.96462)">
            <rect x="59.103" y="70.904" width="6.047" height="4.88" style="fill:rgb(168,168,168);"/>
        </g>
        <g transform="matrix(0.929122,0,0,1,56.8452,5.96462)">
            <rect x="59.103" y="70.904" width="6.047" height="4.88" style="fill:rgb(168,168,168);"/>
        </g>
        <g transform="matrix(0.929122,0,0,1,63.386,5.96462)">
            <rect x="59.103" y="70.904" width="6.047" height="4.88" style="fill:rgb(168,168,168);"/>
        </g>
        <g transform="matrix(0.929122,0,0,1.81689,63.386,-45.7912)">
            <rect x="59.103" y="70.904" width="6.047" height="4.88" style="fill:rgb(168,168,168);"/>
        </g>
        <g transform="matrix(0.929122,0,0,1,63.386,18.2952)">
            <rect x="59.103" y="70.904" width="6.047" height="4.88" style="fill:rgb(168,168,168);"/>
        </g>
        <g transform="matrix(0.929122,0,0,1,63.386,24.4604)">
            <rect x="59.103" y="70.904" width="6.047" height="4.88" style="fill:rgb(168,168,168);"/>
        </g>
        <g transform="matrix(0.929122,0,0,1,70.4475,6.11884)">
            <rect x="59.103" y="70.904" width="6.047" height="4.88" style="fill:rgb(168,168,168);"/>
        </g>
        <g transform="matrix(0.929122,0,0,1,70.4475,12.2841)">
            <rect x="59.103" y="70.904" width="6.047" height="4.88" style="fill:rgb(168,168,168);"/>
        </g>
        <g transform="matrix(0.929122,0,0,1,70.4475,18.4494)">
            <rect x="59.103" y="70.904" width="6.047" height="4.88" style="fill:rgb(168,168,168);"/>
        </g>
        <g transform="matrix(0.929122,0,0,1,70.4475,24.6147)">
            <rect x="59.103" y="70.904" width="6.047" height="4.88" style="fill:rgb(168,168,168);"/>
        </g>
        <g transform="matrix(0.929122,0,0,1,76.7821,6.14945)">
            <rect x="59.103" y="70.904" width="6.047" height="4.88" style="fill:rgb(168,168,168);"/>
        </g>
        <g transform="matrix(0.929122,0,0,1,76.7821,12.3147)">
            <rect x="59.103" y="70.904" width="6.047" height="4.88" style="fill:rgb(168,168,168);"/>
        </g>
        <g transform="matrix(0.929122,0,0,1,76.7821,18.48)">
            <rect x="59.103" y="70.904" width="6.047" height="4.88" style="fill:rgb(168,168,168);"/>
        </g>
        <g transform="matrix(0.929122,0,0,1,76.7821,24.6453)">
            <rect x="59.103" y="70.904" width="6.047" height="4.88" style="fill:rgb(168,168,168);"/>
        </g>
        <g transform="matrix(0.929122,0,0,1,70.4475,6.11884)">
            <rect x="59.103" y="70.904" width="6.047" height="4.88" style="fill:rgb(168,168,168);"/>
        </g>
        <g transform="matrix(0.929122,0,0,1,70.4475,12.2841)">
            <rect x="59.103" y="70.904" width="6.047" height="4.88" style="fill:rgb(168,168,168);"/>
        </g>
        <g transform="matrix(0.929122,0,0,1,70.4475,18.4494)">
            <rect x="59.103" y="70.904" width="6.047" height="4.88" style="fill:rgb(168,168,168);"/>
        </g>
        <g transform="matrix(0.929122,0,0,1,70.4475,24.6147)">
            <rect x="59.103" y="70.904" width="6.047" height="4.88" style="fill:rgb(168,168,168);"/>
        </g>
        <g transform="matrix(0.929122,0,0,1,76.8728,30.1938)">
            <rect x="59.103" y="70.904" width="6.047" height="4.88" style="fill:rgb(168,168,168);"/>
        </g>
        <g transform="matrix(0.929122,0,0,1,70.5382,30.1632)">
            <rect x="59.103" y="70.904" width="6.047" height="4.88" style="fill:rgb(168,168,168);"/>
        </g>
        <g transform="matrix(0.929122,0,0,1,76.7821,6.14945)">
            <rect x="59.103" y="70.904" width="6.047" height="4.88" style="fill:rgb(168,168,168);"/>
        </g>
        <g transform="matrix(0.929122,0,0,1,76.7821,12.3147)">
            <rect x="59.103" y="70.904" width="6.047" height="4.88" style="fill:rgb(168,168,168);"/>
        </g>
        <g transform="matrix(0.929122,0,0,1,24.7141,30.6411)">
            <rect x="59.103" y="70.904" width="6.047" height="4.88" style="fill:rgb(168,168,168);"/>
        </g>
        <g transform="matrix(6.30534,0,0,1,-286.551,30.6129)">
            <rect x="59.103" y="70.904" width="6.047" height="4.88" style="fill:rgb(168,168,168);"/>
        </g>
        <g transform="matrix(8.38645,0,0,0.721978,-422.168,21.0857)">
            <rect x="59.103" y="70.904" width="6.047" height="4.88" style="fill:rgb(168,168,168);"/>
        </g>
    </g>
    <g transform="matrix(-0.194133,0.178958,-0.268898,-0.291701,152.972,37.362)">
        <path d="M5.748,22.005C8.66,14.465 12.16,9.235 18.327,6.489C25.369,3.243 31.297,4.01 36.158,5.746C41.851,9.583 47.54,13.462 53.55,14.666C64.927,19.349 87.139,18.36 110.378,16.835C120.659,16.61 129.675,15.727 136.962,13.944C146.398,11.459 152.613,9.19 155.755,7.126C162.2,5.556 168.235,6.453 173.82,10.059C177.657,14.474 178.452,18.769 178.213,23.108C177.833,27.012 176.246,30.293 172.52,32.994C169.991,34.827 166.69,35.888 162.082,35.643C155.161,34.213 148.012,33.521 140.675,33.441L96.404,32.238C82.827,31.479 68.546,31.696 57.255,33.639C50.887,34.858 48.208,37.727 44.026,41.768C40.469,44.828 35.958,46.423 31.049,47.405C16.411,48.447 11.048,44.804 9.828,41.067C17.308,38.736 23.14,37.753 30.516,35.631C32.656,35.1 33.036,34.149 34.202,31.53C35.564,28.47 35.648,24.839 32.872,21.282C32.448,18.631 29.741,17.434 27.135,16.445C25.177,15.083 18.642,16.414 15.159,18.747C9.921,21.817 7.887,22.572 5.748,22.005ZM163.492,12C168.382,12 172.351,15.978 172.351,20.877C172.351,25.776 168.382,29.754 163.492,29.754C158.603,29.754 154.633,25.776 154.633,20.877C154.633,15.978 158.603,12 163.492,12Z" style="fill:none;stroke:rgb(111,111,111);stroke-width:0.59px;"/>
        <path d="M5.748,22.005C8.66,14.465 12.16,9.235 18.327,6.489C25.369,3.243 31.297,4.01 36.158,5.746C41.851,9.583 47.54,13.462 53.55,14.666C64.927,19.349 87.139,18.36 110.378,16.835C120.659,16.61 129.675,15.727 136.962,13.944C146.398,11.459 152.613,9.19 155.755,7.126C162.2,5.556 168.235,6.453 173.82,10.059C177.657,14.474 178.452,18.769 178.213,23.108C177.833,27.012 176.246,30.293 172.52,32.994C169.991,34.827 166.69,35.888 162.082,35.643C155.161,34.213 148.012,33.521 140.675,33.441L96.404,32.238C82.827,31.479 68.546,31.696 57.255,33.639C50.887,34.858 48.208,37.727 44.026,41.768C40.469,44.828 35.958,46.423 31.049,47.405C16.411,48.447 11.048,44.804 9.828,41.067C17.308,38.736 23.14,37.753 30.516,35.631C32.656,35.1 33.036,34.149 34.202,31.53C35.564,28.47 35.648,24.839 32.872,21.282C32.448,18.631 29.741,17.434 27.135,16.445C25.177,15.083 18.642,16.414 15.159,18.747C9.921,21.817 7.887,22.572 5.748,22.005ZM163.492,12C168.382,12 172.351,15.978 172.351,20.877C172.351,25.776 168.382,29.754 163.492,29.754C158.603,29.754 154.633,25.776 154.633,20.877C154.633,15.978 158.603,12 163.492,12Z" style="fill:rgb(194,199,199);"/>
    </g>
</svg>
