<?xml version="1.0" encoding="UTF-8" standalone="no"?>
<!DOCTYPE svg PUBLIC "-//W3C//DTD SVG 1.1//EN" "http://www.w3.org/Graphics/SVG/1.1/DTD/svg11.dtd">
<svg width="100%" height="100%" viewBox="0 0 250 220" version="1.1" xmlns="http://www.w3.org/2000/svg" xmlns:xlink="http://www.w3.org/1999/xlink" xml:space="preserve" xmlns:serif="http://www.serif.com/" style="fill-rule:evenodd;clip-rule:evenodd;stroke-linecap:round;stroke-linejoin:round;stroke-miterlimit:1.5;">
    <g transform="matrix(1.09594,0,0,1.09594,-0.0139654,-13.8126)">
        <path d="M213.349,122.818C219.858,130.383 221.811,138.125 218.392,146.078L84.166,216.936L0.146,216.795L0.615,184.123L109.451,129.274L213.349,122.818Z" style="fill:rgb(238,234,234);"/>
        <path d="M209.546,126.986C212.496,136.988 209.071,144.532 198.394,149.279C171.892,160.899 149.138,160.272 129.199,150.443C122.127,152.634 116.26,155.112 113.99,158.447L79.389,191.512L86.282,177.806C96.352,168.315 96.7,164.459 94.92,161.836C74.784,166.773 53.278,180.279 32.125,191.575C40.255,179.353 72.451,160.798 115.986,139.257L115.685,133.815L209.546,126.986Z" style="fill:rgb(213,201,201);"/>
        <g transform="matrix(1.00538,0,0,0.968469,0.801019,1.91329)">
            <ellipse cx="157.018" cy="83.435" rx="66.961" ry="68.946" style="fill:rgb(217,205,205);"/>
        </g>
        <path d="M92.717,99.635C86.05,51.554 105.734,22.48 154.618,14.468C180.43,16.215 198.015,22.668 210.727,40.036C208.111,66.017 200.341,84.279 187.358,94.73C170.606,108.286 152.218,116.282 130.896,114.302C129.501,107.757 129.458,101.115 131.261,94.342C128.485,91.622 125.339,98.344 122.024,109.358C118.052,107.182 113.64,96.791 108.983,81.821C106.886,87.201 107.456,95.313 110.157,108.689C103.801,107.029 98.159,103.582 92.717,99.635Z" style="fill:rgb(237,228,228);"/>
        <g transform="matrix(1.80969,0,0,1.79983,-66.3544,6.17666)">
            <circle cx="124.221" cy="42.47" r="37.429" style="fill:none;stroke:rgb(188,180,180);stroke-width:0.63px;"/>
        </g>
        <g transform="matrix(0.814847,0,0,0.814847,10.8889,40.2864)">
            <path d="M11.181,197.421C23.922,188.233 31.911,180.709 40.534,169.004C42.482,164.606 44.377,159.655 43.843,155.933L43.394,152.071L49.787,141.3C50.817,137.546 51.721,133.168 52.523,128.272L53.863,116.152L58.695,116.752C60.321,123.051 69.324,132.711 88.883,147.183C81.491,161.882 77.358,176.925 78.648,192.539C91.396,174.089 98.069,158.423 94.636,147.387C92.637,128.713 79.63,112.181 66.102,95.507C70.762,87.142 77.511,79.158 85.829,73.764C95.984,76.459 106.426,76.879 117.266,74.131C127.294,74.928 138.812,71.467 152.312,62.337C136.492,62.781 123.773,64.58 117.51,69.201C105.899,64.769 96.361,62.18 90.919,63.232C103.435,62.222 114.446,59.105 122.391,51.697C109.379,51.063 97.888,52.141 90.362,57.678C87.748,54.895 84.741,52.742 80.986,51.786L80.62,47.151C83.805,49.973 86.418,51.267 88.232,50.434C92.38,45.555 94.764,38.122 95.941,28.942C94.254,18.444 88.649,12.92 79.476,11.926C70.91,11.745 65.28,15.863 63.11,25.048C62.828,31.528 64.113,36.416 67.688,38.975L65.072,42.322C54.641,41.346 48.664,42.426 47.143,45.563C44.961,51.587 44.107,57.496 47.143,63.063C49.165,68.338 50.366,73.102 49.865,76.313C50.258,79.616 47.303,82.497 46.554,85.8C41.25,86.461 44.848,88.478 41.38,90.439C40.91,90.705 37.841,92.365 35.978,105.788C33.544,124.123 34.61,143.953 39.492,151.772C31.775,155.659 22.285,171.224 11.181,197.421Z" style="fill:rgb(131,196,248);"/>
        </g>
        <g transform="matrix(0.977854,1.07177e-16,0,0.965363,-3.42836,6.34722)">
            <path d="M49.395,112.247C54.917,116.178 62.02,118.077 70.705,117.946C71.809,116.448 71.734,114.966 71.064,113.492C62.612,114.347 56.019,112.619 51.284,108.308C49.62,109.823 48.853,111.163 49.395,112.247Z" style="fill:rgb(69,84,97);"/>
        </g>
        <g transform="matrix(0.912459,0,0,0.912459,59.4452,23.1204)">
            <ellipse cx="27.431" cy="45.893" rx="2.872" ry="4.525" style="fill:rgb(69,84,97);"/>
        </g>
        <g transform="matrix(1.13761,-0.771657,0.600394,0.885127,-46.3256,109.757)">
            <ellipse cx="135.749" cy="50.303" rx="23.684" ry="20.182" style="fill:rgb(250,245,245);"/>
        </g>
    </g>
</svg>
