<?xml version="1.0" encoding="UTF-8" standalone="no"?>
<!DOCTYPE svg PUBLIC "-//W3C//DTD SVG 1.1//EN" "http://www.w3.org/Graphics/SVG/1.1/DTD/svg11.dtd">
<svg width="100%" height="100%" viewBox="0 0 2800 1800" version="1.1" xmlns="http://www.w3.org/2000/svg" xmlns:xlink="http://www.w3.org/1999/xlink" xml:space="preserve" xmlns:serif="http://www.serif.com/" style="fill-rule:evenodd;clip-rule:evenodd;stroke-linejoin:round;stroke-miterlimit:2;">
    <g id="Eight">
        <path d="M2119.1,1374.3C2113.9,1374.3 2109.7,1378.5 2109.7,1383.7L2109.7,1389.2C2109.7,1394.4 2113.9,1398.6 2119.1,1398.6C2124.3,1398.6 2128.5,1394.4 2128.5,1389.2L2128.5,1383.7C2128.5,1378.6 2124.3,1374.3 2119.1,1374.3ZM2119.1,1306.8C2113.9,1306.8 2109.7,1311 2109.7,1316.2L2109.7,1353.5C2109.7,1358.7 2113.9,1362.9 2119.1,1362.9C2124.3,1362.9 2128.5,1358.7 2128.5,1353.5L2128.5,1316.2C2128.5,1311 2124.3,1306.8 2119.1,1306.8Z" style="fill:rgb(0,191,255);fill-rule:nonzero;"/>
        <path d="M2420.3,1069.7L2278.9,1069.7L2278.9,1174.4L2420.3,1174.4L2420.3,1069.7ZM2280,1316.8L2280,1421.5L2421.4,1421.5L2421.4,1316.8L2280,1316.8ZM2076.8,1263.4L2164.8,1263.4L2164.8,1208.9L2076.8,1208.9L2076.8,1263.4ZM2077.9,1181.7L2165.9,1181.7L2165.9,1127.2L2077.9,1127.2L2077.9,1181.7Z" style="fill:rgb(0,191,255);fill-rule:nonzero;"/>
        <path d="M2172,1124.6L2067.5,1124.6L2067.5,1186.6L2172,1186.6L2172,1124.6ZM2153.1,1167.8L2086.3,1167.8L2086.3,1143.5L2153.1,1143.5L2153.1,1167.8ZM2172,1206.3L2067.5,1206.3L2067.5,1268.4L2172,1268.4L2172,1206.3ZM2153.1,1249.5L2086.3,1249.5L2086.3,1225.1L2153.1,1225.1L2153.1,1249.5ZM2431.7,1308.6L2268.3,1308.6L2268.3,1390.8L2241.1,1390.8L2241.1,1125.3L2268.3,1125.3L2268.3,1174.8L2251.3,1218L2448.6,1218L2431.7,1174.9L2431.7,1057.2L2268.3,1057.2L2268.3,1106.4L2222.2,1106.4L2222.2,1251L2203.3,1251L2203.3,1089.2L2036.8,1089.2L2036.8,1428.5L2203.3,1428.5L2203.3,1269.8L2222.2,1269.8L2222.2,1409.6L2268.3,1409.6L2268.3,1426.2L2251.3,1469.3L2448.6,1469.3L2431.7,1426.2L2431.7,1308.6ZM2287.2,1076.1L2412.9,1076.1L2412.9,1167.2L2287.2,1167.2L2287.2,1076.1ZM2284.2,1186.1L2415.9,1186.1L2421,1199.2L2279,1199.2L2284.2,1186.1ZM2184.5,1409.7L2055.7,1409.7L2055.7,1108.1L2184.5,1108.1L2184.5,1409.7ZM2287.2,1327.5L2412.9,1327.5L2412.9,1418.6L2287.2,1418.6L2287.2,1327.5ZM2279,1450.5L2284.2,1437.4L2415.8,1437.4L2420.9,1450.5L2279,1450.5Z" style="fill:rgb(172,158,158);fill-rule:nonzero;"/>
    </g>
    <g id="Seven">
        <path d="M1571.6,1320.2L1592,1369.7L1628.9,1386.2L1691.7,1331.2L1617.9,1265.2L1571.6,1320.2ZM1804.9,1184.3L1753.8,1141.1L1689.4,1195.3L1754.6,1269.9L1806.4,1216.5L1804.9,1184.3Z" style="fill:rgb(0,191,255);fill-rule:nonzero;"/>
        <path d="M1682.3,1157.4C1687.5,1157.4 1691.7,1153.2 1691.7,1148C1691.7,1142.8 1687.5,1138.6 1682.3,1138.6C1609.4,1138.6 1550.3,1197.7 1550.3,1270.6C1550.3,1275.8 1554.5,1280 1559.7,1280C1564.9,1280 1569.1,1275.8 1569.1,1270.6C1569.3,1208 1619.8,1157.5 1682.3,1157.4ZM1804.8,1261.1C1799.6,1261.1 1795.4,1265.3 1795.4,1270.5C1795.3,1333 1744.7,1383.5 1682.3,1383.6C1677.1,1383.6 1672.9,1387.8 1672.9,1393C1672.9,1398.2 1677.1,1402.4 1682.3,1402.4C1755.2,1402.4 1814.3,1343.3 1814.3,1270.4C1814.3,1265.3 1810.1,1261.1 1804.8,1261.1Z" style="fill:rgb(0,191,255);fill-rule:nonzero;"/>
        <path d="M1614.9,1253.7L1570.6,1303.2C1563.4,1310.4 1559.5,1320.4 1559.5,1330.4C1559.5,1340.3 1563.3,1350.4 1570.9,1358L1578,1365.1L1540.1,1403.4L1572.6,1435.9C1574.2,1437.5 1575,1439.6 1575,1441.8C1575,1444 1574.2,1446 1572.6,1447.7C1570.9,1449.4 1568.9,1450.1 1566.7,1450.1C1564.5,1450.1 1562.5,1449.3 1560.8,1447.7L1526.5,1413.4C1522.8,1409.7 1516.8,1409.7 1513.2,1413.4C1509.5,1417.1 1509.5,1423.1 1513.2,1426.7L1547.5,1461C1552.8,1466.3 1559.8,1469 1566.7,1469C1573.6,1469 1580.6,1466.3 1585.8,1461C1591.1,1455.7 1593.8,1448.7 1593.8,1441.8C1593.8,1434.9 1591.1,1427.9 1585.8,1422.6L1566.6,1403.3L1591.2,1378.4L1596.9,1384.1C1604.5,1391.7 1614.5,1395.5 1624.5,1395.5C1634.4,1395.5 1644.4,1391.7 1652,1384.1L1708.5,1333.5L1621.3,1246.3L1614.9,1253.7ZM1631.4,1282.9L1607.6,1306.7C1603.9,1310.4 1603.9,1316.3 1607.6,1320C1609.4,1321.8 1611.9,1322.8 1614.3,1322.8C1616.7,1322.8 1619.1,1321.9 1621,1320L1644.8,1296.2L1658.1,1309.5L1634.3,1333.3C1630.6,1337 1630.6,1343 1634.3,1346.6C1636.1,1348.4 1638.6,1349.3 1641,1349.3C1643.4,1349.3 1645.8,1348.4 1647.7,1346.6L1671.5,1322.8L1681.4,1332.7L1639.4,1370.3C1635.1,1374.6 1630,1376.5 1624.8,1376.5C1619.6,1376.5 1614.5,1374.6 1610.6,1370.6L1584.5,1344.5C1580.5,1340.5 1578.6,1335.5 1578.6,1330.3C1578.6,1325.1 1580.5,1320 1584.5,1316.1L1622.5,1273.7L1631.4,1282.9ZM1866.8,1106.4L1829.9,1069.5C1824.6,1064.2 1817.6,1061.5 1810.7,1061.6C1803.8,1061.6 1796.8,1064.3 1791.5,1069.6C1786.2,1074.9 1783.5,1081.9 1783.6,1088.8C1783.6,1095.7 1786.3,1102.7 1791.6,1108L1810.8,1127.2L1786.2,1152.1L1780.5,1146.4C1772.9,1138.8 1762.9,1135 1752.9,1135C1743,1135 1732.9,1138.8 1725.3,1146.4L1668.8,1196.9L1693.3,1221.4L1672.3,1242.4C1668.6,1246.1 1668.6,1252.1 1672.3,1255.7C1674.1,1257.5 1676.5,1258.5 1679,1258.5C1681.4,1258.5 1683.8,1257.6 1685.7,1255.7L1706.7,1234.7L1720,1248L1699,1269C1695.3,1272.7 1695.3,1278.7 1699,1282.3C1700.8,1284.1 1703.3,1285.1 1705.7,1285.1C1708.1,1285.1 1710.5,1284.2 1712.4,1282.3L1733.4,1261.3L1756.1,1284L1762.8,1276.6L1807,1227.1C1814.2,1219.9 1818.1,1209.9 1818.1,1199.9C1818.1,1190 1814.3,1179.9 1806.7,1172.3L1799.6,1165.2L1837.5,1126.9L1805,1094.4C1803.3,1092.7 1802.6,1090.7 1802.6,1088.5C1802.6,1086.3 1803.4,1084.3 1805,1082.6C1806.7,1080.9 1808.7,1080.2 1810.9,1080.2C1813.1,1080.2 1815.1,1081 1816.8,1082.6L1853.7,1119.5C1857.4,1123.2 1863.3,1123.2 1867,1119.5C1870.5,1116.1 1870.5,1110.1 1866.8,1106.4ZM1793.1,1214.3L1755.1,1256.7L1696.1,1197.7L1738.1,1160.1C1742.4,1155.8 1747.5,1153.9 1752.7,1153.8C1757.9,1153.8 1763,1155.7 1766.9,1159.7L1793,1185.8C1796.9,1189.8 1798.9,1194.9 1798.9,1200C1799,1205.2 1797.1,1210.3 1793.1,1214.3ZM1885.9,1125.5L1883.7,1123.3C1880,1119.6 1874.1,1119.6 1870.4,1123.3C1866.7,1127 1866.7,1132.9 1870.4,1136.6L1872.6,1138.8C1874.4,1140.6 1876.8,1141.6 1879.3,1141.6C1881.7,1141.6 1884.1,1140.7 1886,1138.9C1889.6,1135.2 1889.6,1129.2 1885.9,1125.5ZM1510.8,1397.5L1509.3,1396C1505.6,1392.3 1499.6,1392.3 1496,1396C1492.3,1399.7 1492.3,1405.7 1496,1409.3L1497.5,1410.8C1499.3,1412.6 1501.8,1413.6 1504.2,1413.6C1506.6,1413.6 1509,1412.7 1510.9,1410.8C1514.5,1407.2 1514.5,1401.2 1510.8,1397.5Z" style="fill:rgb(172,158,158);fill-rule:nonzero;"/>
    </g>
    <g id="Six">
        <path d="M887.3,1414.2L1009.8,1414.2L1009.8,1322L887.3,1322L887.3,1414.2ZM1036,1171.2L1158.5,1171.2L1158.5,1079L1036,1079L1036,1171.2ZM1178.5,1322.1L1178.5,1414.3L1301,1414.3L1301,1322.1L1178.5,1322.1Z" style="fill:rgb(0,191,255);fill-rule:nonzero;"/>
        <path d="M967.3,1431.1L932.3,1431.1C927.1,1431.1 922.9,1435.3 922.9,1440.5C922.9,1445.7 927.1,1449.9 932.3,1449.9L967.3,1449.9C972.5,1449.9 976.7,1445.7 976.7,1440.5C976.7,1435.3 972.5,1431.1 967.3,1431.1ZM1256.4,1431.1L1221.4,1431.1C1216.2,1431.1 1212,1435.3 1212,1440.5C1212,1445.7 1216.2,1449.9 1221.4,1449.9L1256.4,1449.9C1261.6,1449.9 1265.8,1445.7 1265.8,1440.5C1265.8,1435.3 1261.6,1431.1 1256.4,1431.1ZM1111.8,1186L1076.8,1186C1071.6,1186 1067.4,1190.2 1067.4,1195.4C1067.4,1200.6 1071.6,1204.8 1076.8,1204.8L1111.8,1204.8C1117,1204.8 1121.2,1200.6 1121.2,1195.4C1121.3,1190.2 1117,1186 1111.8,1186Z" style="fill:rgb(0,191,255);fill-rule:nonzero;"/>
        <path d="M1167.6,1263L1167.6,1361.5L1128.5,1361.5C1126.1,1347.4 1115.5,1336 1101.8,1332.4L1101.8,1231.6L1166.7,1231.6L1166.7,1018L1023,1018L1023,1231.6L1082.9,1231.6L1082.9,1332.4C1069.2,1336 1058.7,1347.4 1056.3,1361.5L1022.2,1361.5L1022.2,1263L878.6,1263L878.6,1476.6L1022.3,1476.6L1022.3,1380.3L1058.1,1380.3C1063.2,1394.3 1076.7,1404.4 1092.5,1404.4C1108.3,1404.4 1121.8,1394.4 1126.9,1380.3L1167.7,1380.3L1167.7,1476.7L1311.4,1476.7L1311.4,1263L1167.6,1263ZM1041.9,1036.9L1147.9,1036.9L1147.9,1069.4L1041.9,1069.4L1041.9,1036.9ZM1041.9,1088.3L1147.9,1088.3L1147.9,1159.2L1041.9,1159.2L1041.9,1088.3ZM1041.9,1178L1147.9,1178L1147.9,1212.8L1041.9,1212.8L1041.9,1178ZM1003.4,1457.9L897.4,1457.9L897.4,1423.1L1003.4,1423.1L1003.4,1457.9ZM1003.4,1404.2L897.4,1404.2L897.4,1333.3L1003.4,1333.3L1003.4,1404.2ZM1003.4,1314.5L897.4,1314.5L897.4,1282L1003.4,1282L1003.4,1314.5ZM1110.2,1367.8C1110.2,1377.6 1102.2,1385.6 1092.4,1385.6C1082.6,1385.6 1074.6,1377.6 1074.6,1367.8C1074.6,1358 1082.6,1350 1092.4,1350C1102.2,1350 1110.2,1358 1110.2,1367.8ZM1292.4,1457.9L1186.4,1457.9L1186.4,1423.1L1292.4,1423.1L1292.4,1457.9ZM1292.4,1404.2L1186.4,1404.2L1186.4,1333.3L1292.4,1333.3L1292.4,1404.2ZM1292.4,1314.5L1186.4,1314.5L1186.4,1282L1292.4,1282L1292.4,1314.5Z" style="fill:rgb(172,158,158);fill-rule:nonzero;"/>
    </g>
    <g id="Five">
        <path d="M355,1422.8L342.4,1422.8C337.2,1422.8 333,1427 333,1432.2C333,1437.4 337.2,1441.6 342.4,1441.6L355,1441.6C360.2,1441.6 364.4,1437.4 364.4,1432.2C364.4,1427 360.2,1422.8 355,1422.8ZM695.9,1422.8L683.3,1422.8C678.1,1422.8 673.9,1427 673.9,1432.2C673.9,1437.4 678.1,1441.6 683.3,1441.6L695.9,1441.6C701.1,1441.6 705.3,1437.4 705.3,1432.2C705.3,1427 701.1,1422.8 695.9,1422.8Z" style="fill:rgb(0,191,255);fill-rule:nonzero;"/>
        <path d="M635.2,1189L621.6,1135.6L640.5,1110.5L613.3,1089.6L585,1107.4L538.9,1086.5L538.9,1057.2L502.2,1057.2L499.1,1086.5L455.1,1109.5L428.9,1087.5L403.8,1113.7L423.7,1135.7L402.8,1190.2L372.4,1190.2L373.4,1225.8L404.8,1224.8L423.7,1279.3L403.8,1303.4L427.9,1325.4L452,1305.5L500.2,1328.5L501.2,1356.8L538.9,1356.8L543.1,1324.3L590.2,1306.5L614.3,1326.4L637.3,1296L620.5,1271.9L638.3,1224.8L671.8,1221.7L672.8,1191.3L635.2,1189ZM522.6,1262.4C491.7,1262.4 466.6,1237.3 466.6,1206.4C466.6,1175.5 491.7,1150.4 522.6,1150.4C553.5,1150.4 578.6,1175.5 578.6,1206.4C578.6,1237.3 553.6,1262.4 522.6,1262.4Z" style="fill:rgb(0,191,255);fill-rule:nonzero;"/>
        <path d="M520.7,1142.4C484.3,1142.4 454.7,1171.9 454.7,1208.4C454.7,1244.8 484.2,1274.4 520.7,1274.4C557.1,1274.4 586.7,1244.9 586.7,1208.4C586.7,1172 557.2,1142.4 520.7,1142.4ZM520.7,1255.5C494.7,1255.5 473.6,1234.4 473.6,1208.4C473.7,1182.4 494.7,1161.3 520.7,1161.3C546.7,1161.4 567.8,1182.4 567.8,1208.4C567.8,1234.4 546.8,1255.5 520.7,1255.5ZM680.7,1236.7L680.7,1180.1L646.3,1180.1C643,1165.5 637.3,1151.8 629.5,1139.6L653.8,1115.3L613.8,1075.3L589.5,1099.6C577.2,1091.8 563.6,1086.1 549,1082.8L549,1048.4L492.4,1048.4L492.4,1082.8C477.8,1086.1 464.1,1091.8 451.9,1099.6L427.6,1075.3L387.6,1115.3L411.9,1139.6C404.1,1151.9 398.4,1165.5 395.1,1180.1L360.7,1180.1L360.7,1236.7L395.1,1236.7C398.4,1251.3 404.1,1265 411.9,1277.2L387.6,1301.5L427.6,1341.5L451.9,1317.2C464.2,1325 477.8,1330.7 492.4,1334L492.4,1368.4L511.3,1368.4L511.3,1397.7L495.6,1397.7C479.3,1397.7 465.6,1408.2 460.6,1422.8L387.2,1422.8C382,1422.8 377.8,1427 377.8,1432.2C377.8,1437.4 382,1441.6 387.2,1441.6L459.4,1441.6C462.7,1458.6 477.7,1471.4 495.6,1471.4L545.9,1471.4C563.9,1471.4 578.8,1458.6 582.1,1441.6L651.1,1441.6C656.3,1441.6 660.5,1437.4 660.5,1432.2C660.5,1427 656.3,1422.8 651.1,1422.8L580.8,1422.8C575.9,1408.2 562.1,1397.7 545.8,1397.7L530.1,1397.7L530.1,1368.4L549,1368.4L549,1334C563.6,1330.7 577.3,1325 589.5,1317.2L613.8,1341.5L653.8,1301.5L629.5,1277.2C637.3,1264.9 643,1251.3 646.3,1236.7L680.7,1236.7ZM545.9,1416.5C555.9,1416.5 563.9,1424.6 564,1434.6C564,1444.6 555.9,1452.7 545.9,1452.7L495.6,1452.7C485.6,1452.7 477.5,1444.6 477.5,1434.6C477.5,1424.6 485.6,1416.6 495.6,1416.5L545.9,1416.5ZM629.2,1225.8C626.4,1243.2 619.6,1259.2 609.7,1272.8L605,1279.3L627.2,1301.5L613.9,1314.8L591.7,1292.6L585.2,1297.3C571.5,1307.2 555.6,1314 538.2,1316.8L530.3,1318.1L530.3,1349.5L511.5,1349.5L511.5,1318.1L503.6,1316.8C486.2,1314 470.2,1307.2 456.6,1297.3L450.1,1292.6L427.9,1314.8L414.6,1301.5L436.8,1279.3L432.1,1272.8C422.2,1259.1 415.4,1243.2 412.6,1225.8L411.3,1217.9L379.9,1217.9L379.9,1199L411,1199L412.3,1191.1C415.1,1173.7 421.9,1157.7 431.8,1144.1L436.5,1137.6L414.3,1115.4L427.6,1102.1L449.8,1124.3L456.3,1119.6C470,1109.7 485.9,1102.9 503.3,1100.1L511.2,1098.8L511.2,1067.4L530,1067.4L530,1098.8L537.9,1100.1C555.3,1102.9 571.3,1109.7 584.9,1119.6L591.4,1124.3L613.6,1102.1L626.9,1115.4L604.7,1137.6L609.4,1144.1C619.3,1157.8 626.1,1173.7 628.9,1191.1L630.2,1199L661.6,1199L661.6,1217.8L630.2,1217.8L629.2,1225.8Z" style="fill:rgb(172,158,158);fill-rule:nonzero;"/>
    </g>
    <g id="Four">
        <path d="M2324.9,584.7C2319.7,584.7 2315.5,588.9 2315.5,594.1L2315.5,641.2C2315.5,646.4 2319.7,650.6 2324.9,650.6C2330.1,650.6 2334.3,646.4 2334.3,641.2L2334.3,594.1C2334.3,589 2330.1,584.7 2324.9,584.7ZM2368.9,584.7C2363.7,584.7 2359.5,588.9 2359.5,594.1L2359.5,641.2C2359.5,646.4 2363.7,650.6 2368.9,650.6C2374.1,650.6 2378.3,646.4 2378.3,641.2L2378.3,594.1C2378.3,589 2374.1,584.7 2368.9,584.7Z" style="fill:rgb(0,191,255);fill-rule:nonzero;"/>
        <path d="M2151.2,637.1C2161,637.1 2169,629.1 2169,619.3C2169,609.5 2161,601.5 2151.2,601.5C2141.4,601.5 2133.4,609.5 2133.4,619.3C2133.4,629.2 2141.3,637.1 2151.2,637.1ZM2231.8,630.8C2239.9,630.8 2246.5,624.2 2246.5,616.1C2246.5,608 2239.9,601.4 2231.8,601.4C2223.7,601.4 2217.1,608 2217.1,616.1C2217.2,624.3 2223.7,630.8 2231.8,630.8ZM2386.8,429.8C2372.9,429.8 2361.7,441.1 2361.7,454.9C2361.7,468.8 2373,480 2386.8,480C2400.6,480 2411.9,468.7 2411.9,454.9C2411.9,441 2400.7,429.8 2386.8,429.8ZM2088.9,709.9L2399.9,709.9L2399.9,672.2L2088.9,672.2L2088.9,709.9Z" style="fill:rgb(0,191,255);fill-rule:nonzero;"/>
        <path d="M2387,384.4C2369,384.4 2352.8,392.2 2341.6,404.5C2338.1,408.4 2338.4,414.3 2342.3,417.8C2346.1,421.3 2352.1,421 2355.6,417.1C2363.4,408.5 2374.5,403.2 2387,403.2C2400.5,403.2 2412.5,409.5 2420.4,419.4C2422.3,421.8 2425,423 2427.8,423C2429.8,423 2431.9,422.3 2433.6,421C2437.7,417.8 2438.4,411.9 2435.2,407.8C2423.9,393.6 2406.5,384.4 2387,384.4ZM2465.2,392.6C2447.6,368.6 2419.1,353 2387,353C2358.1,353 2332.1,365.6 2314.4,385.7C2310.9,389.6 2311.3,395.5 2315.2,399C2319.1,402.5 2325,402.1 2328.5,398.2C2342.9,382 2363.7,371.9 2387,371.9C2412.9,371.9 2435.7,384.4 2450,403.8C2451.8,406.3 2454.7,407.6 2457.6,407.6C2459.5,407.6 2461.5,407 2463.2,405.8C2467.4,402.7 2468.3,396.8 2465.2,392.6Z" style="fill:rgb(0,191,255);fill-rule:nonzero;"/>
        <path d="M2396.4,555.9L2396.4,487.6C2412.2,483.4 2423.9,469.1 2423.9,451.9C2423.9,431.5 2407.4,415 2387,415C2366.6,415 2350.1,431.5 2350.1,451.9C2350.1,469 2361.8,483.4 2377.6,487.6L2377.6,554.8L2102.7,554.8C2068,554.8 2039.9,582.9 2039.9,617.6C2039.9,644 2056.2,666.5 2079.2,675.8L2079.2,713.9L2406,713.9L2406,676.9C2430.7,668.4 2448.4,645.1 2448.4,617.5C2448.2,586.8 2425.8,561.1 2396.4,555.9ZM2368.9,452C2368.9,442 2377,434 2387,433.9C2397,433.9 2405,442 2405.1,452C2405.1,462 2397,470.1 2387,470.1C2377,470 2368.9,462 2368.9,452ZM2387,695.2L2097.9,695.2L2097.9,680.3C2099.5,680.4 2101,680.5 2102.6,680.5L2385.4,680.5C2385.9,680.5 2386.4,680.4 2387,680.4L2387,695.2ZM2385.4,661.7L2102.6,661.7C2078.3,661.7 2058.7,642 2058.6,617.7C2058.6,593.4 2078.3,573.7 2102.6,573.7L2385.4,573.7C2409.7,573.7 2429.3,593.4 2429.4,617.7C2429.3,642 2409.7,661.7 2385.4,661.7ZM2233.8,589.4C2217.7,589.4 2204.7,602.4 2204.7,618.5C2204.7,634.5 2217.7,647.6 2233.8,647.6C2249.8,647.6 2262.9,634.6 2262.9,618.5C2262.9,602.4 2249.8,589.4 2233.8,589.4ZM2233.8,628.7C2228.1,628.7 2223.6,624.1 2223.6,618.5C2223.6,612.9 2228.2,608.3 2233.8,608.3C2239.4,608.3 2244,612.9 2244,618.5C2244,624.1 2239.4,628.7 2233.8,628.7ZM2152.1,589.4C2136.1,589.4 2123.1,602.4 2123,618.5C2123,634.5 2136,647.6 2152.1,647.6C2168.2,647.6 2181.2,634.6 2181.2,618.5C2181.2,602.4 2168.2,589.5 2152.1,589.4ZM2152.1,628.7C2146.5,628.7 2141.9,624.1 2141.9,618.5C2141.9,612.9 2146.5,608.3 2152.1,608.3C2157.7,608.3 2162.3,612.9 2162.3,618.5C2162.3,624.1 2157.7,628.7 2152.1,628.7Z" style="fill:rgb(172,158,158);fill-rule:nonzero;"/>
    </g>
    <g id="Three">
        <path d="M1535.7,448.6L1547.2,464.3L1548.2,505.1L1579.6,509.3L1581.7,459L1598.5,451.7L1569.2,416.1L1535.7,448.6ZM1639.4,570.1L1640.4,518.8L1605.8,523L1606.8,572.2C1596.3,578.5 1622.5,612 1622.5,612L1656,581.6L1639.4,570.1Z" style="fill:rgb(0,191,255);fill-rule:nonzero;"/>
        <path d="M1817.6,688.6C1817.6,667.3 1800.4,650.1 1779.1,650.1L1545,650.1C1523.7,650.1 1506.5,667.3 1506.5,688.6C1506.5,709.9 1523.7,727.1 1545,727.1L1779.1,727.1C1800.4,727 1817.6,709.8 1817.6,688.6ZM1798.7,688.6C1798.7,699.4 1789.9,708.2 1779.1,708.2L1545,708.2C1534.1,708.2 1525.4,699.4 1525.4,688.6C1525.4,677.8 1534.2,669 1545,669L1779.1,669C1790,668.9 1798.7,677.7 1798.7,688.6ZM1506.6,603.7C1506.6,625 1523.8,642.2 1545.1,642.2L1779.2,642.2C1800.5,642.2 1817.7,625 1817.7,603.7C1817.7,582.4 1800.5,565.2 1779.2,565.2L1683.6,565.2L1683.6,565.1L1650.5,565.1L1650.5,557.3L1779.2,557.3C1800.5,557.3 1817.7,540.1 1817.7,518.8C1817.7,497.5 1800.5,480.3 1779.2,480.3L1591.7,480.3L1591.7,464.6L1624.8,464.6L1609.9,448.7L1591,428.6L1565.2,401.2L1539.4,428.6L1505.5,464.6L1538.7,464.6L1538.7,481C1520.5,484.1 1506.7,499.8 1506.7,518.9C1506.7,540.2 1523.9,557.4 1545.2,557.4L1597.6,557.4L1597.6,565.2L1564.5,565.2L1564.5,565.3L1545,565.3C1523.8,565.2 1506.6,582.5 1506.6,603.7ZM1639.9,584L1635.9,588.2L1623.8,601L1611.7,588.2L1607.7,584L1616.1,584L1616.1,530.4L1631.4,530.4L1631.4,584L1639.9,584ZM1665.8,584.1L1779.1,584.1C1789.9,584.1 1798.7,592.9 1798.7,603.7C1798.7,614.5 1789.9,623.3 1779.1,623.3L1628.8,623.3L1649.7,601.1L1665.8,584.1ZM1553,441.6L1565,428.8L1577.1,441.6L1581.1,445.8L1572.8,445.8L1572.8,499.4L1557.5,499.4L1557.5,445.8L1549.1,445.8L1553,441.6ZM1545,538.5C1534.2,538.5 1525.4,529.7 1525.4,518.9C1525.4,510.3 1530.9,503.1 1538.6,500.4L1538.6,518.3L1591.6,518.3L1591.6,499.2L1779.1,499.2C1789.9,499.2 1798.7,508 1798.7,518.8C1798.7,529.6 1789.9,538.4 1779.1,538.4L1650.4,538.4L1650.4,511.4L1597.4,511.4L1597.4,538.4L1545,538.4L1545,538.5ZM1582.1,584.1L1598.2,601.2L1619.1,623.4L1545.1,623.4C1534.3,623.4 1525.5,614.6 1525.5,603.8C1525.5,593 1534.3,584.2 1545.1,584.2L1582.1,584.2L1582.1,584.1Z" style="fill:rgb(172,158,158);fill-rule:nonzero;"/>
        <path d="M1702.2,672.1C1697,672.1 1692.8,676.3 1692.8,681.5L1692.8,696.4C1692.8,701.6 1697,705.8 1702.2,705.8C1707.4,705.8 1711.6,701.6 1711.6,696.4L1711.6,681.5C1711.6,676.3 1707.3,672.1 1702.2,672.1ZM1735.1,672.1C1729.9,672.1 1725.7,676.3 1725.7,681.5L1725.7,696.4C1725.7,701.6 1729.9,705.8 1735.1,705.8C1740.3,705.8 1744.5,701.6 1744.5,696.4L1744.5,681.5C1744.5,676.3 1740.3,672.1 1735.1,672.1ZM1768.1,672.1C1762.9,672.1 1758.7,676.3 1758.7,681.5L1758.7,696.4C1758.7,701.6 1762.9,705.8 1768.1,705.8C1773.3,705.8 1777.5,701.6 1777.5,696.4L1777.5,681.5C1777.5,676.3 1773.3,672.1 1768.1,672.1ZM1735.1,587.2C1729.9,587.2 1725.7,591.4 1725.7,596.6L1725.7,611.5C1725.7,616.7 1729.9,620.9 1735.1,620.9C1740.3,620.9 1744.5,616.7 1744.5,611.5L1744.5,596.6C1744.5,591.4 1740.3,587.2 1735.1,587.2ZM1768.1,587.2C1762.9,587.2 1758.7,591.4 1758.7,596.6L1758.7,611.5C1758.7,616.7 1762.9,620.9 1768.1,620.9C1773.3,620.9 1777.5,616.7 1777.5,611.5L1777.5,596.6C1777.5,591.4 1773.3,587.2 1768.1,587.2ZM1702.2,587.2C1697,587.2 1692.8,591.4 1692.8,596.6L1692.8,611.5C1692.8,616.7 1697,620.9 1702.2,620.9C1707.4,620.9 1711.6,616.7 1711.6,611.5L1711.6,596.6C1711.6,591.4 1707.3,587.2 1702.2,587.2ZM1702.2,502.4C1697,502.4 1692.8,506.6 1692.8,511.8L1692.8,526.7C1692.8,531.9 1697,536.1 1702.2,536.1C1707.4,536.1 1711.6,531.9 1711.6,526.7L1711.6,511.8C1711.6,506.6 1707.3,502.4 1702.2,502.4ZM1735.1,502.4C1729.9,502.4 1725.7,506.6 1725.7,511.8L1725.7,526.7C1725.7,531.9 1729.9,536.1 1735.1,536.1C1740.3,536.1 1744.5,531.9 1744.5,526.7L1744.5,511.8C1744.5,506.6 1740.3,502.4 1735.1,502.4ZM1768.1,502.4C1762.9,502.4 1758.7,506.6 1758.7,511.8L1758.7,526.7C1758.7,531.9 1762.9,536.1 1768.1,536.1C1773.3,536.1 1777.5,531.9 1777.5,526.7L1777.5,511.8C1777.5,506.6 1773.3,502.4 1768.1,502.4ZM1565.1,323.3C1559.9,323.3 1555.7,327.5 1555.7,332.7L1555.7,352.2C1555.7,357.4 1559.9,361.6 1565.1,361.6C1570.3,361.6 1574.5,357.4 1574.5,352.2L1574.5,332.7C1574.5,327.5 1570.3,323.3 1565.1,323.3ZM1565.1,365.8C1559.9,365.8 1555.7,370 1555.7,375.2L1555.7,385.1C1555.7,390.3 1559.9,394.5 1565.1,394.5C1570.3,394.5 1574.5,390.3 1574.5,385.1L1574.5,375.2C1574.5,370.1 1570.3,365.8 1565.1,365.8Z" style="fill:rgb(0,191,255);fill-rule:nonzero;"/>
    </g>
    <g id="Two">
        <path d="M905.1,578.5C905.1,578.5 905.1,534.5 920.8,513.6C936.5,492.7 947,485.3 947,485.3L994.1,510.4L987.8,546C987.8,546 1010.8,543.9 1059,549.1C1107.2,554.3 1122.9,548.1 1122.9,548.1L1118.7,516.7L1041.2,523L1000.4,508.3L1023.4,458L1068.4,432.9L1120.8,507.3L1169,479L1211.9,560.7L1209.8,587.9L1151.2,586.9L1142.8,612L1121.9,623.5L1117.7,650.7L1166.9,688.4L1132.3,717.7L1077.8,733.4L1107.1,692.6L1118.6,660.1L1071.5,649.6L1000.3,656.9L1015,704L1039.1,733.3L979.4,720.7L943.8,688.2L995.1,662L992,621.2L1108.2,623.3L1155.3,604.4L1149,561.5L1130.1,550L1020.1,544.8L978.2,553.2L959.3,583.6L942.5,587.8L904.8,589.9" style="fill:rgb(0,191,255);fill-rule:nonzero;"/>
        <path d="M1232.3,468.6C1229.5,464.2 1223.6,463 1219.3,465.8C1214.9,468.6 1213.7,474.5 1216.5,478.8C1218.2,481.5 1219.9,484.2 1221.5,487C1223.2,490.1 1226.4,491.8 1229.7,491.8C1231.3,491.8 1232.8,491.4 1234.3,490.6C1238.8,488.1 1240.5,482.3 1237.9,477.8C1236.1,474.7 1234.2,471.7 1232.3,468.6ZM1218,449.6C1209,439.2 1198.8,429.9 1187.6,421.8C1183.4,418.8 1177.5,419.7 1174.4,424C1171.4,428.2 1172.4,434.1 1176.6,437.1C1186.6,444.2 1195.7,452.6 1203.7,461.8C1205.6,464 1208.2,465.1 1210.8,465.1C1213,465.1 1215.2,464.3 1217,462.8C1221,459.5 1221.4,453.5 1218,449.6ZM1267.3,461.8C1265,457.1 1259.3,455.3 1254.6,457.6C1250,459.9 1248.1,465.6 1250.4,470.3C1252.8,475.1 1255,480.1 1256.9,485.2C1258.3,489 1261.9,491.3 1265.7,491.3C1266.8,491.3 1267.9,491.1 1269,490.7C1273.9,488.9 1276.3,483.4 1274.5,478.6C1272.5,472.8 1270,467.2 1267.3,461.8ZM1253.1,438.4C1238.4,418 1219.4,401 1197.4,388.6C1192.9,386.1 1187.1,387.7 1184.6,392.2C1182,396.7 1183.7,402.5 1188.2,405C1207.8,416 1224.8,431.2 1237.9,449.4C1239.7,452 1242.6,453.3 1245.6,453.3C1247.5,453.3 1249.4,452.7 1251.1,451.5C1255.2,448.5 1256.2,442.6 1253.1,438.4ZM1312.4,480.3C1309.7,471.7 1306.5,463.4 1302.7,455.3C1300.5,450.6 1294.9,448.5 1290.2,450.7C1285.5,452.9 1283.4,458.5 1285.6,463.2C1289,470.6 1291.9,478.2 1294.4,486C1295.7,490 1299.4,492.6 1303.4,492.6C1304.3,492.6 1305.3,492.5 1306.2,492.2C1311.2,490.5 1314,485.2 1312.4,480.3ZM1287.6,427.7C1268,397.6 1240.9,372.7 1208.6,355.6C1204,353.2 1198.3,354.9 1195.9,359.5C1193.5,364.1 1195.2,369.8 1199.8,372.2C1229.2,387.7 1253.9,410.5 1271.8,437.9C1273.6,440.7 1276.6,442.2 1279.7,442.2C1281.5,442.2 1283.3,441.7 1284.8,440.7C1289.2,437.9 1290.4,432.1 1287.6,427.7Z" style="fill:rgb(0,191,255);fill-rule:nonzero;"/>
        <path d="M1056.4,420.5C965.2,420.5 891.3,494.4 891.3,585.6C891.3,676.8 965.2,750.6 1056.4,750.7C1147.6,750.7 1221.5,676.8 1221.5,585.6C1221.5,494.4 1147.6,420.5 1056.4,420.5ZM1154.9,477.6C1145.3,486.4 1134.4,493.9 1122.7,499.8C1118.5,486.8 1113.3,475 1107.2,465C1102,456.5 1096,449.1 1089.3,443.2C1114.2,448.9 1136.6,461 1154.9,477.6ZM997.5,615.6C981.7,615.6 968.9,602.8 968.9,587C968.9,571.2 981.7,558.4 997.5,558.4L1115.9,558.4C1131.7,558.4 1144.5,571.2 1144.5,587C1144.5,602.8 1131.7,615.6 1115.9,615.6L997.5,615.6ZM1112.4,634.4C1111.6,638.8 1110.8,643.2 1109.8,647.4C1093.1,641.7 1075.1,638.6 1056.5,638.6C1037.9,638.6 1019.9,641.7 1003.2,647.4C1002.2,643.2 1001.3,638.9 1000.6,634.4L1112.4,634.4ZM1000,539.5C1000.8,534.7 1001.7,530.1 1002.7,525.6C1019.6,531.4 1037.6,534.6 1056.4,534.6C1075.2,534.6 1093.2,531.4 1110.1,525.6C1111.1,530.1 1112,534.7 1112.8,539.5L1000,539.5ZM1056.4,448.4C1067.6,448.2 1080.1,456.8 1091,474.8C1096.4,483.7 1101.3,494.7 1105.3,507.3C1090,512.7 1073.6,515.7 1056.4,515.7C1039.2,515.7 1022.8,512.7 1007.5,507.3C1011.4,494.8 1016.2,483.9 1021.6,475C1032.7,456.8 1045.2,448.2 1056.4,448.4ZM1023.5,443.2C1016.8,449.1 1010.7,456.6 1005.5,465.3C999.5,475.3 994.4,486.9 990.2,499.9C978.5,493.9 967.6,486.4 958,477.7C976.2,461 998.7,448.9 1023.5,443.2ZM944.9,491.2C956.8,502.1 970.3,511.3 985,518.4C983.2,526.2 981.7,534.3 980.5,542.7C965.2,548.6 953.7,562.2 950.8,578.8L910.4,578.8C912,545.4 924.7,515 944.9,491.2ZM910.8,597.6L951.3,597.6C954.9,613.2 966.2,625.9 981,631.4C982.2,639.4 983.7,647.2 985.5,654.6C971,661.5 957.7,670.5 945.9,681.1C926.2,658.3 913.4,629.4 910.8,597.6ZM959.1,694.6C968.6,686.1 979.2,678.8 990.7,673C994.9,685.6 1000.1,697.1 1006,706.8C1011.1,715.1 1016.9,722.2 1023.4,728C999.1,722.3 977.1,710.7 959.1,694.6ZM1056.4,722.8C1045.3,722.9 1033,714.6 1022.1,696.9C1016.8,688.3 1012,677.7 1008.1,665.6C1023.2,660.3 1039.5,657.4 1056.4,657.4C1073.3,657.4 1089.6,660.3 1104.7,665.6C1100.7,677.8 1095.9,688.5 1090.5,697.1C1079.7,714.7 1067.5,722.9 1056.4,722.8ZM1089.3,728C1095.7,722.3 1101.5,715.2 1106.6,707.1C1112.7,697.3 1117.8,685.8 1122.1,673C1133.6,678.8 1144.2,686.1 1153.7,694.5C1135.7,710.7 1113.7,722.3 1089.3,728ZM1167,681.1C1155.2,670.5 1141.9,661.5 1127.4,654.6C1129.2,647.2 1130.7,639.6 1131.9,631.6C1147,626.2 1158.6,613.4 1162.2,597.6L1202.1,597.6C1199.4,629.4 1186.7,658.3 1167,681.1ZM1162.6,578.7C1159.7,561.9 1147.9,548.1 1132.2,542.4C1131,534.1 1129.5,526 1127.7,518.3C1142.4,511.2 1155.9,502.1 1167.8,491.2C1188,515 1200.7,545.4 1202.3,578.7L1162.6,578.7ZM1114.1,574.5L1110.1,590L1104.9,574.5L1096.4,574.5L1091.4,590L1087.5,574.5L1069.4,574.5L1065.4,590L1060.2,574.5L1051.7,574.5L1046.7,590L1042.8,574.5L1024.7,574.5L1020.7,590L1015.5,574.5L1007,574.5L1002,590L998.1,574.5L989,574.5L998.1,599.1L1006.5,599.1L1011.3,584.3L1016.3,599.1L1024.7,599.1L1033.7,574.5L1042.8,599.1L1051.2,599.1L1056,584.3L1061,599.1L1069.4,599.1L1078.4,574.5L1087.5,599.1L1095.9,599.1L1100.7,584.3L1105.7,599.1L1114.1,599.1L1123.2,574.5L1114.1,574.5Z" style="fill:rgb(172,158,158);fill-rule:nonzero;"/>
    </g>
    <g id="One">
        <path d="M522.6,442.9C539.1,442.9 552.4,429.5 552.4,413.1C552.4,396.6 539,383.3 522.6,383.3C506.1,383.3 492.8,396.7 492.8,413.1C492.8,429.5 506.1,442.9 522.6,442.9ZM557.2,496.3C549.3,468 494.4,485.3 494.4,485.3C486.4,510.5 463.3,632.1 451.4,695.8L593.8,695.8C583.5,635.9 563,517.2 557.2,496.3Z" style="fill:rgb(0,191,255);fill-rule:nonzero;"/>
        <path d="M521.2,450.2C543.8,450.2 562,431.9 562,409.3C562,386.7 543.7,368.5 521.2,368.5C498.6,368.5 480.4,386.8 480.3,409.3C480.4,431.9 498.6,450.1 521.2,450.2ZM521.2,387.3C533.3,387.3 543.2,397.2 543.2,409.3C543.2,421.5 533.3,431.3 521.2,431.3C509.1,431.3 499.2,421.4 499.2,409.3C499.2,397.2 509.1,387.3 521.2,387.3ZM563.1,686.8L549.8,686.8C544.6,686.8 540.4,691 540.4,696.2C540.4,701.4 544.6,705.6 549.8,705.6L563.1,705.6C568.3,705.6 572.5,701.4 572.5,696.2C572.5,691.1 568.3,686.8 563.1,686.8ZM608,733.5C608,733.3 576.1,536.5 570.2,508.9C567.1,494.6 562.3,483.1 554.2,474.8C546,466.4 534.6,462.6 522.3,462.7C509.5,462.6 498,467.4 490,475.9C482,484.4 477.1,495.7 474.3,508.9C468.9,534 436.5,733.3 436.5,733.4L434.7,744.3L609.8,744.3L608,733.5ZM456.9,725.6C457.7,720.5 458.9,713.7 460.2,705.7L511.3,705.7C516.5,705.7 520.7,701.5 520.7,696.3C520.7,691.1 516.5,686.9 511.3,686.9L463.3,686.9C465.9,671 468.9,652.5 472.1,633.7C480.9,580.8 490.3,524.5 492.8,513C495.2,501.9 499,493.9 503.7,489C508.4,484.2 513.7,481.8 522.3,481.7C531.3,481.8 536.4,483.9 540.8,488.3C545.2,492.7 549.1,500.6 551.8,513.1C554.6,525.9 564,582.2 572.7,634.7C578.9,672.4 584.8,708.3 587.6,725.7L456.9,725.7L456.9,725.6Z" style="fill:rgb(172,158,158);fill-rule:nonzero;"/>
        <path d="M461.5,409.3C461.5,399 465,389.7 470.8,382.2C474,378.1 473.3,372.2 469.2,369C465.1,365.8 459.2,366.5 456,370.6C447.7,381.2 442.7,394.7 442.7,409.3C442.7,424.4 448.1,438.3 456.9,449.1C458.8,451.4 461.5,452.5 464.2,452.5C466.3,452.5 468.4,451.8 470.2,450.4C474.2,447.1 474.8,441.2 471.5,437.1C465.2,429.6 461.5,419.9 461.5,409.3ZM424.5,408.1C424.5,394 429.3,381 437.4,370.7C440.6,366.6 439.9,360.7 435.8,357.5C431.7,354.3 425.8,355 422.6,359.1C412,372.6 405.7,389.7 405.7,408.1C405.7,427.2 412.5,444.9 423.7,458.6C425.6,460.9 428.3,462 431,462C433.1,462 435.2,461.3 437,459.9C441,456.6 441.6,450.7 438.3,446.6C429.7,436.1 424.5,422.8 424.5,408.1ZM390,408.2C390,385.1 397.8,364 411,347.1C414.2,343 413.5,337.1 409.4,333.9C405.3,330.7 399.4,331.4 396.2,335.5C380.5,355.5 371.2,380.8 371.2,408.2C371.2,436.6 381.3,462.7 398,483.1C399.9,485.4 402.6,486.5 405.3,486.5C407.4,486.5 409.5,485.8 411.3,484.4C415.3,481.1 415.9,475.2 412.6,471.1C398.4,454 390,432.1 390,408.2ZM573.5,369C569.4,372.2 568.7,378.1 571.9,382.2C577.7,389.7 581.2,399 581.2,409.3C581.2,419.9 577.5,429.6 571.2,437.2C567.9,441.2 568.5,447.2 572.5,450.5C574.3,451.9 576.4,452.6 578.5,452.6C581.2,452.6 583.9,451.4 585.8,449.2C594.7,438.4 600.1,424.4 600,409.4C600,394.8 595,381.3 586.7,370.7C583.5,366.5 577.6,365.8 573.5,369ZM620.1,359.1C616.9,355 611,354.3 606.9,357.5C602.8,360.7 602.1,366.6 605.3,370.7C613.4,381 618.2,393.9 618.2,408.1C618.2,422.8 613,436.1 604.4,446.6C601.1,450.6 601.7,456.6 605.7,459.9C607.5,461.3 609.6,462 611.7,462C614.4,462 617.1,460.8 619,458.6C630.3,444.9 637.1,427.3 637,408.1C637,389.7 630.7,372.6 620.1,359.1ZM646.5,335.5C643.3,331.4 637.4,330.7 633.3,333.9C629.2,337.1 628.5,343 631.7,347.1C644.9,364 652.7,385.1 652.7,408.2C652.7,432.1 644.3,454 630.2,471.1C626.9,475.1 627.5,481.1 631.5,484.4C633.3,485.8 635.4,486.5 637.5,486.5C640.2,486.5 642.9,485.3 644.8,483.1C661.5,462.7 671.6,436.6 671.6,408.2C671.5,380.8 662.2,355.6 646.5,335.5Z" style="fill:rgb(0,191,255);fill-rule:nonzero;"/>
    </g>
</svg>
