<?xml version="1.0" encoding="UTF-8" standalone="no"?>
<!DOCTYPE svg PUBLIC "-//W3C//DTD SVG 1.1//EN" "http://www.w3.org/Graphics/SVG/1.1/DTD/svg11.dtd">
<svg width="100%" height="100%" viewBox="0 0 412 413" version="1.1" xmlns="http://www.w3.org/2000/svg" xmlns:xlink="http://www.w3.org/1999/xlink" xml:space="preserve" xmlns:serif="http://www.serif.com/" style="fill-rule:evenodd;clip-rule:evenodd;stroke-linejoin:round;stroke-miterlimit:2;">
    <g transform="matrix(1,0,0,1,-2036.8,-1057.2)">
        <path d="M2119.1,1374.3C2113.9,1374.3 2109.7,1378.5 2109.7,1383.7L2109.7,1389.2C2109.7,1394.4 2113.9,1398.6 2119.1,1398.6C2124.3,1398.6 2128.5,1394.4 2128.5,1389.2L2128.5,1383.7C2128.5,1378.6 2124.3,1374.3 2119.1,1374.3ZM2119.1,1306.8C2113.9,1306.8 2109.7,1311 2109.7,1316.2L2109.7,1353.5C2109.7,1358.7 2113.9,1362.9 2119.1,1362.9C2124.3,1362.9 2128.5,1358.7 2128.5,1353.5L2128.5,1316.2C2128.5,1311 2124.3,1306.8 2119.1,1306.8Z" style="fill:rgb(0,191,255);fill-rule:nonzero;"/>
        <path d="M2420.3,1069.7L2278.9,1069.7L2278.9,1174.4L2420.3,1174.4L2420.3,1069.7ZM2280,1316.8L2280,1421.5L2421.4,1421.5L2421.4,1316.8L2280,1316.8ZM2076.8,1263.4L2164.8,1263.4L2164.8,1208.9L2076.8,1208.9L2076.8,1263.4ZM2077.9,1181.7L2165.9,1181.7L2165.9,1127.2L2077.9,1127.2L2077.9,1181.7Z" style="fill:rgb(0,191,255);fill-rule:nonzero;"/>
        <path d="M2172,1124.6L2067.5,1124.6L2067.5,1186.6L2172,1186.6L2172,1124.6ZM2153.1,1167.8L2086.3,1167.8L2086.3,1143.5L2153.1,1143.5L2153.1,1167.8ZM2172,1206.3L2067.5,1206.3L2067.5,1268.4L2172,1268.4L2172,1206.3ZM2153.1,1249.5L2086.3,1249.5L2086.3,1225.1L2153.1,1225.1L2153.1,1249.5ZM2431.7,1308.6L2268.3,1308.6L2268.3,1390.8L2241.1,1390.8L2241.1,1125.3L2268.3,1125.3L2268.3,1174.8L2251.3,1218L2448.6,1218L2431.7,1174.9L2431.7,1057.2L2268.3,1057.2L2268.3,1106.4L2222.2,1106.4L2222.2,1251L2203.3,1251L2203.3,1089.2L2036.8,1089.2L2036.8,1428.5L2203.3,1428.5L2203.3,1269.8L2222.2,1269.8L2222.2,1409.6L2268.3,1409.6L2268.3,1426.2L2251.3,1469.3L2448.6,1469.3L2431.7,1426.2L2431.7,1308.6ZM2287.2,1076.1L2412.9,1076.1L2412.9,1167.2L2287.2,1167.2L2287.2,1076.1ZM2284.2,1186.1L2415.9,1186.1L2421,1199.2L2279,1199.2L2284.2,1186.1ZM2184.5,1409.7L2055.7,1409.7L2055.7,1108.1L2184.5,1108.1L2184.5,1409.7ZM2287.2,1327.5L2412.9,1327.5L2412.9,1418.6L2287.2,1418.6L2287.2,1327.5ZM2279,1450.5L2284.2,1437.4L2415.8,1437.4L2420.9,1450.5L2279,1450.5Z" style="fill:rgb(172,158,158);fill-rule:nonzero;"/>
    </g>
</svg>
