<?xml version="1.0" encoding="utf-8"?>
<!-- Generator: Adobe Illustrator 22.0.1, SVG Export Plug-In . SVG Version: 6.00 Build 0)  -->
<svg version="1.1" id="Layer_1" xmlns="http://www.w3.org/2000/svg" xmlns:xlink="http://www.w3.org/1999/xlink" x="0px" y="0px"
	 viewBox="0 0 2800 1800" style="enable-background:new 0 0 2800 1800;" xml:space="preserve">
<style type="text/css">
	.st0{fill:#3CC3D9;}
	.st1{fill:#0E2C40;}
</style>
<g>
	<path class="st0" d="M2119.1,1374.3c-5.2,0-9.4,4.2-9.4,9.4v5.5c0,5.2,4.2,9.4,9.4,9.4c5.2,0,9.4-4.2,9.4-9.4v-5.5
		C2128.5,1378.6,2124.3,1374.3,2119.1,1374.3z M2119.1,1306.8c-5.2,0-9.4,4.2-9.4,9.4v37.3c0,5.2,4.2,9.4,9.4,9.4
		c5.2,0,9.4-4.2,9.4-9.4v-37.3C2128.5,1311,2124.3,1306.8,2119.1,1306.8z"/>
	<path class="st0" d="M2420.3,1069.7h-141.4v104.7h141.4V1069.7z M2280,1316.8v104.7h141.4v-104.7H2280z M2076.8,1263.4h88v-54.5
		h-88V1263.4z M2077.9,1181.7h88v-54.5h-88V1181.7z"/>
	<path class="st1" d="M2172,1124.6h-104.5v62H2172V1124.6z M2153.1,1167.8h-66.8v-24.3h66.8V1167.8z M2172,1206.3h-104.5v62.1H2172
		V1206.3z M2153.1,1249.5h-66.8v-24.4h66.8V1249.5z M2431.7,1308.6h-163.4v82.2h-27.2v-265.5h27.2v49.5l-17,43.2h197.3l-16.9-43.1
		v-117.7h-163.4v49.2h-46.1V1251h-18.9v-161.8h-166.5v339.3h166.5v-158.7h18.9v139.8h46.1v16.6l-17,43.1h197.3l-16.9-43.1V1308.6z
		 M2287.2,1076.1h125.7v91.1h-125.7V1076.1z M2284.2,1186.1h131.7l5.1,13.1H2279L2284.2,1186.1z M2184.5,1409.7h-128.8v-301.6h128.8
		V1409.7z M2287.2,1327.5h125.7v91.1h-125.7V1327.5z M2279,1450.5l5.2-13.1h131.6l5.1,13.1H2279z"/>
</g>
<g>
	<path class="st0" d="M1571.6,1320.2l20.4,49.5l36.9,16.5l62.8-55l-73.8-66L1571.6,1320.2z M1804.9,1184.3l-51.1-43.2l-64.4,54.2
		l65.2,74.6l51.8-53.4L1804.9,1184.3z"/>
	<path class="st0" d="M1682.3,1157.4c5.2,0,9.4-4.2,9.4-9.4c0-5.2-4.2-9.4-9.4-9.4c-72.9,0-132,59.1-132,132c0,5.2,4.2,9.4,9.4,9.4
		c5.2,0,9.4-4.2,9.4-9.4h0C1569.3,1208,1619.8,1157.5,1682.3,1157.4z M1804.8,1261.1c-5.2,0-9.4,4.2-9.4,9.4
		c-0.1,62.5-50.7,113-113.1,113.1c-5.2,0-9.4,4.2-9.4,9.4c0,5.2,4.2,9.4,9.4,9.4c72.9,0,132-59.1,132-132
		C1814.3,1265.3,1810.1,1261.1,1804.8,1261.1z"/>
	<path class="st1" d="M1614.9,1253.7l-44.3,49.5c-7.2,7.2-11.1,17.2-11.1,27.2c0,9.9,3.8,20,11.4,27.6l7.1,7.1l-37.9,38.3l32.5,32.5
		c1.6,1.6,2.4,3.7,2.4,5.9c0,2.2-0.8,4.2-2.4,5.9c-1.7,1.7-3.7,2.4-5.9,2.4c-2.2,0-4.2-0.8-5.9-2.4l-34.3-34.3
		c-3.7-3.7-9.7-3.7-13.3,0c-3.7,3.7-3.7,9.7,0,13.3l34.3,34.3c5.3,5.3,12.3,8,19.2,8h0c6.9,0,13.9-2.7,19.1-8c5.3-5.3,8-12.3,8-19.2
		c0-6.9-2.7-13.9-8-19.2l-19.2-19.3l24.6-24.9l5.7,5.7c7.6,7.6,17.6,11.4,27.6,11.4h0c9.9,0,19.9-3.8,27.5-11.4l56.5-50.6
		l-87.2-87.2L1614.9,1253.7z M1631.4,1282.9l-23.8,23.8c-3.7,3.7-3.7,9.6,0,13.3c1.8,1.8,4.3,2.8,6.7,2.8c2.4,0,4.8-0.9,6.7-2.8
		l23.8-23.8l13.3,13.3l-23.8,23.8c-3.7,3.7-3.7,9.7,0,13.3c1.8,1.8,4.3,2.7,6.7,2.7c2.4,0,4.8-0.9,6.7-2.7l23.8-23.8l9.9,9.9
		l-42,37.6c-4.3,4.3-9.4,6.2-14.6,6.2c-5.2,0-10.3-1.9-14.2-5.9l-26.1-26.1c-4-4-5.9-9-5.9-14.2c0-5.2,1.9-10.3,5.9-14.2l38-42.4
		L1631.4,1282.9z M1866.8,1106.4L1866.8,1106.4l-36.9-36.9c-5.3-5.3-12.3-8-19.2-7.9c-6.9,0-13.9,2.7-19.2,8
		c-5.3,5.3-8,12.3-7.9,19.2c0,6.9,2.7,13.9,8,19.2l19.2,19.2l-24.6,24.9l-5.7-5.7c-7.6-7.6-17.6-11.4-27.6-11.4
		c-9.9,0-20,3.8-27.6,11.4l-56.5,50.5l24.5,24.5l-21,21c-3.7,3.7-3.7,9.7,0,13.3c1.8,1.8,4.2,2.8,6.7,2.8c2.4,0,4.8-0.9,6.7-2.8
		l21-21l13.3,13.3l-21,21c-3.7,3.7-3.7,9.7,0,13.3c1.8,1.8,4.3,2.8,6.7,2.8c2.4,0,4.8-0.9,6.7-2.8l21-21l22.7,22.7l6.7-7.4
		l44.2-49.5c7.2-7.2,11.1-17.2,11.1-27.2c0-9.9-3.8-20-11.4-27.6l-7.1-7.1l37.9-38.3l-32.5-32.5c-1.7-1.7-2.4-3.7-2.4-5.9
		c0-2.2,0.8-4.2,2.4-5.9c1.7-1.7,3.7-2.4,5.9-2.4c2.2,0,4.2,0.8,5.9,2.4l36.9,36.9c3.7,3.7,9.6,3.7,13.3,0
		C1870.5,1116.1,1870.5,1110.1,1866.8,1106.4z M1793.1,1214.3l-38,42.4l-59-59l42-37.6c4.3-4.3,9.4-6.2,14.6-6.3
		c5.2,0,10.3,1.9,14.2,5.9l26.1,26.1c3.9,4,5.9,9.1,5.9,14.2C1799,1205.2,1797.1,1210.3,1793.1,1214.3z M1885.9,1125.5l-2.2-2.2
		c-3.7-3.7-9.6-3.7-13.3,0c-3.7,3.7-3.7,9.6,0,13.3l2.2,2.2c1.8,1.8,4.2,2.8,6.7,2.8c2.4,0,4.8-0.9,6.7-2.7
		C1889.6,1135.2,1889.6,1129.2,1885.9,1125.5z M1510.8,1397.5l-1.5-1.5c-3.7-3.7-9.7-3.7-13.3,0c-3.7,3.7-3.7,9.7,0,13.3l1.5,1.5
		c1.8,1.8,4.3,2.8,6.7,2.8c2.4,0,4.8-0.9,6.7-2.8C1514.5,1407.2,1514.5,1401.2,1510.8,1397.5z"/>
</g>
<g>
	<path class="st0" d="M887.3,1414.2h122.5v-92.2H887.3V1414.2z M1036,1171.2h122.5v-92.2H1036V1171.2z M1178.5,1322.1v92.2H1301
		v-92.2H1178.5z"/>
	<path class="st0" d="M967.3,1431.1h-35c-5.2,0-9.4,4.2-9.4,9.4c0,5.2,4.2,9.4,9.4,9.4h35c5.2,0,9.4-4.2,9.4-9.4
		C976.7,1435.3,972.5,1431.1,967.3,1431.1z M1256.4,1431.1h-35c-5.2,0-9.4,4.2-9.4,9.4c0,5.2,4.2,9.4,9.4,9.4h35
		c5.2,0,9.4-4.2,9.4-9.4C1265.8,1435.3,1261.6,1431.1,1256.4,1431.1z M1111.8,1186h-35c-5.2,0-9.4,4.2-9.4,9.4
		c0,5.2,4.2,9.4,9.4,9.4h35c5.2,0,9.4-4.2,9.4-9.4C1121.3,1190.2,1117,1186,1111.8,1186z"/>
	<path class="st1" d="M1167.6,1263.1v98.4h-39.1c-2.4-14.1-13-25.5-26.7-29.1v-100.8h64.9V1018h-143.7v213.6h59.9v100.8
		c-13.7,3.6-24.2,15-26.6,29.1h-34.1v-98.5H878.6v213.6h143.7v-96.3h35.8c5.1,14,18.6,24.1,34.4,24.1c15.8,0,29.3-10,34.4-24.1h40.8
		v96.4h143.7v-213.7H1167.6z M1041.9,1036.9h106v32.5h-106V1036.9z M1041.9,1088.3h106v70.9h-106V1088.3z M1041.9,1178h106v34.8
		h-106V1178z M1003.4,1457.9h-106v-34.8h106V1457.9z M1003.4,1404.2h-106v-70.9h106V1404.2z M1003.4,1314.5h-106V1282h106V1314.5z
		 M1110.2,1367.8c0,9.8-8,17.8-17.8,17.8c-9.8,0-17.8-8-17.8-17.8c0-9.8,8-17.8,17.8-17.8C1102.2,1350,1110.2,1358,1110.2,1367.8
		L1110.2,1367.8z M1292.4,1457.9h-106v-34.8h106V1457.9z M1292.4,1404.2h-106v-70.9h106V1404.2z M1292.4,1314.5h-106V1282h106
		V1314.5z"/>
</g>
<g>
	<path class="st0" d="M355,1422.8h-12.6c-5.2,0-9.4,4.2-9.4,9.4c0,5.2,4.2,9.4,9.4,9.4H355c5.2,0,9.4-4.2,9.4-9.4
		C364.4,1427,360.2,1422.8,355,1422.8z M695.9,1422.8h-12.6c-5.2,0-9.4,4.2-9.4,9.4c0,5.2,4.2,9.4,9.4,9.4h12.6
		c5.2,0,9.4-4.2,9.4-9.4C705.3,1427,701.1,1422.8,695.9,1422.8z"/>
	<path class="st0" d="M635.2,1189l-13.6-53.4l18.9-25.1l-27.2-20.9l-28.3,17.8l-46.1-20.9v-29.3h-36.7l-3.1,29.3l-44,23l-26.2-22
		l-25.1,26.2l19.9,22l-20.9,54.5h-30.4l1,35.6l31.4-1l18.9,54.5l-19.9,24.1l24.1,22l24.1-19.9l48.2,23l1,28.3h37.7l4.2-32.5
		l47.1-17.8l24.1,19.9l23-30.4l-16.8-24.1l17.8-47.1l33.5-3.1l1-30.4L635.2,1189z M522.6,1262.4c-30.9,0-56-25.1-56-56
		c0-30.9,25.1-56,56-56s56,25.1,56,56C578.6,1237.3,553.6,1262.4,522.6,1262.4z"/>
	<path class="st1" d="M520.7,1142.4c-36.4,0-66,29.5-66,66c0,36.4,29.5,66,66,66c36.4,0,66-29.5,66-66
		C586.7,1172,557.2,1142.4,520.7,1142.4z M520.7,1255.5c-26,0-47.1-21.1-47.1-47.1c0.1-26,21.1-47.1,47.1-47.1
		c26,0.1,47.1,21.1,47.1,47.1C567.8,1234.4,546.8,1255.5,520.7,1255.5z M680.7,1236.7v-56.6h-34.4c-3.3-14.6-9-28.3-16.8-40.5
		l24.3-24.3l-40-40l-24.3,24.3c-12.3-7.8-25.9-13.5-40.5-16.8v-34.4h-56.6v34.4c-14.6,3.3-28.3,9-40.5,16.8l-24.3-24.3l-40,40
		l24.3,24.3c-7.8,12.3-13.5,25.9-16.8,40.5h-34.4v56.6h34.4c3.3,14.6,9,28.3,16.8,40.5l-24.3,24.3l40,40l24.3-24.3
		c12.3,7.8,25.9,13.5,40.5,16.8v34.4h18.9v29.3h-15.7c-16.3,0-30,10.5-35,25.1h-73.4c-5.2,0-9.4,4.2-9.4,9.4c0,5.2,4.2,9.4,9.4,9.4
		h72.2c3.3,17,18.3,29.8,36.2,29.8h50.3c18,0,32.9-12.8,36.2-29.8h69c5.2,0,9.4-4.2,9.4-9.4c0-5.2-4.2-9.4-9.4-9.4h-70.3
		c-4.9-14.6-18.7-25.1-35-25.1h-15.7v-29.3H549v-34.4c14.6-3.3,28.3-9,40.5-16.8l24.3,24.3l40-40l-24.3-24.3
		c7.8-12.3,13.5-25.9,16.8-40.5H680.7z M545.9,1416.5c10,0,18,8.1,18.1,18.1c0,10-8.1,18.1-18.1,18.1h-50.3
		c-10,0-18.1-8.1-18.1-18.1c0-10,8.1-18,18.1-18.1H545.9z M629.2,1225.8c-2.8,17.4-9.6,33.4-19.5,47l-4.7,6.5l22.2,22.2l-13.3,13.3
		l-22.2-22.2l-6.5,4.7c-13.7,9.9-29.6,16.7-47,19.5l-7.9,1.3v31.4h-18.8v-31.4l-7.9-1.3c-17.4-2.8-33.4-9.6-47-19.5l-6.5-4.7
		l-22.2,22.2l-13.3-13.3l22.2-22.2l-4.7-6.5c-9.9-13.7-16.7-29.6-19.5-47l-1.3-7.9h-31.4V1199H411l1.3-7.9
		c2.8-17.4,9.6-33.4,19.5-47l4.7-6.5l-22.2-22.2l13.3-13.3l22.2,22.2l6.5-4.7c13.7-9.9,29.6-16.7,47-19.5l7.9-1.3v-31.4h18.8v31.4
		l7.9,1.3c17.4,2.8,33.4,9.6,47,19.5l6.5,4.7l22.2-22.2l13.3,13.3l-22.2,22.2l4.7,6.5c9.9,13.7,16.7,29.6,19.5,47l1.3,7.9h31.4v18.8
		h-31.4L629.2,1225.8z"/>
</g>
<g>
	<path class="st0" d="M2324.9,584.7c-5.2,0-9.4,4.2-9.4,9.4v47.1c0,5.2,4.2,9.4,9.4,9.4c5.2,0,9.4-4.2,9.4-9.4v-47.1
		C2334.3,589,2330.1,584.7,2324.9,584.7z M2368.9,584.7c-5.2,0-9.4,4.2-9.4,9.4v47.1c0,5.2,4.2,9.4,9.4,9.4c5.2,0,9.4-4.2,9.4-9.4
		v-47.1C2378.3,589,2374.1,584.7,2368.9,584.7z"/>
	<path class="st0" d="M2151.2,637.1c9.8,0,17.8-8,17.8-17.8c0-9.8-8-17.8-17.8-17.8c-9.8,0-17.8,8-17.8,17.8
		C2133.4,629.2,2141.3,637.1,2151.2,637.1z M2231.8,630.8c8.1,0,14.7-6.6,14.7-14.7c0-8.1-6.6-14.7-14.7-14.7
		c-8.1,0-14.7,6.6-14.7,14.7C2217.2,624.3,2223.7,630.8,2231.8,630.8z M2386.8,429.8c-13.9,0-25.1,11.3-25.1,25.1
		c0,13.9,11.3,25.1,25.1,25.1s25.1-11.3,25.1-25.1C2411.9,441,2400.7,429.8,2386.8,429.8z M2088.9,709.9h311v-37.7h-311V709.9z"/>
	<path class="st0" d="M2387,384.4c-18,0-34.2,7.8-45.4,20.1c-3.5,3.9-3.2,9.8,0.7,13.3c3.8,3.5,9.8,3.2,13.3-0.7h0
		c7.8-8.6,18.9-13.9,31.4-13.9c13.5,0,25.5,6.3,33.4,16.2c1.9,2.4,4.6,3.6,7.4,3.6c2,0,4.1-0.7,5.8-2c4.1-3.2,4.8-9.1,1.6-13.2
		C2423.9,393.6,2406.5,384.4,2387,384.4z M2465.2,392.6c-17.6-24-46.1-39.6-78.2-39.6c-28.9,0-54.9,12.6-72.6,32.7
		c-3.5,3.9-3.1,9.8,0.8,13.3c3.9,3.5,9.8,3.1,13.3-0.8c14.4-16.2,35.2-26.3,58.5-26.3c25.9,0,48.7,12.5,63,31.9
		c1.8,2.5,4.7,3.8,7.6,3.8c1.9,0,3.9-0.6,5.6-1.8C2467.4,402.7,2468.3,396.8,2465.2,392.6z"/>
	<path class="st1" d="M2396.4,555.9v-68.3c15.8-4.2,27.5-18.5,27.5-35.7c0-20.4-16.5-36.9-36.9-36.9c-20.4,0-36.9,16.5-36.9,36.9
		c0,17.1,11.7,31.5,27.5,35.7v67.2h-274.9c-34.7,0-62.8,28.1-62.8,62.8c0,26.4,16.3,48.9,39.3,58.2l0,38.1h326.8v-37
		c24.7-8.5,42.4-31.8,42.4-59.4C2448.2,586.8,2425.8,561.1,2396.4,555.9z M2368.9,452c0-10,8.1-18,18.1-18.1c10,0,18,8.1,18.1,18.1
		c0,10-8.1,18.1-18.1,18.1C2377,470,2368.9,462,2368.9,452z M2387,695.2h-289.1l0-14.9c1.6,0.1,3.1,0.2,4.7,0.2h282.8
		c0.5,0,1-0.1,1.6-0.1V695.2z M2385.4,661.7h-282.8c-24.3,0-43.9-19.7-44-44c0-24.3,19.7-44,44-44h282.8c24.3,0,43.9,19.7,44,44
		C2429.3,642,2409.7,661.7,2385.4,661.7z M2233.8,589.4c-16.1,0-29.1,13-29.1,29.1c0,16,13,29.1,29.1,29.1c16,0,29.1-13,29.1-29.1
		C2262.9,602.4,2249.8,589.4,2233.8,589.4z M2233.8,628.7c-5.7,0-10.2-4.6-10.2-10.2c0-5.6,4.6-10.2,10.2-10.2
		c5.6,0,10.2,4.6,10.2,10.2C2244,624.1,2239.4,628.7,2233.8,628.7z M2152.1,589.4c-16,0-29,13-29.1,29.1c0,16,13,29.1,29.1,29.1
		c16.1,0,29.1-13,29.1-29.1C2181.2,602.4,2168.2,589.5,2152.1,589.4z M2152.1,628.7c-5.6,0-10.2-4.6-10.2-10.2
		c0-5.6,4.6-10.2,10.2-10.2c5.6,0,10.2,4.6,10.2,10.2C2162.3,624.1,2157.7,628.7,2152.1,628.7z"/>
</g>
<g>
	<path class="st0" d="M1535.7,448.6l11.5,15.7l1,40.8l31.4,4.2l2.1-50.3l16.8-7.3l-29.3-35.6L1535.7,448.6z M1639.4,570.1l1-51.3
		l-34.6,4.2l1,49.2c-10.5,6.3,15.7,39.8,15.7,39.8l33.5-30.4L1639.4,570.1z"/>
	<path class="st1" d="M1817.6,688.6c0-21.3-17.2-38.5-38.5-38.5H1545c-21.3,0-38.5,17.2-38.5,38.5c0,21.3,17.2,38.5,38.5,38.5h234.1
		C1800.4,727,1817.6,709.8,1817.6,688.6L1817.6,688.6z M1798.7,688.6c0,10.8-8.8,19.6-19.6,19.6l-234.1,0
		c-10.9,0-19.6-8.8-19.6-19.6c0-10.8,8.8-19.6,19.6-19.6h234.1C1790,668.9,1798.7,677.7,1798.7,688.6L1798.7,688.6z M1506.6,603.7
		c0,21.3,17.2,38.5,38.5,38.5h234.1c21.3,0,38.5-17.2,38.5-38.5c0-21.3-17.2-38.5-38.5-38.5h-95.6l0-0.1h-33.1v-7.8l128.7,0
		c21.3,0,38.5-17.2,38.5-38.5s-17.2-38.5-38.5-38.5h-187.5v-15.7h33.1l-14.9-15.9l-18.9-20.1l-25.8-27.4l-25.8,27.4l-33.9,36h33.2
		V481c-18.2,3.1-32,18.8-32,37.9c0,21.3,17.2,38.5,38.5,38.5h52.4v7.8h-33.1l0,0.1H1545C1523.8,565.2,1506.6,582.5,1506.6,603.7z
		 M1639.9,584l-4,4.2l-12.1,12.8l-12.1-12.8l-4-4.2h8.4v-53.6h15.3V584H1639.9z M1665.8,584.1h113.3c10.8,0,19.6,8.8,19.6,19.6
		c0,10.8-8.8,19.6-19.6,19.6h-150.3l20.9-22.2L1665.8,584.1z M1553,441.6l12-12.8l12.1,12.8l4,4.2h-8.3v53.6h-15.3v-53.6h-8.4
		L1553,441.6z M1545,538.5c-10.8,0-19.6-8.8-19.6-19.6c0-8.6,5.5-15.8,13.2-18.5v17.9h53v-19.1h187.5c10.8,0,19.6,8.8,19.6,19.6
		c0,10.8-8.8,19.6-19.6,19.6h-128.7v-27h-53v27H1545z M1582.1,584.1l16.1,17.1l20.9,22.2h-74c-10.8,0-19.6-8.8-19.6-19.6
		c0-10.8,8.8-19.6,19.6-19.6H1582.1z"/>
	<path class="st0" d="M1702.2,672.1c-5.2,0-9.4,4.2-9.4,9.4v14.9c0,5.2,4.2,9.4,9.4,9.4c5.2,0,9.4-4.2,9.4-9.4v-14.9
		C1711.6,676.3,1707.3,672.1,1702.2,672.1z M1735.1,672.1c-5.2,0-9.4,4.2-9.4,9.4v14.9c0,5.2,4.2,9.4,9.4,9.4c5.2,0,9.4-4.2,9.4-9.4
		v-14.9C1744.5,676.3,1740.3,672.1,1735.1,672.1z M1768.1,672.1c-5.2,0-9.4,4.2-9.4,9.4v14.9c0,5.2,4.2,9.4,9.4,9.4
		c5.2,0,9.4-4.2,9.4-9.4v-14.9C1777.5,676.3,1773.3,672.1,1768.1,672.1z M1735.1,587.2c-5.2,0-9.4,4.2-9.4,9.4v14.9
		c0,5.2,4.2,9.4,9.4,9.4c5.2,0,9.4-4.2,9.4-9.4v-14.9C1744.5,591.4,1740.3,587.2,1735.1,587.2z M1768.1,587.2
		c-5.2,0-9.4,4.2-9.4,9.4v14.9c0,5.2,4.2,9.4,9.4,9.4c5.2,0,9.4-4.2,9.4-9.4v-14.9C1777.5,591.4,1773.3,587.2,1768.1,587.2z
		 M1702.2,587.2c-5.2,0-9.4,4.2-9.4,9.4v14.9c0,5.2,4.2,9.4,9.4,9.4c5.2,0,9.4-4.2,9.4-9.4v-14.9
		C1711.6,591.4,1707.3,587.2,1702.2,587.2z M1702.2,502.4c-5.2,0-9.4,4.2-9.4,9.4v14.9c0,5.2,4.2,9.4,9.4,9.4c5.2,0,9.4-4.2,9.4-9.4
		v-14.9C1711.6,506.6,1707.3,502.4,1702.2,502.4z M1735.1,502.4c-5.2,0-9.4,4.2-9.4,9.4v14.9c0,5.2,4.2,9.4,9.4,9.4
		c5.2,0,9.4-4.2,9.4-9.4v-14.9C1744.5,506.6,1740.3,502.4,1735.1,502.4z M1768.1,502.4c-5.2,0-9.4,4.2-9.4,9.4v14.9
		c0,5.2,4.2,9.4,9.4,9.4c5.2,0,9.4-4.2,9.4-9.4v-14.9C1777.5,506.6,1773.3,502.4,1768.1,502.4z M1565.1,323.3
		c-5.2,0-9.4,4.2-9.4,9.4v19.5c0,5.2,4.2,9.4,9.4,9.4c5.2,0,9.4-4.2,9.4-9.4v-19.5C1574.5,327.5,1570.3,323.3,1565.1,323.3z
		 M1565.1,365.8c-5.2,0-9.4,4.2-9.4,9.4v9.9c0,5.2,4.2,9.4,9.4,9.4c5.2,0,9.4-4.2,9.4-9.4v-9.9
		C1574.5,370.1,1570.3,365.8,1565.1,365.8z"/>
</g>
<g>
	<path class="st0" d="M905.1,578.5c0,0,0-44,15.7-64.9c15.7-20.9,26.2-28.3,26.2-28.3l47.1,25.1l-6.3,35.6c0,0,23-2.1,71.2,3.1
		c48.2,5.2,63.9-1,63.9-1l-4.2-31.4l-77.5,6.3l-40.8-14.7l23-50.3l45-25.1l52.4,74.4l48.2-28.3l42.9,81.7l-2.1,27.2l-58.6-1
		l-8.4,25.1l-20.9,11.5l-4.2,27.2l49.2,37.7l-34.6,29.3l-54.5,15.7l29.3-40.8l11.5-32.5l-47.1-10.5l-71.2,7.3l14.7,47.1l24.1,29.3
		l-59.7-12.6l-35.6-32.5l51.3-26.2l-3.1-40.8l116.2,2.1l47.1-18.9l-6.3-42.9l-18.9-11.5l-110-5.2l-41.9,8.4l-18.9,30.4l-16.8,4.2
		l-37.7,2.1"/>
	<path class="st0" d="M1232.3,468.6c-2.8-4.4-8.7-5.6-13-2.8c-4.4,2.8-5.6,8.7-2.8,13c1.7,2.7,3.4,5.4,5,8.2
		c1.7,3.1,4.9,4.8,8.2,4.8c1.6,0,3.1-0.4,4.6-1.2c4.5-2.5,6.2-8.3,3.6-12.8C1236.1,474.7,1234.2,471.7,1232.3,468.6z M1218,449.6
		c-9-10.4-19.2-19.7-30.4-27.8c-4.2-3-10.1-2.1-13.2,2.2c-3,4.2-2,10.1,2.2,13.1h0c10,7.1,19.1,15.5,27.1,24.7
		c1.9,2.2,4.5,3.3,7.1,3.3c2.2,0,4.4-0.8,6.2-2.3C1221,459.5,1221.4,453.5,1218,449.6z M1267.3,461.8c-2.3-4.7-8-6.5-12.7-4.2
		c-4.6,2.3-6.5,8-4.2,12.7v0c2.4,4.8,4.6,9.8,6.5,14.9c1.4,3.8,5,6.1,8.8,6.1c1.1,0,2.2-0.2,3.3-0.6c4.9-1.8,7.3-7.3,5.5-12.1
		C1272.5,472.8,1270,467.2,1267.3,461.8z M1253.1,438.4c-14.7-20.4-33.7-37.4-55.7-49.8c-4.5-2.5-10.3-0.9-12.8,3.6
		c-2.6,4.5-0.9,10.3,3.6,12.8c19.6,11,36.6,26.2,49.7,44.4c1.8,2.6,4.7,3.9,7.7,3.9c1.9,0,3.8-0.6,5.5-1.8
		C1255.2,448.5,1256.2,442.6,1253.1,438.4z M1312.4,480.3c-2.7-8.6-5.9-16.9-9.7-25c-2.2-4.7-7.8-6.8-12.5-4.6
		c-4.7,2.2-6.8,7.8-4.6,12.5c3.4,7.4,6.3,15,8.8,22.8c1.3,4,5,6.6,9,6.6c0.9,0,1.9-0.1,2.8-0.4
		C1311.2,490.5,1314,485.2,1312.4,480.3z M1287.6,427.7c-19.6-30.1-46.7-55-79-72.1c-4.6-2.4-10.3-0.7-12.7,3.9
		c-2.4,4.6-0.7,10.3,3.9,12.7c29.4,15.5,54.1,38.3,72,65.7c1.8,2.8,4.8,4.3,7.9,4.3c1.8,0,3.6-0.5,5.1-1.5
		C1289.2,437.9,1290.4,432.1,1287.6,427.7z"/>
	<path class="st1" d="M1056.4,420.5c-91.2,0-165.1,73.9-165.1,165.1c0,91.2,73.9,165,165.1,165.1c91.2,0,165.1-73.9,165.1-165.1h0
		C1221.5,494.4,1147.6,420.5,1056.4,420.5z M1154.9,477.6c-9.6,8.8-20.5,16.3-32.2,22.2c-4.2-13-9.4-24.8-15.5-34.8
		c-5.2-8.5-11.2-15.9-17.9-21.8C1114.2,448.9,1136.6,461,1154.9,477.6z M997.5,615.6c-15.8,0-28.6-12.8-28.6-28.6
		c0-15.8,12.8-28.6,28.6-28.6h118.4c15.8,0,28.6,12.8,28.6,28.6c0,15.8-12.8,28.6-28.6,28.6H997.5z M1112.4,634.4
		c-0.8,4.4-1.6,8.8-2.6,13c-16.7-5.7-34.7-8.8-53.3-8.8c-18.6,0-36.6,3.1-53.3,8.8c-1-4.2-1.9-8.5-2.6-13H1112.4z M1000,539.5
		c0.8-4.8,1.7-9.4,2.7-13.9c16.9,5.8,34.9,9,53.7,9h0c18.8,0,36.8-3.2,53.7-9c1,4.5,1.9,9.1,2.7,13.9H1000z M1056.4,448.4
		c11.2-0.2,23.7,8.4,34.6,26.4c5.4,8.9,10.3,19.9,14.3,32.5c-15.3,5.4-31.7,8.4-48.9,8.4c-17.2,0-33.6-3-48.9-8.4
		c3.9-12.5,8.7-23.4,14.1-32.3C1032.7,456.8,1045.2,448.2,1056.4,448.4z M1023.5,443.2c-6.7,5.9-12.8,13.4-18,22.1
		c-6,10-11.1,21.6-15.3,34.6c-11.7-6-22.6-13.5-32.2-22.2C976.2,461,998.7,448.9,1023.5,443.2z M944.9,491.2
		c11.9,10.9,25.4,20.1,40.1,27.2c-1.8,7.8-3.3,15.9-4.5,24.3c-15.3,5.9-26.8,19.5-29.7,36.1h-40.4C912,545.4,924.7,515,944.9,491.2z
		 M910.8,597.6h40.5c3.6,15.6,14.9,28.3,29.7,33.8c1.2,8,2.7,15.8,4.5,23.2c-14.5,6.9-27.8,15.9-39.6,26.5
		C926.2,658.3,913.4,629.4,910.8,597.6z M959.1,694.6c9.5-8.5,20.1-15.8,31.6-21.6c4.2,12.6,9.4,24.1,15.3,33.8
		c5.1,8.3,10.9,15.4,17.4,21.2C999.1,722.3,977.1,710.7,959.1,694.6z M1056.4,722.8c-11.1,0.1-23.4-8.2-34.3-25.9
		c-5.3-8.6-10.1-19.2-14-31.3c15.1-5.3,31.4-8.2,48.3-8.2c16.9,0,33.2,2.9,48.3,8.2c-4,12.2-8.8,22.9-14.2,31.5
		C1079.7,714.7,1067.5,722.9,1056.4,722.8z M1089.3,728c6.4-5.7,12.2-12.8,17.3-20.9c6.1-9.8,11.2-21.3,15.5-34.1
		c11.5,5.8,22.1,13.1,31.6,21.5C1135.7,710.7,1113.7,722.3,1089.3,728z M1167,681.1c-11.8-10.6-25.1-19.6-39.6-26.5
		c1.8-7.4,3.3-15,4.5-23c15.1-5.4,26.7-18.2,30.3-34h39.9C1199.4,629.4,1186.7,658.3,1167,681.1z M1162.6,578.7
		c-2.9-16.8-14.7-30.6-30.4-36.3c-1.2-8.3-2.7-16.4-4.5-24.1c14.7-7.1,28.2-16.2,40.1-27.1c20.2,23.8,32.9,54.2,34.5,87.5H1162.6z
		 M1114.1,574.5l-4,15.5l-5.2-15.5h-8.5l-5,15.5l-3.9-15.5h-18.1l-4,15.5l-5.2-15.5h-8.5l-5,15.5l-3.9-15.5h-18.1l-4,15.5l-5.2-15.5
		h-8.5l-5,15.5l-3.9-15.5h-9.1l9.1,24.6h8.4l4.8-14.8l5,14.8h8.4l9-24.6l9.1,24.6h8.4l4.8-14.8l5,14.8h8.4l9-24.6l9.1,24.6h8.4
		l4.8-14.8l5,14.8h8.4l9.1-24.6H1114.1z"/>
</g>
<g>
	<path class="st0" d="M522.6,442.9c16.5,0,29.8-13.4,29.8-29.8c0-16.5-13.4-29.8-29.8-29.8c-16.5,0-29.8,13.4-29.8,29.8
		C492.8,429.5,506.1,442.9,522.6,442.9z M557.2,496.3c-7.9-28.3-62.8-11-62.8-11c-8,25.2-31.1,146.8-43,210.5h142.4
		C583.5,635.9,563,517.2,557.2,496.3z"/>
	<path class="st1" d="M521.2,450.2c22.6,0,40.8-18.3,40.8-40.9c0-22.6-18.3-40.8-40.8-40.8c-22.6,0-40.8,18.3-40.9,40.8
		C480.4,431.9,498.6,450.1,521.2,450.2z M521.2,387.3c12.1,0,22,9.9,22,22c0,12.2-9.9,22-22,22c-12.1,0-22-9.9-22-22
		C499.2,397.2,509.1,387.3,521.2,387.3z M563.1,686.8h-13.3c-5.2,0-9.4,4.2-9.4,9.4c0,5.2,4.2,9.4,9.4,9.4h13.3
		c5.2,0,9.4-4.2,9.4-9.4C572.5,691.1,568.3,686.8,563.1,686.8z M608,733.5c0-0.2-31.9-197-37.8-224.6c-3.1-14.3-7.9-25.8-16-34.1
		c-8.2-8.4-19.6-12.2-31.9-12.1c-12.8-0.1-24.3,4.7-32.3,13.2c-8,8.5-12.9,19.8-15.7,33c-5.4,25.1-37.8,224.4-37.8,224.5l-1.8,10.9
		h175.1L608,733.5z M456.9,725.6c0.8-5.1,2-11.9,3.3-19.9h51.1c5.2,0,9.4-4.2,9.4-9.4c0-5.2-4.2-9.4-9.4-9.4h-48
		c2.6-15.9,5.6-34.4,8.8-53.2c8.8-52.9,18.2-109.2,20.7-120.7c2.4-11.1,6.2-19.1,10.9-24c4.7-4.8,10-7.2,18.6-7.3
		c9,0.1,14.1,2.2,18.5,6.6c4.4,4.4,8.3,12.3,11,24.8c2.8,12.8,12.2,69.1,20.9,121.6c6.2,37.7,12.1,73.6,14.9,91H456.9z"/>
	<path class="st0" d="M461.5,409.3c0-10.3,3.5-19.6,9.3-27.1c3.2-4.1,2.5-10-1.6-13.2c-4.1-3.2-10-2.5-13.2,1.6
		c-8.3,10.6-13.3,24.1-13.3,38.7c0,15.1,5.4,29,14.2,39.8c1.9,2.3,4.6,3.4,7.3,3.4c2.1,0,4.2-0.7,6-2.1c4-3.3,4.6-9.2,1.3-13.3
		C465.2,429.6,461.5,419.9,461.5,409.3z M424.5,408.1c0-14.1,4.8-27.1,12.9-37.4c3.2-4.1,2.5-10-1.6-13.2c-4.1-3.2-10-2.5-13.2,1.6
		c-10.6,13.5-16.9,30.6-16.9,49c0,19.1,6.8,36.8,18,50.5c1.9,2.3,4.6,3.4,7.3,3.4c2.1,0,4.2-0.7,6-2.1c4-3.3,4.6-9.2,1.3-13.3
		C429.7,436.1,424.5,422.8,424.5,408.1z M390,408.2c0-23.1,7.8-44.2,21-61.1c3.2-4.1,2.5-10-1.6-13.2c-4.1-3.2-10-2.5-13.2,1.6
		c-15.7,20-25,45.3-25,72.7c0,28.4,10.1,54.5,26.8,74.9c1.9,2.3,4.6,3.4,7.3,3.4c2.1,0,4.2-0.7,6-2.1c4-3.3,4.6-9.2,1.3-13.3
		C398.4,454,390,432.1,390,408.2z M573.5,369c-4.1,3.2-4.8,9.1-1.6,13.2c5.8,7.5,9.3,16.8,9.3,27.1c0,10.6-3.7,20.3-10,27.9
		c-3.3,4-2.7,10,1.3,13.3c1.8,1.4,3.9,2.1,6,2.1c2.7,0,5.4-1.2,7.3-3.4c8.9-10.8,14.3-24.8,14.2-39.8c0-14.6-5-28.1-13.3-38.7
		C583.5,366.5,577.6,365.8,573.5,369z M620.1,359.1c-3.2-4.1-9.1-4.8-13.2-1.6c-4.1,3.2-4.8,9.1-1.6,13.2
		c8.1,10.3,12.9,23.2,12.9,37.4c0,14.7-5.2,28-13.8,38.5c-3.3,4-2.7,10,1.3,13.3c1.8,1.4,3.9,2.1,6,2.1c2.7,0,5.4-1.2,7.3-3.4v0
		c11.3-13.7,18.1-31.3,18-50.5C637,389.7,630.7,372.6,620.1,359.1z M646.5,335.5c-3.2-4.1-9.1-4.8-13.2-1.6
		c-4.1,3.2-4.8,9.1-1.6,13.2c13.2,16.9,21,38,21,61.1c0,23.9-8.4,45.8-22.5,62.9c-3.3,4-2.7,10,1.3,13.3c1.8,1.4,3.9,2.1,6,2.1
		c2.7,0,5.4-1.2,7.3-3.4v0c16.7-20.4,26.8-46.5,26.8-74.9C671.5,380.8,662.2,355.6,646.5,335.5z"/>
</g>
</svg>
