<?xml version="1.0" encoding="UTF-8" standalone="no"?>
<!DOCTYPE svg PUBLIC "-//W3C//DTD SVG 1.1//EN" "http://www.w3.org/Graphics/SVG/1.1/DTD/svg11.dtd">
<svg width="100%" height="100%" viewBox="0 0 422 397" version="1.1" xmlns="http://www.w3.org/2000/svg" xmlns:xlink="http://www.w3.org/1999/xlink" xml:space="preserve" xmlns:serif="http://www.serif.com/" style="fill-rule:evenodd;clip-rule:evenodd;stroke-linejoin:round;stroke-miterlimit:2;">
    <g transform="matrix(1,0,0,1,-891.3,-354.514)">
        <path d="M905.1,578.5C905.1,578.5 905.1,534.5 920.8,513.6C936.5,492.7 947,485.3 947,485.3L994.1,510.4L987.8,546C987.8,546 1010.8,543.9 1059,549.1C1107.2,554.3 1122.9,548.1 1122.9,548.1L1118.7,516.7L1041.2,523L1000.4,508.3L1023.4,458L1068.4,432.9L1120.8,507.3L1169,479L1211.9,560.7L1209.8,587.9L1151.2,586.9L1142.8,612L1121.9,623.5L1117.7,650.7L1166.9,688.4L1132.3,717.7L1077.8,733.4L1107.1,692.6L1118.6,660.1L1071.5,649.6L1000.3,656.9L1015,704L1039.1,733.3L979.4,720.7L943.8,688.2L995.1,662L992,621.2L1108.2,623.3L1155.3,604.4L1149,561.5L1130.1,550L1020.1,544.8L978.2,553.2L959.3,583.6L942.5,587.8L904.8,589.9" style="fill:rgb(0,191,255);fill-rule:nonzero;"/>
        <path d="M1232.3,468.6C1229.5,464.2 1223.6,463 1219.3,465.8C1214.9,468.6 1213.7,474.5 1216.5,478.8C1218.2,481.5 1219.9,484.2 1221.5,487C1223.2,490.1 1226.4,491.8 1229.7,491.8C1231.3,491.8 1232.8,491.4 1234.3,490.6C1238.8,488.1 1240.5,482.3 1237.9,477.8C1236.1,474.7 1234.2,471.7 1232.3,468.6ZM1218,449.6C1209,439.2 1198.8,429.9 1187.6,421.8C1183.4,418.8 1177.5,419.7 1174.4,424C1171.4,428.2 1172.4,434.1 1176.6,437.1C1186.6,444.2 1195.7,452.6 1203.7,461.8C1205.6,464 1208.2,465.1 1210.8,465.1C1213,465.1 1215.2,464.3 1217,462.8C1221,459.5 1221.4,453.5 1218,449.6ZM1267.3,461.8C1265,457.1 1259.3,455.3 1254.6,457.6C1250,459.9 1248.1,465.6 1250.4,470.3C1252.8,475.1 1255,480.1 1256.9,485.2C1258.3,489 1261.9,491.3 1265.7,491.3C1266.8,491.3 1267.9,491.1 1269,490.7C1273.9,488.9 1276.3,483.4 1274.5,478.6C1272.5,472.8 1270,467.2 1267.3,461.8ZM1253.1,438.4C1238.4,418 1219.4,401 1197.4,388.6C1192.9,386.1 1187.1,387.7 1184.6,392.2C1182,396.7 1183.7,402.5 1188.2,405C1207.8,416 1224.8,431.2 1237.9,449.4C1239.7,452 1242.6,453.3 1245.6,453.3C1247.5,453.3 1249.4,452.7 1251.1,451.5C1255.2,448.5 1256.2,442.6 1253.1,438.4ZM1312.4,480.3C1309.7,471.7 1306.5,463.4 1302.7,455.3C1300.5,450.6 1294.9,448.5 1290.2,450.7C1285.5,452.9 1283.4,458.5 1285.6,463.2C1289,470.6 1291.9,478.2 1294.4,486C1295.7,490 1299.4,492.6 1303.4,492.6C1304.3,492.6 1305.3,492.5 1306.2,492.2C1311.2,490.5 1314,485.2 1312.4,480.3ZM1287.6,427.7C1268,397.6 1240.9,372.7 1208.6,355.6C1204,353.2 1198.3,354.9 1195.9,359.5C1193.5,364.1 1195.2,369.8 1199.8,372.2C1229.2,387.7 1253.9,410.5 1271.8,437.9C1273.6,440.7 1276.6,442.2 1279.7,442.2C1281.5,442.2 1283.3,441.7 1284.8,440.7C1289.2,437.9 1290.4,432.1 1287.6,427.7Z" style="fill:rgb(0,191,255);fill-rule:nonzero;"/>
        <path d="M1056.4,420.5C965.2,420.5 891.3,494.4 891.3,585.6C891.3,676.8 965.2,750.6 1056.4,750.7C1147.6,750.7 1221.5,676.8 1221.5,585.6C1221.5,494.4 1147.6,420.5 1056.4,420.5ZM1154.9,477.6C1145.3,486.4 1134.4,493.9 1122.7,499.8C1118.5,486.8 1113.3,475 1107.2,465C1102,456.5 1096,449.1 1089.3,443.2C1114.2,448.9 1136.6,461 1154.9,477.6ZM997.5,615.6C981.7,615.6 968.9,602.8 968.9,587C968.9,571.2 981.7,558.4 997.5,558.4L1115.9,558.4C1131.7,558.4 1144.5,571.2 1144.5,587C1144.5,602.8 1131.7,615.6 1115.9,615.6L997.5,615.6ZM1112.4,634.4C1111.6,638.8 1110.8,643.2 1109.8,647.4C1093.1,641.7 1075.1,638.6 1056.5,638.6C1037.9,638.6 1019.9,641.7 1003.2,647.4C1002.2,643.2 1001.3,638.9 1000.6,634.4L1112.4,634.4ZM1000,539.5C1000.8,534.7 1001.7,530.1 1002.7,525.6C1019.6,531.4 1037.6,534.6 1056.4,534.6C1075.2,534.6 1093.2,531.4 1110.1,525.6C1111.1,530.1 1112,534.7 1112.8,539.5L1000,539.5ZM1056.4,448.4C1067.6,448.2 1080.1,456.8 1091,474.8C1096.4,483.7 1101.3,494.7 1105.3,507.3C1090,512.7 1073.6,515.7 1056.4,515.7C1039.2,515.7 1022.8,512.7 1007.5,507.3C1011.4,494.8 1016.2,483.9 1021.6,475C1032.7,456.8 1045.2,448.2 1056.4,448.4ZM1023.5,443.2C1016.8,449.1 1010.7,456.6 1005.5,465.3C999.5,475.3 994.4,486.9 990.2,499.9C978.5,493.9 967.6,486.4 958,477.7C976.2,461 998.7,448.9 1023.5,443.2ZM944.9,491.2C956.8,502.1 970.3,511.3 985,518.4C983.2,526.2 981.7,534.3 980.5,542.7C965.2,548.6 953.7,562.2 950.8,578.8L910.4,578.8C912,545.4 924.7,515 944.9,491.2ZM910.8,597.6L951.3,597.6C954.9,613.2 966.2,625.9 981,631.4C982.2,639.4 983.7,647.2 985.5,654.6C971,661.5 957.7,670.5 945.9,681.1C926.2,658.3 913.4,629.4 910.8,597.6ZM959.1,694.6C968.6,686.1 979.2,678.8 990.7,673C994.9,685.6 1000.1,697.1 1006,706.8C1011.1,715.1 1016.9,722.2 1023.4,728C999.1,722.3 977.1,710.7 959.1,694.6ZM1056.4,722.8C1045.3,722.9 1033,714.6 1022.1,696.9C1016.8,688.3 1012,677.7 1008.1,665.6C1023.2,660.3 1039.5,657.4 1056.4,657.4C1073.3,657.4 1089.6,660.3 1104.7,665.6C1100.7,677.8 1095.9,688.5 1090.5,697.1C1079.7,714.7 1067.5,722.9 1056.4,722.8ZM1089.3,728C1095.7,722.3 1101.5,715.2 1106.6,707.1C1112.7,697.3 1117.8,685.8 1122.1,673C1133.6,678.8 1144.2,686.1 1153.7,694.5C1135.7,710.7 1113.7,722.3 1089.3,728ZM1167,681.1C1155.2,670.5 1141.9,661.5 1127.4,654.6C1129.2,647.2 1130.7,639.6 1131.9,631.6C1147,626.2 1158.6,613.4 1162.2,597.6L1202.1,597.6C1199.4,629.4 1186.7,658.3 1167,681.1ZM1162.6,578.7C1159.7,561.9 1147.9,548.1 1132.2,542.4C1131,534.1 1129.5,526 1127.7,518.3C1142.4,511.2 1155.9,502.1 1167.8,491.2C1188,515 1200.7,545.4 1202.3,578.7L1162.6,578.7ZM1114.1,574.5L1110.1,590L1104.9,574.5L1096.4,574.5L1091.4,590L1087.5,574.5L1069.4,574.5L1065.4,590L1060.2,574.5L1051.7,574.5L1046.7,590L1042.8,574.5L1024.7,574.5L1020.7,590L1015.5,574.5L1007,574.5L1002,590L998.1,574.5L989,574.5L998.1,599.1L1006.5,599.1L1011.3,584.3L1016.3,599.1L1024.7,599.1L1033.7,574.5L1042.8,599.1L1051.2,599.1L1056,584.3L1061,599.1L1069.4,599.1L1078.4,574.5L1087.5,599.1L1095.9,599.1L1100.7,584.3L1105.7,599.1L1114.1,599.1L1123.2,574.5L1114.1,574.5Z" style="fill:rgb(172,158,158);fill-rule:nonzero;"/>
    </g>
</svg>
