<?xml version="1.0" encoding="UTF-8" standalone="no"?>
<!DOCTYPE svg PUBLIC "-//W3C//DTD SVG 1.1//EN" "http://www.w3.org/Graphics/SVG/1.1/DTD/svg11.dtd">
<svg width="100%" height="100%" viewBox="0 0 301 413" version="1.1" xmlns="http://www.w3.org/2000/svg" xmlns:xlink="http://www.w3.org/1999/xlink" xml:space="preserve" xmlns:serif="http://www.serif.com/" style="fill-rule:evenodd;clip-rule:evenodd;stroke-linejoin:round;stroke-miterlimit:2;">
    <g transform="matrix(1,0,0,1,-371.2,-331.895)">
        <path d="M522.6,442.9C539.1,442.9 552.4,429.5 552.4,413.1C552.4,396.6 539,383.3 522.6,383.3C506.1,383.3 492.8,396.7 492.8,413.1C492.8,429.5 506.1,442.9 522.6,442.9ZM557.2,496.3C549.3,468 494.4,485.3 494.4,485.3C486.4,510.5 463.3,632.1 451.4,695.8L593.8,695.8C583.5,635.9 563,517.2 557.2,496.3Z" style="fill:rgb(0,191,255);fill-rule:nonzero;"/>
        <path d="M521.2,450.2C543.8,450.2 562,431.9 562,409.3C562,386.7 543.7,368.5 521.2,368.5C498.6,368.5 480.4,386.8 480.3,409.3C480.4,431.9 498.6,450.1 521.2,450.2ZM521.2,387.3C533.3,387.3 543.2,397.2 543.2,409.3C543.2,421.5 533.3,431.3 521.2,431.3C509.1,431.3 499.2,421.4 499.2,409.3C499.2,397.2 509.1,387.3 521.2,387.3ZM563.1,686.8L549.8,686.8C544.6,686.8 540.4,691 540.4,696.2C540.4,701.4 544.6,705.6 549.8,705.6L563.1,705.6C568.3,705.6 572.5,701.4 572.5,696.2C572.5,691.1 568.3,686.8 563.1,686.8ZM608,733.5C608,733.3 576.1,536.5 570.2,508.9C567.1,494.6 562.3,483.1 554.2,474.8C546,466.4 534.6,462.6 522.3,462.7C509.5,462.6 498,467.4 490,475.9C482,484.4 477.1,495.7 474.3,508.9C468.9,534 436.5,733.3 436.5,733.4L434.7,744.3L609.8,744.3L608,733.5ZM456.9,725.6C457.7,720.5 458.9,713.7 460.2,705.7L511.3,705.7C516.5,705.7 520.7,701.5 520.7,696.3C520.7,691.1 516.5,686.9 511.3,686.9L463.3,686.9C465.9,671 468.9,652.5 472.1,633.7C480.9,580.8 490.3,524.5 492.8,513C495.2,501.9 499,493.9 503.7,489C508.4,484.2 513.7,481.8 522.3,481.7C531.3,481.8 536.4,483.9 540.8,488.3C545.2,492.7 549.1,500.6 551.8,513.1C554.6,525.9 564,582.2 572.7,634.7C578.9,672.4 584.8,708.3 587.6,725.7L456.9,725.7L456.9,725.6Z" style="fill:rgb(172,158,158);fill-rule:nonzero;"/>
        <path d="M461.5,409.3C461.5,399 465,389.7 470.8,382.2C474,378.1 473.3,372.2 469.2,369C465.1,365.8 459.2,366.5 456,370.6C447.7,381.2 442.7,394.7 442.7,409.3C442.7,424.4 448.1,438.3 456.9,449.1C458.8,451.4 461.5,452.5 464.2,452.5C466.3,452.5 468.4,451.8 470.2,450.4C474.2,447.1 474.8,441.2 471.5,437.1C465.2,429.6 461.5,419.9 461.5,409.3ZM424.5,408.1C424.5,394 429.3,381 437.4,370.7C440.6,366.6 439.9,360.7 435.8,357.5C431.7,354.3 425.8,355 422.6,359.1C412,372.6 405.7,389.7 405.7,408.1C405.7,427.2 412.5,444.9 423.7,458.6C425.6,460.9 428.3,462 431,462C433.1,462 435.2,461.3 437,459.9C441,456.6 441.6,450.7 438.3,446.6C429.7,436.1 424.5,422.8 424.5,408.1ZM390,408.2C390,385.1 397.8,364 411,347.1C414.2,343 413.5,337.1 409.4,333.9C405.3,330.7 399.4,331.4 396.2,335.5C380.5,355.5 371.2,380.8 371.2,408.2C371.2,436.6 381.3,462.7 398,483.1C399.9,485.4 402.6,486.5 405.3,486.5C407.4,486.5 409.5,485.8 411.3,484.4C415.3,481.1 415.9,475.2 412.6,471.1C398.4,454 390,432.1 390,408.2ZM573.5,369C569.4,372.2 568.7,378.1 571.9,382.2C577.7,389.7 581.2,399 581.2,409.3C581.2,419.9 577.5,429.6 571.2,437.2C567.9,441.2 568.5,447.2 572.5,450.5C574.3,451.9 576.4,452.6 578.5,452.6C581.2,452.6 583.9,451.4 585.8,449.2C594.7,438.4 600.1,424.4 600,409.4C600,394.8 595,381.3 586.7,370.7C583.5,366.5 577.6,365.8 573.5,369ZM620.1,359.1C616.9,355 611,354.3 606.9,357.5C602.8,360.7 602.1,366.6 605.3,370.7C613.4,381 618.2,393.9 618.2,408.1C618.2,422.8 613,436.1 604.4,446.6C601.1,450.6 601.7,456.6 605.7,459.9C607.5,461.3 609.6,462 611.7,462C614.4,462 617.1,460.8 619,458.6C630.3,444.9 637.1,427.3 637,408.1C637,389.7 630.7,372.6 620.1,359.1ZM646.5,335.5C643.3,331.4 637.4,330.7 633.3,333.9C629.2,337.1 628.5,343 631.7,347.1C644.9,364 652.7,385.1 652.7,408.2C652.7,432.1 644.3,454 630.2,471.1C626.9,475.1 627.5,481.1 631.5,484.4C633.3,485.8 635.4,486.5 637.5,486.5C640.2,486.5 642.9,485.3 644.8,483.1C661.5,462.7 671.6,436.6 671.6,408.2C671.5,380.8 662.2,355.6 646.5,335.5Z" style="fill:rgb(0,191,255);fill-rule:nonzero;"/>
    </g>
</svg>
