<?xml version="1.0" encoding="UTF-8" standalone="no"?>
<!DOCTYPE svg PUBLIC "-//W3C//DTD SVG 1.1//EN" "http://www.w3.org/Graphics/SVG/1.1/DTD/svg11.dtd">
<svg width="100%" height="100%" viewBox="0 0 180 130" version="1.1" xmlns="http://www.w3.org/2000/svg" xmlns:xlink="http://www.w3.org/1999/xlink" xml:space="preserve" xmlns:serif="http://www.serif.com/" style="fill-rule:evenodd;clip-rule:evenodd;stroke-linejoin:round;stroke-miterlimit:2;">
    <g transform="matrix(0.539071,0,0,0.539071,51.0399,54.0256)">
        <g transform="matrix(0.80029,0,0,0.819652,12.1949,-1.03186)">
            <path d="M51.862,152.24C49.956,153.331 51.635,130.315 49.041,121.097C47.288,114.863 48.761,106.29 44.22,102.277C39.679,98.263 27.787,98.988 21.794,97.015C17.03,95.448 10.533,94.913 8.262,90.442C5.598,85.2 5.148,71.02 5.813,65.561C6.223,62.197 11.103,60.88 12.253,57.691C13.64,53.844 13.275,46.176 14.138,42.475C14.722,39.969 16.167,37.222 17.427,35.489C18.497,34.016 20.452,33.111 21.694,32.079C22.777,31.178 24.504,27.936 24.875,29.295C25.521,31.659 24.475,44.234 25.568,46.264C26.66,48.293 30.286,41.818 31.428,41.472C32.35,41.193 32.78,43.296 32.417,44.189C31.95,45.341 29.96,47.055 28.624,48.385C26.932,50.07 23.356,52.887 22.266,54.297C21.746,54.971 22.049,55.995 22.087,56.845C22.24,60.297 21.06,71.814 23.187,75.008C25.314,78.201 31.224,77.451 34.849,76.008C38.686,74.481 41.357,67.351 46.209,65.843C51.713,64.132 62.845,66.827 67.872,65.742C71.338,64.994 75.538,62.582 76.366,59.336C77.195,56.09 73.428,50.741 72.844,46.267C72.22,41.478 71.671,34.748 72.62,30.597C73.436,27.032 76.15,23.712 78.542,21.36C80.855,19.084 83.845,16.848 86.969,16.483C90.092,16.119 94.912,17.977 97.282,19.172C99.051,20.064 100.161,21.957 101.188,23.651C102.345,25.558 103.803,28.116 104.223,30.612C104.686,33.362 104.173,37.452 103.967,40.155C103.796,42.398 103.731,44.914 102.986,46.832C102.268,48.683 100.279,49.96 99.499,51.663C98.734,53.336 98.227,55.214 98.31,57.052C98.398,59.018 99.102,61.862 100.031,63.461C100.868,64.902 102.221,66.534 103.884,66.645C108.591,66.958 124.031,66.595 129.723,69.404C132.075,70.564 133.658,73.395 135.068,75.179C136.273,76.704 136.58,79.007 138.18,80.109C139.784,81.214 142.454,81.972 144.69,81.805C147.132,81.622 150.862,80.571 152.83,79.016C154.792,77.465 155.574,74.503 156.499,72.472C157.32,70.667 158.391,68.811 158.379,66.828C158.365,64.736 156.707,61.966 156.419,59.921C156.17,58.149 156.375,56.254 156.654,54.558C156.925,52.906 159.155,51.038 158.091,49.745C151.105,41.259 114.561,4.023 114.738,3.641C116.328,0.218 153.928,36 159.834,47.913C160.964,50.193 165.543,47.847 167.409,48.86C169.249,49.859 170.308,52.268 171.032,53.992C171.711,55.61 172.019,57.471 171.752,59.205C171.465,61.062 169.9,63.693 169.314,65.135C168.947,66.039 168.045,66.9 168.236,67.857C168.508,69.209 170.638,71.263 170.943,73.252C171.303,75.597 171.048,79.104 170.395,81.927C169.603,85.354 167.943,91.082 166.188,93.815C164.79,95.994 162.288,97.412 159.866,98.326C156.781,99.49 151.776,100.171 147.679,100.801C142.753,101.558 133.916,98.284 130.314,102.867C124.168,110.688 127.769,147.772 125.864,151.93C122.837,158.539 58.92,148.199 51.862,152.24Z" style="fill:rgb(204,195,195);"/>
        </g>
        <g transform="matrix(1,0,0,1,0.275471,0)">
            <path d="M139.07,40.073L103.125,1.558C102.725,0.025 103.877,-0.238 106.091,0.367L142.988,38.978C140.396,38.975 139.168,39.363 139.07,40.073Z" style="fill:rgb(131,196,248);"/>
        </g>
    </g>
    <g transform="matrix(0.48278,0,0,0.48278,-13.127,28.4916)">
        <path d="M108.991,57.65L123.152,43.525C109.46,34.19 97.559,30.398 87.043,31.798C75.543,33.633 66.702,38.287 59.859,45.059C52.807,52.245 48.83,59.117 47.856,65.682C50.202,64.5 52.612,63.349 55.249,62.313C57.068,61.114 60.662,60.69 65.39,60.071L73.075,60.887C74.783,58.459 77.671,56.149 82.285,54.011C86.498,52.569 90.919,51.959 95.569,52.261C100.21,53.182 104.932,54.839 108.991,57.65Z" style="fill:rgb(227,76,53);fill-opacity:0.11;"/>
        <path d="M92.843,106.324L92.383,126.75L121.393,126.907C125.559,126.873 129.357,125.918 132.651,123.704C137.651,121.256 141.956,117.953 145.36,113.036C148.111,110.335 149.924,105.386 151.577,98.06C152.752,92.062 151.972,86.392 149.685,80.975C148.485,77.708 146.164,74.268 143.075,70.711L136.971,65.654C136.58,62.654 135.315,59.192 133.326,55.346C131.435,53.168 129.635,50.533 127.889,47.628L123.237,43.325L108.961,57.728L114.414,64.487L117.287,70.378L118.334,76.092L118.219,80.037L125.22,82.295C127.378,83.898 129.028,86.092 130.315,88.712C131.128,91.81 131.448,95.014 130.224,98.548C128.978,100.685 127.732,102.266 126.485,103.386C124.943,105.254 122.802,106.023 120.387,106.292L92.843,106.324Z" style="fill:rgb(88,143,250);fill-opacity:0.15;"/>
        <path d="M46.757,120.157L61.723,105.191C63.196,106.223 64.379,106.601 65.271,106.326L74.585,106.172L92.687,106.28L92.432,126.766L63.861,126.603C60.63,126.889 58.241,126.229 56.174,125.207C54.553,125.161 52.76,124.338 50.849,122.984C49.26,122.791 47.91,121.803 46.757,120.157Z" style="fill:rgb(88,169,95);fill-opacity:0.13;"/>
        <path d="M46.569,120.285L61.445,105.328C56.815,103.087 54.074,100.196 54.095,96.357C52.773,91.545 53.757,87.788 57.086,85.011C58.627,82.738 61.233,81.303 64.808,80.629C67.568,80.74 69.921,81.169 72.535,81.863C74.114,83.226 76.382,85.19 78.397,87.716L93.335,72.953L82.268,63.729C77.65,61.708 73.032,60.586 68.414,59.873C60.877,60.063 55.053,61.966 49.842,64.483C43.731,67.852 40.037,72.167 37.27,76.846C35.005,81.165 33.394,85.708 33.377,90.398C32.807,95.439 33.084,99.973 34.694,103.706C36.295,109.012 37.922,113.789 39.959,114.88C41.472,118.08 43.839,119.065 46.569,120.285Z" style="fill:rgb(246,196,0);fill-opacity:0.15;"/>
    </g>
    <g transform="matrix(0.4864,0,0,0.4864,96.0986,19.3958)">
        <path d="M72.203,52.334C67.073,50.749 62.102,50.357 57.263,50.952C52.871,52.337 49.09,54.426 46.588,57.992C43.062,61.994 41.59,66.5 42.373,71.559C34.967,71.74 30.164,73.334 27.845,76.277C23.96,78.763 21.278,82.643 20.154,88.326C18.926,94.114 20.386,99.505 24.074,104.566C26.694,108.836 31.015,111.649 37.705,112.431L147.038,112.517C154.475,111.383 160.011,108.1 163.483,102.486C166.296,98.72 167.989,93.865 167.921,87.297C167.414,81.172 165.727,76.204 162.649,72.6C159.515,69.359 155.438,66.748 150.561,64.67C150.444,59.794 149.205,55.922 146.327,53.517C144.352,50.787 140.976,48.79 135.949,47.658C132.718,47.801 129.664,48.566 126.723,49.726C123.739,43.49 119.5,38.787 113.9,35.748C107.062,33.159 100.044,32.566 92.916,33.175C87.871,34.643 83.28,36.792 79.688,40.441C76.474,43.046 73.956,46.967 72.203,52.334Z" style="fill:rgb(67,196,247);fill-opacity:0.12;"/>
        <g transform="matrix(1.20465,0,0,1.20465,36.821,39.2065)">
            <path d="M27.286,19.503L44.636,16.929L44.904,34.327L27.147,34.196L27.286,19.503Z" style="fill:white;"/>
            <path d="M68.6,34.323L69.001,13.855L45.917,16.833L46.021,34.266L68.6,34.323Z" style="fill:white;"/>
            <path d="M27.454,35.324L44.667,35.635L44.686,52.342L27.664,49.411L27.454,35.324Z" style="fill:white;"/>
            <path d="M68.58,55.31L68.673,35.461L45.717,35.416L45.742,52.78L68.58,55.31Z" style="fill:white;"/>
        </g>
    </g>
    <g transform="matrix(0.459213,0,0,0.459213,42.7216,-0.541464)">
        <path d="M27.27,46.686C28.719,37.658 32.936,29.268 40.054,21.547C44.53,16.933 50.459,12.62 59.151,8.878C68.022,6.086 77.628,5.322 88.308,7.526C94.974,9.115 101.776,12.323 108.733,17.375L116.821,25.988C122.945,25.096 129.182,25.108 135.597,26.542C142.446,28.755 148.476,32.307 153.726,37.136C161.515,45.427 165.548,55.442 165.738,67.221C165.015,74.037 163.438,80.168 160.441,85.161C157.471,90.502 153.184,95.426 147.095,99.782C142.254,103.43 136.255,105.34 129.67,106.371L36.855,106.297C31.524,106.278 26.166,105.03 20.769,101.916C14.648,97.869 10.336,91.227 7.559,82.384C6.216,76.382 6.942,69.742 9.642,62.578C11.293,58.54 14.252,54.793 18.518,51.336L27.27,46.686ZM37.245,55.038C38.649,41.431 42.696,34.004 47.725,28.872C56.026,21.536 64.671,17.732 73.011,16.476C82.404,16.141 90.823,18.431 98.386,23.028C104.023,27.079 108.852,32.155 112.309,38.967C116.199,36.841 120.838,35.559 127.054,36.049C135.937,37.157 143.125,40.666 148.335,46.981C154.414,56.153 156.073,64.486 154.5,72.205C152.941,78.844 149.548,84.057 145.132,88.476C140.496,92.606 135.132,94.879 129.188,95.666L35.671,96.049C29.671,95.412 24.811,92.75 21.427,87.462C17.743,83.456 17.21,77.383 18.178,70.325C19.046,65.62 21.449,61.716 25.659,58.755C29.521,56.909 33.383,55.721 37.245,55.038Z" style="fill:rgb(226,232,240);"/>
        <g transform="matrix(1.64868,0,0,1.64868,-53.1181,-60.0489)">
            <path d="M53.49,72.313L54.743,74.112C56.549,76.498 59.989,78.819 65.402,81.061C69.953,83.359 74.715,85.094 80.138,85.065C84.49,85.697 88.081,85.797 90.979,85.412C95.755,85.033 99.822,84.123 102.853,82.436C106.564,81.092 110.077,79.354 113.351,77.138L111.78,75.617C109.604,76.909 106.645,78.201 103.597,79.092C99.85,80.188 95.963,80.481 91.159,80.809C86.999,81.591 82.393,81.714 77.361,80.462C72.519,80.078 67.945,78.424 63.539,76.587C59.9,75.644 56.689,73.989 53.49,72.313Z" style="fill:rgb(248,164,0);fill-opacity:0.2;"/>
            <path d="M106.823,73.926L112.234,73.575C114.194,73.326 115.292,73.681 115.799,74.45C116.157,76.879 115.402,79.706 113.725,82.863C115.783,81.882 117.218,80.278 117.968,77.99C118.691,75.97 118.959,73.949 118.811,71.929C116.422,71.286 113.96,71.079 111.425,71.308C108.944,72.101 107.56,72.987 106.823,73.926Z" style="fill:rgb(248,164,0);fill-opacity:0.18;"/>
        </g>
    </g>
</svg>
