<?xml version="1.0" encoding="utf-8"?>
<!-- Generator: Adobe Illustrator 26.0.3, SVG Export Plug-In . SVG Version: 6.00 Build 0)  -->
<svg version="1.1" id="Layer_1" xmlns="http://www.w3.org/2000/svg" xmlns:xlink="http://www.w3.org/1999/xlink" x="0px" y="0px"
	 viewBox="0 0 390.84 194.07" style="enable-background:new 0 0 390.84 194.07;" xml:space="preserve">
<style type="text/css">
	.st0{fill:#6DBCF4;}
</style>
<path class="st0" d="M137.85,191.22c-32.15,0-100.66,0-106.7,0c-9.75,0-18.03-6.74-17.99-15.77c0.03-7.57,8.2-15.05,17.93-15.05
	c36.33-0.01,64.67-0.02,101,0.02c5.05,0.01,9.96-0.72,14.7-2.33c8.38-2.84,12.92-9.24,13.32-18.45
	c0.55-12.43-2.83-19.02-11.62-23.06c-5.7-2.62-11.68-3.79-17.89-3.81c-24.83-0.08-49.67,0.06-74.5-0.16
	C30.61,112.39,8.11,95.06,1.97,71.8c-8.4-31.85,10.86-60.2,43.02-67.48c6.98-1.58,14.09-2.16,21.28-2.14
	c34.5,0.1,58.65,0.02,93.15,0.07c7.65,0.01,15.21,7.71,15.29,14.55c0.11,10.88-7.67,16.93-15.35,16.95
	c-2.3,0.01-62.56,0.02-95.23,0.07c-6.36,0.01-12.63,0.55-18.57,3.05c-9.28,3.9-14.85,11.93-14.34,20.67
	c0.63,10.83,7.09,19.38,17.02,22.06c4.96,1.34,10.04,2.14,15.25,2.13c24.5-0.04,49.01-0.48,73.49,0.23
	c18.51,0.54,34.23,8.03,45.35,23.3c13.66,18.76,13.65,50.98-5.66,70.3c-10.95,10.95-27.27,14.32-28.72,14.62
	C143.87,191.03,140.56,191.22,137.85,191.22z"/>
<path class="st0" d="M356.01,113.15c-16.09,0-31.79,0-47.49,0c-5.13,0-10.26,0.1-15.38-0.03c-8.55-0.22-15.65-7.33-15.81-15.65
	c-0.16-8.64,6.27-15.75,15.08-16.1c27.48-1.07,54.98-1.1,82.46,0c10.16,0.41,16.47,7.78,15.95,18
	c-1.35,26.33-10.7,49.31-30.04,67.66c-18.11,17.18-39.63,26.02-64.96,26.98c-47.82,1.81-89.68-33.79-98.33-80.37
	C188.24,63.86,223.19,11.6,273.26,2.08c35.57-6.76,66.09,2.98,91.29,28.92c6.77,6.97,7.08,17.15,0.87,23.31
	c-6.73,6.69-16.45,6.49-23.65-0.89c-18.22-18.68-40.08-25.12-65.36-18.96c-25.64,6.25-45.08,30.11-47.58,56.38
	c-3.18,33.5,19.53,62.52,50.22,69.68c32.73,7.64,67.72-12.75,76.81-45.12C355.99,114.95,355.93,114.43,356.01,113.15z"/>
</svg>
