<?xml version="1.0" encoding="UTF-8" standalone="no"?>
<!DOCTYPE svg PUBLIC "-//W3C//DTD SVG 1.1//EN" "http://www.w3.org/Graphics/SVG/1.1/DTD/svg11.dtd">
<svg width="100%" height="100%" viewBox="0 0 32 32" version="1.1" xmlns="http://www.w3.org/2000/svg" xmlns:xlink="http://www.w3.org/1999/xlink" xml:space="preserve" xmlns:serif="http://www.serif.com/" style="fill-rule:evenodd;clip-rule:evenodd;stroke-linecap:round;stroke-linejoin:round;stroke-miterlimit:1.5;">
    <g transform="matrix(0.564931,0,0,0.876443,12.6476,2.96051)">
        <path d="M26.606,10.043C24.702,7.536 21.209,6.167 17.956,6.277C12.677,6.707 8.908,10.644 8.992,16.791C9.396,22.403 12.57,25.629 18.996,25.802C25.533,25.259 27.955,21.904 28.379,16.43L18.662,16.185" style="fill:none;stroke:rgb(109,188,244);stroke-width:5.43px;"/>
    </g>
    <g transform="matrix(0.462478,0,0,0.84662,0.635652,3.03832)">
        <path d="M26.247,6.656C21.774,6.554 16.932,6.317 10.661,6.76C7.471,6.995 3.482,8.638 3.137,11.654C3.144,14.265 7.065,15.815 10.738,16.468C13.949,16.735 17.201,16.921 20.725,16.773C23.877,17.21 27.04,18.024 27.019,20.948C27.92,24.001 25.013,26.107 21.02,26.439L5.056,26.167" style="fill:none;stroke:rgb(109,188,244);stroke-width:5.86px;"/>
    </g>
</svg>
